<?xml version="1.0" encoding="UTF-8" standalone="no"?>
<!-- Created with Inkscape (http://www.inkscape.org/) -->

<svg
   xmlns:dc="http://purl.org/dc/elements/1.1/"
   xmlns:cc="http://creativecommons.org/ns#"
   xmlns:rdf="http://www.w3.org/1999/02/22-rdf-syntax-ns#"
   xmlns:svg="http://www.w3.org/2000/svg"
   xmlns="http://www.w3.org/2000/svg"
   xmlns:sodipodi="http://sodipodi.sourceforge.net/DTD/sodipodi-0.dtd"
   xmlns:inkscape="http://www.inkscape.org/namespaces/inkscape"
   width="137.21465"
   height="16.446131"
   id="svg3060"
   version="1.1"
   inkscape:version="0.48.0 r9654"
   sodipodi:docname="New document 5">
  <defs
     id="defs3062">
    <clipPath
       clipPathUnits="userSpaceOnUse"
       id="clipPath18">
      <path
         inkscape:connector-curvature="0"
         d="M 0,566.93 0,0 l 2834.65,0 0,566.93 -2834.65,0 z"
         id="path20" />
    </clipPath>
  </defs>
  <sodipodi:namedview
     id="base"
     pagecolor="#ffffff"
     bordercolor="#666666"
     borderopacity="1.0"
     inkscape:pageopacity="0.0"
     inkscape:pageshadow="2"
     inkscape:zoom="0.35"
     inkscape:cx="-7.8212474"
     inkscape:cy="-14.634075"
     inkscape:document-units="px"
     inkscape:current-layer="layer1"
     showgrid="false"
     fit-margin-top="0"
     fit-margin-left="0"
     fit-margin-right="0"
     fit-margin-bottom="0"
     inkscape:window-width="517"
     inkscape:window-height="449"
     inkscape:window-x="0"
     inkscape:window-y="25"
     inkscape:window-maximized="0" />
  <metadata
     id="metadata3065">
    <rdf:RDF>
      <cc:Work
         rdf:about="">
        <dc:format>image/svg+xml</dc:format>
        <dc:type
           rdf:resource="http://purl.org/dc/dcmitype/StillImage" />
        <dc:title></dc:title>
      </cc:Work>
    </rdf:RDF>
  </metadata>
  <g
     inkscape:label="Layer 1"
     inkscape:groupmode="layer"
     id="layer1"
     transform="translate(-382.82125,-501.28197)">
    <g
       id="g12"
       transform="matrix(0.0570869,0,0,-0.0570869,370.51788,523.06662)"
       style="fill:#ff0000">
      <g
         id="g14"
         style="fill:#ff0000">
        <g
           id="g16"
           clip-path="url(#clipPath18)"
           style="fill:#ff0000">
          <path
             inkscape:connector-curvature="0"
             d="m 373.809,239.145 c 0,50.652 -31.657,82.308 -69.649,82.308 -28.492,0 -41.156,-15.828 -41.156,-15.828 l -3.164,0 0,72.816 -3.164,3.164 -37.992,0 -3.164,-3.164 0,-215.281 3.164,-3.164 34.824,0 3.168,3.164 3.164,9.5 3.164,0 c 0,0 12.664,-15.828 41.156,-15.828 37.992,0 69.649,31.656 69.649,82.313 z m -44.321,0 c 0,-25.329 -9.496,-44.325 -34.824,-44.325 -25.328,0 -34.824,18.996 -34.824,44.325 0,25.324 9.496,44.32 34.824,44.32 25.328,0 34.824,-18.996 34.824,-44.32 z m 204.512,0 c 0,44.32 -25.324,82.308 -75.98,82.308 -50.653,0 -75.981,-37.988 -75.981,-82.308 0,-44.325 25.328,-82.313 79.149,-82.313 47.488,0 63.316,28.492 66.48,47.484 l -3.164,3.168 -37.992,0 -3.164,-3.168 c -3.168,-6.328 -12.664,-9.496 -22.16,-9.496 -25.329,0 -31.661,18.996 -31.661,25.328 l 3.168,3.164 98.141,0 3.164,3.168 0,12.665 z m -50.652,15.828 -50.653,0 -3.168,3.164 c 0,3.168 3.168,25.328 28.493,25.328 25.328,0 28.492,-22.16 28.492,-25.328 l -3.164,-3.164 z m 62.047,60.148 0,-94.973 c 0,-37.992 22.16,-63.316 60.152,-63.316 28.492,0 37.988,15.828 37.988,15.828 l 3.168,0 3.164,-9.5 3.168,-3.164 34.824,0 3.164,3.164 0,151.961 -3.164,3.168 -37.992,0 -3.164,-3.168 0,-82.309 c 0,-22.164 -9.5,-37.992 -31.66,-37.992 -18.992,0 -25.324,12.664 -25.324,28.492 l 0,91.809 -3.168,3.168 -37.989,0 -3.167,-3.168 z m 273.75,-31.656 0,31.656 -3.168,3.168 -18.993,0 c -28.496,0 -34.824,-12.664 -34.824,-12.664 l -3.168,0 -3.164,9.496 -3.168,3.168 -34.824,0 -3.164,-3.168 0,-151.961 3.164,-3.164 37.992,0 3.164,3.164 0,75.985 c 0,28.492 9.496,41.156 34.824,41.156 l 22.161,0 3.168,3.164 z m 142.332,-75.981 c 0,37.989 -34.825,44.321 -53.821,47.489 -18.996,3.164 -37.988,3.164 -37.988,15.828 0,9.5 6.332,12.664 22.16,12.664 15.828,0 22.16,-3.164 22.16,-9.496 l 3.168,-3.168 37.989,0 3.167,3.168 c 0,31.656 -28.496,47.484 -66.484,47.484 -47.488,0 -66.484,-22.16 -66.484,-47.484 0,-37.992 41.156,-47.489 60.152,-50.657 18.996,-3.164 31.66,-3.164 31.66,-15.828 0,-9.496 -9.5,-12.664 -25.328,-12.664 -15.828,0 -25.328,3.168 -25.328,15.828 l -3.164,3.168 -37.992,0 -3.164,-3.168 c 0,-31.656 25.328,-53.816 69.648,-53.816 50.652,0 69.649,25.324 69.649,50.652 z m 147.533,0 c 0,37.989 -34.83,44.321 -53.82,47.489 -19,3.164 -37.99,3.164 -37.99,15.828 0,9.5 6.33,12.664 22.16,12.664 15.83,0 22.16,-3.164 22.16,-9.496 l 3.16,-3.168 37.99,0 3.17,3.168 c 0,31.656 -28.49,47.484 -66.48,47.484 -47.493,0 -66.485,-22.16 -66.485,-47.484 0,-37.992 41.155,-47.489 60.145,-50.657 19,-3.164 31.66,-3.164 31.66,-15.828 0,-9.496 -9.49,-12.664 -25.32,-12.664 -15.83,0 -25.33,3.168 -25.33,15.828 l -3.17,3.168 -37.985,0 -3.168,-3.168 c 0,-31.656 25.328,-53.816 69.653,-53.816 50.65,0 69.65,25.324 69.65,50.652 z m 52.55,31.661 c 0,28.492 12.66,44.32 34.82,44.32 15.83,0 25.33,-6.332 28.5,-15.828 l 3.16,-3.168 37.99,0 3.17,3.168 c -6.33,37.988 -37.99,53.816 -72.82,53.816 -47.49,0 -79.14,-31.656 -79.14,-82.308 0,-50.657 31.65,-82.313 79.14,-82.313 34.83,0 66.49,15.828 72.82,53.816 l -3.17,3.168 -37.99,0 -3.16,-3.168 c -3.17,-9.496 -12.67,-15.828 -28.5,-15.828 -22.16,0 -34.82,15.828 -34.82,44.325 z m 270.99,-75.985 0,94.977 c 0,37.992 -22.16,63.316 -60.15,63.316 -22.16,0 -34.82,-9.496 -41.15,-15.828 l -3.17,0 0,72.816 -3.17,3.164 -37.99,0 -3.16,-3.164 0,-215.281 3.16,-3.164 37.99,0 3.17,3.164 0,79.149 c 0,28.492 12.66,41.156 34.82,41.156 19,0 25.33,-12.664 25.33,-28.492 l 0,-91.813 3.17,-3.164 37.99,0 3.16,3.164 z m 169.69,75.985 c 0,50.652 -31.66,82.308 -79.15,82.308 -47.48,0 -79.14,-31.656 -79.14,-82.308 0,-50.657 31.66,-82.313 79.14,-82.313 47.49,0 79.15,31.656 79.15,82.313 z m -44.32,0 c 0,-28.497 -12.66,-44.325 -34.83,-44.325 -22.16,0 -34.82,15.828 -34.82,44.325 0,28.492 12.66,44.32 34.82,44.32 22.17,0 34.83,-15.828 34.83,-44.32 z m 57.11,75.976 0,-94.973 c 0,-37.992 22.16,-63.316 60.15,-63.316 28.49,0 37.99,15.828 37.99,15.828 l 3.17,0 3.16,-9.5 3.17,-3.164 34.82,0 3.17,3.164 0,151.961 -3.17,3.168 -37.99,0 -3.16,-3.168 0,-82.309 c 0,-22.164 -9.5,-37.992 -31.66,-37.992 -19,0 -25.33,12.664 -25.33,28.492 l 0,91.809 -3.16,3.168 -37.99,0 -3.17,-3.168 z m 385.69,-31.656 0,31.656 -3.16,3.168 -28.5,0 -3.16,-3.168 -25.33,-88.641 -3.16,0 -25.33,88.641 -3.17,3.168 -41.15,0 -3.17,-3.168 -25.33,-88.641 -3.16,0 -25.33,88.641 -3.16,3.168 -28.5,0 -3.16,-3.168 0,-31.656 37.99,-120.305 3.16,-3.164 41.16,0 3.17,3.164 25.32,94.977 3.17,0 25.32,-94.977 3.17,-3.164 41.16,0 3.16,3.164 37.99,120.305 z m 173.9,-44.32 c 0,50.652 -31.66,82.308 -69.65,82.308 -28.49,0 -41.15,-15.828 -41.15,-15.828 l -3.17,0 0,72.816 -3.17,3.164 -37.99,0 -3.16,-3.164 0,-215.281 3.16,-3.164 34.83,0 3.16,3.164 3.17,9.5 3.17,0 c 0,0 12.66,-15.828 41.15,-15.828 37.99,0 69.65,31.656 69.65,82.313 z m -44.32,0 c 0,-25.329 -9.5,-44.325 -34.83,-44.325 -25.32,0 -34.82,18.996 -34.82,44.325 0,25.324 9.5,44.32 34.82,44.32 25.33,0 34.83,-18.996 34.83,-44.32 z m 55.72,75.976 0,-94.973 c 0,-37.992 22.16,-63.316 60.15,-63.316 28.49,0 37.99,15.828 37.99,15.828 l 3.16,0 3.17,-9.5 3.16,-3.164 34.83,0 3.17,3.164 0,151.961 -3.17,3.168 -37.99,0 -3.17,-3.168 0,-82.309 c 0,-22.164 -9.49,-37.992 -31.66,-37.992 -18.99,0 -25.32,12.664 -25.32,28.492 l 0,91.809 -3.17,3.168 -37.99,0 -3.16,-3.168 z m 273.74,-31.656 0,31.656 -3.16,3.168 -19,0 c -28.49,0 -34.82,-12.664 -34.82,-12.664 l -3.17,0 -3.16,9.496 -3.17,3.168 -34.82,0 -3.17,-3.168 0,-151.961 3.17,-3.164 37.99,0 3.16,3.164 0,75.985 c 0,28.492 9.5,41.156 34.83,41.156 l 22.16,0 3.16,3.164 z m 159.37,31.656 -3.17,3.168 -34.82,0 -3.17,-3.168 -3.16,-9.496 -3.17,0 c 0,0 -12.66,15.828 -41.15,15.828 -37.99,0 -69.65,-31.656 -69.65,-82.308 0,-50.657 31.66,-82.313 69.65,-82.313 28.49,0 41.15,15.828 41.15,15.828 l 3.17,0 c 0,-28.492 -12.67,-41.156 -34.83,-41.156 -12.66,0 -18.99,3.168 -22.16,9.496 l -3.16,3.168 -37.99,0 -3.17,-3.168 c 3.17,-28.492 28.49,-47.4844 66.48,-47.4844 44.33,0 79.15,25.3244 79.15,82.3084 l 0,139.297 z m -113.97,-75.976 c 0,25.324 9.5,44.32 34.82,44.32 25.33,0 34.83,-18.996 34.83,-44.32 0,-25.329 -9.5,-44.325 -34.83,-44.325 -25.32,0 -34.82,18.996 -34.82,44.325"
             style="fill:#ff0000;fill-opacity:1;fill-rule:nonzero;stroke:none"
             id="path22" />
        </g>
      </g>
    </g>
  </g>
</svg>
