<?xml version="1.0" encoding="UTF-8" standalone="no"?>
<!-- Created with Inkscape (http://www.inkscape.org/) -->

<svg
   xmlns:dc="http://purl.org/dc/elements/1.1/"
   xmlns:cc="http://creativecommons.org/ns#"
   xmlns:rdf="http://www.w3.org/1999/02/22-rdf-syntax-ns#"
   xmlns:svg="http://www.w3.org/2000/svg"
   xmlns="http://www.w3.org/2000/svg"
   xmlns:sodipodi="http://sodipodi.sourceforge.net/DTD/sodipodi-0.dtd"
   xmlns:inkscape="http://www.inkscape.org/namespaces/inkscape"
   width="136.62975"
   height="48.712547"
   id="svg3001"
   version="1.1"
   inkscape:version="0.48.0 r9654"
   sodipodi:docname="New document 2">
  <defs
     id="defs3003" />
  <sodipodi:namedview
     id="base"
     pagecolor="#ffffff"
     bordercolor="#666666"
     borderopacity="1.0"
     inkscape:pageopacity="0.0"
     inkscape:pageshadow="2"
     inkscape:zoom="0.35"
     inkscape:cx="-2.3994103"
     inkscape:cy="78.641985"
     inkscape:document-units="px"
     inkscape:current-layer="layer1"
     showgrid="false"
     fit-margin-top="0"
     fit-margin-left="0"
     fit-margin-right="0"
     fit-margin-bottom="0"
     inkscape:window-width="517"
     inkscape:window-height="449"
     inkscape:window-x="0"
     inkscape:window-y="25"
     inkscape:window-maximized="0" />
  <metadata
     id="metadata3006">
    <rdf:RDF>
      <cc:Work
         rdf:about="">
        <dc:format>image/svg+xml</dc:format>
        <dc:type
           rdf:resource="http://purl.org/dc/dcmitype/StillImage" />
        <dc:title></dc:title>
      </cc:Work>
    </rdf:RDF>
  </metadata>
  <g
     inkscape:label="Layer 1"
     inkscape:groupmode="layer"
     id="layer1"
     transform="translate(-377.39941,-562.29162)">
    <path
       style="fill:#ff0000"
       d="m 423.1107,610.95898 c -0.22076,-0.0423 -0.7172,-0.33978 -0.86787,-0.52136 -0.13229,-0.15939 -0.20768,-0.62995 -0.14253,-0.88947 l 0.051,-0.20349 0.38875,0 0.38875,0 -0.008,0.28107 c -0.006,0.20403 0.0493,0.3382 0.20179,0.4907 0.16172,0.16161 0.31038,0.21794 0.64919,0.24618 0.24169,0.0203 0.5704,0.0117 0.73048,-0.0184 0.37909,-0.0718 0.67188,-0.38726 0.67188,-0.72556 0,-0.19254 -0.0635,-0.31347 -0.24498,-0.46625 -0.20629,-0.17347 -0.32351,-0.20605 -0.74185,-0.20605 -0.62091,0 -1.3854,-0.13519 -1.62102,-0.28668 -0.1342,-0.0864 -0.17917,-0.19114 -0.17917,-0.4179 0,-0.32212 0.15335,-0.51409 0.58182,-0.72833 l 0.22349,-0.11176 -0.27603,-0.14153 c -0.34489,-0.17699 -0.58134,-0.47278 -0.70323,-0.87955 -0.0728,-0.24278 -0.0726,-0.39573 5.6e-4,-0.66999 0.13189,-0.49319 0.29815,-0.71885 0.70523,-0.95739 0.46199,-0.27077 1.18506,-0.33372 1.7952,-0.15637 0.56213,0.16336 0.87943,0.16336 1.19577,0 l 0.25032,-0.12954 0.22963,0.25706 0.22964,0.25704 -0.1739,0.12175 c -0.0956,0.0663 -0.33271,0.12603 -0.52682,0.13124 l -0.35294,0.009 0.0623,0.19907 c 0.0342,0.10954 0.0626,0.42048 0.0629,0.69106 4.8e-4,0.37336 -0.0391,0.545 -0.16366,0.71177 -0.2706,0.36213 -0.54174,0.51711 -1.11536,0.6373 -0.54052,0.11332 -0.9939,0.31732 -1.04193,0.46891 -0.0137,0.0433 0.009,0.13234 0.05,0.19768 0.056,0.0884 0.29348,0.12928 0.93435,0.16059 0.96945,0.0479 1.28726,0.16694 1.53941,0.58054 0.18866,0.30939 0.20911,0.99632 0.0394,1.32431 -0.16132,0.31198 -0.54851,0.62075 -0.90116,0.71876 -0.2899,0.0801 -1.5411,0.097 -1.9217,0.0259 z m 1.22357,-4.1159 c 0.14836,-0.0616 0.30845,-0.18508 0.35578,-0.27334 0.0473,-0.0884 0.086,-0.34401 0.086,-0.56793 0,-0.32586 -0.0389,-0.44588 -0.19546,-0.60232 -0.15887,-0.15895 -0.27529,-0.19557 -0.62202,-0.19557 -0.31622,0 -0.4707,0.0414 -0.59717,0.15902 -0.22064,0.2056 -0.30201,0.65278 -0.18799,1.03332 0.0641,0.21416 0.16482,0.33786 0.34872,0.42851 0.32087,0.1582 0.46946,0.16151 0.8121,0.0194 z m -44.711,2.51171 c -0.76986,-0.16171 -1.52335,-0.77674 -1.84888,-1.50904 -0.20663,-0.46493 -0.37125,-1.21166 -0.37492,-1.7009 -0.004,-0.4991 0.19358,-1.40956 0.40121,-1.8513 0.25376,-0.53986 0.74158,-1.04466 1.25117,-1.29479 0.39672,-0.19464 0.5468,-0.22317 1.17167,-0.22253 0.61521,6.4e-4 0.76656,0.0286 1.06914,0.19898 0.19386,0.10903 0.36389,0.23403 0.37781,0.27784 0.014,0.0441 -0.0588,0.18489 -0.16169,0.31336 l -0.18704,0.23385 -0.40461,-0.17413 c -0.22254,-0.0957 -0.55923,-0.17301 -0.7482,-0.17172 -0.45884,0 -0.98389,0.28309 -1.26549,0.67505 -0.35556,0.49484 -0.49707,1.19225 -0.45213,2.2277 0.0278,0.64017 0.0812,0.97423 0.19728,1.2357 0.22474,0.50598 0.61725,0.85938 1.11542,1.00406 0.34016,0.0989 0.50066,0.10514 0.84717,0.0331 0.23512,-0.0488 0.49492,-0.1398 0.57732,-0.20219 0.0824,-0.0616 0.18688,-0.11461 0.23219,-0.11591 0.11808,-0.009 0.37727,0.46309 0.3282,0.59103 -0.0611,0.15911 -0.83857,0.42536 -1.37515,0.47101 -0.25782,0.0221 -0.59551,0.013 -0.75047,-0.0194 z m 3.80618,-0.12695 c -0.52205,-0.36158 -0.53835,-0.44082 -0.53835,-2.62167 0,-1.07254 0.0269,-1.96552 0.0597,-1.98438 0.0328,-0.0193 0.22992,-0.0589 0.43795,-0.0893 l 0.37824,-0.0552 0,1.94196 0,1.94193 0.19843,0.18637 c 0.28759,0.2702 0.7999,0.25677 1.17687,-0.0304 0.15657,-0.11941 0.32325,-0.3278 0.37043,-0.46309 0.0501,-0.14375 0.0858,-0.90264 0.0858,-1.82517 l 0,-1.57915 0.21898,-0.046 c 0.12044,-0.0248 0.29739,-0.0616 0.39324,-0.081 l 0.17427,-0.0349 0.0248,2.06675 c 0.0182,1.51926 0.0512,2.09315 0.12435,2.16623 0.0548,0.0543 0.0995,0.15709 0.0995,0.22777 0,0.12824 -0.40175,0.47681 -0.54968,0.47681 -0.0431,0 -0.14185,-0.1076 -0.21947,-0.23881 -0.0776,-0.13152 -0.16998,-0.23902 -0.20528,-0.23902 -0.0353,0 -0.21306,0.0985 -0.39505,0.21905 -0.27417,0.18138 -0.43428,0.22326 -0.93395,0.24378 -0.54104,0.0221 -0.63364,0.009 -0.90079,-0.18157 z m 5.1154,0.0571 c -0.15322,-0.0765 -0.32055,-0.22869 -0.37184,-0.3382 -0.0647,-0.13806 -0.10129,-1.14368 -0.11953,-3.28008 l -0.0263,-3.08091 0.38334,-0.0533 c 0.21083,-0.0294 0.40791,-0.0277 0.43796,0 0.03,0.0294 0.0642,1.35055 0.076,2.93459 0.0118,1.58394 0.0377,2.95446 0.0578,3.04549 0.0201,0.0911 0.12212,0.20458 0.22687,0.25226 0.10839,0.0497 0.20787,0.17779 0.23087,0.29819 0.0325,0.16988 0.002,0.22574 -0.15393,0.28519 -0.27736,0.10552 -0.42514,0.0924 -0.74126,-0.0663 z m 2.56383,0.009 c -0.46133,-0.22732 -0.49356,-0.37952 -0.49356,-2.33132 l 0,-1.75576 -0.27869,0 -0.27871,0 0,-0.2738 0,-0.27361 0.2588,-0.0248 0.25879,-0.0249 0.0399,-0.58881 0.0399,-0.58873 0.39815,-0.10099 c 0.21898,-0.0552 0.41122,-0.0875 0.42719,-0.0727 0.016,0.0157 0.0339,0.32607 0.0399,0.68968 l 0.0108,0.66106 0.53118,0.0396 0.53117,0.0396 -0.10927,0.25879 -0.10927,0.25879 -0.4418,0 -0.44181,0 0,1.65987 0,1.65997 0.1573,0.14228 c 0.12008,0.10865 0.2426,0.1328 0.51759,0.10177 0.23791,-0.0267 0.36066,-0.0104 0.36137,0.0488 5.6e-4,0.0497 0.0215,0.16593 0.0465,0.25888 0.0367,0.13667 -0.004,0.18628 -0.21204,0.25879 -0.36687,0.12786 -0.94611,0.10774 -1.25305,-0.0433 z m 3.04995,-0.0104 c -0.13138,-0.0837 -0.31055,-0.23236 -0.39815,-0.33084 l -0.15926,-0.17881 -0.0249,-2.06279 c -0.0199,-1.64873 -0.004,-2.0694 0.0796,-2.09582 0.0574,-0.0184 0.23647,-0.0552 0.39782,-0.0819 l 0.29337,-0.0488 0.0251,1.9054 0.0251,1.90569 0.15926,0.17652 c 0.23566,0.26127 0.48634,0.33212 0.83922,0.23706 0.19914,-0.0533 0.40512,-0.19804 0.58945,-0.4134 l 0.28336,-0.33104 0,-1.65637 0,-1.65637 0.21897,-0.0461 c 0.12046,-0.0258 0.29961,-0.0625 0.39816,-0.0828 l 0.17916,-0.036 0,1.90983 c 0,1.51188 0.0256,1.98521 0.1229,2.2717 l 0.12289,0.36205 -0.22242,0.19565 c -0.12233,0.10761 -0.26593,0.19685 -0.31909,0.19823 -0.0532,0 -0.18142,-0.12226 -0.28502,-0.27461 l -0.18833,-0.27721 -0.34979,0.25723 c -0.30973,0.22788 -0.41848,0.26008 -0.94925,0.28126 -0.48156,0.0194 -0.64644,-0.009 -0.83834,-0.12798 z m 9.07774,0.0745 c -0.54867,-0.14487 -1.01037,-0.51445 -1.2559,-1.00554 -0.33934,-0.67863 -0.37058,-2.01924 -0.0632,-2.71398 0.311,-0.70312 0.94906,-1.14799 1.64643,-1.14799 0.2251,0 0.51966,0.022 0.65459,0.0488 0.30618,0.0608 0.83843,0.50922 1.00736,0.8478 0.15874,0.31815 0.31608,1.33812 0.24814,1.60889 l -0.0506,0.20173 -1.40103,0 -1.40104,0 0.0559,0.37815 c 0.11327,0.76717 0.52462,1.13465 1.27008,1.13465 0.34498,0 0.5225,-0.0479 0.77684,-0.20809 l 0.32967,-0.20808 0.14475,0.18821 c 0.0796,0.10345 0.14555,0.23054 0.14652,0.28235 0.002,0.10553 -0.31724,0.34024 -0.66815,0.49126 -0.29231,0.12578 -1.12544,0.18453 -1.44026,0.1015 z m 1.36502,-3.01613 c -0.0216,-0.0772 -0.0629,-0.25667 -0.0917,-0.40005 -0.0751,-0.37282 -0.39578,-0.71969 -0.72199,-0.78089 -0.56468,-0.10604 -1.00465,0.29 -1.09107,0.98188 l -0.0422,0.33841 0.99315,0 0.99316,0 -0.0392,-0.13935 z m 13.50796,2.88269 c -0.44821,-0.22335 -0.73725,-0.55081 -0.95465,-1.08164 -0.10901,-0.26615 -0.14095,-0.55356 -0.13604,-1.22373 0.005,-0.6941 0.0384,-0.94203 0.1606,-1.19439 0.26145,-0.54031 0.43933,-0.7551 0.79979,-0.96641 0.41464,-0.24306 1.1111,-0.32671 1.60574,-0.1928 0.37904,0.10253 0.91523,0.54178 1.10181,0.90245 0.47407,0.91682 0.4556,2.28402 -0.0416,3.08359 -0.35015,0.56296 -0.93127,0.87153 -1.64628,0.8742 -0.35955,0 -0.58554,-0.0507 -0.88935,-0.20127 z m 1.30239,-0.56396 c 0.15047,-0.0718 0.31652,-0.20569 0.36902,-0.29855 0.30933,-0.54713 0.39087,-1.61606 0.17796,-2.33307 -0.0656,-0.22098 -0.21381,-0.49614 -0.32938,-0.61164 -0.17857,-0.17864 -0.2792,-0.21011 -0.66998,-0.21011 l -0.45983,0 -0.20309,0.2413 c -0.27302,0.32441 -0.3675,0.70634 -0.36803,1.48778 -4.7e-4,0.67616 0.1515,1.29938 0.37962,1.55678 0.11564,0.13041 0.47164,0.27343 0.72271,0.29018 0.0591,0.009 0.23052,-0.0516 0.381,-0.12266 z m 11.7745,0.70975 c -0.30825,-0.0755 -0.66341,-0.41995 -0.79976,-0.77694 -0.2405,-0.62968 -0.01,-1.41202 0.52011,-1.76266 0.37843,-0.25043 0.69264,-0.33702 1.45244,-0.40043 l 0.61887,-0.0516 0,-0.37595 c 0,-0.2645 -0.0509,-0.44073 -0.17171,-0.59433 l -0.17171,-0.2183 -0.48524,0.0322 c -0.31804,0.0211 -0.63152,0.10644 -0.90982,0.2473 -0.23353,0.11837 -0.43143,0.21517 -0.43976,0.21517 -0.008,0 -0.0845,-0.12877 -0.16913,-0.28594 l -0.15396,-0.28585 0.18309,-0.13813 c 0.35681,-0.2692 1.05224,-0.44469 1.76084,-0.44461 0.73652,0 0.97147,0.0944 1.24862,0.50303 0.12854,0.18941 0.14488,0.39924 0.14488,1.85941 l 0,1.64587 0.18661,0.1987 0.18662,0.19861 -0.18168,0.24571 c -0.0999,0.1351 -0.23594,0.24564 -0.30227,0.24564 -0.0663,0 -0.23796,-0.1137 -0.38142,-0.25272 l -0.26084,-0.25281 -0.14401,0.13032 c -0.25152,0.22768 -0.71674,0.37557 -1.1509,0.3661 -0.23134,-0.009 -0.49228,-0.0268 -0.57987,-0.0479 z m 1.53013,-0.92916 0.26153,-0.28539 0,-0.55319 c 0,-0.4921 -0.0185,-0.55919 -0.16713,-0.60631 -0.21707,-0.069 -0.84552,0.0267 -1.12445,0.17082 -0.27402,0.14172 -0.46027,0.49338 -0.46027,0.86896 0,0.21572 0.0614,0.35026 0.24269,0.53156 l 0.2427,0.24278 0.3717,-0.0423 c 0.29635,-0.0331 0.42471,-0.0998 0.63323,-0.32726 z m 18.95573,0.8558 c -0.51048,-0.17716 -0.96559,-0.64164 -1.17957,-1.20404 -0.13571,-0.35689 -0.17381,-0.62756 -0.17363,-1.23423 0,-0.6802 0.0267,-0.83131 0.21274,-1.21149 0.24553,-0.50184 0.80834,-1.0348 1.16895,-1.10696 0.13694,-0.0276 0.42871,-0.0497 0.64835,-0.0497 0.48674,0 1.03774,0.25585 1.3046,0.60574 0.27217,0.35681 0.43752,0.9886 0.40994,1.56628 l -0.0236,0.49559 -1.41405,0.0221 -1.41407,0.0221 0.0516,0.33666 c 0.0704,0.45904 0.21903,0.72887 0.53449,0.96953 0.21661,0.1652 0.3543,0.20293 0.73667,0.20211 0.35046,-5.5e-4 0.55623,-0.0506 0.80776,-0.19381 l 0.33752,-0.193 0.12036,0.17183 c 0.21112,0.30149 0.14792,0.43024 -0.31935,0.6513 -0.56914,0.26928 -1.29301,0.32957 -1.80858,0.15084 z m 1.53162,-3.03776 c 0,-0.3152 -0.32214,-0.9134 -0.55741,-1.03498 -0.25577,-0.13224 -0.76198,-0.0727 -0.97271,0.11552 -0.20994,0.187 -0.38098,0.59101 -0.38098,0.90005 l 0,0.2414 0.95556,0 0.95554,0 0,-0.22198 z m -54.42574,2.99358 c -0.0205,-0.0571 -0.0472,-1.03562 -0.0593,-2.17441 -0.0122,-1.13869 -0.0515,-2.13025 -0.0874,-2.20349 -0.0774,-0.15775 0.0766,-0.25695 0.52421,-0.33776 0.23485,-0.0423 0.29861,-0.0286 0.29861,0.0635 0,0.0644 0.0371,0.21535 0.0824,0.33445 l 0.0824,0.21653 0.21628,-0.19915 c 0.38772,-0.35707 0.60442,-0.46246 0.95065,-0.46246 0.18734,0 0.34047,0.009 0.34029,0.0203 0,0.0104 -0.0645,0.19905 -0.14305,0.41801 -0.12052,0.33628 -0.17535,0.39941 -0.35249,0.40612 -0.32825,0.0117 -0.67744,0.18757 -0.83405,0.41819 -0.123,0.18112 -0.14885,0.44718 -0.18305,1.88314 l -0.0399,1.67219 -0.37905,0.0238 c -0.25776,0.0166 -0.391,-0.009 -0.41639,-0.0801 z m 10.18825,-0.009 c -0.0211,-0.0542 -0.0289,-1.51511 -0.0174,-3.24492 l 0.0209,-3.14516 0.87592,-0.023 c 0.96716,-0.0258 1.84015,0.081 2.20156,0.2678 0.40964,0.21177 0.76618,0.66087 0.87311,1.09977 0.11215,0.46015 0.1099,0.6478 -0.014,1.17644 -0.10589,0.45159 -0.52581,0.96484 -0.97808,1.19565 -0.25667,0.13088 -0.52629,0.17642 -1.22571,0.20745 l -0.89665,0.0387 0,1.26302 0,1.26295 -0.40065,0 c -0.24739,0 -0.41527,-0.0378 -0.4389,-0.0997 z m 2.51471,-3.34938 c 0.34626,-0.24248 0.47375,-0.53791 0.47431,-1.09903 0,-0.42021 -0.0344,-0.57106 -0.17211,-0.74618 -0.2525,-0.321 -0.61213,-0.43909 -1.33777,-0.43909 l -0.63959,0 0,1.18112 c 0,0.64976 0.0269,1.20921 0.0597,1.24317 0.0329,0.0341 0.36943,0.0451 0.74795,0.0238 0.44415,-0.0248 0.75181,-0.0828 0.86748,-0.16372 z m 2.60099,1.32287 c -0.0206,-1.17359 -0.0627,-2.22744 -0.0935,-2.34165 l -0.0561,-0.20781 0.36954,-0.0935 c 0.20326,-0.0516 0.39949,-0.0745 0.43607,-0.0516 0.0365,0.023 0.0901,0.16696 0.11898,0.32074 0.0289,0.15379 0.0725,0.27959 0.0971,0.27959 0.0246,0 0.11154,-0.0846 0.1933,-0.18903 0.0817,-0.10396 0.27149,-0.2472 0.42164,-0.31844 0.28463,-0.13509 0.84615,-0.17761 0.84615,-0.0635 0,0.036 -0.0577,0.23459 -0.12814,0.44138 -0.0898,0.26377 -0.16718,0.37024 -0.2588,0.35634 -0.20389,-0.0313 -0.59361,0.0911 -0.75436,0.23625 -0.3248,0.29274 -0.37803,0.61155 -0.36765,2.20193 l 0.01,1.51612 -0.39832,0.0238 -0.39832,0.0238 -0.0375,-2.13401 z m 13.42714,2.06618 c -0.0674,-0.045 -0.10106,-0.70523 -0.11944,-2.3456 l -0.0256,-2.28383 0.35097,-0.0884 c 0.39506,-0.0994 0.44781,-0.0616 0.53206,0.37513 l 0.0492,0.25557 0.25695,-0.27241 c 0.14131,-0.14983 0.35491,-0.30968 0.47468,-0.35516 0.25152,-0.0957 0.76533,-0.1111 0.76357,-0.023 -0.002,0.0893 -0.19009,0.60298 -0.26294,0.71665 -0.0351,0.0543 -0.1876,0.0994 -0.33896,0.0994 -0.20222,0 -0.35402,0.0727 -0.5726,0.27251 l -0.29745,0.27241 -0.0399,1.69834 -0.0399,1.69843 -0.31852,0.0211 c -0.17518,0.0117 -0.36075,-0.009 -0.41237,-0.0405 z m 7.99637,-2.06601 c -0.0154,-1.17376 -0.0562,-2.21167 -0.0908,-2.30647 -0.0469,-0.12851 -0.0255,-0.19244 0.0842,-0.25105 0.0809,-0.0433 0.27239,-0.0911 0.42555,-0.10645 l 0.27847,-0.0277 0.025,0.25879 c 0.0273,0.28356 0.17014,0.33628 0.34354,0.1267 0.15996,-0.19336 0.70588,-0.42159 1.01299,-0.42362 0.34144,0 0.7678,0.20034 0.97436,0.46282 0.11466,0.14579 0.19163,0.18343 0.26461,0.12929 0.65924,-0.48879 0.80468,-0.54871 1.33957,-0.55137 l 0.53597,0 0.30014,0.29984 0.30014,0.29975 0.0236,2.11331 0.0236,2.1132 -0.42179,-0.0239 -0.42178,-0.0238 -0.0399,-1.93743 -0.0399,-1.93752 -0.15458,-0.11306 c -0.085,-0.0616 -0.22293,-0.11279 -0.30648,-0.11279 -0.22921,0 -0.64524,0.21959 -0.87963,0.46411 l -0.20882,0.21802 -0.0215,1.70939 -0.0215,1.70928 -0.39815,0 -0.39815,0 -0.0214,-1.88645 -0.0214,-1.88653 -0.20838,-0.16391 c -0.1146,-0.0902 -0.26626,-0.16318 -0.337,-0.16216 -0.19496,0.009 -0.74261,0.27554 -0.94757,0.47212 l -0.18192,0.17457 0.009,1.72614 0.009,1.72622 -0.4008,0.0238 -0.40079,0.0239 -0.028,-2.1341 z m 7.62933,2.03113 c -0.0189,-0.0571 -0.0472,-1.01795 -0.0632,-2.13476 -0.0196,-1.3788 -0.0596,-2.08652 -0.12453,-2.20487 -0.0526,-0.0959 -0.0654,-0.19298 -0.0287,-0.21563 0.0368,-0.023 0.21917,-0.0754 0.40531,-0.11747 l 0.33842,-0.0765 0.11701,0.28005 0.11702,0.28006 0.13626,-0.12331 c 0.22412,-0.20274 0.83157,-0.447 1.11674,-0.44885 0.35473,0 0.78277,0.20901 0.98945,0.48861 l 0.16782,0.22694 0.20377,-0.19124 c 0.32465,-0.30471 0.81213,-0.52604 1.15813,-0.52595 0.39279,0 0.81145,0.20457 1.03071,0.50321 l 0.16492,0.22475 0,2.04474 0,2.04475 -0.39816,0 -0.39814,0 -0.0399,-1.87127 c -0.0219,-1.02918 -0.0707,-1.93431 -0.10832,-2.01133 -0.15816,-0.32322 -0.74256,-0.24075 -1.24539,0.17604 l -0.2787,0.23101 -0.0399,1.73772 -0.0399,1.73783 -0.35835,0 -0.35832,0 -0.0399,-1.88857 c -0.0347,-1.65241 -0.0571,-1.90569 -0.17792,-2.02643 -0.20433,-0.20403 -0.6488,-0.15948 -1.08231,0.10826 l -0.37217,0.22998 -0.0399,1.78835 -0.0399,1.78834 -0.33915,0.0248 c -0.22666,0.0166 -0.35049,-0.0104 -0.37336,-0.0801 z m -0.33791,-13.92429 c -0.13976,-0.0433 -0.32789,-0.18093 -0.41804,-0.30747 l -0.16392,-0.23035 0,-1.59085 0,-1.59094 0.17915,-0.0479 c 0.0985,-0.0267 0.24188,-0.0489 0.31852,-0.0489 l 0.13935,0 0,1.5072 0,1.5071 0.20981,0.1651 c 0.31599,0.24858 0.63376,0.21333 0.95278,-0.10579 l 0.27073,-0.27066 0,-1.32442 c 0,-1.41975 -0.01,-1.38772 0.42867,-1.42178 l 0.21897,-0.0175 -0.008,1.39344 c -0.005,1.00323 0.0242,1.49964 0.10659,1.77251 l 0.11454,0.37908 -0.16942,0.11863 c -0.22845,0.16005 -0.35236,0.14928 -0.47098,-0.0396 -0.0547,-0.0875 -0.12813,-0.15923 -0.16315,-0.15923 -0.0351,0 -0.1608,0.0709 -0.27946,0.15608 -0.25586,0.18517 -0.90918,0.26672 -1.26619,0.15794 z m 7.34114,0.009 c -0.40059,-0.0944 -0.60542,-0.24352 -0.72341,-0.52596 -0.15104,-0.36142 -0.13951,-0.64588 0.0423,-1.0465 0.19715,-0.43429 0.63305,-0.6629 1.39328,-0.73091 l 0.56189,-0.0507 0.0239,-0.28493 c 0.0157,-0.18748 -0.0267,-0.34732 -0.12397,-0.46742 -0.11294,-0.13952 -0.22633,-0.18158 -0.48011,-0.17799 -0.18392,0.009 -0.50282,0.0902 -0.71427,0.19639 l -0.382,0.19189 -0.13722,-0.18194 c -0.0754,-0.10008 -0.13723,-0.216 -0.13723,-0.25769 0,-0.0423 0.17019,-0.16041 0.37823,-0.26377 0.31044,-0.15415 0.50282,-0.18792 1.07319,-0.18792 l 0.69494,0 0.2208,0.2205 0.22078,0.2205 0.0399,1.40541 c 0.029,1.0243 0.0668,1.41433 0.13936,1.43845 0.14649,0.0488 0.12108,0.29413 -0.0461,0.44532 -0.0801,0.0727 -0.17139,0.1319 -0.20288,0.1319 -0.0314,0 -0.14376,-0.0935 -0.2495,-0.20745 l -0.19224,-0.20743 -0.26182,0.15737 c -0.30523,0.18369 -0.79784,0.26256 -1.13774,0.18222 z m 1.04468,-0.66935 c 0.18344,-0.15766 0.22314,-0.26523 0.25363,-0.68683 l 0.0362,-0.49964 -0.53851,0.0341 c -0.44205,0.0286 -0.56515,0.0672 -0.68714,0.21782 -0.1882,0.23248 -0.19757,0.77602 -0.0169,0.97581 0.19302,0.21325 0.68127,0.19207 0.95273,-0.0423 z m 16.9561,0.66446 c -0.20251,-0.0378 -0.39331,-0.14799 -0.53751,-0.30932 -0.18578,-0.2079 -0.22354,-0.32191 -0.22354,-0.67514 0,-0.30895 0.049,-0.49752 0.17944,-0.69115 0.26661,-0.39564 0.59858,-0.55227 1.30642,-0.61641 l 0.62431,-0.056 -0.0246,-0.27877 c -0.0382,-0.43319 -0.0893,-0.54473 -0.2781,-0.60675 -0.26941,-0.0884 -0.59432,-0.0433 -1.03152,0.14531 l -0.39882,0.17164 -0.11126,-0.15212 c -0.0612,-0.0837 -0.10118,-0.20441 -0.0889,-0.26828 0.0122,-0.0635 0.21938,-0.19722 0.46017,-0.29642 0.53171,-0.21896 1.32333,-0.24869 1.68227,-0.0626 0.38833,0.20081 0.46755,0.51353 0.46755,1.84577 0,0.93687 0.0253,1.21554 0.12358,1.35571 l 0.12357,0.17633 -0.14348,0.19713 c -0.0789,0.10838 -0.18566,0.19831 -0.23723,0.19961 -0.0516,0 -0.16424,-0.0864 -0.25036,-0.19657 -0.0862,-0.10942 -0.17976,-0.19898 -0.20808,-0.19898 -0.0282,0 -0.14856,0.0682 -0.26724,0.15139 -0.25706,0.18029 -0.73376,0.2484 -1.16673,0.16677 z m 1.09689,-0.70423 c 0.15545,-0.16361 0.20548,-0.3093 0.22301,-0.64898 l 0.0226,-0.43808 -0.45664,-0.0238 -0.45665,-0.0238 -0.23678,0.2367 c -0.16854,0.1685 -0.23681,0.31392 -0.23681,0.50386 0,0.47572 0.29137,0.71621 0.76903,0.63466 0.0945,-0.0166 0.26201,-0.12435 0.37223,-0.24039 z m 16.79989,0.70082 c -0.13978,-0.0433 -0.32791,-0.18149 -0.41805,-0.30812 l -0.16393,-0.23026 0,-1.59084 0,-1.59094 0.17917,-0.0479 c 0.0985,-0.0267 0.24188,-0.0488 0.31851,-0.0488 l 0.13935,0 0,1.50718 0,1.5072 0.20981,0.165 c 0.11539,0.0902 0.30451,0.16501 0.42023,0.16501 0.21597,0 0.52924,-0.17623 0.70122,-0.39444 0.0672,-0.0855 0.0977,-0.53138 0.0996,-1.45234 0.002,-0.73099 0.0297,-1.34586 0.0628,-1.36629 0.0331,-0.0211 0.19303,-0.0616 0.35521,-0.0924 l 0.29489,-0.0552 0.0287,1.66061 c 0.0158,0.91321 0.044,1.72972 0.0628,1.81429 0.0235,0.10631 -0.0351,0.19253 -0.18967,0.27876 l -0.22381,0.12486 -0.14728,-0.17918 c -0.081,-0.0985 -0.16989,-0.17919 -0.19748,-0.17919 -0.0276,0 -0.1481,0.0727 -0.26777,0.16096 -0.25447,0.18812 -0.89743,0.26636 -1.26434,0.15379 z m 8.43892,-5.5e-4 c -0.14076,-0.0433 -0.34679,-0.19723 -0.45786,-0.34281 l -0.20196,-0.26477 0,-1.52735 0,-1.52734 0.20426,-0.0783 c 0.42734,-0.16243 0.4184,-0.19132 0.44648,1.44249 l 0.0261,1.52017 0.18799,0.15213 c 0.23629,0.19106 0.54416,0.19327 0.82853,0.009 0.43625,-0.28769 0.45136,-0.34706 0.45409,-1.78476 0.002,-0.73358 0.0337,-1.3338 0.0723,-1.3338 0.0383,0 0.18167,-0.023 0.31853,-0.0507 l 0.24884,-0.0505 7.7e-4,1.58267 c 7.7e-4,1.12479 0.0305,1.64016 0.10281,1.78161 0.0903,0.1767 0.0819,0.21481 -0.0735,0.3385 -0.24188,0.19235 -0.4162,0.17421 -0.52027,-0.0543 l -0.0881,-0.19337 -0.29104,0.19254 c -0.33314,0.2205 -0.88468,0.30362 -1.25831,0.18967 z m -55.84075,-0.16932 c -0.26798,-0.13869 -0.40601,-0.28245 -0.55741,-0.58034 -0.1711,-0.33675 -0.20123,-0.50369 -0.20123,-1.11478 0,-0.59628 0.0313,-0.77839 0.1834,-1.06784 0.20889,-0.39747 0.42133,-0.60473 0.78951,-0.7702 0.35027,-0.15729 0.6479,-0.1444 1.01783,0.0441 0.17181,0.0875 0.32271,0.15921 0.33536,0.15921 0.0127,0 0.0229,-0.43006 0.0229,-0.95555 l 0,-0.95556 0.21897,0 c 0.12044,5.5e-4 0.26325,0.0294 0.31734,0.0635 0.074,0.0479 0.10357,0.70587 0.11945,2.66641 l 0.0211,2.60401 -0.24905,-9e-5 c -0.13697,0 -0.2944,-0.0543 -0.34984,-0.1215 -0.0899,-0.10837 -0.11709,-0.10682 -0.25162,0.0147 -0.0937,0.0846 -0.32305,0.1478 -0.60571,0.16638 -0.35983,0.0238 -0.52932,-0.009 -0.81106,-0.15433 z m 1.32412,-0.58651 0.26631,-0.20322 0,-0.98951 0,-0.98934 -0.19066,-0.12499 c -0.30299,-0.19852 -0.73153,-0.23754 -0.96077,-0.0875 -0.36626,0.24002 -0.45824,0.54492 -0.4284,1.4204 l 0.0271,0.79414 0.23888,0.19106 c 0.31855,0.25465 0.70426,0.2505 1.04758,-0.0117 z m 6.91535,0.63702 c -0.58844,-0.29522 -0.91626,-1.23201 -0.76334,-2.18139 0.0871,-0.54069 0.17899,-0.74739 0.47447,-1.06655 0.30516,-0.32985 0.58689,-0.45077 1.04926,-0.45077 0.4282,0 0.95291,0.19197 0.94987,0.34741 -7.7e-4,0.0497 -0.0679,0.17653 -0.14868,0.28162 l -0.14692,0.19105 -0.18756,-0.13133 c -0.21862,-0.15323 -0.69337,-0.16906 -0.87644,-0.0294 -0.27794,0.21213 -0.39049,0.58919 -0.39019,1.3074 2.6e-4,0.55983 0.0323,0.75318 0.1593,0.96146 0.15638,0.25648 0.42887,0.41606 0.71041,0.41606 0.0786,0 0.27251,-0.0875 0.43085,-0.19529 l 0.28789,-0.19539 0.12138,0.1732 c 0.0667,0.0954 0.12137,0.21841 0.12137,0.27343 0,0.0552 -0.1419,0.17247 -0.31535,0.261 -0.38138,0.19456 -1.12544,0.21343 -1.47632,0.0368 z m 6.76986,-0.0819 -0.19685,-0.21231 -0.0217,-1.40384 -0.0217,-1.40366 -0.22371,-0.0257 c -0.19068,-0.0221 -0.22008,-0.0571 -0.19907,-0.23881 0.0191,-0.16584 0.0732,-0.21886 0.24363,-0.23846 l 0.21897,-0.0258 0,-0.46255 0,-0.46246 0.21898,-0.045 c 0.12043,-0.0238 0.28431,-0.07 0.36415,-0.10033 l 0.14517,-0.0562 -0.0256,0.54831 -0.0256,0.54833 0.41805,0.0238 c 0.22994,0.013 0.41805,0.0598 0.41805,0.10489 0,0.045 -0.0371,0.15001 -0.0825,0.23466 -0.0626,0.11696 -0.16795,0.15407 -0.43796,0.15407 l -0.35553,0 0,1.23947 c 0,0.7021 0.0358,1.3062 0.0825,1.39353 0.0629,0.11747 0.16802,0.15396 0.44325,0.15396 l 0.36082,0 -0.0252,0.21904 -0.0252,0.21895 -0.53794,0.0238 -0.53791,0.0238 -0.19684,-0.21252 z m 4.68183,-0.0248 c -0.18965,-0.13741 -0.39152,-0.3859 -0.50124,-0.61717 -0.14803,-0.31179 -0.18338,-0.51933 -0.18196,-1.06774 0.002,-0.52457 0.0387,-0.75319 0.16301,-0.99541 0.21245,-0.41451 0.40036,-0.62103 0.71032,-0.78061 0.28926,-0.14899 0.9389,-0.17273 1.27284,-0.047 0.31869,0.12032 0.65804,0.46016 0.82968,0.83104 0.10764,0.23247 0.14794,0.50782 0.14921,1.01961 0.002,0.86683 -0.16886,1.30086 -0.64987,1.64929 -0.29157,0.2113 -0.39123,0.23753 -0.90115,0.23753 -0.50574,0 -0.61076,-0.0267 -0.89084,-0.23008 z m 1.40578,-0.48373 c 0.12127,-0.12984 0.24315,-0.34934 0.27084,-0.48775 0.0764,-0.38212 0.0595,-1.11147 -0.0337,-1.44664 -0.15987,-0.57575 -0.67041,-0.82809 -1.13164,-0.55946 -0.3173,0.1849 -0.46599,0.59002 -0.46633,1.27057 0,0.6284 0.14473,1.11009 0.39301,1.30539 0.10779,0.0846 0.31939,0.15387 0.47142,0.15387 0.20306,0 0.33399,-0.0616 0.49632,-0.23598 z m 16.42058,0.57989 c -0.38771,-0.19105 -0.62999,-0.56047 -0.77354,-1.17937 l -0.12716,-0.54842 0.12553,-0.55577 c 0.0725,-0.32091 0.21383,-0.67164 0.3344,-0.82965 0.23421,-0.30712 0.74208,-0.57078 1.10449,-0.57337 0.13205,0 0.37378,0.07 0.53721,0.15757 0.16343,0.0875 0.31519,0.1593 0.33726,0.1593 0.022,0 0.0401,-0.43006 0.0401,-0.95564 l 0,-0.95556 0.21897,0 c 0.12044,5.5e-4 0.26188,0.0286 0.31435,0.0616 0.07,0.045 0.10175,0.75209 0.11944,2.66651 l 0.0242,2.60577 -0.3011,-10e-5 c -0.18993,0 -0.31752,-0.0433 -0.34554,-0.1159 -0.0375,-0.0976 -0.0901,-0.0911 -0.33474,0.0396 -0.35447,0.19003 -0.91295,0.19944 -1.27375,0.0221 z m 1.23986,-0.58191 0.2588,-0.15775 0,-1.02402 c 0,-0.88819 -0.0191,-1.04132 -0.14457,-1.1549 -0.20331,-0.18397 -0.61048,-0.24866 -0.87496,-0.13924 -0.1233,0.0516 -0.28686,0.19897 -0.36347,0.32864 -0.17917,0.30334 -0.25491,1.21104 -0.13723,1.64441 0.16592,0.61109 0.72103,0.83233 1.26143,0.50286 z m 5.27546,0.66254 c -0.60555,-0.20615 -0.99194,-0.56573 -1.29591,-1.2059 -0.15142,-0.31878 -0.17725,-0.50708 -0.17725,-1.29155 0,-0.73588 0.0309,-0.98896 0.15533,-1.27398 0.25399,-0.58183 0.59502,-0.95907 1.05898,-1.17147 0.43335,-0.19832 0.96711,-0.24673 1.48035,-0.1339 0.26006,0.0571 0.61125,0.25427 0.6082,0.34152 -7.8e-4,0.0277 -0.0669,0.13511 -0.1463,0.23855 l -0.14453,0.18783 -0.24788,-0.1281 c -0.13678,-0.0709 -0.43788,-0.12825 -0.67169,-0.12825 -0.35809,0 -0.47106,0.0396 -0.72884,0.25152 -0.16778,0.13833 -0.37741,0.41607 -0.46581,0.61707 -0.125,0.28438 -0.16157,0.54289 -0.16441,1.16199 -0.002,0.58228 0.0331,0.88166 0.13299,1.11375 0.2631,0.61146 0.68845,0.91682 1.27694,0.91682 0.19778,0 0.48987,-0.0616 0.64909,-0.13805 l 0.28949,-0.13796 0.15378,0.18987 c 0.0846,0.10449 0.14201,0.2252 0.1276,0.26844 -0.0556,0.16659 -0.74207,0.36621 -1.2531,0.36446 -0.28468,0 -0.57135,-0.0203 -0.63703,-0.0433 z m 7.09188,-0.0855 c -0.0946,-0.0765 -0.20522,-0.28271 -0.24581,-0.45795 -0.0406,-0.17513 -0.0748,-1.3083 -0.0756,-2.51797 l -0.002,-2.19963 0.32916,-0.0533 c 0.18103,-0.0286 0.35124,-0.0304 0.37822,-0.009 0.027,0.0267 0.0613,1.12526 0.0761,2.44074 l 0.027,2.39162 0.1521,0.0396 c 0.1054,0.0277 0.15209,0.11033 0.15209,0.26937 l 0,0.22953 -0.3097,0 c -0.17633,0 -0.38377,-0.0598 -0.48171,-0.13925 z m 1.97813,-0.0267 -0.19136,-0.16584 -0.0399,-1.44673 -0.0399,-1.44663 -0.17917,-0.0259 c -0.13925,-0.0203 -0.17915,-0.0774 -0.17915,-0.2588 0,-0.19575 0.032,-0.23328 0.19906,-0.23328 l 0.19907,0 0.009,-0.33841 c 0.004,-0.18608 0.004,-0.38359 -0.004,-0.43861 -0.013,-0.0944 0.10931,-0.16115 0.53172,-0.29277 l 0.17916,-0.0552 0,0.56287 0,0.56267 0.38489,0 c 0.21169,0 0.40455,0.0203 0.4286,0.0441 0.024,0.0238 0.004,0.12995 -0.0464,0.23533 -0.0726,0.15387 -0.16056,0.19611 -0.44852,0.21498 l -0.35834,0.0238 -0.0244,1.07501 c -0.0141,0.62239 0.013,1.20072 0.0629,1.37356 l 0.0872,0.29873 0.34583,0 c 0.2738,0 0.35416,0.0322 0.38574,0.1524 0.0219,0.0837 7.7e-4,0.19142 -0.0464,0.23901 -0.0475,0.0479 -0.3066,0.0865 -0.57582,0.0865 -0.38161,0 -0.53165,-0.0358 -0.68082,-0.16594 z m 9.42229,0.046 c -0.44991,-0.19548 -0.71373,-0.5647 -0.86647,-1.21268 -0.11527,-0.48888 -0.12332,-0.65997 -0.0479,-1.01943 0.12798,-0.61018 0.31722,-0.96854 0.64228,-1.21648 0.24817,-0.1893 0.3521,-0.21452 0.88463,-0.21452 0.49667,0 0.64745,0.0313 0.85239,0.17772 0.13693,0.0976 0.30931,0.3047 0.38306,0.46006 0.0737,0.15544 0.15494,0.5313 0.18044,0.83536 l 0.0463,0.55282 -1.10624,0.0221 -1.10627,0.023 0.0232,0.35588 c 0.0248,0.37944 0.16343,0.58788 0.51006,0.76707 0.29563,0.15287 0.59683,0.13694 1.01744,-0.0543 l 0.35637,-0.16162 0.10255,0.14027 c 0.0565,0.0774 0.0914,0.17753 0.0776,0.22308 -0.0138,0.046 -0.18302,0.16345 -0.37627,0.26201 -0.25287,0.12903 -0.48601,0.17826 -0.83212,0.17605 -0.26445,0 -0.59797,-0.0543 -0.74119,-0.1163 z m 1.33537,-2.30418 c 0,-0.47846 -0.34378,-0.91341 -0.72584,-0.91829 -0.29012,-0.009 -0.60786,0.27058 -0.69996,0.6041 -0.1298,0.47 -0.0759,0.5081 0.71766,0.5081 l 0.70814,0 0,-0.19391 z m 9.17666,2.30924 c -0.93404,-0.42279 -1.33565,-1.16962 -1.33017,-2.4736 0.002,-0.39418 0.0499,-0.86004 0.10722,-1.03526 0.16478,-0.50341 0.55916,-1.03112 0.95697,-1.28061 0.32822,-0.20578 0.43608,-0.22962 1.04293,-0.23091 0.48044,0 0.7603,0.0386 0.96447,0.1364 0.43946,0.21064 0.49925,0.31961 0.30851,0.56211 l -0.16115,0.20496 -0.33693,-0.19281 c -0.42845,-0.24498 -1.02284,-0.26127 -1.38882,-0.0378 -0.14058,0.0855 -0.3329,0.30739 -0.42741,0.49273 -0.23245,0.45555 -0.32632,1.28043 -0.23115,2.03112 0.0862,0.67974 0.29457,1.03967 0.72666,1.25522 0.29678,0.14807 0.93055,0.16454 1.22182,0.0322 l 0.2057,-0.0935 -0.0228,-0.68268 -0.0228,-0.6826 -0.39815,-0.0238 c -0.43039,-0.0258 -0.59721,-0.15644 -0.59721,-0.46964 l 0,-0.18387 0.83458,0 0.83459,0 0.0444,0.17927 c 0.0244,0.0985 0.0341,0.64477 0.0214,1.21379 l -0.023,1.03471 -0.31852,0.1537 c -0.42515,0.20522 -1.63786,0.26026 -2.01124,0.0911 z m -77.26089,-0.009 c -5.6e-4,-0.0221 -0.002,-1.14174 -0.002,-2.48843 l -8.5e-4,-2.44857 1.35618,-0.022 c 1.19543,-0.0194 1.35618,-0.009 1.35618,0.10475 0,0.07 -0.0371,0.19584 -0.0825,0.28059 -0.0742,0.13853 -0.17427,0.15407 -0.99536,0.15407 -0.55288,0 -0.91451,0.0313 -0.91692,0.0792 -0.003,0.0441 -0.004,0.34834 -0.004,0.6769 0,0.32846 0.002,0.65102 0.004,0.71664 0.004,0.0979 0.14731,0.11943 0.80027,0.11943 l 0.7963,0 0,0.27589 0,0.27591 -0.80792,0.023 -0.80791,0.023 0.006,0.79624 0.006,0.79626 1.02058,0.0396 1.02061,0.0396 0.0247,0.29865 0.0247,0.29853 -1.39832,0 c -0.76907,0 -1.39886,-0.0184 -1.39953,-0.0396 z m 21.42148,-1.74691 c 0,-0.98288 0.0272,-1.8038 0.0603,-1.82432 0.0332,-0.0203 0.19444,-0.0626 0.35833,-0.0933 l 0.29801,-0.0562 0,1.8802 0,1.8801 -0.35834,0 -0.35832,0 0,-1.78697 z m 6.03663,-0.0248 c -0.0169,-0.99633 -0.0292,-1.81723 -0.0276,-1.82432 0.002,-0.009 0.13375,-0.0368 0.29362,-0.0682 l 0.29066,-0.0543 0.0541,0.24618 c 0.0297,0.13548 0.0714,0.24638 0.0929,0.24638 0.0214,0 0.16205,-0.0944 0.31269,-0.209 0.36141,-0.27563 0.91901,-0.34301 1.2708,-0.15361 0.14157,0.0765 0.29747,0.22649 0.34642,0.33399 0.0558,0.12252 0.089,0.77249 0.089,1.74435 l 0,1.54906 -0.31852,0 -0.31853,0 0,-1.43329 0,-1.43348 -0.16755,-0.16748 c -0.12853,-0.12864 -0.2256,-0.156 -0.41675,-0.11774 -0.13705,0.0277 -0.38415,0.13916 -0.5491,0.24822 l -0.29992,0.19861 0,1.35248 0,1.35267 -0.31084,0 -0.31083,0 -0.0306,-1.81163 z m 9.62154,1.75633 c -0.0305,-0.0303 -0.0517,-0.73967 -0.0474,-1.57595 0.005,-0.83627 -0.0163,-1.61707 -0.0459,-1.73515 -0.0458,-0.18259 -0.0222,-0.22666 0.15873,-0.29532 0.33276,-0.12656 0.41926,-0.0988 0.51078,0.16372 l 0.0853,0.24452 0.28422,-0.21674 c 0.35654,-0.27194 0.93825,-0.34658 1.28876,-0.16537 0.438,0.22649 0.50169,0.5001 0.50169,2.15453 l 0,1.48106 -0.35832,0 -0.35833,0 0,-1.4713 0,-1.47138 -0.2058,-0.13483 c -0.17992,-0.11785 -0.24251,-0.12162 -0.49769,-0.0294 -0.16054,0.058 -0.37139,0.16242 -0.46855,0.23256 l -0.17666,0.12746 -0.002,1.37366 -0.002,1.37355 -0.30523,0 c -0.1679,0 -0.33014,-0.0248 -0.36059,-0.0552 z m 26.46377,-1.35332 c -7.8e-4,-0.78006 -0.0384,-1.57622 -0.0829,-1.76939 -0.0445,-0.19307 -0.0514,-0.38055 -0.0154,-0.41662 0.036,-0.0358 0.18025,-0.0884 0.32053,-0.11644 0.18134,-0.0358 0.26476,-0.0194 0.2885,0.058 0.0183,0.0598 0.055,0.17551 0.0814,0.2564 l 0.0479,0.14716 0.28097,-0.24665 c 0.21314,-0.1871 0.35721,-0.24672 0.59671,-0.24672 0.17367,0 0.31576,0.0194 0.31576,0.0414 0,0.023 -0.0519,0.16666 -0.11539,0.31851 -0.0809,0.19363 -0.16655,0.27618 -0.28634,0.27618 -0.21031,0 -0.60699,0.22667 -0.68937,0.39399 -0.0333,0.0672 -0.0795,0.69694 -0.10202,1.39776 l -0.0411,1.27399 -0.2986,0.0248 -0.29861,0.0248 -0.002,-1.41809 z m 7.96487,-1.09977 0,-2.5083 0.94895,0 c 0.77083,0 1.01372,0.0294 1.29398,0.15562 0.18975,0.0855 0.40023,0.20209 0.4677,0.25888 0.26085,0.21921 0.55949,0.69262 0.67288,1.06627 0.14965,0.49338 0.15288,1.55118 0.005,2.03425 -0.14462,0.47664 -0.45473,0.96523 -0.73765,1.16235 -0.3871,0.26975 -0.73738,0.33932 -1.70842,0.33932 l -0.94367,0 0,-2.50839 z m 2.10662,1.76156 c 0.11032,-0.0727 0.28167,-0.28327 0.38077,-0.46879 0.15842,-0.29635 0.18019,-0.45253 0.18019,-1.29277 l 0,-0.95556 -0.19907,-0.35036 c -0.26382,-0.4644 -0.6146,-0.64497 -1.25293,-0.64497 l -0.49892,0 0,1.89779 c 0,1.04381 0.0269,1.92547 0.0597,1.95933 0.10228,0.1054 1.1171,-0.009 1.33023,-0.14467 z m -130.30973,-15.57724 0,-16.24426 24.40637,0 24.40636,0 0,16.24426 0,16.24447 -24.40636,0 -24.40637,0 0,-16.24447 z m 24.19813,11.85008 c 0.10445,-0.0792 0.21696,-0.14457 0.25003,-0.14457 0.033,0 0.27908,0.16123 0.54667,0.35827 0.26759,0.19694 0.48684,0.33121 0.48721,0.29845 0,-0.0322 -0.0596,-0.29495 -0.13343,-0.58273 -0.0737,-0.28779 -0.11195,-0.58091 -0.0849,-0.6514 0.0271,-0.0709 0.23354,-0.27398 0.45886,-0.45215 0.25744,-0.20339 0.37013,-0.33793 0.30324,-0.36187 -0.0585,-0.0211 -0.33722,-0.0479 -0.61922,-0.0598 l -0.51272,-0.0221 -0.21608,-0.63713 -0.21606,-0.63704 -0.0874,0.22427 c -0.048,0.12319 -0.0874,0.25476 -0.0874,0.29203 0,0.0368 -0.0704,0.23209 -0.15642,0.43272 l -0.15644,0.36491 -0.51572,0 c -0.28364,0 -0.5354,0.0322 -0.55945,0.0709 -0.0241,0.0387 0.0723,0.16023 0.21428,0.26964 0.14191,0.10929 0.34133,0.27214 0.44316,0.36188 l 0.18515,0.1628 -0.12318,0.46328 c -0.0677,0.25474 -0.14852,0.55282 -0.1795,0.66226 l -0.0563,0.19915 0.31287,-0.23357 c 0.17208,-0.12863 0.39834,-0.29873 0.50278,-0.37835 z m -5.69358,-1.25935 c 0.23203,-0.17514 0.46911,-0.31861 0.52684,-0.31861 0.0577,0 0.29911,0.14669 0.53636,0.32579 0.23726,0.17919 0.44607,0.31106 0.46401,0.29302 0.0179,-0.0185 -0.0409,-0.29763 -0.1306,-0.62167 -0.13695,-0.4942 -0.14562,-0.60224 -0.0538,-0.67127 0.0602,-0.0451 0.28346,-0.22556 0.4962,-0.4008 l 0.38682,-0.31851 -0.62227,-0.0396 c -0.44099,-0.0286 -0.64073,-0.0745 -0.68563,-0.1592 -0.0348,-0.0652 -0.12407,-0.32562 -0.19829,-0.57733 -0.0742,-0.2518 -0.15957,-0.45793 -0.18967,-0.45793 -0.0301,0 -0.14164,0.25989 -0.24789,0.5773 l -0.19318,0.57731 -0.63051,0.0405 -0.63049,0.0396 0.3868,0.31852 c 0.21275,0.17513 0.43605,0.3555 0.49623,0.40079 0.0917,0.069 0.0829,0.17771 -0.0549,0.67524 -0.0904,0.32615 -0.16433,0.60262 -0.16433,0.61449 0,0.0644 0.12893,-0.0104 0.50834,-0.29699 z m 11.18188,-0.29855 c 0.0584,-0.0543 0.1324,-0.0996 0.1643,-0.0996 0.0319,0 0.28017,0.16161 0.55171,0.35921 0.27155,0.19758 0.49371,0.34272 0.49371,0.32247 0,-0.0203 -0.0573,-0.2447 -0.12738,-0.49863 -0.21964,-0.79615 -0.23152,-0.74783 0.28013,-1.1386 0.25808,-0.19712 0.45184,-0.37631 0.43057,-0.39812 -0.0213,-0.0221 -0.29558,-0.058 -0.6096,-0.0801 l -0.57094,-0.0396 -0.19317,-0.57722 c -0.10626,-0.31759 -0.21376,-0.57731 -0.23891,-0.57731 -0.0251,0 -0.11499,0.22392 -0.19965,0.49761 -0.0847,0.2738 -0.18758,0.54243 -0.22871,0.59728 -0.046,0.0608 -0.2684,0.0994 -0.57794,0.0994 -0.27673,0 -0.52281,0.0322 -0.54684,0.0709 -0.0359,0.058 0.45722,0.5255 0.78078,0.74021 0.0549,0.0358 0.0398,0.19501 -0.0455,0.47773 -0.0702,0.23284 -0.15064,0.52512 -0.1788,0.64964 l -0.0512,0.22631 0.38055,-0.26616 c 0.20929,-0.14632 0.42836,-0.31088 0.48682,-0.36563 z m -15.08009,-3.68575 0.43192,-0.32597 0.49801,0.36233 c 0.27389,0.19933 0.50942,0.35091 0.5234,0.33701 0.014,-0.0138 -0.0532,-0.28703 -0.14932,-0.60657 l -0.17472,-0.58118 0.23476,-0.20853 c 0.12912,-0.11462 0.33865,-0.28963 0.46561,-0.38885 0.12696,-0.0992 0.20872,-0.20236 0.18171,-0.22934 -0.027,-0.0267 -0.29812,-0.0663 -0.60243,-0.0884 l -0.5533,-0.0387 -0.16621,-0.45583 c -0.0914,-0.25069 -0.16621,-0.49686 -0.16621,-0.54722 0,-0.0505 -0.0315,-0.0911 -0.0699,-0.0911 -0.0682,0 -0.11249,0.0977 -0.34266,0.7564 l -0.11132,0.31861 -0.58647,0.0589 c -0.32256,0.0322 -0.60053,0.0727 -0.6177,0.0893 -0.0171,0.0175 0.1449,0.16041 0.36013,0.31853 0.59319,0.43539 0.5995,0.44855 0.44976,0.93908 -0.0714,0.23385 -0.16389,0.50994 -0.20562,0.61376 -0.0623,0.15497 -0.054,0.18029 0.0464,0.14181 0.0673,-0.0259 0.31665,-0.19372 0.55419,-0.373 z m 19.23896,-0.39527 c 0.0776,0 0.54542,0.29956 0.63418,0.40605 0.0219,0.0267 0.12381,0.0924 0.2265,0.14623 0.16675,0.0875 0.18197,0.0828 0.14232,-0.0479 -0.0244,-0.0801 -0.0792,-0.28944 -0.12157,-0.46467 -0.0424,-0.17512 -0.0998,-0.39168 -0.12739,-0.48124 -0.0402,-0.1304 0.0458,-0.23982 0.43256,-0.54997 0.26552,-0.21287 0.48277,-0.41026 0.48277,-0.43843 0,-0.0276 -0.12599,-0.0358 -0.27994,-0.0185 -0.15397,0.0185 -0.43504,0.009 -0.62461,-0.0194 l -0.34465,-0.0515 -0.18514,-0.55438 c -0.10183,-0.305 -0.20994,-0.55441 -0.24024,-0.55441 -0.0304,0 -0.13367,0.24886 -0.22967,0.55321 l -0.17459,0.55309 -0.35286,0.0524 c -0.19408,0.0294 -0.47884,0.0378 -0.63281,0.0203 -0.15396,-0.0185 -0.27994,-0.009 -0.27994,0.0267 0,0.0322 0.21803,0.22676 0.4845,0.43181 0.39474,0.30379 0.47551,0.40419 0.43599,0.54216 -0.0267,0.0935 -0.0995,0.35791 -0.16187,0.58835 -0.0624,0.23053 -0.13841,0.4595 -0.16903,0.50911 -0.0306,0.0497 0.18237,-0.0765 0.47331,-0.27977 0.29093,-0.2033 0.56642,-0.36969 0.61219,-0.36969 z m -19.19352,-4.68491 c 0,-0.036 -0.0269,-0.0935 -0.0596,-0.12604 -0.0328,-0.0322 -0.0996,-0.22696 -0.1485,-0.43144 -0.0489,-0.20432 -0.11417,-0.43099 -0.14512,-0.50351 -0.0419,-0.0985 0.0654,-0.23034 0.4217,-0.51767 0.26288,-0.21204 0.48045,-0.41083 0.48348,-0.44193 0.003,-0.0313 -0.26826,-0.0672 -0.60287,-0.0801 l -0.6084,-0.023 -0.20106,-0.5739 c -0.11058,-0.31559 -0.22571,-0.55864 -0.25583,-0.54004 -0.0302,0.0184 -0.11871,0.24103 -0.19688,0.49429 -0.0781,0.25317 -0.17738,0.50516 -0.22051,0.55992 -0.0491,0.0616 -0.28287,0.0996 -0.62608,0.0996 -0.30121,0 -0.54765,0.0277 -0.54765,0.0616 0,0.0682 0.12615,0.18307 0.58419,0.5315 0.3349,0.25463 0.33571,0.26256 0.10746,1.0589 -0.0659,0.22979 -0.0937,0.418 -0.0618,0.418 0.0319,0 0.25014,-0.14329 0.48493,-0.31852 0.23481,-0.17522 0.46524,-0.31686 0.51207,-0.31501 0.0469,0 0.28224,0.16159 0.52312,0.35486 0.44042,0.35321 0.5574,0.4145 0.5574,0.29192 z m 20.15527,-0.44525 0.48432,-0.35249 0.48133,0.35441 c 0.26474,0.19483 0.49708,0.33849 0.51632,0.31926 0.0192,-0.0194 -0.0369,-0.28898 -0.12477,-0.59949 -0.18005,-0.63621 -0.20768,-0.56738 0.4408,-1.09756 l 0.36978,-0.30233 -0.58812,-0.0396 -0.58811,-0.0396 -0.11509,-0.23881 c -0.21169,-0.43954 -0.22798,-0.48188 -0.28465,-0.74002 -0.031,-0.14117 -0.0859,-0.23865 -0.12179,-0.21646 -0.036,0.0221 -0.14038,0.2875 -0.23207,0.58937 -0.0936,0.30811 -0.22209,0.57012 -0.29301,0.59728 -0.0695,0.0267 -0.36523,0.0507 -0.65728,0.0524 l -0.53099,0.009 0.27597,0.21526 c 0.15179,0.1185 0.37896,0.30573 0.50484,0.41635 l 0.22888,0.20109 -0.12133,0.43586 c -0.0667,0.23984 -0.14582,0.51666 -0.17572,0.61514 -0.0299,0.0986 -0.0318,0.17927 -0.004,0.17927 0.0277,0 0.26831,-0.15867 0.53468,-0.35248 z m -19.34177,-5.26774 c 0.2687,0.19971 0.50382,0.34779 0.5225,0.3291 0.0187,-0.0184 -0.0202,-0.20641 -0.0866,-0.41735 -0.25326,-0.80584 -0.26153,-0.768 0.26446,-1.20755 0.2631,-0.21985 0.45115,-0.41625 0.41788,-0.4364 -0.0332,-0.0203 -0.29338,-0.0396 -0.57802,-0.0433 -0.3757,-0.009 -0.54293,-0.0423 -0.61027,-0.13353 -0.051,-0.07 -0.15637,-0.3392 -0.23412,-0.59878 -0.0778,-0.25955 -0.16247,-0.47193 -0.18826,-0.47193 -0.0258,0 -0.13209,0.26879 -0.23624,0.59723 l -0.18935,0.59715 -0.36581,0.009 c -0.2012,0.009 -0.46436,0 -0.5848,-0.009 -0.12043,-0.009 -0.21898,0.0211 -0.21898,0.0644 0,0.0441 0.19354,0.2448 0.4301,0.4469 l 0.43009,0.36747 -0.11618,0.45491 c -0.0639,0.25024 -0.13686,0.53912 -0.16216,0.64192 l -0.0459,0.18691 0.53156,-0.37143 0.53157,-0.37161 0.48856,0.36296 z m 17.78717,-0.20777 c 0.22297,-0.16704 0.4347,-0.30362 0.47054,-0.30362 0.0358,0 0.25928,0.14661 0.49654,0.3256 0.23726,0.17919 0.45343,0.30379 0.48038,0.27683 0.027,-0.0267 0.007,-0.16455 -0.0428,-0.3059 -0.0504,-0.14119 -0.11482,-0.40365 -0.143,-0.5834 l -0.0513,-0.32661 0.49723,-0.39013 0.49725,-0.38993 -0.65917,-0.0396 -0.65915,-0.0396 -0.16822,-0.52017 c -0.0925,-0.28604 -0.20404,-0.52796 -0.24784,-0.53749 -0.0438,-0.009 -0.10914,0.081 -0.14517,0.20171 -0.0665,0.22238 -0.18393,0.52018 -0.29035,0.7365 -0.042,0.0855 -0.23714,0.13078 -0.68354,0.15922 l -0.62482,0.0396 0.49599,0.39804 0.49598,0.39821 -0.0513,0.31853 c -0.0283,0.17513 -0.078,0.37227 -0.11071,0.43797 -0.0327,0.0663 -0.0837,0.22096 -0.11339,0.34502 -0.0622,0.26009 -0.0545,0.25732 0.55681,-0.20062 z m -14.36814,-4.12592 c 0.0409,0 0.26413,0.14341 0.49617,0.31862 0.23203,0.17513 0.44967,0.31844 0.48364,0.31844 0.034,0 0.038,-0.081 0.009,-0.17914 -0.029,-0.0985 -0.10415,-0.35826 -0.1669,-0.57732 l -0.11408,-0.39808 0.49604,-0.45658 0.49602,-0.4566 -0.61339,0 -0.61339,0 -0.1185,-0.25877 c -0.0652,-0.14237 -0.15783,-0.41106 -0.20589,-0.59724 -0.048,-0.18609 -0.12181,-0.33843 -0.16392,-0.33843 -0.0421,0 -0.0766,0.0457 -0.0766,0.1024 0,0.0562 -0.0825,0.31615 -0.18358,0.57731 l -0.18358,0.47489 -0.63262,0.0399 -0.63261,0.04 0.49839,0.39817 0.4984,0.39809 -0.0478,0.23887 c -0.0262,0.1314 -0.0983,0.39248 -0.15997,0.58008 -0.0616,0.18771 -0.1122,0.3757 -0.1122,0.41791 0,0.042 0.21894,-0.0849 0.48654,-0.28147 0.26759,-0.19694 0.51997,-0.35816 0.56082,-0.35816 z m 10.43131,0.20914 0.49579,-0.34826 0.47714,0.34712 c 0.26242,0.19094 0.49151,0.33291 0.50907,0.31529 0.0176,-0.0171 -0.0431,-0.2948 -0.13468,-0.616 l -0.16663,-0.58407 0.14422,-0.11955 c 0.0793,-0.0656 0.30079,-0.24953 0.49215,-0.40857 l 0.34795,-0.28907 -0.64811,-0.0571 -0.64811,-0.0571 -0.17611,-0.58638 c -0.14641,-0.48745 -0.19089,-0.56331 -0.26382,-0.44982 -0.0483,0.0752 -0.15396,0.33928 -0.23492,0.58703 l -0.14722,0.45049 -0.64611,0.0571 -0.6461,0.0571 0.26608,0.20524 c 0.14635,0.1128 0.37303,0.29851 0.50374,0.41266 l 0.23766,0.20743 -0.12065,0.43334 c -0.0664,0.23831 -0.14511,0.51396 -0.175,0.61248 -0.0299,0.0987 -0.0336,0.17923 -0.008,0.17923 0.0254,0 0.26921,-0.15674 0.54191,-0.34836 z m -5.50648,-1.4035 c 0.25798,-0.17523 0.49046,-0.31854 0.51664,-0.31854 0.0261,0 0.24591,0.14656 0.48832,0.32559 0.24241,0.17913 0.45713,0.3092 0.47714,0.28918 0.0372,-0.0372 -0.0513,-0.4501 -0.19576,-0.91318 l -0.0807,-0.2586 0.50884,-0.41829 0.50883,-0.41818 -0.61289,-0.0238 c -0.47649,-0.0182 -0.63046,-0.0533 -0.69187,-0.1592 -0.0434,-0.0744 -0.15418,-0.36417 -0.24608,-0.64345 l -0.16709,-0.50767 -0.0864,0.22896 c -0.0475,0.12591 -0.14992,0.41582 -0.22754,0.64412 l -0.14112,0.41505 -0.63803,0.0228 -0.63803,0.023 0.49749,0.39818 c 0.41811,0.33464 0.49151,0.42991 0.46015,0.59722 -0.0491,0.26147 -0.17659,0.72071 -0.24883,0.89574 -0.0316,0.0772 -0.0338,0.13941 -0.005,0.13941 0.029,0 0.26377,-0.1433 0.52174,-0.31853 z m 54.44657,21.68396 c -0.17658,-0.047 -0.2638,-0.38268 -0.1693,-0.65323 0.0576,-0.16484 0.13246,-0.21269 0.3622,-0.23202 0.22748,-0.0194 0.31682,0.0147 0.41661,0.1571 0.16922,0.24157 0.16008,0.39896 -0.0354,0.60859 -0.15742,0.16907 -0.28387,0.19539 -0.57416,0.11955 z m 2.91297,-6.18761 c -1.3925,-0.73293 -2.52964,-1.62251 -4.44589,-3.47813 -2.87359,-2.78264 -3.79126,-3.48355 -6.20534,-4.73996 -1.61505,-0.84061 -3.16964,-1.40926 -4.7835,-1.75005 -0.78052,-0.16474 -2.34072,-0.18885 -3.38424,-0.0524 -0.41606,0.0543 -1.27606,0.15075 -1.9111,0.2137 -2.48862,0.2472 -3.90183,0.24793 -3.90183,0 0,-0.4227 1.65547,-0.9157 4.53886,-1.35184 0.45986,-0.07 1.05111,-0.1606 1.31388,-0.2021 0.26278,-0.0423 0.85277,-0.11435 1.3111,-0.1617 0.45832,-0.0479 0.86127,-0.10332 0.89545,-0.12448 0.0341,-0.0211 0.60876,-0.0405 1.27685,-0.0433 1.5436,-0.009 2.96278,0.19796 4.9175,0.70486 0.68922,0.17881 1.95463,0.57712 2.34906,0.73965 0.0876,0.0358 0.48175,0.19815 0.87592,0.36011 0.85386,0.35093 2.73782,1.26967 3.46674,1.69051 1.63044,0.94149 1.58163,0.9194 1.94179,0.87872 0.37973,-0.0423 1.28243,-0.45389 2.14645,-0.97745 1.24655,-0.75548 2.74641,-1.51676 3.75593,-1.90669 0.30463,-0.1176 0.62551,-0.24408 0.7131,-0.28098 0.41813,-0.17624 2.03937,-0.64155 2.86666,-0.82267 0.8308,-0.18194 2.00558,-0.3557 3.34443,-0.49475 1.55515,-0.16151 6.0223,-0.16353 8.52032,-0.009 3.11756,0.19933 4.37859,0.24527 6.72868,0.24527 2.497,0 3.46555,-0.0533 5.13608,-0.28235 1.34371,-0.18425 2.05191,-0.3195 3.10556,-0.59317 0.80738,-0.20962 2.27102,-0.68441 2.70738,-0.87811 0.13139,-0.0581 0.41806,-0.18371 0.63704,-0.27861 0.55489,-0.2404 1.9696,-0.95214 2.0922,-1.05258 0.0558,-0.0457 0.12486,-0.0599 0.15344,-0.0315 0.25537,0.25536 -2.65456,2.00245 -5.56892,3.34371 -1.14368,0.52632 -2.88279,1.22971 -3.73208,1.50957 -1.28514,0.42344 -3.50321,0.81144 -6.24272,1.09204 -0.88041,0.0902 -1.43178,0.13657 -4.22036,0.3557 -1.64735,0.12928 -3.00339,0.25355 -3.50369,0.32091 -0.17518,0.0238 -0.60519,0.0792 -0.95556,0.12383 -0.60341,0.0773 -1.31246,0.19391 -2.38887,0.39473 -0.59221,0.11058 -2.13467,0.50921 -2.82684,0.73072 -0.61148,0.19558 -1.83489,0.65214 -2.22962,0.83178 -1.99857,0.90999 -3.61651,1.85378 -4.13129,2.41 -0.3092,0.33399 -0.71799,1.00766 -1.10794,1.82599 -0.51904,1.08911 -0.8718,1.65501 -1.20057,1.92602 -0.24695,0.20359 -0.34986,0.23497 -0.76488,0.23349 -0.42402,0 -0.5733,-0.0516 -1.28918,-0.42775 z m 26.34079,-11.94958 c 0.02,-0.0203 0.30378,-0.0754 0.63041,-0.12305 0.70638,-0.10293 0.94972,-0.15384 2.48015,-0.51906 1.33183,-0.31777 2.78277,-0.78638 3.88686,-1.25516 1.1015,-0.46774 2.47895,-1.19493 3.28658,-1.73517 0.38792,-0.25945 0.72984,-0.47193 0.75981,-0.47202 0.03,0 0.54905,0.24087 1.15349,0.53558 0.98794,0.48164 1.08453,0.54672 0.95558,0.64372 -0.13722,0.10319 -1.74979,0.90032 -2.33326,1.15328 -0.32417,0.14065 -1.75285,0.62078 -2.3889,0.80276 -0.24086,0.0686 -0.68878,0.1817 -0.99534,0.2505 -0.30658,0.0686 -0.70076,0.15998 -0.87594,0.20265 -1.01109,0.24654 -3.94814,0.54735 -5.36834,0.55012 -0.67518,0 -1.21117,-0.0138 -1.1911,-0.0341 z m -15.49787,-0.51348 c 0.52557,-0.21171 1.15264,-0.47422 1.39351,-0.58321 0.24089,-0.10904 0.63505,-0.28356 0.87593,-0.3879 0.76831,-0.33263 4.07185,-2.01834 4.89719,-2.49895 0.43797,-0.25498 0.90779,-0.52633 1.04406,-0.60313 0.42741,-0.24059 2.43087,-1.51651 3.09669,-1.97215 1.13463,-0.77646 2.76062,-2.00958 3.91259,-2.96727 l 1.12558,-0.93576 0.30774,0.20877 c 0.35909,0.24344 0.39014,0.26698 0.7059,0.53405 l 0.23888,0.20209 -0.27869,0.24727 c -0.44071,0.39112 -2.28575,1.75422 -3.37087,2.49037 -2.05378,1.39331 -4.05209,2.5565 -6.22445,3.62309 -0.91987,0.45174 -2.02469,0.96312 -2.08056,0.96312 -0.0211,0 -0.20661,0.0733 -0.41223,0.16358 -1.58719,0.69452 -3.48581,1.32624 -5.50998,1.83313 -0.71807,0.17991 -0.58831,0.0322 0.27871,-0.3171 z m 12.58144,0.34755 c 0.0876,-0.0211 0.35633,-0.0763 0.59721,-0.12331 0.66486,-0.1294 1.74408,-0.38823 2.18981,-0.52516 1.87388,-0.57569 3.73372,-1.36005 5.33516,-2.24998 0.71321,-0.39629 1.92644,-1.20275 2.71648,-1.80551 l 0.70021,-0.53424 0.32221,0.17895 c 0.17721,0.0985 0.56408,0.30691 0.8597,0.46307 0.29562,0.15626 0.53655,0.30547 0.53543,0.33158 -0.008,0.17579 -3.20006,1.80778 -4.53681,2.31925 -0.37229,0.14244 -0.74852,0.28708 -0.8361,0.32138 -0.4727,0.18551 -1.88473,0.62172 -2.82684,0.87326 -1.25718,0.33559 -3.40614,0.69192 -4.53888,0.75252 -0.37226,0.0203 -0.60519,0.0194 -0.51758,0 z m -3.06572,-0.20995 c 0.82492,-0.17218 2.40853,-0.62992 2.98608,-0.86316 0.0875,-0.0354 0.44593,-0.1778 0.7963,-0.31653 0.35037,-0.13873 0.74214,-0.29414 0.8706,-0.3453 0.52164,-0.20799 2.46975,-1.22056 3.24328,-1.68573 1.36966,-0.8237 3.1742,-2.10326 4.07042,-2.88628 l 0.30099,-0.26297 0.37586,0.218 c 0.2067,0.11993 0.58568,0.3496 0.84216,0.51043 l 0.46632,0.29252 -0.52098,0.38731 c -0.55772,0.41457 -2.16224,1.46228 -2.23953,1.46228 -0.0257,0 -0.19523,0.0944 -0.37691,0.20849 -0.57564,0.36339 -2.61933,1.34899 -3.52852,1.70164 -0.48177,0.18694 -0.92967,0.3655 -0.99538,0.39693 -0.0656,0.0313 -0.38819,0.13702 -0.71665,0.23468 -0.32848,0.0976 -0.68681,0.20763 -0.79629,0.2444 -0.10955,0.0371 -0.44991,0.12643 -0.75647,0.19896 -0.30659,0.0725 -0.68284,0.16483 -0.83612,0.20513 -0.58338,0.15341 -2.49305,0.38661 -3.10554,0.37925 l -0.43797,-0.009 0.35835,-0.0752 z m -7.28611,-0.11461 c 0.21899,-0.0648 0.64899,-0.19144 0.95555,-0.28139 0.99916,-0.29328 2.55387,-0.85172 3.61787,-1.29954 2.00367,-0.84335 4.64784,-2.22092 6.15471,-3.20653 0.31859,-0.20838 0.61768,-0.39675 0.66465,-0.41875 0.047,-0.0219 0.53071,-0.35217 1.07498,-0.73387 1.01456,-0.71147 2.0774,-1.53384 2.8717,-2.22189 0.24683,-0.21379 0.49581,-0.38873 0.5533,-0.38873 0.12538,0 1.18774,0.70193 1.18774,0.78473 0,0.10047 -1.73424,1.36235 -3.18596,2.31831 -0.76685,0.50499 -1.4656,0.9611 -1.55277,1.01351 -0.20117,0.12085 -1.5023,0.87364 -1.8705,1.08211 -0.39728,0.22487 -2.44341,1.25124 -2.49441,1.25124 -0.0234,0 -0.28699,0.11046 -0.58566,0.24536 -0.80759,0.36484 -0.96843,0.43163 -1.57824,0.65477 -0.4872,0.17837 -1.66627,0.55711 -2.38889,0.7674 -0.76647,0.22306 -2.94832,0.56742 -3.52633,0.55664 l -0.29587,-0.009 0.39813,-0.11786 z m 3.34444,0.0762 c 0.13139,-0.022 0.52555,-0.11124 0.87593,-0.19856 0.35037,-0.0867 0.78035,-0.19238 0.95555,-0.23365 0.17518,-0.0409 0.39018,-0.1054 0.47778,-0.14226 0.0875,-0.0371 0.37425,-0.13168 0.63702,-0.21066 0.42993,-0.12915 1.26836,-0.44172 1.91112,-0.71232 0.13138,-0.0553 0.36155,-0.15017 0.51143,-0.21077 0.27606,-0.11163 2.59939,-1.26886 3.11162,-1.54995 0.15327,-0.0838 0.29661,-0.17492 0.31854,-0.20181 0.0219,-0.0267 0.12044,-0.0742 0.21904,-0.10488 0.0985,-0.0305 0.17915,-0.0896 0.17915,-0.13025 0,-0.0409 0.038,-0.0742 0.0846,-0.0742 0.0466,0 0.55718,-0.31042 1.13473,-0.68993 1.08123,-0.71033 2.26973,-1.59111 3.32483,-2.46399 0.53528,-0.44277 0.62119,-0.48794 0.76956,-0.40418 0.0919,0.0514 0.37297,0.21667 0.62464,0.36627 l 0.45761,0.27193 -0.23181,0.19066 c -0.41998,0.3453 -1.97455,1.50002 -2.46389,1.83017 -1.38419,0.93367 -3.50951,2.11306 -4.7753,2.64997 -0.21898,0.0933 -0.46981,0.2021 -0.55741,0.24259 -0.38239,0.17684 -1.81081,0.70548 -2.04593,0.75711 -0.14196,0.0316 -0.31301,0.0858 -0.38015,0.12072 -0.13799,0.0725 -0.51843,0.17141 -1.55537,0.40427 -0.39417,0.0887 -0.8421,0.19418 -0.99537,0.23477 -0.15328,0.04 -0.63705,0.11229 -1.075,0.1596 -0.88964,0.0959 -1.88196,0.16114 -1.51296,0.0994 z"
       id="path3588"
       inkscape:connector-curvature="0" />
  </g>
</svg>
