<?xml version="1.0" encoding="UTF-8" standalone="no"?>
<!-- Created with Inkscape (http://www.inkscape.org/) -->

<svg
   xmlns:dc="http://purl.org/dc/elements/1.1/"
   xmlns:cc="http://creativecommons.org/ns#"
   xmlns:rdf="http://www.w3.org/1999/02/22-rdf-syntax-ns#"
   xmlns:svg="http://www.w3.org/2000/svg"
   xmlns="http://www.w3.org/2000/svg"
   xmlns:sodipodi="http://sodipodi.sourceforge.net/DTD/sodipodi-0.dtd"
   xmlns:inkscape="http://www.inkscape.org/namespaces/inkscape"
   width="60.266201"
   height="25.00145"
   id="svg3010"
   version="1.1"
   inkscape:version="0.48.0 r9654"
   sodipodi:docname="New document 2">
  <defs
     id="defs3012" />
  <sodipodi:namedview
     id="base"
     pagecolor="#ffffff"
     bordercolor="#666666"
     borderopacity="1.0"
     inkscape:pageopacity="0.0"
     inkscape:pageshadow="2"
     inkscape:zoom="0.58242187"
     inkscape:cx="48.75483"
     inkscape:cy="-38.027783"
     inkscape:document-units="px"
     inkscape:current-layer="layer1"
     showgrid="false"
     fit-margin-top="0"
     fit-margin-left="0"
     fit-margin-right="0"
     fit-margin-bottom="0"
     inkscape:window-width="849"
     inkscape:window-height="619"
     inkscape:window-x="0"
     inkscape:window-y="25"
     inkscape:window-maximized="0" />
  <metadata
     id="metadata3015">
    <rdf:RDF>
      <cc:Work
         rdf:about="">
        <dc:format>image/svg+xml</dc:format>
        <dc:type
           rdf:resource="http://purl.org/dc/dcmitype/StillImage" />
        <dc:title></dc:title>
      </cc:Work>
    </rdf:RDF>
  </metadata>
  <g
     inkscape:label="Layer 1"
     inkscape:groupmode="layer"
     id="layer1"
     transform="translate(-326.24517,-469.33295)">
    <path
       inkscape:connector-curvature="0"
       style="font-size:medium;font-style:normal;font-variant:normal;font-weight:normal;font-stretch:normal;text-indent:0;text-align:start;text-decoration:none;line-height:125%;letter-spacing:0;word-spacing:0;text-transform:none;direction:ltr;block-progression:tb;writing-mode:lr-tb;text-anchor:start;baseline-shift:baseline;color:#000000;fill:#ff0000;fill-opacity:1;fill-rule:nonzero;stroke:none;stroke-width:1;marker:none;visibility:visible;display:inline;overflow:visible;enable-background:accumulate;font-family:Droid Sans;-inkscape-font-specification:Droid Sans"
       d="m 336.23871,469.33362 c -1.67041,0 -3.16841,0.27572 -4.43781,0.84688 -1.2584,0.55592 -2.31576,1.36982 -3.1505,2.40533 -0.83251,1.03272 -1.43722,2.29201 -1.82933,3.7263 -0.39059,1.4185 -0.57591,2.98872 -0.5759,4.70887 -10e-6,1.72015 0.18591,3.27202 0.5759,4.70879 0.3917,1.43282 1.00881,2.68499 1.82933,3.72646 0.83335,1.04433 1.86841,1.87263 3.11662,2.43907 1.26942,0.57124 2.76739,0.84695 4.43781,0.84695 1.59443,0 3.02084,-0.27602 4.26842,-0.84695 0.5326,-0.24165 1.02864,-0.54686 1.49056,-0.88078 1.37065,1.2137 2.91079,2.49581 5.08146,3.31986 l 1.32118,-3.55695 c -1.51114,-0.57379 -2.60478,-1.4627 -3.89579,-2.60851 0.4115,-0.72837 0.76241,-1.52315 1.01629,-2.40533 0.42194,-1.4305 0.64363,-3.02904 0.64365,-4.74261 -2e-5,-1.73292 -0.22118,-3.28665 -0.64365,-4.70887 -0.40944,-1.42268 -1.03062,-2.66571 -1.8632,-3.69255 -0.005,-0.0108 -0.0282,0.0108 -0.0338,0 -0.83976,-1.0325 -1.88577,-1.88611 -3.11662,-2.43908 l 0,0.0333 c -1.23874,-0.5717 -2.64013,-0.8807 -4.23456,-0.88085 z m 32.31805,0 c -1.6704,0 -3.1684,0.27572 -4.4378,0.84688 -1.2584,0.55592 -2.31576,1.36982 -3.1505,2.40533 -0.83251,1.03272 -1.43722,2.29201 -1.82933,3.7263 -0.39059,1.4185 -0.57591,2.98872 -0.5759,4.70887 -10e-6,1.72015 0.1859,3.27202 0.5759,4.70879 0.3917,1.43282 1.0088,2.68499 1.82933,3.72646 0.83335,1.04433 1.86841,1.87263 3.11662,2.43907 1.26942,0.57124 2.76739,0.84695 4.43781,0.84695 1.59442,0 3.02083,-0.27602 4.26842,-0.84695 1.24766,-0.56613 2.30774,-1.39621 3.1505,-2.43907 0.84061,-1.04031 1.45085,-2.25973 1.86319,-3.69264 0.42194,-1.4305 0.64364,-3.02904 0.64366,-4.74261 -2e-5,-1.73292 -0.22118,-3.28665 -0.64366,-4.70887 -0.40943,-1.42268 -1.03061,-2.66571 -1.86319,-3.69255 -0.005,-0.0108 -0.0282,0.0108 -0.0338,0 -0.83977,-1.0325 -1.88577,-1.88611 -3.11663,-2.43908 l 0,0.0333 c -1.23873,-0.5717 -2.64012,-0.8807 -4.23455,-0.88085 z m -32.31805,3.5232 c 1.06139,0 1.92198,0.18174 2.64235,0.54198 l 0,0.0333 c 0.72999,0.35614 1.32125,0.8444 1.79545,1.5244 0.47542,0.67279 0.84961,1.51866 1.08405,2.5407 0.23585,1.02847 0.33875,2.19239 0.33875,3.5232 0,1.32066 -0.10255,2.51756 -0.33875,3.55694 -0.0848,0.36961 -0.18666,0.72326 -0.30489,1.05022 -0.8375,-0.60731 -1.77001,-1.18916 -2.8795,-1.72781 l -1.65994,3.38766 c 0.80796,0.39236 1.49524,0.82636 2.13421,1.2873 -0.0701,0.0387 -0.1306,0.0998 -0.20325,0.13554 -0.72126,0.35187 -1.57938,0.54198 -2.64236,0.54198 -1.05024,0 -1.94869,-0.19707 -2.67624,-0.54198 -0.008,0 -0.026,0 -0.0338,0 -0.72224,-0.36566 -1.31549,-0.8828 -1.79545,-1.5583 -0.47941,-0.69648 -0.83974,-1.5504 -1.08404,-2.57461 -0.24531,-1.03783 -0.37265,-2.23759 -0.37265,-3.55694 0,-1.32957 0.12773,-2.49636 0.37265,-3.5232 0.24375,-1.02188 0.59914,-1.86721 1.08404,-2.5407 l 0.0338,0 c 0.4836,-0.68062 1.05487,-1.16756 1.79544,-1.5244 l 0,-0.0333 c 0.73173,-0.3614 1.64869,-0.54198 2.71012,-0.54198 z m 32.31805,0 c 1.0614,0 1.92199,0.18174 2.64236,0.54198 l 0,0.0333 c 0.72998,0.35614 1.32125,0.8444 1.79545,1.5244 0.47542,0.67279 0.8496,1.51866 1.08404,2.5407 0.23586,1.02847 0.33876,2.19239 0.33876,3.5232 0,1.32066 -0.10255,2.51756 -0.33876,3.55694 -0.23424,1.02127 -0.59696,1.87999 -1.08404,2.57461 -0.47391,0.67961 -1.08741,1.19187 -1.82933,1.5583 -0.72126,0.35187 -1.57937,0.54198 -2.64235,0.54198 -1.05024,0 -1.94869,-0.19707 -2.67624,-0.54198 -0.008,0 -0.026,0 -0.0338,0 -0.72224,-0.36566 -1.31549,-0.8828 -1.79545,-1.5583 -0.47941,-0.69648 -0.83975,-1.5504 -1.08405,-2.57461 -0.24531,-1.03783 -0.37264,-2.23759 -0.37264,-3.55694 0,-1.32957 0.12773,-2.49636 0.37264,-3.5232 0.24376,-1.02188 0.59915,-1.86721 1.08405,-2.5407 l 0.0338,0 c 0.4836,-0.68062 1.05487,-1.16756 1.79544,-1.5244 l 0,-0.0333 c 0.73173,-0.3614 1.64869,-0.54198 2.71011,-0.54198 z m -19.85155,9.11269 -0.0338,3.59084 7.31729,0 0,-3.59084 -7.28342,0 z m 34.35064,1.82928 c -0.3109,0 -0.5957,0.0434 -0.84691,0.10194 -0.01,0 -0.024,0 -0.0338,0 -0.23927,0.0534 -0.4894,0.12617 -0.74528,0.23717 -0.24643,0.10728 -0.49336,0.25489 -0.7114,0.40652 -0.20012,0.13484 -0.38268,0.26442 -0.54203,0.40645 -0.0112,0.0108 -0.0229,0.024 -0.0338,0.0333 l -0.10158,0.0673 -0.44039,0.33879 0.37264,0.44028 0.1355,0.16951 0.5759,0.67752 0.13551,0.16928 0.33876,0.40653 0.40652,-0.33872 0.16938,-0.13554 c 0.2281,-0.19831 0.46275,-0.36681 0.67753,-0.47425 0.18845,-0.0954 0.3884,-0.13553 0.64365,-0.13553 0.0789,0 0.15101,0.0232 0.27101,0.0673 0.10624,0.0402 0.14457,0.0418 0.16938,0.0673 0.0296,0.0294 0.073,0.1271 0.10158,0.20334 0.017,0.0457 0.0338,0.12547 0.0338,0.30489 -1e-5,0.23353 -0.0199,0.43463 -0.0677,0.57589 -0.0615,0.17872 -0.14134,0.34445 -0.27101,0.54198 -0.13307,0.20775 -0.30559,0.41372 -0.50814,0.64369 -0.21226,0.24104 -0.49254,0.53734 -0.77916,0.84703 l -1.99871,2.16809 -0.16938,0.30481 0,0.13546 0,0.0673 0,0.88078 0,0.23717 0,0.54206 0.54202,0 0.20327,0 5.18308,0 0.74528,0 0,-0.77923 0,-0.9146 0,-0.20327 0,-0.54198 -0.54203,0 -0.20325,0 -2.23585,0 0.47428,-0.50823 c 0.29312,-0.31659 0.53168,-0.62465 0.77916,-0.91461 0.25973,-0.29978 0.53645,-0.61273 0.74527,-0.94866 0.20554,-0.32796 0.35493,-0.66629 0.47427,-1.01631 0.12544,-0.3628 0.20327,-0.74579 0.20327,-1.15177 0,-0.44423 -0.0851,-0.8547 -0.23715,-1.21958 -0.14107,-0.35498 -0.34211,-0.70314 -0.64364,-0.98233 -0.30959,-0.29236 -0.68723,-0.45034 -1.05017,-0.57597 -0.37922,-0.1329 -0.78104,-0.20326 -1.21955,-0.20326 z"
       id="path3907" />
  </g>
</svg>
