<?xml version="1.0" encoding="UTF-8" standalone="no"?>
<!-- Created with Inkscape (http://www.inkscape.org/) -->

<svg
   xmlns:dc="http://purl.org/dc/elements/1.1/"
   xmlns:cc="http://creativecommons.org/ns#"
   xmlns:rdf="http://www.w3.org/1999/02/22-rdf-syntax-ns#"
   xmlns:svg="http://www.w3.org/2000/svg"
   xmlns="http://www.w3.org/2000/svg"
   xmlns:sodipodi="http://sodipodi.sourceforge.net/DTD/sodipodi-0.dtd"
   xmlns:inkscape="http://www.inkscape.org/namespaces/inkscape"
   width="138.27863"
   height="31.389023"
   id="svg3000"
   version="1.1"
   inkscape:version="0.48.1 r9760"
   sodipodi:docname="VGC-logo.svg">
  <defs
     id="defs3002" />
  <sodipodi:namedview
     id="base"
     pagecolor="#ffffff"
     bordercolor="#666666"
     borderopacity="1.0"
     inkscape:pageopacity="0.0"
     inkscape:pageshadow="2"
     inkscape:zoom="1.979899"
     inkscape:cx="69.264428"
     inkscape:cy="15.538819"
     inkscape:document-units="px"
     inkscape:current-layer="layer1"
     showgrid="false"
     fit-margin-top="0"
     fit-margin-left="0"
     fit-margin-right="0"
     fit-margin-bottom="0"
     inkscape:window-width="517"
     inkscape:window-height="449"
     inkscape:window-x="84"
     inkscape:window-y="49"
     inkscape:window-maximized="0" />
  <metadata
     id="metadata3005">
    <rdf:RDF>
      <cc:Work
         rdf:about="">
        <dc:format>image/svg+xml</dc:format>
        <dc:type
           rdf:resource="http://purl.org/dc/dcmitype/StillImage" />
        <dc:title />
      </cc:Work>
    </rdf:RDF>
  </metadata>
  <g
     inkscape:label="Layer 1"
     inkscape:groupmode="layer"
     id="layer1"
     transform="translate(-410.86067,-728.09624)">
    <path
       style="fill:#ff0000"
       d="m 518.483,756.62321 0,-2.23452 0.521,0 0.52101,0 0.2556,0.82151 c 0.14057,0.45184 0.28591,0.7328 0.32297,0.62435 0.0371,-0.10843 0.1509,-0.46334 0.25302,-0.78865 0.17853,-0.56875 0.20548,-0.59149 0.70048,-0.59149 l 0.51483,0 0,2.1688 0,2.16881 -0.36147,0.0416 -0.36147,0.0416 -0.0104,-1.61891 c -0.005,-0.8904 -0.0323,-1.55975 -0.0591,-1.48746 -0.0267,0.0723 -0.14558,0.47499 -0.26405,0.89487 -0.18496,0.65552 -0.25557,0.7577 -0.4996,0.72293 -0.23356,-0.0333 -0.33105,-0.21616 -0.5471,-1.0263 l -0.26288,-0.98583 -0.0367,1.74162 -0.0367,1.74161 -0.32478,0 -0.3248,0 0,-2.23452 z m 4.6005,0 0,-2.23452 0.52521,0 0.52522,0 0.21934,0.78894 c 0.12063,0.43391 0.25213,0.75614 0.29219,0.71607 0.0401,-0.0401 0.16554,-0.3803 0.27879,-0.75608 0.2031,-0.67381 0.21311,-0.68321 0.72704,-0.68321 l 0.5211,0 0,2.1688 0,2.16881 -0.36146,0.0416 -0.36147,0.0416 -0.0104,-1.61891 c -0.005,-0.8904 -0.0323,-1.55975 -0.0591,-1.48746 -0.0268,0.0723 -0.14559,0.47499 -0.26405,0.89487 -0.18495,0.65552 -0.25557,0.7577 -0.4996,0.72293 -0.23357,-0.0333 -0.33106,-0.21616 -0.5471,-1.0263 l -0.26288,-0.98583 -0.0367,1.74162 -0.0367,1.74161 -0.32478,0 -0.32479,0 0,-2.23452 z m 4.99482,1.90592 c 0,-0.27748 0.0614,-0.3286 0.39432,-0.3286 l 0.39434,0 0,-1.57732 0,-1.57731 -0.33777,0 c -0.27506,0 -0.32994,-0.0549 -0.29574,-0.29575 0.0385,-0.27138 0.12051,-0.29892 0.99497,-0.33436 0.94337,-0.0382 0.95296,-0.0353 0.95296,0.29574 0,0.24674 -0.0689,0.33437 -0.26289,0.33437 -0.24827,0 -0.26288,0.0876 -0.26288,1.57731 l 0,1.57732 0.3286,0 c 0.26289,0 0.32861,0.0657 0.32861,0.3286 0,0.32474 -0.0131,0.32861 -1.11726,0.32861 -1.10412,0 -1.11726,-0.004 -1.11726,-0.32861 z m 5.05598,0.20353 c -0.35174,-0.14257 -0.54557,-0.38726 -0.65633,-0.82861 -0.0806,-0.32111 -0.0546,-0.36074 0.2372,-0.36074 0.20654,0 0.40922,0.12437 0.5481,0.33633 0.17142,0.26162 0.31053,0.32732 0.62622,0.29575 0.49504,-0.0495 0.7577,-0.39719 0.552,-0.73066 -0.078,-0.12651 -0.43236,-0.38938 -0.7874,-0.58413 -1.14139,-0.62616 -1.40912,-1.31704 -0.7895,-2.0374 0.27155,-0.31568 0.41513,-0.36879 0.9972,-0.36879 0.58207,0 0.72566,0.0531 0.9972,0.36879 0.17446,0.20284 0.31723,0.45423 0.31723,0.55863 0,0.29221 -0.62412,0.23441 -0.78865,-0.0731 -0.16913,-0.31602 -0.68689,-0.34588 -0.97645,-0.0564 -0.35715,0.35717 -0.23702,0.5628 0.56691,0.97046 0.88206,0.44727 1.19819,0.82567 1.19819,1.43418 0,0.91961 -1.0553,1.47549 -2.04192,1.07558 z m 4.58626,-0.005 c -0.33976,-0.13711 -0.70414,-0.62897 -0.70414,-0.95045 0,-0.36783 0.58555,-0.29686 0.84734,0.10268 0.17143,0.26162 0.31054,0.32732 0.62622,0.29574 0.49505,-0.0495 0.75771,-0.39718 0.55201,-0.73065 -0.078,-0.12652 -0.43237,-0.38937 -0.78739,-0.58414 -1.14142,-0.62616 -1.40914,-1.31702 -0.78952,-2.03739 0.27155,-0.31569 0.41514,-0.36879 0.99721,-0.36879 0.58207,0 0.72566,0.0531 0.9972,0.36879 0.17446,0.20284 0.31722,0.45423 0.31722,0.55864 0,0.28218 -0.56241,0.23232 -0.82388,-0.0731 -0.27017,-0.31553 -0.65875,-0.33879 -0.9412,-0.0564 -0.35716,0.35716 -0.23703,0.56279 0.56689,0.97044 0.88206,0.44727 1.19819,0.82568 1.19819,1.4342 0,0.92593 -1.05417,1.47466 -2.05615,1.07031 z m 4.15924,-0.19827 c 0,-0.27749 0.0614,-0.32861 0.39433,-0.32861 l 0.39432,0 0,-1.57731 0,-1.57732 -0.33776,0 c -0.27506,0 -0.32994,-0.0549 -0.29573,-0.29574 0.0385,-0.27139 0.1205,-0.29893 0.99496,-0.33437 0.94337,-0.0382 0.95296,-0.0353 0.95296,0.29575 0,0.26903 -0.0642,0.33436 -0.3286,0.33436 l -0.32861,0 0,1.57732 0,1.57731 0.39432,0 c 0.33299,0 0.39433,0.0512 0.39433,0.32861 0,0.32474 -0.0131,0.32861 -1.11725,0.32861 -1.10413,0 -1.11727,-0.004 -1.11727,-0.32861 z m 4.49873,-1.87306 0.0361,-2.20166 1.28156,-0.0376 1.28157,-0.0376 0,0.33336 c 0,0.32512 -0.0228,0.33337 -0.92009,0.33337 l -0.92011,0 0,0.5915 0,0.59148 0.78866,0 c 0.75361,0 0.78866,0.0146 0.78866,0.32861 0,0.31401 -0.0351,0.32861 -0.78866,0.32861 l -0.78866,0 0,0.65722 0,0.65721 0.98583,0 c 0.96391,0 0.98582,0.007 0.98582,0.3286 l 0,0.32861 -1.38333,0 -1.38333,0 0.0361,-2.20167 z m -26.88932,-6.75396 c -0.87133,-0.50649 -1.00103,-3.02608 -0.19968,-3.87908 0.69917,-0.74423 2.08521,-0.37495 2.08521,0.55555 0,0.28928 -0.52243,0.21967 -0.78501,-0.10461 -0.20508,-0.25325 -0.27942,-0.27107 -0.57306,-0.13728 -0.63159,0.28777 -0.81507,2.20851 -0.26865,2.8123 0.26629,0.29425 0.78036,0.32194 0.8856,0.0477 0.11626,-0.30296 0.74112,-0.2556 0.74112,0.0562 0,0.60282 -1.23427,1.02782 -1.88553,0.64924 z m 3.72573,-2.01986 0,-2.1688 0.39432,0 0.39433,0 0,0.85438 0,0.85438 0.65721,0 0.65722,0 0,-0.85438 0,-0.85438 0.39433,0 0.39433,0 0,2.1688 0,2.16881 -0.39433,0 -0.39433,0 0,-0.98582 0,-0.98582 -0.65722,0 -0.65721,0 0,0.98582 0,0.98582 -0.39433,0 -0.39432,0 z m 4.46905,2.02806 c 0,-0.0774 0.24791,-1.05626 0.55092,-2.17523 l 0.55089,-2.0345 0.45822,0.0392 0.45821,0.0392 0.56338,2.03736 c 0.30987,1.12055 0.56556,2.08565 0.5682,2.14468 0.002,0.059 -0.15786,0.0886 -0.35667,0.0657 -0.30852,-0.0354 -0.37864,-0.12341 -0.47873,-0.60021 l -0.11725,-0.55864 -0.63664,0 -0.63665,0 -0.14893,0.5915 c -0.12434,0.49373 -0.20068,0.59148 -0.46194,0.59148 -0.17216,0 -0.31301,-0.0633 -0.31301,-0.14074 z m 1.9226,-2.06091 c -0.0367,-0.12652 -0.13803,-0.4962 -0.22514,-0.82152 l -0.15838,-0.59149 -0.17551,0.65721 c -0.24774,0.92764 -0.23459,0.98582 0.2226,0.98582 0.32178,0 0.3897,-0.0464 0.33643,-0.23002 z m 2.94077,0.0329 0,-2.1688 0.99236,0 c 1.47029,0 1.89939,0.2821 1.89939,1.2487 0,0.24121 -0.0368,0.53431 -0.0817,0.65133 -0.13052,0.34014 -0.77175,0.59738 -1.48913,0.59738 l -0.66374,0 0,0.9201 c 0,0.89381 -0.009,0.9201 -0.3286,0.9201 l -0.32862,0 0,-2.16881 z m 2.0768,-0.48633 c 0.0868,-0.0868 0.15773,-0.28195 0.15773,-0.43377 0,-0.42869 -0.26046,-0.59149 -0.94638,-0.59149 l -0.63093,0 0,0.59149 0,0.5915 0.63093,0 c 0.347,0 0.70189,-0.071 0.78865,-0.15773 z m 2.76676,2.26121 c -0.43762,-0.43762 -0.45142,-0.83392 -0.0311,-0.89423 0.17903,-0.0257 0.35335,0.0802 0.49966,0.30347 0.17573,0.2682 0.31314,0.33408 0.63053,0.30234 0.4947,-0.0495 0.75755,-0.39712 0.55244,-0.73066 -0.0778,-0.12651 -0.44886,-0.39734 -0.82459,-0.60184 -0.86138,-0.46883 -1.12816,-0.85411 -1.01373,-1.46403 0.0956,-0.5094 0.45029,-0.81855 1.07338,-0.93544 0.659,-0.12363 1.49924,0.43018 1.49924,0.98817 0,0.24063 -0.5877,0.15304 -0.82388,-0.1228 -0.27017,-0.31554 -0.65876,-0.33879 -0.94122,-0.0563 -0.11361,0.1136 -0.20654,0.22706 -0.20654,0.25214 0,0.26883 0.29154,0.53844 0.93169,0.86159 0.42194,0.21299 0.82853,0.50194 0.90355,0.64211 0.15188,0.28379 0.17996,0.92577 0.0547,1.25206 -0.12278,0.31997 -0.75798,0.59738 -1.36781,0.59738 -0.42729,0 -0.62601,-0.0836 -0.93633,-0.39393 z m 5.05486,0.19699 c -0.46512,-0.32579 -0.73502,-1.24018 -0.67572,-2.28938 0.0576,-1.01983 0.31958,-1.51996 0.96058,-1.83399 0.67958,-0.33292 1.64657,0.1536 1.64657,0.82844 0,0.3043 -0.56256,0.2561 -0.76334,-0.0654 -0.25068,-0.40139 -0.7025,-0.27718 -0.98656,0.2712 -0.26535,0.51228 -0.24925,1.82336 0.0288,2.34286 0.18036,0.337 0.86109,0.39871 0.97999,0.0888 0.10222,-0.26637 0.74113,-0.26122 0.74113,0.006 0,0.11173 -0.14518,0.34833 -0.32263,0.52578 -0.37743,0.37741 -1.16191,0.4387 -1.60881,0.12568 z m 4.44387,-0.0177 c -0.42542,-0.29797 -0.79736,-1.18126 -0.80079,-1.90175 -0.0105,-2.19282 1.88113,-3.14447 2.77692,-1.39705 0.52364,1.02144 0.25939,2.81995 -0.48608,3.3084 -0.40621,0.26616 -1.10276,0.26168 -1.49005,-0.01 z m 1.12687,-0.5459 c 0.66242,-0.4212 0.5321,-2.70337 -0.16974,-2.97269 -0.61478,-0.23592 -1.04059,0.44065 -1.03362,1.64237 0.006,1.11832 0.56525,1.73606 1.20336,1.33032 z m -28.34599,-8.08782 c -0.83353,-0.28497 -1.3099,-1.44721 -1.10877,-2.70509 0.19005,-1.18848 1.14271,-1.90373 2.1103,-1.5844 0.39905,0.1317 0.83412,0.55483 0.83412,0.81122 0,0.1715 -0.57583,0.1057 -0.84277,-0.0963 -0.31174,-0.23591 -0.84948,-0.13086 -1.16173,0.22694 -0.16718,0.19158 -0.23003,0.49132 -0.23003,1.09722 0,1.0176 0.18044,1.44875 0.67904,1.62256 0.56873,0.19826 0.76683,0.0619 0.76683,-0.52774 0,-0.48094 -0.0238,-0.51171 -0.39432,-0.51171 -0.33299,0 -0.39433,-0.0512 -0.39433,-0.32861 0,-0.314 0.0351,-0.32861 0.78865,-0.32861 l 0.78866,0 0,1.11131 0,1.11132 -0.49291,0.0831 c -0.2711,0.0457 -0.58164,0.1037 -0.69007,0.12881 -0.10845,0.0251 -0.40214,-0.0244 -0.65267,-0.11005 z m 27.38525,-0.016 c -0.42139,-0.1834 -0.83838,-0.6597 -0.83838,-0.95764 0,-0.0989 0.16197,-0.16791 0.39433,-0.16791 0.26572,0 0.39434,0.0653 0.39434,0.20041 0,0.33344 0.63889,0.49903 1.00355,0.2601 0.53521,-0.35069 0.36947,-0.7541 -0.4884,-1.18882 -1.08986,-0.55228 -1.39809,-1.0997 -1.01946,-1.8106 0.56783,-1.06615 2.47594,-0.78758 2.47594,0.36146 0,0.32069 -0.52371,0.24642 -0.86589,-0.1228 -0.36176,-0.39035 -0.46042,-0.40184 -0.83634,-0.0974 -0.38599,0.31254 -0.24264,0.63145 0.43688,0.97187 0.87402,0.43787 1.26535,0.87739 1.26535,1.42115 0,0.62575 -0.2943,1.01605 -0.89111,1.1818 -0.59094,0.16412 -0.52793,0.16727 -1.03081,-0.0516 z m -23.7094,-2.1114 0,-2.16881 1.31443,0 c 1.31442,0 1.31442,0 1.31442,0.3286 0,0.31923 -0.0263,0.32862 -0.92011,0.32862 l -0.92009,0 0,0.5195 0,0.51949 0.82152,0.0392 c 0.73785,0.0352 0.82579,0.0693 0.86351,0.33488 0.0399,0.28095 -0.002,0.29574 -0.82152,0.29574 l -0.86351,0 0,0.65722 0,0.65721 0.98582,0 c 0.96391,0 0.98582,0.007 0.98582,0.32861 l 0,0.3286 -1.38015,0 -1.38014,0 0,-2.1688 z m 4.33761,-0.008 0,-2.17637 0.54328,0.0404 c 0.53415,0.0398 0.54712,0.0526 0.76972,0.76335 0.21437,0.68447 0.23352,0.70546 0.36006,0.39434 0.0735,-0.18074 0.17545,-0.52085 0.22654,-0.75581 0.0878,-0.40351 0.12511,-0.42718 0.67398,-0.42718 l 0.58104,0 0,2.1688 0,2.16881 -0.39433,0 -0.39433,0 -0.0101,-1.61017 -0.0101,-1.61018 -0.26863,0.96002 c -0.23047,0.8237 -0.30678,0.95435 -0.53731,0.92009 -0.21284,-0.0317 -0.32566,-0.24486 -0.54273,-1.02573 l -0.27404,-0.98582 -0.0368,1.6759 -0.0368,1.67589 -0.32468,0 -0.32467,0 0,-2.17637 z m 4.86337,0.008 0,-2.16881 1.31443,0 c 1.31442,0 1.31442,0 1.31442,0.3286 0,0.31923 -0.0263,0.32862 -0.9201,0.32862 l -0.92009,0 0,0.52577 0,0.52577 0.78865,0 c 0.75361,0 0.78866,0.0146 0.78866,0.32861 0,0.31399 -0.0351,0.3286 -0.78866,0.3286 l -0.78865,0 0,0.65721 0,0.65722 0.98582,0 c 0.96391,0 0.98582,0.007 0.98582,0.32861 l 0,0.3286 -1.38015,0 -1.38015,0 z m 4.60049,0 0,-2.16881 1.31443,0 c 1.31443,0 1.31443,0 1.31443,0.3286 0,0.31923 -0.0263,0.32862 -0.92009,0.32862 l -0.92011,0 0,0.52577 0,0.52577 0.78866,0 c 0.7536,0 0.78865,0.0146 0.78865,0.32861 0,0.31399 -0.0351,0.3286 -0.78865,0.3286 l -0.78866,0 0,0.65721 0,0.65722 0.98582,0 c 0.96391,0 0.98583,0.007 0.98583,0.32861 l 0,0.3286 -1.38015,0 -1.38016,0 z m 4.46906,0 0,-2.16881 0.3831,0 c 0.35761,0 0.43122,0.0984 1.10628,1.47873 l 0.72318,1.47874 0.011,-1.47874 0.0109,-1.47873 0.32861,0 0.3286,0 0,2.16881 0,2.1688 -0.39568,0 c -0.37443,0 -0.43383,-0.0794 -1.10569,-1.47873 l -0.71002,-1.47873 -0.0116,1.47873 -0.0116,1.47873 -0.32861,0 -0.32861,0 0,-2.1688 z m 0.70753,-6.71489 c -0.36924,-0.18217 -0.70755,-0.65126 -0.70755,-0.98106 0,-0.0689 0.17745,-0.12526 0.39433,-0.12526 0.25868,0 0.39434,0.0662 0.39434,0.19254 0,0.49787 1.08839,0.57542 1.24291,0.0886 0.13399,-0.42218 -0.0693,-0.67637 -0.86018,-1.07562 -0.42195,-0.21298 -0.82854,-0.50194 -0.90357,-0.64211 -0.40165,-0.75049 0.22394,-1.71799 1.11085,-1.71799 0.74863,0 1.36791,0.42843 1.37744,0.95295 0.006,0.32966 -0.60414,0.3041 -0.78448,-0.0329 -0.19094,-0.3568 -0.86089,-0.35623 -1.05202,5.2e-4 -0.11568,0.21617 -0.082,0.32289 0.18658,0.59149 0.18024,0.18025 0.40566,0.32772 0.50091,0.32772 0.0953,0 0.39369,0.18176 0.6632,0.40391 0.39508,0.32566 0.48999,0.49281 0.48999,0.86301 0,0.62827 -0.20336,0.95615 -0.72929,1.1759 -0.56189,0.23477 -0.81124,0.23062 -1.32346,-0.0221 z m -22.83864,-0.15337 c -0.0365,-0.1265 -0.28018,-1.02854 -0.54144,-2.0045 -0.26125,-0.97596 -0.49966,-1.84841 -0.52979,-1.93878 -0.0351,-0.1053 0.077,-0.16429 0.31232,-0.16429 0.36076,0 0.37466,0.0296 0.8043,1.71527 0.24046,0.9434 0.47961,1.66798 0.53144,1.61018 0.0518,-0.0578 0.2167,-0.5783 0.36639,-1.15666 0.14968,-0.57834 0.33725,-1.30292 0.41683,-1.61017 0.12088,-0.46673 0.1979,-0.55862 0.46821,-0.55862 0.17795,0 0.32466,0.0444 0.326,0.0986 0.002,0.0542 -0.24888,1.03018 -0.55607,2.16881 l -0.55854,2.07022 -0.48661,0 c -0.35049,0 -0.50518,-0.0643 -0.55304,-0.23003 z m 3.86056,-1.93878 0,-2.16879 0.39433,0 0.39433,0 0,1.84019 0,1.84019 1.05154,0 c 1.03402,0 1.05154,0.005 1.05154,0.32861 l 0,0.32861 -1.44587,0 -1.44587,0 z m 4.33515,2.07023 c -0.002,-0.0543 0.24887,-1.03018 0.55608,-2.16881 l 0.55854,-2.07021 0.42606,0 c 0.47489,0 0.38192,-0.21124 1.15706,2.62884 0.18744,0.68679 0.37288,1.35667 0.41207,1.48863 0.059,0.19858 0.007,0.23255 -0.30219,0.19716 -0.32244,-0.0369 -0.38949,-0.11909 -0.49074,-0.60138 l -0.11725,-0.55863 -0.63603,0 c -0.58673,0 -0.64226,0.028 -0.71648,0.36146 -0.17004,0.76407 -0.20674,0.82152 -0.52491,0.82152 -0.17586,0 -0.32086,-0.0444 -0.32221,-0.0986 z m 1.97336,-1.8402 c -0.002,-0.12455 -0.25168,-1.08514 -0.35172,-1.34729 -0.0447,-0.1171 -0.14748,0.0697 -0.25316,0.46006 -0.25005,0.92341 -0.23668,0.98581 0.21129,0.98581 0.21688,0 0.39401,-0.0444 0.39359,-0.0986 z m 2.6296,1.78855 c 0,-0.0826 0.25023,-1.05859 0.55609,-2.1688 l 0.55609,-2.01857 0.42606,0 c 0.47486,0 0.38189,-0.21123 1.15704,2.62884 0.18743,0.68679 0.37288,1.35667 0.41207,1.48863 0.059,0.19858 0.007,0.23255 -0.3022,0.19716 -0.32243,-0.0369 -0.38949,-0.11909 -0.49073,-0.60138 l -0.11726,-0.55863 -0.63665,0 -0.63664,0 -0.14894,0.59149 c -0.12432,0.49373 -0.20066,0.59149 -0.46193,0.59149 -0.17215,0 -0.313,-0.0676 -0.313,-0.15023 z m 1.97163,-1.76321 c 0,-0.20415 -0.3113,-1.3211 -0.39399,-1.41357 -0.0525,-0.0587 -0.18567,0.25187 -0.29605,0.69008 l -0.2007,0.79673 0.44537,0 c 0.24495,0 0.44537,-0.033 0.44537,-0.0732 z m 2.62885,-0.25537 0,-2.16879 0.52101,0 0.52101,0 0.25509,0.82151 0.2551,0.82152 0.23128,-0.82152 0.23126,-0.82151 0.56993,0 0.56995,0 0,2.16879 0,2.16881 -0.39433,0 -0.39432,0 -0.0101,-1.61017 -0.0101,-1.61018 -0.26863,0.96002 c -0.23156,0.82758 -0.30609,0.95451 -0.54029,0.9201 -0.21695,-0.0319 -0.32628,-0.23852 -0.54274,-1.02573 l -0.27105,-0.98583 -0.0368,1.6759 -0.0368,1.67589 -0.32468,0 -0.32468,0 0,-2.16881 z m 9.46388,0 0,-2.16879 1.31443,0 c 1.31442,0 1.31442,0 1.31442,0.3286 0,0.31922 -0.0263,0.32861 -0.92009,0.32861 l -0.92011,0 0,0.52577 0,0.52577 0.78866,0 c 0.75361,0 0.78866,0.0146 0.78866,0.3286 0,0.31401 -0.0351,0.32861 -0.78866,0.32861 l -0.78866,0 0,0.65146 0,0.65145 0.95297,0.0386 c 0.87446,0.0354 0.95642,0.063 0.99496,0.33437 0.0413,0.29069 0.0183,0.29574 -1.34728,0.29574 l -1.3893,0 0,-2.16881 z"
       id="path3353"
       inkscape:connector-curvature="0"
       sodipodi:nodetypes="cccccccscccccccsccccccccccccccccscccccccccccccccccsscccsccssscssssccssccccscsccsscccscccccscsccssccsscccsccsscccssssccccsscccssscccssccccccsscssssccccccccccccccccccccccccccccccccscccccccscccsccscccsscscssccccsscccsccccccscssscscccscccccsccccscccccssccsccsccssccssssssccccccccssscsssscsssccccssscccccscccssccccccccsccscccccccccscccccccccssscccssscccssccccccssscccssscccssccccccsscccccccscccccccccssscccscscssssscccscsscscscscsccccccccsscccccscssccccscscccccsccsscscccscccsssscccsssccccccccccccccccccccccccccccssscccssscccccsccc" />
  </g>
</svg>
