<?xml version="1.0" encoding="UTF-8" standalone="no"?>
<!-- Created with Inkscape (http://www.inkscape.org/) -->

<svg
   xmlns:dc="http://purl.org/dc/elements/1.1/"
   xmlns:cc="http://creativecommons.org/ns#"
   xmlns:rdf="http://www.w3.org/1999/02/22-rdf-syntax-ns#"
   xmlns:svg="http://www.w3.org/2000/svg"
   xmlns="http://www.w3.org/2000/svg"
   xmlns:sodipodi="http://sodipodi.sourceforge.net/DTD/sodipodi-0.dtd"
   xmlns:inkscape="http://www.inkscape.org/namespaces/inkscape"
   width="138.27863"
   height="31.389023"
   id="svg3000"
   version="1.1"
   inkscape:version="0.48.0 r9654"
   sodipodi:docname="New document 2">
  <defs
     id="defs3002" />
  <sodipodi:namedview
     id="base"
     pagecolor="#ffffff"
     bordercolor="#666666"
     borderopacity="1.0"
     inkscape:pageopacity="0.0"
     inkscape:pageshadow="2"
     inkscape:zoom="1.979899"
     inkscape:cx="21.282182"
     inkscape:cy="51.90431"
     inkscape:document-units="px"
     inkscape:current-layer="layer1"
     showgrid="false"
     fit-margin-top="0"
     fit-margin-left="0"
     fit-margin-right="0"
     fit-margin-bottom="0"
     inkscape:window-width="517"
     inkscape:window-height="449"
     inkscape:window-x="77"
     inkscape:window-y="49"
     inkscape:window-maximized="0" />
  <metadata
     id="metadata3005">
    <rdf:RDF>
      <cc:Work
         rdf:about="">
        <dc:format>image/svg+xml</dc:format>
        <dc:type
           rdf:resource="http://purl.org/dc/dcmitype/StillImage" />
        <dc:title></dc:title>
      </cc:Work>
    </rdf:RDF>
  </metadata>
  <g
     inkscape:label="Layer 1"
     inkscape:groupmode="layer"
     id="layer1"
     transform="translate(-410.86067,-728.09624)">
    <path
       style="fill:#ff0000"
       d="m 483.55012,759.18731 c -2.46127,-0.63607 -4.84981,-2.03077 -6.86098,-4.00625 -3.02924,-2.97549 -4.71835,-6.55634 -5.1274,-10.86994 -0.0742,-0.78302 -0.13506,-4.69166 -0.13512,-8.68587 l -1.1e-4,-7.26222 13.53861,0 13.5386,0 -0.002,7.65654 c -0.002,8.30749 -0.0681,9.36044 -0.71971,11.59983 -1.70448,5.85793 -6.35053,10.42576 -11.89624,11.69599 -1.04858,0.24016 -0.87287,0.2498 -2.33509,-0.12808 z m 2.73725,-0.33918 c 1.44557,-0.35506 3.7663,-1.48483 5.07363,-2.46993 2.77935,-2.09431 5.09076,-5.41461 6.03313,-8.66659 0.59023,-2.03676 0.71526,-3.37382 0.71526,-7.64931 l 0,-3.94414 -13.15841,0 -13.1584,0 0.0701,4.43619 c 0.0385,2.43991 0.13317,4.76805 0.21024,5.17366 0.44249,2.32865 1.6062,5.11428 2.89235,6.92362 2.18643,3.07584 5.34229,5.3197 8.73139,6.20815 1.19911,0.31434 1.26468,0.31405 2.5907,-0.0116 z m 1.37871,-1.8702 c -0.27549,-0.41807 -0.13004,-0.72992 0.21166,-0.45378 0.13755,0.11117 0.17578,0.27172 0.11745,0.4934 l -0.0865,0.32861 -0.24262,-0.36823 z m 0.97942,-0.0605 c 0,-0.17995 0.61821,-0.81995 0.79203,-0.81995 0.0811,0 0.12804,0.10031 0.10444,0.22291 -0.046,0.23884 -0.89647,0.80524 -0.89647,0.59704 z m -0.78865,-0.59231 c -0.4558,-0.20509 -0.45127,-0.19779 -0.26288,-0.4248 0.0929,-0.11194 0.12646,-0.24596 0.0746,-0.29783 -0.0519,-0.0519 -0.15195,0.009 -0.22242,0.13462 -0.1453,0.25962 -0.46206,0.30515 -0.53801,0.0773 -0.0345,-0.10359 -0.1629,-0.078 -0.40528,0.0808 -0.35265,0.23106 -0.35475,0.2305 -0.35475,-0.0952 0,-0.46344 0.32565,-0.7135 0.52088,-0.39996 0.1201,0.19289 0.13171,0.154 0.0619,-0.20773 -0.0825,-0.42798 -0.0727,-0.44175 0.25717,-0.35897 0.36795,0.0924 0.48035,-0.10097 0.13563,-0.23325 -0.17829,-0.0684 -0.16446,-0.13385 0.0986,-0.46684 0.34119,-0.43192 0.56867,-0.50017 0.68207,-0.20466 0.17772,0.46314 0.87423,-0.0183 0.87055,-0.60184 -0.003,-0.46573 -0.17291,-0.66339 -0.74036,-0.86095 -0.65038,-0.22643 -0.8101,-0.22386 -1.05088,0.017 -0.22857,0.22857 -0.74133,0.25687 -1.10712,0.0611 -0.27878,-0.14919 -0.35405,-0.41802 -0.0899,-0.32123 0.26191,0.096 0.51823,-0.13865 0.52267,-0.47849 0.002,-0.1721 -0.0413,-0.6801 -0.0967,-1.12888 -0.0907,-0.73428 -0.0652,-0.88871 0.25485,-1.54285 0.36081,-0.73745 0.40754,-1.38829 0.1068,-1.48705 -0.12419,-0.0408 -0.13459,0.0266 -0.0418,0.27061 0.0958,0.25209 0.0554,0.4535 -0.18026,0.89854 -0.16709,0.3155 -0.3457,0.82501 -0.39693,1.13226 -0.10321,0.61909 -0.3015,0.69336 -1.1042,0.41355 -0.33791,-0.1178 -0.47756,-0.10486 -0.74254,0.0687 -0.46062,0.30181 -0.40756,0.58786 0.21452,1.15649 0.48664,0.44483 0.53168,0.53743 0.44899,0.92298 -0.0505,0.23571 -0.10169,0.62079 -0.11369,0.85575 -0.0124,0.24194 -0.0929,0.42719 -0.18573,0.42719 -0.0902,0 -0.25159,-0.19224 -0.35873,-0.42719 l -0.1948,-0.42719 0.0301,0.69016 c 0.0166,0.37958 -0.009,0.69011 -0.0575,0.69007 -0.0481,-5e-5 -0.20798,-0.16274 -0.35508,-0.36156 l -0.26747,-0.36146 0.0177,0.32861 c 0.0643,1.19407 -0.13301,1.59911 -0.42566,0.87379 -0.0938,-0.23239 -0.11631,-0.18934 -0.12751,0.24347 l -0.0136,0.52577 -0.19609,-0.36147 c -0.27148,-0.50039 -0.43594,-0.45178 -0.39093,0.11555 0.0426,0.53763 -0.27777,0.96885 -0.71992,0.96885 -0.25172,0 -0.2547,-0.0171 -0.0557,-0.3209 0.11564,-0.1765 0.30925,-0.35011 0.43022,-0.3858 0.12098,-0.0357 0.0721,-0.0539 -0.10866,-0.0406 -0.2683,0.0199 -0.32286,-0.03 -0.29729,-0.2714 0.0172,-0.16267 -0.0272,-0.29576 -0.0986,-0.29576 -0.0714,0 -0.12989,0.11481 -0.12989,0.25513 0,0.40127 -0.21259,0.43275 -0.61057,0.0904 -0.32526,-0.27977 -0.34561,-0.34087 -0.17997,-0.54043 0.16838,-0.20289 0.15531,-0.22052 -0.13298,-0.17936 -0.26375,0.0377 -0.33473,-0.0234 -0.40549,-0.34868 -0.0612,-0.28135 -0.0902,-0.31368 -0.10132,-0.11284 -0.0104,0.18747 -0.1305,0.31036 -0.35966,0.36787 -0.53213,0.13356 -0.52952,-0.0124 0.009,-0.52061 0.3487,-0.32888 0.56908,-0.44242 0.74826,-0.38555 0.21309,0.0676 0.24197,0.0313 0.17926,-0.22563 -0.0596,-0.24428 0.008,-0.35276 0.33411,-0.53625 0.49695,-0.27958 0.65044,-0.28917 0.65044,-0.0406 0,0.30698 0.22897,0.36066 0.63744,0.14944 0.54256,-0.28058 0.60123,-0.55494 0.22226,-1.03918 -0.29458,-0.37639 -0.39116,-0.41417 -1.06249,-0.41548 -0.57822,-7.8e-4 -0.77896,-0.0568 -0.92504,-0.2566 -0.26686,-0.36491 -0.23294,-0.46779 0.15421,-0.46779 0.22625,0 0.59815,-0.23193 1.1065,-0.69007 0.42115,-0.37954 1.33079,-1.0154 2.02141,-1.41301 0.99424,-0.57242 1.25646,-0.78451 1.25945,-1.01868 0.002,-0.17694 -0.0754,-0.29575 -0.19338,-0.29575 -0.10954,0 -0.19717,0.11685 -0.19717,0.26289 0,0.35128 -0.31036,0.33366 -0.57911,-0.0329 l -0.21684,-0.29575 0.0874,0.3286 c 0.0481,0.18074 0.11884,0.41206 0.15726,0.51404 0.0497,0.13186 -0.003,0.16497 -0.18233,0.11461 -0.62432,-0.17534 -0.64646,-0.16913 -0.68812,0.19287 -0.0495,0.42973 -0.2027,0.46058 -0.46039,0.0927 -0.16818,-0.2401 -0.19729,-0.24534 -0.27261,-0.0491 -0.0464,0.12085 -0.0175,0.30026 0.0642,0.39869 0.2329,0.28064 -0.23289,0.39274 -0.52679,0.12678 -0.22842,-0.20672 -0.24154,-0.20047 -0.24154,0.11509 0,0.33442 -0.23496,0.72885 -0.43415,0.72885 -0.0584,0 -0.13094,-0.13309 -0.16119,-0.29575 -0.0474,-0.25502 -0.069,-0.23693 -0.15702,0.13144 -0.12307,0.51527 -0.22954,0.53574 -0.46808,0.09 -0.17444,-0.32595 -0.18379,-0.32813 -0.28085,-0.0657 -0.0652,0.1764 -0.21697,0.27144 -0.43326,0.27144 -0.52019,0 -0.53107,-0.004 -0.51198,-0.20345 0.01,-0.10342 -0.0344,-0.15561 -0.0986,-0.11598 -0.0641,0.0396 -0.11661,0.1573 -0.11661,0.26147 0,0.29507 -0.24499,0.22406 -0.59365,-0.17206 -0.37067,-0.42116 -0.4025,-0.55863 -0.12928,-0.55863 0.10844,0 0.19717,-0.0573 0.19717,-0.12731 0,-0.0701 -0.0887,-0.0933 -0.19717,-0.0517 -0.15554,0.0597 -0.19717,-0.0383 -0.19717,-0.46418 0,-0.41621 0.0502,-0.53983 0.21908,-0.53983 0.12048,0 0.18014,-0.0389 0.13258,-0.0865 -0.0475,-0.0475 -0.0208,-0.16557 0.0594,-0.26222 0.10897,-0.13131 0.0913,-0.25901 -0.0699,-0.50501 -0.20228,-0.30873 -0.20121,-0.32914 0.0173,-0.32725 0.3641,0.003 0.60809,0.21317 0.5186,0.44639 -0.0657,0.17114 -0.0186,0.19631 0.24373,0.13046 0.24492,-0.0615 0.32511,-0.0294 0.32511,0.12982 0,0.53461 1.40771,0.0527 1.88111,-0.64394 0.24354,-0.35841 0.33494,-0.40599 0.59505,-0.30977 0.18275,0.0676 0.39584,0.062 0.52574,-0.0139 0.1817,-0.10605 0.18528,-0.13078 0.0213,-0.14706 -0.10844,-0.0108 -0.26574,-0.0112 -0.34954,-5.3e-4 -0.24645,0.03 -0.702,-0.64918 -0.702,-1.04668 0,-0.20712 0.15553,-0.55137 0.35765,-0.79157 0.19961,-0.23723 0.27222,-0.39693 0.16431,-0.36142 -0.10635,0.035 -0.33052,0.26609 -0.49814,0.51354 -0.29086,0.42935 -0.30091,0.57585 -0.0868,1.26403 0.0658,0.21127 -7e-5,0.37813 -0.24629,0.62435 -0.46204,0.46203 -0.66667,0.43089 -0.41146,-0.0626 0.11338,-0.21925 0.25226,-0.78176 0.30864,-1.25001 0.0814,-0.67644 0.17986,-0.93212 0.47903,-1.24438 0.2071,-0.21617 0.31664,-0.39303 0.24342,-0.39303 -0.36943,0 -0.74757,0.68561 -0.91767,1.66377 -0.19522,1.12265 -0.3729,1.39228 -0.9175,1.39228 -0.3755,0 -0.84119,-0.4271 -0.84119,-0.77148 0,-0.15092 0.0471,-0.15435 0.26334,-0.0193 0.38511,0.24051 0.63143,0.0249 0.9964,-0.87221 0.60502,-1.48706 1.1652,-1.91632 2.50314,-1.91813 0.32112,-3.8e-4 0.60933,-0.0812 0.70617,-0.1979 0.14003,-0.16873 0.0987,-0.19717 -0.28622,-0.19717 -0.24742,0 -0.51496,0.0651 -0.59454,0.14468 -0.1889,0.18891 -0.35669,-0.30406 -0.24922,-0.73227 0.0613,-0.24437 0.159,-0.30182 0.48668,-0.28626 0.49465,0.0235 0.78588,-0.31661 0.56751,-0.66278 -0.19408,-0.30766 -0.35303,-0.33772 -0.6475,-0.1224 -0.22489,0.16445 -0.2315,0.21068 -0.0605,0.42134 0.16947,0.20863 0.1689,0.22226 -0.005,0.11524 -0.10844,-0.0667 -0.61121,-0.12247 -1.11726,-0.12382 -0.86661,-0.002 -0.92265,-0.0205 -0.96407,-0.31334 -0.061,-0.43108 0.16886,-0.63565 0.45108,-0.40143 0.2125,0.17637 1.36737,0.53151 1.36737,0.42049 0,-0.0297 -0.0597,-0.16558 -0.13265,-0.30189 -0.0916,-0.17107 -0.0831,-0.4331 0.0272,-0.84574 0.14305,-0.53482 0.2,-0.59788 0.53996,-0.59788 0.25888,0 0.50663,-0.13549 0.77703,-0.42497 0.3623,-0.38785 0.4699,-0.42635 1.23218,-0.44102 0.45938,-0.009 0.92483,-0.0904 1.03437,-0.18134 0.16301,-0.13529 0.21401,-0.12651 0.28111,0.0484 0.0451,0.11751 0.009,0.30152 -0.0801,0.40892 -0.14322,0.17258 -0.0991,0.17306 0.37962,0.004 l 0.5417,-0.19112 0,0.34528 c 0,0.18991 -0.10021,0.45601 -0.22266,0.59132 -0.20924,0.23122 -0.20924,0.24089 0,0.1606 0.28559,-0.10959 0.30411,0.31052 0.0297,0.67335 -0.22072,0.29183 -0.26605,1.05402 -0.0699,1.17525 0.2101,0.12985 0.15375,0.27768 -0.16431,0.43107 -0.23546,0.11355 -0.24886,0.14445 -0.0657,0.15153 0.12651,0.005 0.23003,0.0947 0.23003,0.19952 0,0.10486 -0.10352,0.24957 -0.23003,0.32159 -0.29733,0.16927 -0.0808,0.56637 0.36637,0.67192 l 0.30863,0.0728 -0.31299,0.2916 c -0.43042,0.401 -0.93735,0.42911 -1.33478,0.074 -0.12987,-0.11604 -0.24877,-0.14242 -0.29618,-0.0657 -0.10155,0.16433 0.0427,0.5462 0.20637,0.5462 0.0688,0 0.0849,-0.065 0.0358,-0.14456 -0.0591,-0.0956 0.0105,-0.0911 0.20548,0.0132 0.16214,0.0868 0.46215,0.12431 0.66672,0.0834 0.31319,-0.0626 0.44041,0.005 0.80546,0.43273 0.54135,0.63321 1.58403,2.37904 1.88978,3.16417 0.31764,0.81566 0.66307,1.28209 1.12726,1.52213 0.35696,0.18459 0.42394,0.18411 0.71258,-0.005 0.34903,-0.2287 0.41615,-0.68899 0.16976,-1.16429 -0.0819,-0.15791 -0.52657,-0.68173 -0.98824,-1.16406 -1.3862,-1.44824 -1.5703,-2.36358 -0.76652,-3.81101 1.29128,-2.32526 1.57871,-3.35344 1.04636,-3.74271 -0.32057,-0.2344 -0.52297,-0.22571 -0.78229,0.0336 -0.25258,0.25259 -0.19373,0.51788 0.10921,0.49226 0.29292,-0.0248 0.27402,0.3065 -0.0267,0.46743 -0.52606,0.28154 -1.08171,-0.58392 -0.65125,-1.01438 0.10298,-0.10297 0.10851,-0.15774 0.016,-0.15774 -0.078,0 -0.21412,0.17466 -0.30254,0.38812 -0.14083,0.33999 -0.1255,0.43764 0.12355,0.78741 0.15638,0.21961 0.31696,0.60048 0.35687,0.84637 0.0808,0.49814 -0.13614,1.29373 -0.41623,1.52618 -0.15414,0.12793 -0.15921,0.0895 -0.0325,-0.24619 0.12528,-0.33192 0.10202,-0.53487 -0.14055,-1.22549 -0.32139,-0.91507 -0.36162,-1.43041 -0.14348,-1.83801 0.10834,-0.20245 0.10631,-0.24647 -0.008,-0.17575 -0.34585,0.21374 -0.4073,0.74318 -0.18783,1.61831 0.20091,0.8011 0.20085,0.91155 -10e-4,1.55101 -0.17545,0.55659 -0.19018,0.80826 -0.0769,1.31368 0.0771,0.34386 0.10103,0.80306 0.0533,1.02045 l -0.0868,0.39525 -0.18912,-0.51612 c -0.65757,-1.79446 -0.63177,-1.59731 -0.31042,-2.37261 0.25212,-0.60833 0.27827,-0.82339 0.18587,-1.52878 -0.14017,-1.06995 -0.0915,-1.41319 0.25245,-1.78115 0.23134,-0.24748 0.24079,-0.28673 0.0515,-0.21409 -0.4675,0.17939 -0.6355,0.777 -0.54427,1.93597 0.0781,0.99174 0.0601,1.11481 -0.22363,1.5285 -0.46214,0.67388 -0.68349,0.66658 -0.37538,-0.0123 0.19506,-0.42983 0.25892,-0.8616 0.2611,-1.76539 0.002,-1.02145 0.0461,-1.25996 0.29863,-1.63095 1.01883,-1.49696 3.07961,-1.46733 3.87169,0.0556 0.3631,0.69818 0.17555,1.61215 -0.59554,2.90237 -0.37409,0.62593 -0.68015,1.16463 -0.68015,1.19712 0,0.0325 0.16266,-0.0259 0.36147,-0.12973 0.70491,-0.3682 1.60874,-1.58036 1.60969,-2.15882 0,-0.39422 0.21261,-0.26172 0.29829,0.18645 0.12992,0.67962 -0.14799,1.18421 -1.28617,2.33526 -0.6131,0.62004 -1.11293,1.23226 -1.11073,1.36049 0.004,0.21777 0.0132,0.21717 0.14486,-0.009 0.0775,-0.13329 0.33903,-0.32514 0.58121,-0.42633 0.69132,-0.28885 1.24158,0.0213 1.24158,0.69979 0,0.17543 -0.0412,0.16948 -0.27187,-0.0392 -0.24811,-0.22452 -0.30269,-0.22882 -0.62435,-0.0491 -0.27336,0.15272 -0.36204,0.31341 -0.39508,0.71581 l -0.0426,0.51887 0.28216,-0.3587 c 0.35117,-0.44645 1.0952,-0.50578 1.30998,-0.10446 0.22496,0.42034 0.16336,0.5333 -0.24614,0.4514 -0.29757,-0.0595 -0.4139,-0.0172 -0.52529,0.19092 -0.18848,0.35218 -0.0738,0.63119 0.53483,1.30216 0.62734,0.69153 0.68973,1.37234 0.18118,1.97674 -0.23085,0.27433 -0.28254,0.42419 -0.18126,0.52546 0.16435,0.16436 0.36834,1.87121 0.22361,1.87121 -0.0534,0 -0.26347,-0.30406 -0.46686,-0.6757 -0.33728,-0.61623 -0.44308,-0.70187 -1.20236,-0.97326 -0.45789,-0.16366 -0.97521,-0.43161 -1.14961,-0.59544 -0.17437,-0.16382 -0.33577,-0.27299 -0.35865,-0.24257 -0.0594,0.0789 -0.351,1.0921 -0.31664,1.10014 0.0157,0.004 0.23561,0.10247 0.48863,0.21952 0.25304,0.11708 0.62271,0.27846 0.82152,0.35865 0.19881,0.0802 0.36147,0.23209 0.36147,0.33753 0,0.14425 0.10956,0.17394 0.44254,0.1199 0.58429,-0.0948 0.87189,0.29401 0.87189,1.17878 0,0.53631 -0.0365,0.63063 -0.23002,0.59376 -0.12943,-0.0247 -0.24927,-0.18698 -0.27402,-0.37111 -0.0242,-0.17999 -0.0981,-0.38346 -0.16431,-0.45214 -0.16189,-0.16803 -0.15207,-0.0275 0.0616,0.88067 0.17786,0.75577 0.0537,1.04713 -0.18196,0.42719 -0.21404,-0.563 -0.33033,-0.36321 -0.28675,0.49267 0.0395,0.7751 0.0301,0.80558 -0.16427,0.53669 -0.11338,-0.15678 -0.17024,-0.37859 -0.12637,-0.49291 0.0438,-0.11431 0.0223,-0.20784 -0.0479,-0.20784 -0.15116,0 -0.3308,1.14985 -0.21015,1.34508 0.0464,0.0751 0.002,0.10814 -0.0992,0.0746 -0.10043,-0.0331 -0.25352,-0.2014 -0.34021,-0.37384 -0.13909,-0.27669 -0.168,-0.28648 -0.24597,-0.0833 -0.0538,0.14017 0.003,0.33148 0.14586,0.48904 0.28286,0.31256 0.26082,0.34004 -0.36663,0.45725 -0.32912,0.0615 -0.4929,0.0436 -0.4929,-0.054 0,-0.0803 -0.0584,-0.14607 -0.1299,-0.14607 -0.0714,0 -0.11579,0.12657 -0.0986,0.28126 0.0382,0.34295 -0.12644,0.40444 -0.56018,0.20927 z m -5.91029,-10.34009 c -0.18667,-0.34878 -0.17076,-0.66585 0.0334,-0.66585 0.0981,0 0.1673,0.15069 0.1643,0.35786 -0.004,0.24865 0.0709,0.37305 0.24403,0.40765 0.17806,0.0356 0.22753,-0.007 0.17333,-0.14792 -0.0417,-0.10874 0.007,-0.30697 0.10808,-0.44052 0.10117,-0.13354 0.18764,-0.42025 0.19214,-0.63713 0.007,-0.3228 0.0317,-0.35412 0.13746,-0.17265 0.0914,0.15676 0.0656,0.35532 -0.0884,0.67813 -0.2404,0.50413 -0.17339,0.87468 0.15818,0.87468 0.13195,0 0.18763,-0.0722 0.14378,-0.18652 -0.0393,-0.10259 0.043,-0.31866 0.1831,-0.48016 0.14007,-0.16151 0.25468,-0.37802 0.25468,-0.48114 0,-0.14297 0.10146,-0.16543 0.42718,-0.0946 0.65835,0.14319 1.01869,0.30254 1.01869,0.45049 0,0.0741 0.0887,0.1347 0.19716,0.1347 0.30685,0 0.23749,-0.59507 -0.0986,-0.84573 -0.26018,-0.19406 -0.26413,-0.21 -0.0329,-0.13257 0.69436,0.2325 0.7503,0.23166 0.70334,-0.0107 -0.0254,-0.13087 -0.12831,-0.26529 -0.22873,-0.29873 -0.11081,-0.0369 -0.14652,-0.002 -0.0908,0.0877 0.14744,0.23859 -0.12215,0.17133 -0.49787,-0.12421 -0.31185,-0.24531 -0.35507,-0.25087 -0.43007,-0.0554 -0.0554,0.14449 0.0548,0.34346 0.32896,0.5939 0.39087,0.35701 0.59709,0.70652 0.24804,0.42039 -0.0904,-0.0741 -0.41568,-0.20191 -0.72293,-0.28405 -0.4994,-0.13353 -0.62179,-0.25292 -0.57577,-0.56169 0.008,-0.0516 -0.074,-0.0601 -0.1816,-0.0188 -0.10922,0.042 -0.19559,0.23885 -0.19559,0.44593 0,0.20398 -0.0929,0.46383 -0.20655,0.57743 -0.28233,0.28233 -0.35664,0.25918 -0.18679,-0.0582 0.14801,-0.27656 0.0461,-1.18115 -0.133,-1.18115 -0.13396,0 -0.26209,0.3412 -0.26318,0.70083 0,0.15674 -0.12327,0.46244 -0.27287,0.67932 -0.2166,0.31401 -0.25486,0.33433 -0.18781,0.0998 0.11889,-0.416 -0.0206,-0.59245 -0.33509,-0.42411 -0.28476,0.1524 -0.33887,0.64784 -0.0972,0.88955 0.22768,0.22766 0.26549,0.19442 0.10978,-0.0965 z m 2.68995,-6.12073 c 0,-0.0723 -0.16267,-0.15015 -0.36147,-0.17303 -0.34585,-0.0398 -0.46657,0.0898 -0.2683,0.28811 0.1328,0.13279 0.62977,0.042 0.62977,-0.11508 z m -4.30475,16.13983 c -0.24763,-0.27554 -0.30194,-0.63535 -0.11348,-0.75182 0.19457,-0.12026 0.43089,0.28127 0.38587,0.65564 -0.0416,0.34568 -0.0466,0.34744 -0.27239,0.0962 z m 6.35029,-2.08668 -0.32045,-0.16908 0.35686,-0.16259 c 0.45022,-0.20513 0.79484,0.0298 0.47554,0.32419 -0.15738,0.14509 -0.24866,0.14643 -0.51195,0.008 z m -6.52362,-1.42995 c -0.27354,-0.41748 -0.20197,-0.51347 0.25367,-0.34024 0.39023,0.14837 0.43478,0.29609 0.15848,0.52541 -0.15188,0.12605 -0.23172,0.0902 -0.41215,-0.18517 z m -1.06301,-2.10676 c 0.15781,-0.34025 0.61198,-0.45807 0.61198,-0.15875 0,0.23971 -0.27369,0.48634 -0.53969,0.48634 -0.19201,0 -0.20239,-0.0471 -0.0723,-0.32759 z m -1.48909,-0.0996 c 0.003,-0.45516 0.213,-0.72481 0.41047,-0.52733 0.12645,0.12644 0.12289,0.23093 -0.0167,0.49182 -0.21984,0.41076 -0.39639,0.42668 -0.39373,0.0355 z m -0.65922,-1.60803 c 0,-0.2829 0.51416,-0.65782 0.67777,-0.49422 0.0802,0.0802 0.11322,0.23068 0.0734,0.33441 -0.0921,0.23999 -0.75118,0.3802 -0.75118,0.15981 z m 2.39883,-3.49657 c -0.16266,-0.0615 -0.29574,-0.1638 -0.29574,-0.22737 0,-0.0635 0.13308,-0.17978 0.29574,-0.25823 0.27095,-0.13068 0.25481,-0.14337 -0.19254,-0.15152 -0.34784,-0.006 -0.52876,-0.0845 -0.62898,-0.27178 -0.12145,-0.22695 -0.0996,-0.26346 0.15968,-0.26707 0.29553,-0.004 0.29614,-0.007 0.0375,-0.19268 -0.66729,-0.47847 -0.77848,-0.72324 -0.3286,-0.72324 0.34706,0 0.33466,-0.16812 -0.0244,-0.3303 -0.35005,-0.15812 -0.47043,-0.45836 -0.18375,-0.45836 0.11445,0 0.2081,-0.0927 0.2081,-0.20601 0,-0.14621 -0.0763,-0.18181 -0.26288,-0.1226 -0.16102,0.0511 -0.26289,0.0236 -0.26289,-0.0709 0,-0.0856 -0.091,-0.11944 -0.20445,-0.0759 -0.2072,0.0795 -0.84709,-0.44458 -0.84709,-0.69378 0,-0.1577 0.64759,0.16235 0.81906,0.40479 0.0821,0.11611 0.097,0.0564 0.0452,-0.18158 -0.0548,-0.25187 -0.0137,-0.38999 0.14182,-0.47703 0.19623,-0.10982 0.18948,-0.13829 -0.0649,-0.27447 -0.37205,-0.19912 -0.35302,-0.41489 0.0634,-0.71842 0.28028,-0.20432 0.35891,-0.21571 0.45391,-0.0657 0.0632,0.0998 0.1158,0.11929 0.1169,0.0434 0.002,-0.0759 -0.067,-0.20706 -0.15141,-0.29144 -0.17168,-0.17167 -0.0842,-0.21833 0.64633,-0.34455 0.40774,-0.0704 0.42758,-0.0545 0.43552,0.35009 0.008,0.38575 0.019,0.39729 0.12721,0.12817 0.13856,-0.34473 0.29315,-0.37394 0.52168,-0.0986 0.09,0.10843 0.27469,0.19716 0.41041,0.19716 0.3291,0 0.31969,0.40493 -0.0161,0.69244 -0.49598,0.42468 -0.21535,1.72636 0.51451,2.38643 l 0.27958,0.25286 -0.3172,0.33863 c -0.17445,0.18625 -0.4703,0.645 -0.65742,1.01942 -0.39782,0.79595 -0.44671,0.83612 -0.83814,0.68818 z m -2.00737,-5.58267 c -0.0748,-0.19664 -0.10977,-0.38368 -0.0778,-0.41566 0.12727,-0.12727 0.61967,0.25721 0.5815,0.45404 -0.0697,0.35892 -0.36111,0.33671 -0.50371,-0.0384 z m 2.71936,-0.0144 c -0.0482,-0.0481 -0.0857,-0.29957 -0.0833,-0.55863 l 0.004,-0.471 0.25851,0.3103 c 0.29588,0.35518 0.3425,0.80696 0.0833,0.80696 -0.0964,0 -0.2147,-0.0395 -0.26289,-0.0876 z m -1.59076,-0.60245 c -0.0269,-0.0904 -0.0824,-0.26781 -0.12318,-0.39432 -0.0526,-0.16281 -0.003,-0.23003 0.16846,-0.23003 0.31185,0 0.58927,0.33336 0.49085,0.58982 -0.0921,0.24005 -0.46762,0.26424 -0.53613,0.0345 z m 6.59244,-3.50739 c -0.1804,-0.4779 0.005,-0.94716 0.50338,-1.27368 0.32975,-0.21606 0.36883,-0.21557 0.78745,0.01 0.72301,0.38936 1.20779,-0.0561 0.55707,-0.51191 -0.59442,-0.41634 -1.62884,-0.13034 -1.99952,0.55283 -0.13043,0.24037 -0.19698,0.2868 -0.2005,0.13987 -0.007,-0.29289 0.59146,-0.99073 1.05541,-1.23065 0.20467,-0.10584 0.66268,-0.19244 1.01781,-0.19244 0.51951,0 0.74262,0.077 1.14186,0.39432 0.54121,0.43011 0.87109,0.4938 1.10399,0.21316 0.22972,-0.27679 -0.0377,-0.82201 -0.5274,-1.07523 -0.30393,-0.15718 -0.6516,-0.20276 -1.25395,-0.1644 -0.69621,0.0444 -0.84503,0.0166 -0.9039,-0.16898 -0.0388,-0.12212 -0.19643,-0.25496 -0.35038,-0.29522 -0.26596,-0.0696 -0.25608,-0.0995 0.19819,-0.60237 0.5165,-0.57171 0.72482,-1.12286 0.53696,-1.42068 -0.21659,-0.34338 -0.38014,-0.23736 -0.4526,0.29339 -0.0569,0.41677 -0.44157,1.2487 -0.57738,1.2487 -0.0151,0 0.1099,-0.40949 0.27777,-0.90997 0.32543,-0.97031 0.29796,-1.32456 -0.10272,-1.32456 -0.20696,0 -0.24883,0.0987 -0.24883,0.58656 0,0.60778 -0.52619,2.23753 -0.62594,1.93871 -0.10162,-0.30445 0.24204,-1.92355 0.5027,-2.36848 0.31477,-0.53727 0.31466,-0.55111 -0.005,-0.55111 -0.37075,0 -0.6359,0.47894 -0.84342,1.52347 l -0.18046,0.90821 -0.0153,-0.95296 c -0.012,-0.73922 -0.0582,-0.95296 -0.20655,-0.95296 -0.35317,0 -0.41026,0.90613 -0.11872,1.88434 0.0629,0.21113 0.0364,0.22229 -0.21222,0.0892 -0.22916,-0.12266 -0.3517,-0.1078 -0.63334,0.0767 l -0.34919,0.2288 0.43843,0.14762 c 0.56535,0.19035 0.80669,0.53087 0.78991,1.11448 l -0.0135,0.46779 -0.10123,-0.42638 c -0.2023,-0.8522 -0.78776,-1.20034 -1.5106,-0.89831 -0.48387,0.20216 -0.76944,0.60173 -0.65088,0.91067 0.12965,0.33789 0.45719,0.36074 0.97772,0.0682 0.64682,-0.36353 0.85928,-0.26878 0.97132,0.43315 0.05,0.31344 0.1724,0.69433 0.27193,0.84642 0.0995,0.15209 0.22295,0.5003 0.27424,0.7738 0.0965,0.51458 0.50603,1.05015 0.70767,0.92554 0.0635,-0.0393 0.0502,-0.24297 -0.0301,-0.45558 z m -0.79552,-1.5422 c -0.0481,-0.0481 -0.0839,-0.21085 -0.0793,-0.36146 0.008,-0.25179 0.0185,-0.24849 0.13426,0.041 0.12872,0.3218 0.10201,0.47747 -0.055,0.32048 z m 0.43814,-0.50921 c 0,-0.17251 0.62518,-0.68382 0.69826,-0.57109 0.0181,0.0279 -0.13167,0.20956 -0.3327,0.40375 -0.23602,0.22796 -0.36556,0.28727 -0.36556,0.16734 z m 33.78077,23.20499 0,-2.23452 0.521,0 0.52101,0 0.2556,0.82151 c 0.14057,0.45184 0.28591,0.7328 0.32297,0.62435 0.0371,-0.10843 0.1509,-0.46334 0.25302,-0.78865 0.17853,-0.56875 0.20548,-0.59149 0.70048,-0.59149 l 0.51483,0 0,2.1688 0,2.16881 -0.36147,0.0416 -0.36147,0.0416 -0.0104,-1.61891 c -0.005,-0.8904 -0.0323,-1.55975 -0.0591,-1.48746 -0.0267,0.0723 -0.14558,0.47499 -0.26405,0.89487 -0.18496,0.65552 -0.25557,0.7577 -0.4996,0.72293 -0.23356,-0.0333 -0.33105,-0.21616 -0.5471,-1.0263 l -0.26288,-0.98583 -0.0367,1.74162 -0.0367,1.74161 -0.32478,0 -0.3248,0 0,-2.23452 z m 4.6005,0 0,-2.23452 0.52521,0 0.52522,0 0.21934,0.78894 c 0.12063,0.43391 0.25213,0.75614 0.29219,0.71607 0.0401,-0.0401 0.16554,-0.3803 0.27879,-0.75608 0.2031,-0.67381 0.21311,-0.68321 0.72704,-0.68321 l 0.5211,0 0,2.1688 0,2.16881 -0.36146,0.0416 -0.36147,0.0416 -0.0104,-1.61891 c -0.005,-0.8904 -0.0323,-1.55975 -0.0591,-1.48746 -0.0268,0.0723 -0.14559,0.47499 -0.26405,0.89487 -0.18495,0.65552 -0.25557,0.7577 -0.4996,0.72293 -0.23357,-0.0333 -0.33106,-0.21616 -0.5471,-1.0263 l -0.26288,-0.98583 -0.0367,1.74162 -0.0367,1.74161 -0.32478,0 -0.32479,0 0,-2.23452 z m 4.99482,1.90592 c 0,-0.27748 0.0614,-0.3286 0.39432,-0.3286 l 0.39434,0 0,-1.57732 0,-1.57731 -0.33777,0 c -0.27506,0 -0.32994,-0.0549 -0.29574,-0.29575 0.0385,-0.27138 0.12051,-0.29892 0.99497,-0.33436 0.94337,-0.0382 0.95296,-0.0353 0.95296,0.29574 0,0.24674 -0.0689,0.33437 -0.26289,0.33437 -0.24827,0 -0.26288,0.0876 -0.26288,1.57731 l 0,1.57732 0.3286,0 c 0.26289,0 0.32861,0.0657 0.32861,0.3286 0,0.32474 -0.0131,0.32861 -1.11726,0.32861 -1.10412,0 -1.11726,-0.004 -1.11726,-0.32861 z m 5.05598,0.20353 c -0.35174,-0.14257 -0.54557,-0.38726 -0.65633,-0.82861 -0.0806,-0.32111 -0.0546,-0.36074 0.2372,-0.36074 0.20654,0 0.40922,0.12437 0.5481,0.33633 0.17142,0.26162 0.31053,0.32732 0.62622,0.29575 0.49504,-0.0495 0.7577,-0.39719 0.552,-0.73066 -0.078,-0.12651 -0.43236,-0.38938 -0.7874,-0.58413 -1.14139,-0.62616 -1.40912,-1.31704 -0.7895,-2.0374 0.27155,-0.31568 0.41513,-0.36879 0.9972,-0.36879 0.58207,0 0.72566,0.0531 0.9972,0.36879 0.17446,0.20284 0.31723,0.45423 0.31723,0.55863 0,0.29221 -0.62412,0.23441 -0.78865,-0.0731 -0.16913,-0.31602 -0.68689,-0.34588 -0.97645,-0.0564 -0.35715,0.35717 -0.23702,0.5628 0.56691,0.97046 0.88206,0.44727 1.19819,0.82567 1.19819,1.43418 0,0.91961 -1.0553,1.47549 -2.04192,1.07558 z m 4.58626,-0.005 c -0.33976,-0.13711 -0.70414,-0.62897 -0.70414,-0.95045 0,-0.36783 0.58555,-0.29686 0.84734,0.10268 0.17143,0.26162 0.31054,0.32732 0.62622,0.29574 0.49505,-0.0495 0.75771,-0.39718 0.55201,-0.73065 -0.078,-0.12652 -0.43237,-0.38937 -0.78739,-0.58414 -1.14142,-0.62616 -1.40914,-1.31702 -0.78952,-2.03739 0.27155,-0.31569 0.41514,-0.36879 0.99721,-0.36879 0.58207,0 0.72566,0.0531 0.9972,0.36879 0.17446,0.20284 0.31722,0.45423 0.31722,0.55864 0,0.28218 -0.56241,0.23232 -0.82388,-0.0731 -0.27017,-0.31553 -0.65875,-0.33879 -0.9412,-0.0564 -0.35716,0.35716 -0.23703,0.56279 0.56689,0.97044 0.88206,0.44727 1.19819,0.82568 1.19819,1.4342 0,0.92593 -1.05417,1.47466 -2.05615,1.07031 z m 4.15924,-0.19827 c 0,-0.27749 0.0614,-0.32861 0.39433,-0.32861 l 0.39432,0 0,-1.57731 0,-1.57732 -0.33776,0 c -0.27506,0 -0.32994,-0.0549 -0.29573,-0.29574 0.0385,-0.27139 0.1205,-0.29893 0.99496,-0.33437 0.94337,-0.0382 0.95296,-0.0353 0.95296,0.29575 0,0.26903 -0.0642,0.33436 -0.3286,0.33436 l -0.32861,0 0,1.57732 0,1.57731 0.39432,0 c 0.33299,0 0.39433,0.0512 0.39433,0.32861 0,0.32474 -0.0131,0.32861 -1.11725,0.32861 -1.10413,0 -1.11727,-0.004 -1.11727,-0.32861 z m 4.49873,-1.87306 0.0361,-2.20166 1.28156,-0.0376 1.28157,-0.0376 0,0.33336 c 0,0.32512 -0.0228,0.33337 -0.92009,0.33337 l -0.92011,0 0,0.5915 0,0.59148 0.78866,0 c 0.75361,0 0.78866,0.0146 0.78866,0.32861 0,0.31401 -0.0351,0.32861 -0.78866,0.32861 l -0.78866,0 0,0.65722 0,0.65721 0.98583,0 c 0.96391,0 0.98582,0.007 0.98582,0.3286 l 0,0.32861 -1.38333,0 -1.38333,0 0.0361,-2.20167 z m -26.88932,-6.75396 c -0.87133,-0.50649 -1.00103,-3.02608 -0.19968,-3.87908 0.69917,-0.74423 2.08521,-0.37495 2.08521,0.55555 0,0.28928 -0.52243,0.21967 -0.78501,-0.10461 -0.20508,-0.25325 -0.27942,-0.27107 -0.57306,-0.13728 -0.63159,0.28777 -0.81507,2.20851 -0.26865,2.8123 0.26629,0.29425 0.78036,0.32194 0.8856,0.0477 0.11626,-0.30296 0.74112,-0.2556 0.74112,0.0562 0,0.60282 -1.23427,1.02782 -1.88553,0.64924 z m 3.72573,-2.01986 0,-2.1688 0.39432,0 0.39433,0 0,0.85438 0,0.85438 0.65721,0 0.65722,0 0,-0.85438 0,-0.85438 0.39433,0 0.39433,0 0,2.1688 0,2.16881 -0.39433,0 -0.39433,0 0,-0.98582 0,-0.98582 -0.65722,0 -0.65721,0 0,0.98582 0,0.98582 -0.39433,0 -0.39432,0 0,-2.16881 z m 4.46905,2.02806 c 0,-0.0774 0.24791,-1.05626 0.55092,-2.17523 l 0.55089,-2.0345 0.45822,0.0392 0.45821,0.0392 0.56338,2.03736 c 0.30987,1.12055 0.56556,2.08565 0.5682,2.14468 0.002,0.059 -0.15786,0.0886 -0.35667,0.0657 -0.30852,-0.0354 -0.37864,-0.12341 -0.47873,-0.60021 l -0.11725,-0.55864 -0.63664,0 -0.63665,0 -0.14893,0.5915 c -0.12434,0.49373 -0.20068,0.59148 -0.46194,0.59148 -0.17216,0 -0.31301,-0.0633 -0.31301,-0.14074 z m 1.9226,-2.06091 c -0.0367,-0.12652 -0.13803,-0.4962 -0.22514,-0.82152 l -0.15838,-0.59149 -0.17551,0.65721 c -0.24774,0.92764 -0.23459,0.98582 0.2226,0.98582 0.32178,0 0.3897,-0.0464 0.33643,-0.23002 z m 2.94077,0.0329 0,-2.1688 0.99236,0 c 1.47029,0 1.89939,0.2821 1.89939,1.2487 0,0.24121 -0.0368,0.53431 -0.0817,0.65133 -0.13052,0.34014 -0.77175,0.59738 -1.48913,0.59738 l -0.66374,0 0,0.9201 c 0,0.89381 -0.009,0.9201 -0.3286,0.9201 l -0.32862,0 0,-2.16881 z m 2.0768,-0.48633 c 0.0868,-0.0868 0.15773,-0.28195 0.15773,-0.43377 0,-0.42869 -0.26046,-0.59149 -0.94638,-0.59149 l -0.63093,0 0,0.59149 0,0.5915 0.63093,0 c 0.347,0 0.70189,-0.071 0.78865,-0.15773 z m 2.76676,2.26121 c -0.43762,-0.43762 -0.45142,-0.83392 -0.0311,-0.89423 0.17903,-0.0257 0.35335,0.0802 0.49966,0.30347 0.17573,0.2682 0.31314,0.33408 0.63053,0.30234 0.4947,-0.0495 0.75755,-0.39712 0.55244,-0.73066 -0.0778,-0.12651 -0.44886,-0.39734 -0.82459,-0.60184 -0.86138,-0.46883 -1.12816,-0.85411 -1.01373,-1.46403 0.0956,-0.5094 0.45029,-0.81855 1.07338,-0.93544 0.659,-0.12363 1.49924,0.43018 1.49924,0.98817 0,0.24063 -0.5877,0.15304 -0.82388,-0.1228 -0.27017,-0.31554 -0.65876,-0.33879 -0.94122,-0.0563 -0.11361,0.1136 -0.20654,0.22706 -0.20654,0.25214 0,0.26883 0.29154,0.53844 0.93169,0.86159 0.42194,0.21299 0.82853,0.50194 0.90355,0.64211 0.15188,0.28379 0.17996,0.92577 0.0547,1.25206 -0.12278,0.31997 -0.75798,0.59738 -1.36781,0.59738 -0.42729,0 -0.62601,-0.0836 -0.93633,-0.39393 z m 5.05486,0.19699 c -0.46512,-0.32579 -0.73502,-1.24018 -0.67572,-2.28938 0.0576,-1.01983 0.31958,-1.51996 0.96058,-1.83399 0.67958,-0.33292 1.64657,0.1536 1.64657,0.82844 0,0.3043 -0.56256,0.2561 -0.76334,-0.0654 -0.25068,-0.40139 -0.7025,-0.27718 -0.98656,0.2712 -0.26535,0.51228 -0.24925,1.82336 0.0288,2.34286 0.18036,0.337 0.86109,0.39871 0.97999,0.0888 0.10222,-0.26637 0.74113,-0.26122 0.74113,0.006 0,0.11173 -0.14518,0.34833 -0.32263,0.52578 -0.37743,0.37741 -1.16191,0.4387 -1.60881,0.12568 z m 4.44387,-0.0177 c -0.42542,-0.29797 -0.79736,-1.18126 -0.80079,-1.90175 -0.0105,-2.19282 1.88113,-3.14447 2.77692,-1.39705 0.52364,1.02144 0.25939,2.81995 -0.48608,3.3084 -0.40621,0.26616 -1.10276,0.26168 -1.49005,-0.01 z m 1.12687,-0.5459 c 0.66242,-0.4212 0.5321,-2.70337 -0.16974,-2.97269 -0.61478,-0.23592 -1.04059,0.44065 -1.03362,1.64237 0.006,1.11832 0.56525,1.73606 1.20336,1.33032 z M 452.10443,746.634 c 0,-0.0723 0.0572,-0.13144 0.127,-0.13144 0.0714,0 0.14332,-0.61355 0.16431,-1.40232 0.026,-0.97738 0.0871,-1.41883 0.2016,-1.45682 0.2276,-0.0756 0.23384,2.73703 0.007,2.9643 -0.1914,0.1914 -0.49948,0.20761 -0.49948,0.0262 z m -41.01012,-1.77487 c 0,-1.16109 0.0184,-1.24871 0.26288,-1.24871 0.14459,0 0.38013,0.11724 0.52342,0.26053 0.21413,0.21414 0.23667,0.32327 0.12656,0.61289 -0.0917,0.24114 -0.0909,0.3954 0.002,0.4887 0.34543,0.34544 -0.1084,1.13529 -0.65233,1.13529 -0.24444,0 -0.26289,-0.0876 -0.26289,-1.2487 z m 0.63349,0.48261 c 0.0279,-0.18956 -0.0273,-0.28545 -0.1643,-0.28545 -0.1342,0 -0.20631,0.11867 -0.20631,0.33955 0,0.41178 0.30869,0.36671 0.37061,-0.0541 z m -0.042,-1.00839 c 0,-0.13253 -0.0739,-0.26562 -0.1643,-0.29574 -0.10407,-0.0347 -0.16431,0.0738 -0.16431,0.29574 0,0.222 0.0602,0.33044 0.16431,0.29575 0.0904,-0.0301 0.1643,-0.16321 0.1643,-0.29575 z m 1.51159,0.52578 c 0,-1.35473 0.11532,-1.52771 0.65722,-0.98583 0.28512,0.28513 0.32314,0.48999 0.14356,0.77355 -0.0708,0.11186 -0.0447,0.35101 0.0677,0.62015 0.10067,0.24093 0.18303,0.53361 0.18303,0.6504 0,0.34312 -0.29846,0.14394 -0.45099,-0.30099 -0.21793,-0.63567 -0.33767,-0.65562 -0.33767,-0.0563 0,0.30122 -0.0591,0.54767 -0.13144,0.54767 -0.0784,0 -0.13144,-0.50386 -0.13144,-1.2487 z m 0.52577,-0.59926 c 0,-0.14032 -0.0591,-0.25512 -0.13144,-0.25512 -0.0723,0 -0.13144,0.15136 -0.13144,0.33636 0,0.19078 0.0569,0.30121 0.13144,0.25513 0.0723,-0.0447 0.13144,-0.19605 0.13144,-0.33637 z m 1.65242,1.64141 c -0.29276,-0.29277 -0.30095,-2.29086 -0.009,-2.29086 0.159,0 0.19717,0.20568 0.19717,1.0625 0,0.79136 0.0419,1.04862 0.1643,1.00813 0.10789,-0.0357 0.17754,-0.40362 0.20286,-1.07155 0.0275,-0.72372 0.0843,-1.00146 0.19716,-0.96267 0.22533,0.0775 0.20193,1.97408 -0.0278,2.25086 -0.22066,0.26588 -0.46083,0.26707 -0.72432,0.004 z m 1.98417,0.11892 c -0.16665,-0.16664 -0.0866,-0.3067 0.17525,-0.3067 0.14459,0 0.26289,-0.0615 0.26289,-0.13668 0,-0.0752 -0.1183,-0.36856 -0.26289,-0.65197 -0.14459,-0.28342 -0.26289,-0.62871 -0.26289,-0.76733 0,-0.31983 0.33018,-0.59985 0.58982,-0.50021 0.2568,0.0985 0.258,0.34744 0.002,0.34744 -0.24645,0 -0.24645,0.35753 0,0.78865 0.23151,0.40498 0.24996,0.94617 0.0394,1.1567 -0.17452,0.17452 -0.40867,0.20473 -0.5433,0.0701 z m 1.70874,0 c -0.16663,-0.16664 -0.0866,-0.3067 0.17526,-0.3067 0.32937,0 0.32807,-0.0821 -0.0135,-0.85431 -0.22033,-0.49809 -0.24757,-0.68814 -0.13425,-0.93681 0.15728,-0.3452 0.67354,-0.4332 0.67354,-0.1148 0,0.10844 -0.0887,0.19717 -0.19717,0.19717 -0.26925,0 -0.24737,0.30639 0.0657,0.9201 0.31684,0.62104 0.32201,0.71075 0.0563,0.97643 -0.21696,0.21695 -0.47824,0.2666 -0.62592,0.11892 z m 1.84021,0 c -0.0482,-0.0481 -0.0876,-0.61011 -0.0876,-1.2487 l 0,-1.16108 0.46004,0 c 0.3213,0 0.46005,0.0594 0.46005,0.19716 0,0.10954 -0.11684,0.19717 -0.26288,0.19717 -0.19279,0 -0.26288,0.0876 -0.26288,0.3286 0,0.24098 0.0701,0.32861 0.26288,0.32861 0.14459,0 0.26288,0.0591 0.26288,0.13144 0,0.0723 -0.11829,0.13145 -0.26288,0.13145 -0.20446,0 -0.26288,0.0876 -0.26288,0.39432 0,0.3067 0.0584,0.39433 0.26288,0.39433 0.14604,0 0.26288,0.0876 0.26288,0.19717 0,0.20101 -0.65482,0.28717 -0.83247,0.10953 z m 2.01545,-1.15275 c 0,-0.7504 0.053,-1.25703 0.13144,-1.25703 0.0767,0 0.13145,0.43815 0.13145,1.05154 0,1.04306 0.003,1.05154 0.33955,1.05154 0.48819,0 0.32824,0.31908 -0.18537,0.36979 l -0.41707,0.0412 0,-1.25703 z m 1.79639,1.15275 c -0.16664,-0.16664 -0.0866,-0.3067 0.17525,-0.3067 0.14459,0 0.26289,-0.0615 0.26289,-0.13668 0,-0.0752 -0.1183,-0.36856 -0.26289,-0.65197 -0.14459,-0.28342 -0.26288,-0.62871 -0.26288,-0.76733 0,-0.31983 0.33016,-0.59985 0.58982,-0.50021 0.25678,0.0985 0.258,0.34744 0.002,0.34744 -0.24645,0 -0.24645,0.35753 0,0.78865 0.23152,0.40498 0.24995,0.94617 0.0394,1.1567 -0.17453,0.17452 -0.40867,0.20473 -0.54331,0.0701 z m 3.7242,-1.16107 c 0,-0.74485 0.053,-1.24871 0.13145,-1.24871 0.0723,0 0.13144,0.2366 0.13144,0.52577 0,0.70279 0.36038,0.73976 0.41925,0.043 0.0224,-0.26552 0.11474,-0.50704 0.2051,-0.53672 0.12384,-0.0407 0.16431,0.25898 0.16431,1.21663 0,0.95765 -0.0405,1.25732 -0.16431,1.21664 -0.0904,-0.0297 -0.18266,-0.27121 -0.2051,-0.53673 -0.0589,-0.69674 -0.41925,-0.65976 -0.41925,0.043 0,0.28917 -0.0591,0.52576 -0.13144,0.52576 -0.0784,0 -0.13145,-0.50386 -0.13145,-1.2487 z m 2.3077,0.95657 c -0.27136,-0.38744 -0.26824,-1.53017 0.005,-1.92062 0.32377,-0.46225 0.73862,-0.32695 0.95991,0.31305 0.40908,1.18323 -0.36235,2.46817 -0.96515,1.60757 z m 0.6357,-0.31011 c 0.11746,-0.3061 0.0933,-1.14452 -0.039,-1.35338 -0.21273,-0.33585 -0.40701,-0.005 -0.40701,0.69277 0,0.3813 0.0394,0.73269 0.0876,0.78089 0.14393,0.14394 0.27368,0.1004 0.35835,-0.12028 z m 1.65575,0.40345 c -0.2478,-0.29859 -0.31043,-1.50424 -0.0989,-1.90429 0.11277,-0.21332 0.2863,-0.3286 0.49457,-0.3286 0.84238,0 0.89074,2.28372 0.0509,2.40516 -0.14911,0.0215 -0.35008,-0.056 -0.44661,-0.17227 z m 0.59284,-1.06087 c 0,-0.60366 -0.0441,-0.77771 -0.19716,-0.77771 -0.14271,0 -0.20842,0.1769 -0.23789,0.64052 -0.0471,0.74101 0.0384,1.04712 0.27081,0.96963 0.10668,-0.0356 0.16424,-0.32729 0.16424,-0.83244 z m 1.51159,0.0219 0,-1.25966 0.39433,0 c 0.26289,0 0.39433,0.0657 0.39433,0.19717 0,0.10844 -0.0887,0.19716 -0.19717,0.19716 -0.12267,0 -0.19716,0.12414 -0.19716,0.32861 0,0.20447 0.0745,0.3286 0.19716,0.3286 0.10845,0 0.19717,0.0591 0.19717,0.13144 0,0.0723 -0.0853,0.13146 -0.18961,0.13146 -0.12843,0 -0.20264,0.17695 -0.23002,0.5484 -0.0222,0.30163 -0.11436,0.57274 -0.20472,0.60245 -0.12378,0.0407 -0.16431,-0.25671 -0.16431,-1.20563 z m 1.92783,1.15013 c -0.0482,-0.0481 -0.0876,-0.61012 -0.0876,-1.24871 0,-1.15085 0.003,-1.16108 0.32861,-1.16108 0.56158,0 0.85438,0.42794 0.85438,1.24871 0,0.54768 -0.0637,0.78667 -0.26288,0.98582 -0.26005,0.26004 -0.66288,0.34484 -0.83247,0.17526 z m 0.63531,-1.16108 c 0,-0.49656 -0.0579,-0.78605 -0.16431,-0.82152 -0.12049,-0.0402 -0.1643,0.17892 -0.1643,0.82152 0,0.64261 0.0438,0.86168 0.1643,0.82152 0.1064,-0.0354 0.16431,-0.32496 0.16431,-0.82152 z m 1.46778,1.16108 c -0.16664,-0.16664 -0.0866,-0.3067 0.17525,-0.3067 0.32937,0 0.32807,-0.0821 -0.0135,-0.85431 -0.22034,-0.49809 -0.24757,-0.68814 -0.13427,-0.93682 0.15728,-0.34519 0.67355,-0.43319 0.67355,-0.11479 0,0.10844 -0.0887,0.19716 -0.19716,0.19716 -0.25986,0 -0.24957,0.11099 0.0792,0.85431 0.22032,0.49809 0.24757,0.68814 0.13426,0.93682 -0.1342,0.29452 -0.52496,0.41672 -0.71736,0.22433 z m 2.01545,-0.95297 c 0,-0.85681 -0.0382,-1.06249 -0.19717,-1.06249 -0.10844,0 -0.19716,-0.0887 -0.19716,-0.19716 0,-0.1424 0.14605,-0.19717 0.52577,-0.19717 0.37972,0 0.52577,0.0548 0.52577,0.19717 0,0.10844 -0.0567,0.19716 -0.12591,0.19716 -0.0692,0 -0.14319,0.45366 -0.1643,1.00814 -0.0252,0.6608 -0.095,1.02685 -0.2027,1.06249 -0.12237,0.0405 -0.1643,-0.21677 -0.1643,-1.00814 z m 1.63299,0.86467 c -0.0371,-0.0967 -0.0501,-0.64388 -0.0287,-1.21584 l 0.0388,-1.03992 0.42719,-0.0412 c 0.31735,-0.0306 0.42719,0.0116 0.42719,0.16429 0,0.11788 -0.11211,0.2055 -0.26289,0.2055 -0.19279,0 -0.26289,0.0876 -0.26289,0.32861 0,0.24098 0.0701,0.3286 0.26289,0.3286 0.14459,0 0.26289,0.0591 0.26289,0.13144 0,0.0723 -0.1183,0.13146 -0.26289,0.13146 -0.20447,0 -0.26289,0.0876 -0.26289,0.39431 0,0.3067 0.0584,0.39434 0.26289,0.39434 0.14604,0 0.26289,0.0876 0.26289,0.19716 0,0.25224 -0.76854,0.27112 -0.86443,0.0212 z m 2.04741,-1.07278 c 0,-1.13667 0.0223,-1.24871 0.24832,-1.24871 0.13658,0 0.38796,0.11307 0.55863,0.25128 0.26016,0.21066 0.31031,0.37185 0.31031,0.99743 0,0.62558 -0.0501,0.78677 -0.31031,0.99743 -0.17067,0.13821 -0.42205,0.25128 -0.55863,0.25128 -0.22604,0 -0.24832,-0.11205 -0.24832,-1.24871 z m 0.70887,0.64647 c 0.18522,-0.48271 0.0515,-1.50085 -0.19717,-1.50085 -0.0646,0 -0.11738,0.38447 -0.11738,0.85438 0,0.8112 0.14051,1.09999 0.31455,0.64647 z m 1.52565,-0.63814 0,-1.25704 0.38657,0 c 0.46723,0 0.66987,0.25185 0.28387,0.35279 -0.32732,0.0856 -0.39661,0.69875 -0.0789,0.69875 0.10843,0 0.19716,0.0591 0.19716,0.13144 0,0.0723 -0.0887,0.13146 -0.19716,0.13146 -0.13145,0 -0.19717,0.13143 -0.19717,0.39432 0,0.31196 0.0572,0.39433 0.27384,0.39433 0.43562,0 0.21584,0.32368 -0.2511,0.36979 l -0.41706,0.0412 0,-1.25703 z m 2.05928,1.15275 c -0.0482,-0.0481 -0.0876,-0.61012 -0.0876,-1.24871 0,-0.94444 0.0368,-1.16108 0.19716,-1.16108 0.15882,0 0.19716,0.20447 0.19716,1.05154 0,0.96391 0.0219,1.05155 0.26289,1.05155 0.14605,0 0.26288,0.0876 0.26288,0.19716 0,0.20102 -0.65482,0.28718 -0.83246,0.10954 z m 1.84019,0 c -0.0482,-0.0481 -0.0876,-0.61012 -0.0876,-1.24871 0,-0.94444 0.0368,-1.16108 0.19716,-1.16108 0.16143,0 0.19717,0.22638 0.19717,1.24871 0,1.14456 -0.0675,1.40024 -0.3067,1.16108 z m 2.85978,-0.0883 c -0.13662,-0.35604 0.006,-2.23345 0.17435,-2.28903 0.1113,-0.0369 0.16753,0.10821 0.17431,0.44951 l 0.01,0.50386 0.16336,-0.45212 c 0.19165,-0.53043 0.56854,-0.75816 0.42294,-0.25556 -0.21825,0.75341 -0.22687,1.14053 -0.0356,1.59829 0.27221,0.65151 0.0335,0.75809 -0.29661,0.13248 l -0.26248,-0.49733 -0.006,0.49292 c -0.006,0.48097 -0.20953,0.66858 -0.34446,0.31698 z m 4.15858,-0.0789 c -0.38542,-0.38542 -0.38542,-1.60238 0,-1.9878 0.30442,-0.30442 0.82317,-0.29643 0.88218,0.0136 0.0275,0.14427 -0.0669,0.2011 -0.32726,0.19717 -0.35956,-0.005 -0.36584,0.008 -0.36584,0.77218 0,0.55045 0.0539,0.79566 0.18436,0.83916 0.14438,0.0481 0.16755,-0.0421 0.10685,-0.41624 -0.0674,-0.41536 -0.0434,-0.47769 0.1843,-0.47769 0.23035,0 0.25701,0.0751 0.22176,0.62436 -0.0338,0.52718 -0.0848,0.63072 -0.32772,0.66529 -0.16028,0.0228 -0.40766,-0.079 -0.55863,-0.23003 z m 2.05119,0.16718 c -0.0482,-0.0481 -0.0876,-0.61012 -0.0876,-1.24871 l 0,-1.16108 0.46005,0 c 0.3213,0 0.46005,0.0594 0.46005,0.19717 0,0.10954 -0.11683,0.19716 -0.26288,0.19716 -0.19279,0 -0.26289,0.0876 -0.26289,0.32861 0,0.24098 0.0701,0.3286 0.26289,0.3286 0.14459,0 0.26288,0.0591 0.26288,0.13144 0,0.0723 -0.11829,0.13146 -0.26288,0.13146 -0.20447,0 -0.26289,0.0876 -0.26289,0.39432 0,0.30669 0.0584,0.39433 0.26289,0.39433 0.14605,0 0.26288,0.0876 0.26288,0.19716 0,0.20102 -0.65482,0.28718 -0.83246,0.10954 z m 2.10144,-0.90193 c -0.11959,-0.54426 -0.21743,-1.10617 -0.21743,-1.24871 0,-0.35578 0.24397,-0.32769 0.31786,0.0366 0.22417,1.10539 0.24612,1.1278 0.38167,0.38979 0.15939,-0.86766 0.37089,-0.82457 0.55863,0.11381 l 0.14249,0.71225 0.12119,-0.71207 c 0.1215,-0.71389 0.45991,-1.11061 0.43907,-0.51473 -0.0189,0.5416 -0.44508,2.13011 -0.5737,2.13865 -0.0684,0.005 -0.19035,-0.2875 -0.27095,-0.64896 l -0.14655,-0.65722 -0.10034,0.46005 c -0.26766,1.22716 -0.3694,1.21631 -0.65194,-0.0694 z m 2.80575,-0.25915 0,-1.26536 0.42719,0.0412 c 0.48673,0.0469 0.57635,0.28289 0.13144,0.34608 -0.39839,0.0566 -0.42851,0.68093 -0.0329,0.68093 0.14459,0 0.26289,0.0591 0.26289,0.13144 0,0.0723 -0.1183,0.13145 -0.26289,0.13145 -0.40476,0 -0.37424,0.75456 0.0329,0.81237 0.44491,0.0632 0.35529,0.29915 -0.13144,0.34607 l -0.42719,0.0412 0,-1.26536 z m 1.92783,1.16108 c -0.16664,-0.16664 -0.0866,-0.3067 0.17526,-0.3067 0.32936,0 0.32806,-0.0821 -0.0135,-0.85431 -0.22034,-0.49809 -0.24757,-0.68814 -0.13427,-0.93682 0.15728,-0.34519 0.67355,-0.43319 0.67355,-0.11479 0,0.10844 -0.0887,0.19716 -0.19717,0.19716 -0.25986,0 -0.24957,0.11099 0.0792,0.85431 0.22032,0.49809 0.24756,0.68814 0.13425,0.93682 -0.13418,0.29452 -0.52495,0.41672 -0.71735,0.22433 z m 2.01546,-0.95297 c 0,-0.85681 -0.0382,-1.06249 -0.19717,-1.06249 -0.10844,0 -0.19716,-0.0887 -0.19716,-0.19716 0,-0.1424 0.14604,-0.19717 0.52577,-0.19717 0.37972,0 0.52576,0.0548 0.52576,0.19717 0,0.10844 -0.0567,0.19716 -0.1259,0.19716 -0.0693,0 -0.14319,0.45366 -0.16431,1.00814 -0.0252,0.6608 -0.095,1.02685 -0.2027,1.06249 -0.12237,0.0405 -0.16429,-0.21677 -0.16429,-1.00814 z m -56.86262,-3.87925 c -1.11843,-0.48686 -1.55962,-2.61044 -0.89002,-4.28393 0.26546,-0.66347 0.74658,-1.04878 1.30953,-1.04878 0.71395,0 1.10572,0.24568 1.10572,0.69343 0,0.38254 -0.005,0.38517 -0.32399,0.17606 -0.40912,-0.26806 -0.91194,-0.272 -1.17474,-0.009 -0.51766,0.51766 -0.61342,2.57014 -0.16076,3.4455 0.17357,0.33566 0.30339,0.42614 0.61132,0.42614 0.3902,0 0.39095,-0.002 0.39095,-0.78865 0,-0.70102 -0.0292,-0.78865 -0.26288,-0.78865 -0.19278,0 -0.26289,-0.0876 -0.26289,-0.32861 0,-0.30184 0.0482,-0.32861 0.5915,-0.32861 l 0.59149,0 0,1.36728 0,1.3673 -0.41394,0.1443 c -0.51588,0.17984 -0.60619,0.17629 -1.11129,-0.0436 z m 18.11987,0.0552 c -0.1925,-0.0792 -0.29575,-0.23353 -0.29575,-0.44204 0,-0.29642 0.0382,-0.31521 0.51201,-0.25166 0.80216,0.10759 0.81571,-0.22749 0.0734,-1.81547 -0.52324,-1.11937 -0.60621,-1.40433 -0.54397,-1.8684 0.0935,-0.69682 0.48594,-1.03818 1.13138,-0.98404 0.39154,0.0328 0.47668,0.0947 0.5088,0.36967 0.034,0.29159 -0.0101,0.33002 -0.37807,0.3286 -0.74185,-0.003 -0.75402,0.27714 -0.0751,1.72947 0.37544,0.80318 0.61178,1.49311 0.61178,1.78601 0,0.8362 -0.82031,1.44586 -1.54445,1.14786 z m 3.04134,0.007 c -1.02765,-0.42569 -1.41861,-2.93981 -0.70941,-4.56184 0.25725,-0.58838 0.57979,-0.83276 1.09905,-0.83276 0.55472,0 0.74233,0.13672 0.74233,0.54094 0,0.33811 -0.0276,0.36416 -0.24305,0.2296 -0.37777,-0.23593 -0.91954,-0.0365 -1.03652,0.38159 -0.16533,0.59087 -0.11424,2.95462 0.071,3.28406 0.17444,0.31024 0.85307,0.42049 1.01141,0.1643 0.14682,-0.23757 0.32861,-0.1374 0.32861,0.18108 0,0.51746 -0.68812,0.85134 -1.26342,0.61303 z m 11.02303,-0.007 c -0.19251,-0.0792 -0.29575,-0.23353 -0.29575,-0.44204 0,-0.29642 0.0382,-0.31521 0.51201,-0.25166 0.79827,0.10707 0.81513,-0.22872 0.0894,-1.78124 -0.64573,-1.38142 -0.71406,-1.78804 -0.40184,-2.3918 0.33798,-0.65358 1.41119,-0.73377 1.48343,-0.11082 0.036,0.31034 0.005,0.33782 -0.31628,0.27648 -0.46476,-0.0888 -0.72741,0.24345 -0.58115,0.73523 0.0576,0.19385 0.31852,0.79439 0.57972,1.33456 0.28464,0.58863 0.47492,1.17813 0.47492,1.47139 0,0.84836 -0.8147,1.46021 -1.54445,1.1599 z m 3.05604,0.0113 c -0.67861,-0.28506 -1.03285,-1.19457 -1.02777,-2.63887 0.006,-1.75116 0.49592,-2.76029 1.33966,-2.76029 0.63018,0 0.80538,0.12314 0.80538,0.56612 0,0.3162 -0.0351,0.37151 -0.15773,0.24882 -0.27386,-0.27386 -0.74154,-0.18029 -0.98937,0.19796 -0.35232,0.53772 -0.33968,3.04784 0.0173,3.44235 0.26141,0.28886 0.79268,0.37161 0.93258,0.14524 0.0447,-0.0723 0.1369,-0.13144 0.20492,-0.13144 0.18292,0 0.15019,0.60302 -0.0414,0.762 -0.25078,0.20813 -0.78947,0.29169 -1.08367,0.16811 z m 2.7603,-0.004 c -0.71353,-0.28873 -1.10321,-1.21576 -1.11149,-2.64426 -0.01,-1.70018 0.54923,-2.75084 1.4638,-2.75084 0.52436,0 0.96484,0.47936 1.21523,1.32254 0.63182,2.12751 -0.31234,4.58046 -1.56754,4.07256 z m 0.83239,-1.25466 c 0.2619,-0.78509 0.15325,-2.85743 -0.16843,-3.2129 -0.64614,-0.71395 -1.03485,0.0999 -0.97101,2.03296 0.0473,1.43386 0.19808,1.81519 0.68977,1.74491 0.18813,-0.0269 0.32937,-0.20433 0.44967,-0.56497 z m 10.57027,1.24461 c -0.19,-0.0764 -0.29575,-0.2302 -0.29575,-0.4302 0,-0.28041 0.0555,-0.3102 0.55863,-0.29998 0.75928,0.0154 0.77637,-0.24625 0.10656,-1.63133 -0.66708,-1.37944 -0.76448,-1.8659 -0.48918,-2.44322 0.3315,-0.69516 1.43021,-0.82971 1.50561,-0.18438 0.0343,0.29389 -0.009,0.33004 -0.39433,0.32861 -0.39015,-0.002 -0.43689,0.0395 -0.47321,0.41368 -0.0274,0.28255 0.13015,0.75433 0.49291,1.47582 0.69043,1.37321 0.72513,2.06447 0.1288,2.56625 -0.42589,0.35836 -0.65536,0.39957 -1.14004,0.20475 z m 2.23453,0 c -0.19001,-0.0764 -0.29575,-0.2302 -0.29575,-0.4302 0,-0.28041 0.0555,-0.3102 0.55863,-0.29998 0.48662,0.01 0.56415,-0.0276 0.60143,-0.29044 0.0235,-0.16598 -0.19687,-0.77909 -0.48981,-1.36247 -0.29292,-0.58337 -0.56836,-1.25131 -0.61206,-1.48431 -0.11018,-0.58726 0.22779,-1.35401 0.64271,-1.45815 0.58168,-0.14599 0.93865,-0.0235 0.98071,0.33644 0.0343,0.29389 -0.009,0.33004 -0.39433,0.32861 -0.65105,-0.002 -0.64652,0.48444 0.0172,1.84894 0.74715,1.5361 0.72339,2.36633 -0.0799,2.79419 -0.33376,0.17776 -0.521,0.18126 -0.92873,0.0173 z m 55.96627,-0.0374 c -0.83353,-0.28497 -1.3099,-1.44721 -1.10877,-2.70509 0.19005,-1.18848 1.14271,-1.90373 2.1103,-1.5844 0.39905,0.1317 0.83412,0.55483 0.83412,0.81122 0,0.1715 -0.57583,0.1057 -0.84277,-0.0963 -0.31174,-0.23591 -0.84948,-0.13086 -1.16173,0.22694 -0.16718,0.19158 -0.23003,0.49132 -0.23003,1.09722 0,1.0176 0.18044,1.44875 0.67904,1.62256 0.56873,0.19826 0.76683,0.0619 0.76683,-0.52774 0,-0.48094 -0.0238,-0.51171 -0.39432,-0.51171 -0.33299,0 -0.39433,-0.0512 -0.39433,-0.32861 0,-0.314 0.0351,-0.32861 0.78865,-0.32861 l 0.78866,0 0,1.11131 0,1.11132 -0.49291,0.0831 c -0.2711,0.0457 -0.58164,0.1037 -0.69007,0.12881 -0.10845,0.0251 -0.40214,-0.0244 -0.65267,-0.11005 z m 27.38525,-0.016 c -0.42139,-0.1834 -0.83838,-0.6597 -0.83838,-0.95764 0,-0.0989 0.16197,-0.16791 0.39433,-0.16791 0.26572,0 0.39434,0.0653 0.39434,0.20041 0,0.33344 0.63889,0.49903 1.00355,0.2601 0.53521,-0.35069 0.36947,-0.7541 -0.4884,-1.18882 -1.08986,-0.55228 -1.39809,-1.0997 -1.01946,-1.8106 0.56783,-1.06615 2.47594,-0.78758 2.47594,0.36146 0,0.32069 -0.52371,0.24642 -0.86589,-0.1228 -0.36176,-0.39035 -0.46042,-0.40184 -0.83634,-0.0974 -0.38599,0.31254 -0.24264,0.63145 0.43688,0.97187 0.87402,0.43787 1.26535,0.87739 1.26535,1.42115 0,0.62575 -0.2943,1.01605 -0.89111,1.1818 -0.59094,0.16412 -0.52793,0.16727 -1.03081,-0.0516 z m -132.67541,-2.63715 0,-2.69457 0.98582,0 c 0.96391,0 0.98582,0.007 0.98582,0.32861 0,0.30183 -0.0482,0.3286 -0.59148,0.3286 l -0.5915,0 0,0.78866 0,0.78866 0.52577,0 c 0.49657,0 0.52577,0.0219 0.52577,0.39433 0,0.37242 -0.0292,0.39432 -0.52577,0.39432 l -0.52577,0 0,0.85438 0,0.85438 0.65721,0 c 0.6134,0 0.65722,0.0219 0.65722,0.3286 0,0.32314 -0.0175,0.32861 -1.05154,0.32861 l -1.05155,0 0,-2.69458 z m 2.89174,0 0,-2.69457 0.31026,0 c 0.26046,0 0.37495,0.15296 0.71328,0.95296 l 0.40303,0.95296 0.22055,-0.52577 c 0.1213,-0.28917 0.30186,-0.72228 0.40124,-0.96246 0.1407,-0.34003 0.24676,-0.42732 0.47918,-0.39433 0.29776,0.0423 0.29857,0.0488 0.33406,2.70407 l 0.0356,2.66172 -0.39704,0 -0.39705,0 -0.009,-1.80734 -0.009,-1.80733 -0.27967,0.75579 c -0.15381,0.41569 -0.32013,0.7558 -0.36959,0.7558 -0.0495,0 -0.22265,-0.3549 -0.38487,-0.78866 -0.16222,-0.43376 -0.32146,-0.78866 -0.35387,-0.78866 -0.0324,0 -0.0169,0.8281 0.0345,1.8402 l 0.0934,1.8402 -0.41278,0 -0.41278,0 0,-2.69458 z m 3.6804,0 0,-2.69457 0.98582,0 c 0.96391,0 0.98582,0.007 0.98582,0.32861 0,0.30183 -0.0482,0.3286 -0.59149,0.3286 l -0.59149,0 0,0.78866 0,0.78866 0.52577,0 c 0.49657,0 0.52577,0.0219 0.52577,0.39433 0,0.37242 -0.0292,0.39432 -0.52577,0.39432 l -0.52577,0 0,0.85438 0,0.85438 0.59149,0 c 0.54329,0 0.59149,0.0268 0.59149,0.3286 0,0.32131 -0.0219,0.32861 -0.98582,0.32861 l -0.98582,0 0,-2.69458 z m 2.92188,0.0329 0.0356,-2.66171 0.95296,-0.0386 c 0.94336,-0.0382 0.95296,-0.0353 0.95296,0.29575 0,0.30865 -0.0455,0.33436 -0.5915,0.33436 l -0.59148,0 0,0.78865 0,0.78866 0.52577,0 c 0.49656,0 0.52576,0.0219 0.52576,0.39433 0,0.37242 -0.0292,0.39433 -0.52576,0.39433 l -0.52577,0 0,0.85438 0,0.85438 0.65721,0 c 0.6134,0 0.65721,0.0219 0.65721,0.3286 0,0.3232 -0.0173,0.32861 -1.05426,0.32861 l -1.05426,0 0.0356,-2.66172 z m 2.99304,-0.042 c 0,-2.70028 0,-2.70367 0.28547,-2.66172 0.23536,0.0347 0.37956,0.30735 0.82151,1.55359 l 0.53606,1.51159 0.037,-1.54445 0.0371,-1.54445 0.32442,0 0.32445,0 0,2.69458 0,2.69457 -0.29575,-5.2e-4 c -0.25859,-3.7e-4 -0.36477,-0.19464 -0.84504,-1.54445 l -0.5493,-1.5438 -0.009,1.54446 -0.009,1.54445 -0.32861,0 -0.3286,0 0,-2.70372 z m 8.14945,0.009 0,-2.69458 0.39433,0 0.39433,0 0,1.18299 0,1.18299 0.46004,0 0.46006,0 0,-1.18299 0,-1.18299 0.39432,0 0.39433,0 0,2.69458 0,2.69458 -0.39433,0 -0.39432,0 0,-1.18299 0,-1.18299 -0.46006,0 -0.46004,0 0,1.18299 0,1.18299 -0.39433,0 -0.39433,0 0,-2.69458 z m 3.43996,0.0329 c 0.27651,-1.46395 0.50286,-2.67651 0.50303,-2.69458 0,-0.018 0.17774,-0.0329 0.39462,-0.0329 0.21688,0 0.39455,0.0443 0.39483,0.0986 0,0.0543 0.20706,1.19284 0.45955,2.53028 0.25247,1.33743 0.45929,2.50562 0.45955,2.59599 0,0.0904 -0.14047,0.16431 -0.31278,0.16431 -0.32242,0 -0.46987,-0.27627 -0.47359,-0.88725 -0.002,-0.25565 -0.071,-0.29574 -0.51264,-0.29574 -0.50467,0 -0.51192,0.007 -0.59954,0.59149 -0.0805,0.53707 -0.12215,0.5915 -0.45223,0.5915 l -0.36353,0 0.50273,-2.66172 z m 1.08886,-0.0401 c -0.0891,-0.47391 -0.19093,-0.89066 -0.2264,-0.92611 -0.0355,-0.0355 -0.1066,0.27283 -0.15811,0.68508 -0.0515,0.41226 -0.12415,0.82901 -0.1614,0.92612 -0.0473,0.12319 0.0494,0.17655 0.32004,0.17655 l 0.38778,0 -0.16191,-0.86164 z m 1.64899,-0.009 0,-2.71085 0.72839,0.0604 c 0.86406,0.0717 1.37953,0.40506 1.58579,1.02572 0.30572,0.92001 -0.30099,1.96961 -1.13853,1.96961 l -0.38699,0 0,1.18298 0,1.18299 -0.39433,0 -0.39433,0 0,-2.71085 z m 1.50414,-0.60446 c 0.3818,-0.5451 0.18829,-1.16587 -0.41974,-1.34649 -0.2856,-0.0848 -0.29574,-0.0582 -0.29574,0.77539 0,0.7672 0.0284,0.86323 0.25543,0.86323 0.14048,0 0.34751,-0.13146 0.46005,-0.29213 z m 9.79993,0.62073 0,-2.69457 0.31699,0 c 0.27059,0 0.37006,0.13527 0.67953,0.92407 0.19941,0.50823 0.40681,0.87792 0.46092,0.82151 0.0541,-0.0564 0.23993,-0.45744 0.41297,-0.8912 0.26419,-0.66228 0.36597,-0.78865 0.6351,-0.78865 l 0.32051,0 0.0356,2.66171 0.0356,2.66171 -0.39705,0 -0.39704,0 -0.009,-1.80734 -0.009,-1.80733 -0.27967,0.75579 c -0.15382,0.41569 -0.32417,0.7558 -0.37857,0.7558 -0.0544,0 -0.22828,-0.3549 -0.38645,-0.78866 -0.15815,-0.43376 -0.31831,-0.78865 -0.3559,-0.78865 -0.0376,0 -0.0288,0.82809 0.0195,1.8402 l 0.0878,1.84019 -0.3962,0 -0.39621,0 0,-2.69458 z m 3.6804,0 0,-2.69457 0.30784,0 c 0.25936,0 0.36515,0.14606 0.67172,0.92749 0.20015,0.51012 0.3975,0.89388 0.43859,0.8528 0.0411,-0.041 0.22837,-0.44365 0.41623,-0.89462 0.25666,-0.61609 0.41422,-0.83039 0.63374,-0.86195 l 0.29217,-0.042 0,2.70371 0,2.70372 -0.3286,0 -0.32861,0 -0.006,-1.80733 -0.006,-1.80734 -0.28962,0.70278 c -0.15929,0.38653 -0.34051,0.71185 -0.40271,0.72293 -0.0622,0.0111 -0.25027,-0.33474 -0.41793,-0.76849 l -0.30483,-0.78866 -0.009,1.87305 -0.009,1.87306 -0.3286,0 -0.32861,0 0,-2.69457 z m 3.6804,0 0,-2.69457 0.3286,0 0.32861,0 0,2.69457 0,2.69458 -0.32861,0 -0.3286,0 0,-2.69458 z m 6.04636,-0.009 0,-2.70331 0.36147,0.0416 0.36146,0.0416 0.0356,2.66172 0.0356,2.66171 -0.39704,0 -0.39705,0 0,-2.7033 z m 1.57731,0.009 0,-2.69457 0.98583,0 c 0.9639,0 0.98581,0.007 0.98581,0.3286 0,0.30184 -0.0481,0.32861 -0.59149,0.32861 l -0.5915,0 0,0.78866 0,0.78866 0.52578,0 c 0.49657,0 0.52577,0.0219 0.52577,0.39433 0,0.37241 -0.0293,0.39432 -0.52577,0.39432 l -0.52578,0 0,0.85438 0,0.85438 0.65723,0 c 0.6134,0 0.6572,0.0219 0.6572,0.32861 0,0.32313 -0.0175,0.3286 -1.05153,0.3286 l -1.05155,0 0,-2.69458 z m 55.86315,0.52578 0,-2.16881 1.31443,0 c 1.31442,0 1.31442,0 1.31442,0.3286 0,0.31923 -0.0263,0.32862 -0.92011,0.32862 l -0.92009,0 0,0.5195 0,0.51949 0.82152,0.0392 c 0.73785,0.0352 0.82579,0.0693 0.86351,0.33488 0.0399,0.28095 -0.002,0.29574 -0.82152,0.29574 l -0.86351,0 0,0.65722 0,0.65721 0.98582,0 c 0.96391,0 0.98582,0.007 0.98582,0.32861 l 0,0.3286 -1.38015,0 -1.38014,0 0,-2.1688 z m 4.33761,-0.008 0,-2.17637 0.54328,0.0404 c 0.53415,0.0398 0.54712,0.0526 0.76972,0.76335 0.21437,0.68447 0.23352,0.70546 0.36006,0.39434 0.0735,-0.18074 0.17545,-0.52085 0.22654,-0.75581 0.0878,-0.40351 0.12511,-0.42718 0.67398,-0.42718 l 0.58104,0 0,2.1688 0,2.16881 -0.39433,0 -0.39433,0 -0.0101,-1.61017 -0.0101,-1.61018 -0.26863,0.96002 c -0.23047,0.8237 -0.30678,0.95435 -0.53731,0.92009 -0.21284,-0.0317 -0.32566,-0.24486 -0.54273,-1.02573 l -0.27404,-0.98582 -0.0368,1.6759 -0.0368,1.67589 -0.32468,0 -0.32467,0 0,-2.17637 z m 4.86337,0.008 0,-2.16881 1.31443,0 c 1.31442,0 1.31442,0 1.31442,0.3286 0,0.31923 -0.0263,0.32862 -0.9201,0.32862 l -0.92009,0 0,0.52577 0,0.52577 0.78865,0 c 0.75361,0 0.78866,0.0146 0.78866,0.32861 0,0.31399 -0.0351,0.3286 -0.78866,0.3286 l -0.78865,0 0,0.65721 0,0.65722 0.98582,0 c 0.96391,0 0.98582,0.007 0.98582,0.32861 l 0,0.3286 -1.38015,0 -1.38015,0 0,-2.1688 z m 4.60049,0 0,-2.16881 1.31443,0 c 1.31443,0 1.31443,0 1.31443,0.3286 0,0.31923 -0.0263,0.32862 -0.92009,0.32862 l -0.92011,0 0,0.52577 0,0.52577 0.78866,0 c 0.7536,0 0.78865,0.0146 0.78865,0.32861 0,0.31399 -0.0351,0.3286 -0.78865,0.3286 l -0.78866,0 0,0.65721 0,0.65722 0.98582,0 c 0.96391,0 0.98583,0.007 0.98583,0.32861 l 0,0.3286 -1.38015,0 -1.38016,0 0,-2.1688 z m 4.46906,0 0,-2.16881 0.3831,0 c 0.35761,0 0.43122,0.0984 1.10628,1.47873 l 0.72318,1.47874 0.011,-1.47874 0.0109,-1.47873 0.32861,0 0.3286,0 0,2.16881 0,2.1688 -0.39568,0 c -0.37443,0 -0.43383,-0.0794 -1.10569,-1.47873 l -0.71002,-1.47873 -0.0116,1.47873 -0.0116,1.47873 -0.32861,0 -0.32861,0 0,-2.1688 z m -90.68337,-7.71663 c -0.23683,-1.32264 -0.46116,-2.53789 -0.49848,-2.70055 -0.0588,-0.25599 -0.015,-0.29574 0.32587,-0.29574 l 0.39376,0 0.16743,1.34729 c 0.24018,1.93267 0.31602,2.01389 0.50451,0.54022 0.23992,-1.87576 0.24416,-1.88751 0.68308,-1.88751 0.35513,0 0.37184,0.0245 0.29071,0.42718 -0.0473,0.23496 -0.26837,1.43272 -0.49116,2.66172 -0.36201,1.99687 -0.4338,2.23865 -0.67509,2.27335 -0.25109,0.0361 -0.30022,-0.1298 -0.70063,-2.36596 z m 2.48531,-0.30172 0,-2.69457 0.3286,0 0.32861,0 0,2.30025 0,2.30024 0.65721,0 c 0.64261,0 0.65721,0.009 0.65721,0.39433 l 0,0.39432 -0.98581,0 -0.98582,0 0,-2.69457 z m 2.16696,2.07023 c 0.0487,-0.3434 0.27605,-1.57075 0.50524,-2.72744 0.40745,-2.05645 0.42444,-2.10398 0.76567,-2.14347 0.39947,-0.0463 0.34453,-0.22773 0.97738,3.22892 0.20194,1.10305 0.4075,1.9607 0.4568,1.90592 0.0493,-0.0548 0.27548,-1.10517 0.50264,-2.33416 0.56428,-3.05303 0.49395,-2.82602 0.87546,-2.82602 0.18163,0 0.35756,0.0739 0.39099,0.1643 0.0656,0.17752 0.98254,5.07806 0.98254,5.25136 0,0.0577 -0.14675,0.10493 -0.32611,0.10493 -0.32292,0 -0.37887,-0.0973 -0.49139,-0.85437 -0.0296,-0.19888 -0.15659,-0.27269 -0.5217,-0.30313 -0.47286,-0.0395 -0.48488,-0.0288 -0.59455,0.52577 l -0.11194,0.56601 -0.71819,0 -0.71819,0 -0.11784,-0.55862 c -0.11399,-0.54032 -0.13448,-0.55864 -0.62494,-0.55864 -0.43772,0 -0.50734,0.0405 -0.5089,0.29575 -0.004,0.61974 -0.15025,0.88723 -0.48591,0.88723 -0.31325,0 -0.32225,-0.0238 -0.23706,-0.62434 z m 1.59795,-1.54286 c -0.0413,-0.10755 -0.11485,-0.49575 -0.16353,-0.86263 -0.10888,-0.82084 -0.26287,-0.69988 -0.38498,0.3024 l -0.0921,0.75579 0.35783,0 c 0.26274,0 0.33787,-0.0519 0.28276,-0.19556 z m 2.80722,0.042 c 0,-0.0844 -0.07,-0.54285 -0.15567,-1.01868 l -0.15566,-0.86514 -0.10237,0.59149 c -0.0563,0.32532 -0.13682,0.78373 -0.17891,1.01868 -0.0699,0.39011 -0.0475,0.42718 0.25805,0.42718 0.18401,0 0.33456,-0.0691 0.33456,-0.15353 z m 1.57731,-0.5694 0,-2.69457 0.30771,0 c 0.25814,0 0.36753,0.14859 0.67907,0.92247 l 0.37136,0.92247 0.38512,-0.92247 c 0.3255,-0.77969 0.43402,-0.92247 0.70108,-0.92247 l 0.31596,0 0,2.69457 0,2.69457 -0.32499,0 -0.32501,0 -0.0364,-1.87305 -0.0365,-1.87306 -0.27482,0.71596 c -0.15115,0.39378 -0.32892,0.734 -0.39505,0.75604 -0.0661,0.0221 -0.24811,-0.30014 -0.40439,-0.71595 l -0.28413,-0.75605 -0.0109,1.87306 -0.0109,1.87305 -0.32861,0 -0.32861,0 0,-2.69457 z m 3.64754,2.60397 c -0.15299,-0.0399 -0.23003,-0.18896 -0.23003,-0.4448 0,-0.37906 0.16992,-0.51001 0.32861,-0.25325 0.13938,0.22552 0.57553,0.14399 0.72513,-0.13555 0.1172,-0.21898 0.0353,-0.50171 -0.45542,-1.57226 -0.63565,-1.3867 -0.71674,-1.88807 -0.40344,-2.49394 0.34081,-0.65905 1.51388,-0.70459 1.51388,-0.0588 0,0.27855 -0.0448,0.31102 -0.33032,0.23936 -0.37563,-0.0943 -0.72122,0.12853 -0.72122,0.46499 0,0.12291 0.26617,0.77035 0.59149,1.43876 0.71493,1.4689 0.75635,1.97279 0.20727,2.52186 -0.36489,0.36489 -0.67188,0.43841 -1.22595,0.29361 z m 2.26739,-2.60397 0,-2.69457 0.99495,0 c 0.95665,0 0.99335,0.0114 0.95296,0.29574 -0.0358,0.25238 -0.13354,0.30162 -0.66635,0.33581 l -0.62435,0.0401 0,0.78146 0,0.78145 0.59149,0 c 0.5433,0 0.5915,0.0268 0.5915,0.32861 0,0.30183 -0.0481,0.32861 -0.5915,0.32861 l -0.59149,0 0,0.85437 0,0.85438 0.65721,0 c 0.64261,0 0.65722,0.009 0.65722,0.39433 l 0,0.39432 -0.98582,0 -0.98582,0 0,-2.69457 z m 74.84122,1.30349 c -0.36924,-0.18217 -0.70755,-0.65126 -0.70755,-0.98106 0,-0.0689 0.17745,-0.12526 0.39433,-0.12526 0.25868,0 0.39434,0.0662 0.39434,0.19254 0,0.49787 1.08839,0.57542 1.24291,0.0886 0.13399,-0.42218 -0.0693,-0.67637 -0.86018,-1.07562 -0.42195,-0.21298 -0.82854,-0.50194 -0.90357,-0.64211 -0.40165,-0.75049 0.22394,-1.71799 1.11085,-1.71799 0.74863,0 1.36791,0.42843 1.37744,0.95295 0.006,0.32966 -0.60414,0.3041 -0.78448,-0.0329 -0.19094,-0.3568 -0.86089,-0.35623 -1.05202,5.2e-4 -0.11568,0.21617 -0.082,0.32289 0.18658,0.59149 0.18024,0.18025 0.40566,0.32772 0.50091,0.32772 0.0953,0 0.39369,0.18176 0.6632,0.40391 0.39508,0.32566 0.48999,0.49281 0.48999,0.86301 0,0.62827 -0.20336,0.95615 -0.72929,1.1759 -0.56189,0.23477 -0.81124,0.23062 -1.32346,-0.0221 z m -22.83864,-0.15337 c -0.0365,-0.1265 -0.28018,-1.02854 -0.54144,-2.0045 -0.26125,-0.97596 -0.49966,-1.84841 -0.52979,-1.93878 -0.0351,-0.1053 0.077,-0.16429 0.31232,-0.16429 0.36076,0 0.37466,0.0296 0.8043,1.71527 0.24046,0.9434 0.47961,1.66798 0.53144,1.61018 0.0518,-0.0578 0.2167,-0.5783 0.36639,-1.15666 0.14968,-0.57834 0.33725,-1.30292 0.41683,-1.61017 0.12088,-0.46673 0.1979,-0.55862 0.46821,-0.55862 0.17795,0 0.32466,0.0444 0.326,0.0986 0.002,0.0542 -0.24888,1.03018 -0.55607,2.16881 l -0.55854,2.07022 -0.48661,0 c -0.35049,0 -0.50518,-0.0643 -0.55304,-0.23003 z m 3.86056,-1.93878 0,-2.16879 0.39433,0 0.39433,0 0,1.84019 0,1.84019 1.05154,0 c 1.03402,0 1.05154,0.005 1.05154,0.32861 l 0,0.32861 -1.44587,0 -1.44587,0 0,-2.16881 z m 4.33515,2.07023 c -0.002,-0.0543 0.24887,-1.03018 0.55608,-2.16881 l 0.55854,-2.07021 0.42606,0 c 0.47489,0 0.38192,-0.21124 1.15706,2.62884 0.18744,0.68679 0.37288,1.35667 0.41207,1.48863 0.059,0.19858 0.007,0.23255 -0.30219,0.19716 -0.32244,-0.0369 -0.38949,-0.11909 -0.49074,-0.60138 l -0.11725,-0.55863 -0.63603,0 c -0.58673,0 -0.64226,0.028 -0.71648,0.36146 -0.17004,0.76407 -0.20674,0.82152 -0.52491,0.82152 -0.17586,0 -0.32086,-0.0444 -0.32221,-0.0986 z m 1.97336,-1.8402 c -0.002,-0.12455 -0.25168,-1.08514 -0.35172,-1.34729 -0.0447,-0.1171 -0.14748,0.0697 -0.25316,0.46006 -0.25005,0.92341 -0.23668,0.98581 0.21129,0.98581 0.21688,0 0.39401,-0.0444 0.39359,-0.0986 z m 2.6296,1.78855 c 0,-0.0826 0.25023,-1.05859 0.55609,-2.1688 l 0.55609,-2.01857 0.42606,0 c 0.47486,0 0.38189,-0.21123 1.15704,2.62884 0.18743,0.68679 0.37288,1.35667 0.41207,1.48863 0.059,0.19858 0.007,0.23255 -0.3022,0.19716 -0.32243,-0.0369 -0.38949,-0.11909 -0.49073,-0.60138 l -0.11726,-0.55863 -0.63665,0 -0.63664,0 -0.14894,0.59149 c -0.12432,0.49373 -0.20066,0.59149 -0.46193,0.59149 -0.17215,0 -0.313,-0.0676 -0.313,-0.15023 z m 1.97163,-1.76321 c 0,-0.20415 -0.3113,-1.3211 -0.39399,-1.41357 -0.0525,-0.0587 -0.18567,0.25187 -0.29605,0.69008 l -0.2007,0.79673 0.44537,0 c 0.24495,0 0.44537,-0.033 0.44537,-0.0732 z m 2.62885,-0.25537 0,-2.16879 0.52101,0 0.52101,0 0.25509,0.82151 0.2551,0.82152 0.23128,-0.82152 0.23126,-0.82151 0.56993,0 0.56995,0 0,2.16879 0,2.16881 -0.39433,0 -0.39432,0 -0.0101,-1.61017 -0.0101,-1.61018 -0.26863,0.96002 c -0.23156,0.82758 -0.30609,0.95451 -0.54029,0.9201 -0.21695,-0.0319 -0.32628,-0.23852 -0.54274,-1.02573 l -0.27105,-0.98583 -0.0368,1.6759 -0.0368,1.67589 -0.32468,0 -0.32468,0 0,-2.16881 z m 9.46388,0 0,-2.16879 1.31443,0 c 1.31442,0 1.31442,0 1.31442,0.3286 0,0.31922 -0.0263,0.32861 -0.92009,0.32861 l -0.92011,0 0,0.52577 0,0.52577 0.78866,0 c 0.75361,0 0.78866,0.0146 0.78866,0.3286 0,0.31401 -0.0351,0.32861 -0.78866,0.32861 l -0.78866,0 0,0.65146 0,0.65145 0.95297,0.0386 c 0.87446,0.0354 0.95642,0.063 0.99496,0.33437 0.0413,0.29069 0.0183,0.29574 -1.34728,0.29574 l -1.3893,0 0,-2.16881 z"
       id="path3353"
       inkscape:connector-curvature="0" />
  </g>
</svg>
