<?xml version="1.0" encoding="UTF-8" standalone="no"?>
<!-- Created with Inkscape (http://www.inkscape.org/) -->

<svg
   xmlns:dc="http://purl.org/dc/elements/1.1/"
   xmlns:cc="http://creativecommons.org/ns#"
   xmlns:rdf="http://www.w3.org/1999/02/22-rdf-syntax-ns#"
   xmlns:svg="http://www.w3.org/2000/svg"
   xmlns="http://www.w3.org/2000/svg"
   xmlns:sodipodi="http://sodipodi.sourceforge.net/DTD/sodipodi-0.dtd"
   xmlns:inkscape="http://www.inkscape.org/namespaces/inkscape"
   width="138.28"
   height="45"
   id="svg3000"
   version="1.1"
   inkscape:version="0.48.1 r9760"
   sodipodi:docname="VGC-logo.svg">
  <defs
     id="defs3002" />
  <sodipodi:namedview
     id="base"
     pagecolor="#ffffff"
     bordercolor="#666666"
     borderopacity="1.0"
     inkscape:pageopacity="0.0"
     inkscape:pageshadow="2"
     inkscape:zoom="5.6"
     inkscape:cx="57.246674"
     inkscape:cy="-1.3484203"
     inkscape:document-units="px"
     inkscape:current-layer="layer1"
     showgrid="false"
     fit-margin-top="0"
     fit-margin-left="0"
     fit-margin-right="0"
     fit-margin-bottom="0"
     inkscape:window-width="1280"
     inkscape:window-height="721"
     inkscape:window-x="0"
     inkscape:window-y="25"
     inkscape:window-maximized="1" />
  <metadata
     id="metadata3005">
    <rdf:RDF>
      <cc:Work
         rdf:about="">
        <dc:format>image/svg+xml</dc:format>
        <dc:type
           rdf:resource="http://purl.org/dc/dcmitype/StillImage" />
        <dc:title></dc:title>
      </cc:Work>
    </rdf:RDF>
  </metadata>
  <g
     inkscape:label="Layer 1"
     inkscape:groupmode="layer"
     id="layer1"
     transform="translate(-410.86067,-714.48526)">
    <path
       style="fill:#000000"
       d="m 522.40571,755.87141 c -0.21194,-0.30259 -0.21788,-0.54037 -0.0229,-0.91741 0.27587,-0.53344 0.40581,-0.5664 0.76349,-0.19363 l 0.32329,0.33693 -0.44563,0.51025 -0.44563,0.51029 -0.17262,-0.24643 z m -18.7005,-0.54347 c -0.0866,-0.12369 -0.15736,-0.34364 -0.15714,-0.48877 3.6e-4,-0.27709 0.35305,-0.94234 0.49954,-0.94234 0.047,0 0.23291,0.15267 0.41316,0.33926 l 0.32772,0.33926 -0.46287,0.48873 c -0.45988,0.48563 -0.46389,0.48731 -0.62041,0.26386 z m 17.65296,-0.50565 c -0.25154,-0.35914 -0.20856,-0.77349 0.11812,-1.13871 l 0.28707,-0.32092 0.33018,0.34538 0.33019,0.34536 -0.44832,0.50503 -0.4483,0.50507 -0.16894,-0.24121 z m 1.91125,-0.30977 -0.23057,-0.3238 0.85519,-0.85057 0.85518,-0.85057 0.20337,0.24643 c 0.34005,0.41208 0.25557,0.64687 -0.50387,1.40049 -0.38897,0.38601 -0.76157,0.70182 -0.82798,0.70182 -0.0664,0 -0.22451,-0.1457 -0.35132,-0.3238 z m -20.60312,-0.22137 c -0.22419,-0.32005 -0.20268,-0.7969 0.055,-1.21955 l 0.21672,-0.35549 0.42806,0.42805 0.42806,0.42806 -0.41029,0.46565 c -0.22567,0.25609 -0.44287,0.47006 -0.48268,0.47546 -0.0398,0.005 -0.1455,-0.0946 -0.23487,-0.22218 z m 1.94705,-0.31965 -0.33233,-0.34287 0.87124,-0.86669 0.87123,-0.86672 0.22352,0.28417 c 0.12294,0.15628 0.22352,0.37091 0.22352,0.47691 0,0.17956 -1.29617,1.65808 -1.45359,1.65808 -0.0392,0 -0.22081,-0.15428 -0.40359,-0.34288 z m 17.6413,-0.52217 -0.33256,-0.34313 0.72964,-0.72408 0.72964,-0.72403 0,-3.83906 0,-3.83905 -2.00988,0 -2.00988,0 -4.88021,-4.88104 -4.88021,-4.88104 1.45827,-1.45548 c 0.80205,-0.80051 1.47831,-1.43426 1.50281,-1.40833 0.0245,0.0259 0.19058,0.37076 0.36905,0.76629 0.57809,1.28109 1.37895,2.33274 3.01887,3.96418 l 1.55976,1.55168 0.86135,-0.11592 c 1.07303,-0.1444 1.65149,-0.44244 1.91801,-0.98818 0.1668,-0.34157 0.17822,-0.46143 0.0764,-0.80132 -0.1546,-0.51601 -0.48709,-0.78652 -1.78826,-1.45488 -1.67777,-0.86183 -2.19006,-1.43821 -2.19006,-2.46412 0,-0.60522 0.24357,-1.12979 0.67868,-1.46165 0.18486,-0.14101 1.55226,-0.75266 3.03865,-1.35921 1.48638,-0.60655 2.79122,-1.18141 2.89961,-1.27745 0.41109,-0.36423 0.48144,-0.76345 0.48144,-2.73212 0,-2.12577 -0.079,-2.47002 -0.64614,-2.8158 -0.44502,-0.27132 -0.82018,-0.26757 -1.17527,0.0117 -0.66605,0.52392 -0.53736,0.96378 0.57609,1.96917 l 0.82777,0.74743 0,0.72225 c 0,0.39724 -0.0274,0.72225 -0.061,0.72225 -0.0336,0 -0.63991,-0.49943 -1.34741,-1.10984 -1.41767,-1.22313 -1.66367,-1.58839 -1.65065,-2.45091 0.01,-0.63345 0.36231,-1.21582 0.98676,-1.62907 0.59245,-0.39207 1.63761,-0.46224 2.24782,-0.15093 0.49562,0.25285 1.01636,0.81769 1.23394,1.33845 0.23065,0.552 0.22722,4.91752 -0.004,5.40529 -0.39228,0.82666 -1.06061,1.21496 -3.96271,2.3024 -1.03344,0.38723 -2.00401,0.76793 -2.15683,0.84598 -0.55663,0.2843 -0.8351,0.85688 -0.65059,1.3377 0.0462,0.12033 0.12366,0.0468 0.28706,-0.27242 0.30387,-0.5936 0.51762,-0.72669 2.20719,-1.37423 2.68329,-1.0284 3.61382,-1.44969 3.99399,-1.80824 0.2036,-0.19203 0.39653,-0.3228 0.42872,-0.29062 0.0322,0.0322 0.0585,0.31542 0.0585,0.62941 0,0.86895 -0.18667,0.99962 -3.04055,2.12854 -1.33192,0.52687 -2.53574,1.04767 -2.67516,1.15733 -0.32356,0.25452 -0.41762,0.59252 -0.19895,0.71491 0.12427,0.0696 0.21913,0.0124 0.38303,-0.23086 0.18511,-0.27467 0.5779,-0.4695 2.61193,-1.29553 1.31673,-0.53473 2.48164,-1.0515 2.58869,-1.14838 0.16811,-0.15214 0.20776,-0.15538 0.29104,-0.0237 0.24273,0.38374 -0.0391,1.12693 -0.54084,1.42612 -0.19317,0.11519 -1.09308,0.50398 -1.9998,0.86399 -0.90671,0.36 -1.74888,0.73577 -1.87148,0.83505 -0.22248,0.18015 -0.22197,0.18105 0.26359,0.46561 0.92663,0.54304 1.28111,1.24333 1.19963,2.36993 -0.0316,0.4375 -0.11598,0.68715 -0.32443,0.96044 -0.35375,0.46377 -1.36877,0.97216 -2.24981,1.12683 l -0.66432,0.11663 2.1248,2.1267 2.1248,2.1267 0.91436,0 0.91434,0 0,4.59552 0,4.5955 -0.84948,0.88485 c -0.46723,0.48668 -0.90427,0.88484 -0.97122,0.88484 -0.0669,0 -0.27137,-0.15439 -0.45429,-0.34309 z m -18.65479,-0.49201 -0.41165,-0.42157 2.18827,-2.19013 2.18826,-2.19013 0.80995,0 0.80994,0 0,-1.7678 c 0,-0.98822 0.0486,-1.89563 0.11021,-2.05768 0.11777,-0.30976 4.5538,-4.83871 4.73943,-4.83871 0.0607,0 1.21359,1.1039 2.56189,2.45311 l 2.45145,2.45312 1.9581,0 1.95811,0 0,3.54919 0,3.54917 -1.56582,0 -1.56582,0 0,-0.57412 0,-0.57414 0.99169,0 0.99168,0 0,-2.40091 0,-2.40093 -1.64502,0 -1.64501,0 -2.24245,-2.24426 -2.24244,-2.24426 -1.85388,1.85172 -1.85387,1.85172 0,2.27152 0,2.27153 -1.1212,0 -1.12122,0 -2.03948,2.03757 -2.03947,2.03755 -0.41165,-0.42156 z m 14.66651,-0.31185 c 0,-0.48628 0.5649,-0.94078 1.1693,-0.94078 0.17406,0 0.19474,0.0679 0.16709,0.54803 l -0.0316,0.54802 -0.65242,0.031 c -0.60144,0.0288 -0.65243,0.0142 -0.65243,-0.18636 z m 1.56581,-0.36665 0,-0.57413 1.43177,0 1.43177,0 -0.567,0.57413 -0.567,0.57414 -0.86477,0 -0.86477,0 0,-0.57414 z m 9.18614,-0.57413 0,-1.04389 6.73302,0 6.73302,0 0,1.04389 0,1.04387 -6.73302,0 -6.73302,0 0,-1.04387 z m -29.29293,0.44396 c 0.0353,-0.11764 0.0895,-0.30846 0.1205,-0.42397 0.0696,-0.25941 0.40925,-0.48717 0.85722,-0.57476 l 0.33926,-0.0664 0,0.57154 0,0.57151 -0.5134,0 c -0.28238,0 -0.59313,0.0306 -0.69057,0.068 -0.14103,0.0541 -0.16408,0.0244 -0.11301,-0.14597 z m 1.63014,-0.49618 0,-0.57413 1.25266,0 c 0.68896,0 1.25265,0.037 1.25265,0.0822 0,0.0452 -0.22474,0.30356 -0.49943,0.57413 l -0.49943,0.49191 -0.75323,0 -0.75322,0 0,-0.57414 z m 16.91084,-0.35855 c 0,-0.50235 0.51176,-0.94629 1.09088,-0.94629 0.2498,0 0.26616,0.0321 0.26616,0.52195 0,0.49953 -0.0124,0.52199 -0.28707,0.52309 -0.15789,0 -0.46322,0.0302 -0.67852,0.0658 -0.35318,0.0584 -0.39145,0.0423 -0.39145,-0.1646 z m -18.47688,-0.75432 c 3.2e-4,-0.38422 0.53073,-0.81829 0.99991,-0.81829 l 0.35735,0 0,0.51303 0,0.51304 -0.67874,0.035 c -0.67416,0.0347 -0.67873,0.0331 -0.67852,-0.24278 z m 1.56604,-0.29635 0,-0.52194 1.22819,0 1.22818,0 1.25103,-1.25397 1.25103,-1.25397 0.0522,-2.4779 0.0522,-2.4779 0.30583,-0.55204 c 0.53696,-0.96922 1.46015,-1.64666 3.71921,-2.72914 l 1.0255,-0.49139 -1.71621,-1.71385 -1.7162,-1.71384 -1.54105,1.53848 -1.54104,1.53846 -2.44827,0 -2.44826,0 -0.47797,0.47077 -0.47795,0.47078 -0.3564,-0.36771 -0.3564,-0.36771 0.67118,-0.6772 0.67117,-0.67719 2.35065,0 2.35066,0 1.80221,-1.80001 1.80223,-1.80001 2.84358,2.84358 2.84359,2.84359 -2.37046,2.37512 c -1.54033,1.54336 -2.42663,2.51105 -2.53086,2.76323 -0.11912,0.28821 -0.16041,0.77857 -0.16041,1.90509 l 0,1.51697 -0.60153,0 -0.60154,0 -1.5632,1.56582 -1.56322,1.56581 -1.48882,0 -1.48884,0 0,-0.52193 z m 27.66279,-5.89792 0,-0.99168 6.78521,0 6.78521,0 0,0.99168 0,0.99169 -6.78521,0 -6.78521,0 0,-0.99169 z m -31.15387,-4.4597 c -0.23493,-0.33542 -0.19986,-0.75705 0.0909,-1.09312 l 0.25341,-0.2929 0.3701,0.35701 0.37009,0.35701 -0.38864,0.44216 c -0.21374,0.2432 -0.42119,0.44659 -0.461,0.452 -0.0398,0.005 -0.14549,-0.0946 -0.23488,-0.22216 z m -8.05173,-0.4296 c -0.0345,-0.0899 -0.0323,-0.21273 0.005,-0.2729 0.0922,-0.14926 0.0564,-0.14067 -0.41446,0.0994 -1.25386,0.63925 -2.64047,-0.2104 -2.74701,-1.68324 -0.11011,-1.52211 0.98099,-2.59666 2.63665,-2.59666 l 0.47571,0 0,-0.98801 c 0,-0.89082 -0.0211,-0.99934 -0.21507,-1.10312 -0.11829,-0.0633 -0.20049,-0.18474 -0.18268,-0.26985 0.0267,-0.1274 0.7989,-0.46776 1.67508,-0.7383 0.16921,-0.0522 0.18309,0.17557 0.20878,3.42674 l 0.0275,3.48269 0.33926,-0.0265 c 0.28031,-0.0219 0.33927,0.0104 0.33927,0.18595 0,0.23585 0.0113,0.23086 -0.9395,0.41595 -0.37319,0.0727 -0.78362,0.15442 -0.9121,0.18172 -0.15,0.0319 -0.25602,-0.009 -0.29631,-0.11388 z m -0.20936,-0.75881 c 0.13875,-0.0533 0.16512,-0.27827 0.16512,-1.40924 0,-1.20668 -0.0216,-1.36746 -0.20878,-1.55464 -0.59943,-0.59944 -1.39319,0.20347 -1.39319,1.40923 0,1.14852 0.65327,1.85534 1.43685,1.55465 z m -69.20316,0.67027 c -0.0293,-0.0754 -0.60596,-1.52291 -1.28145,-3.2166 l -1.22815,-3.07945 -0.44566,-0.14208 c -0.316,-0.10076 -0.43607,-0.19185 -0.41271,-0.31316 0.0288,-0.14943 0.23075,-0.17109 1.59591,-0.17109 1.4089,0 1.56644,0.0181 1.59835,0.18373 0.0257,0.13358 -0.0522,0.20124 -0.28565,0.24792 -0.17655,0.0353 -0.32101,0.12055 -0.32101,0.18941 0,0.0689 0.32013,0.94377 0.7114,1.94423 0.39127,1.00045 0.74675,1.91296 0.78993,2.02778 0.0747,0.19864 0.0837,0.19956 0.18513,0.0189 0.11528,-0.20535 1.54956,-3.90137 1.54956,-3.99305 0,-0.0306 -0.14333,-0.10555 -0.3185,-0.16662 -0.20613,-0.0718 -0.30702,-0.17059 -0.28597,-0.2799 0.0275,-0.14306 0.21589,-0.17067 1.23189,-0.18056 1.03355,-0.01 1.29934,-0.0503 1.92255,-0.29112 0.39775,-0.15368 0.76115,-0.24146 0.80755,-0.19504 0.0464,0.0464 0.0968,1.63072 0.11192,3.52071 l 0.0276,3.43637 0.26097,0.0616 c 0.14353,0.0339 0.26097,0.12992 0.26097,0.21346 0,0.12343 -0.24919,0.15734 -1.33094,0.18108 -1.27749,0.0281 -1.33095,0.0207 -1.33095,-0.18267 0,-0.13446 0.0686,-0.2119 0.1879,-0.2119 0.4181,0 0.43843,-0.1436 0.43843,-3.09665 0,-2.61237 -0.0152,-2.8542 -0.18415,-2.94467 -0.34781,-0.18614 -0.78781,0.11504 -1.14166,0.78146 -0.30008,0.56517 -1.51921,3.43506 -2.14569,5.05109 -0.23863,0.61557 -0.29323,0.68155 -0.58863,0.71128 -0.19814,0.02 -0.34646,-0.0209 -0.37889,-0.10438 z m 7.27895,-0.13512 c -0.37518,-0.3157 -0.48596,-0.78367 -0.29416,-1.24272 0.15279,-0.36566 0.69617,-0.66194 1.65844,-0.90424 0.58455,-0.14719 0.70682,-0.40892 0.47526,-1.01732 -0.12407,-0.32596 -0.19596,-0.38695 -0.4561,-0.38695 -0.26136,0 -0.34047,0.0681 -0.5147,0.44321 -0.1522,0.32764 -0.29622,0.47302 -0.55234,0.55756 -0.44107,0.14555 -0.65102,0.064 -0.65102,-0.2527 0,-0.36445 0.36287,-0.76819 0.97588,-1.08578 0.42393,-0.21961 0.68863,-0.27965 1.25068,-0.28359 0.67597,-0.005 0.72874,0.0127 1.01778,0.33588 0.30464,0.34069 0.30485,0.34181 0.30485,1.73572 0,1.55386 0.0598,1.70591 0.62658,1.59256 0.47553,-0.0951 0.41555,0.25361 -0.0928,0.5393 -0.50768,0.28533 -1.08532,0.29128 -1.53109,0.0158 l -0.34339,-0.21223 -0.34745,0.21184 c -0.49343,0.30082 -1.13712,0.2813 -1.52646,-0.0463 z m 1.83663,-1.12421 c 0.0342,-0.65611 -0.0121,-0.69649 -0.50623,-0.44096 -0.24592,0.12716 -0.30798,0.22813 -0.30798,0.50105 0,0.4189 0.17554,0.61112 0.52121,0.57073 0.24116,-0.0282 0.26416,-0.0777 0.293,-0.63082 z m 2.72695,1.078 c -0.24485,-0.24484 -0.30514,-0.39593 -0.30514,-0.7647 0,-0.61807 0.29223,-0.87788 1.38497,-1.23131 l 0.85937,-0.27796 -0.006,-0.47623 c -0.007,-0.54328 -0.17545,-0.80702 -0.51592,-0.80702 -0.27224,0 -0.40164,0.13672 -0.54233,0.57296 -0.071,0.22015 -0.21225,0.35448 -0.47984,0.45632 -0.46573,0.17726 -0.70023,0.10057 -0.70023,-0.22901 0,-0.59673 1.0627,-1.3107 2.06912,-1.39014 0.67017,-0.0529 0.97941,0.0693 1.31342,0.51931 0.19835,0.26719 0.2159,0.41107 0.18746,1.53671 -0.0377,1.49234 0.0398,1.71685 0.56342,1.63188 0.26603,-0.0431 0.35525,-0.02 0.35525,0.0924 0,0.182 0.32764,0.19818 0.50107,0.0248 0.0838,-0.0838 0.12527,-0.54977 0.12527,-1.40924 0,-1.15776 -0.0212,-1.30513 -0.21531,-1.49927 -0.11841,-0.11842 -0.19929,-0.26333 -0.17972,-0.32205 0.0484,-0.14526 1.56223,-0.72815 1.72853,-0.66557 0.0856,0.0323 0.10945,0.14408 0.0669,0.31382 l -0.0662,0.26377 0.55948,-0.26045 c 0.81243,-0.3782 1.53994,-0.30938 1.94979,0.18445 0.10374,0.12501 0.21243,0.10215 0.71172,-0.1497 0.65835,-0.33207 1.1512,-0.37466 1.60715,-0.13889 0.52505,0.27151 0.62291,0.61156 0.62291,2.16432 0,1.43853 0.0548,1.64407 0.43843,1.64407 0.11831,0 0.1879,0.0773 0.1879,0.20877 0,0.19718 -0.0696,0.20878 -1.25265,0.20878 -1.18307,0 -1.25266,-0.0116 -1.25266,-0.20878 0,-0.11482 0.0688,-0.20877 0.15291,-0.20877 0.2991,0 0.38729,-0.4103 0.35168,-1.63612 -0.0382,-1.31385 -0.12527,-1.49551 -0.71713,-1.49551 -0.52299,0 -0.62256,0.25455 -0.62256,1.5916 0,1.35131 0.0397,1.54003 0.32433,1.54003 0.12802,0 0.19761,0.0735 0.19761,0.20877 0,0.19668 -0.0696,0.20878 -1.20046,0.20878 -1.13087,0 -1.20046,-0.0121 -1.20046,-0.20878 0,-0.13524 0.0696,-0.20877 0.1976,-0.20877 0.28406,0 0.32434,-0.18901 0.32434,-1.52216 0,-1.05273 -0.0244,-1.2163 -0.20878,-1.4007 -0.11483,-0.11483 -0.32621,-0.20877 -0.46974,-0.20877 -0.14354,0 -0.35492,0.0939 -0.46975,0.20877 -0.18362,0.18361 -0.20878,0.34797 -0.20878,1.36391 0,1.17019 0.092,1.55895 0.36903,1.55895 0.0841,0 0.15291,0.0939 0.15291,0.20877 0,0.19718 -0.0696,0.20878 -1.25265,0.20878 -1.0446,0 -1.25266,-0.026 -1.25266,-0.15677 0,-0.13015 -0.0662,-0.12127 -0.38991,0.0521 -0.51978,0.27859 -1.17128,0.27258 -1.53582,-0.0141 l -0.28368,-0.22315 -0.39704,0.22315 c -0.58961,0.33138 -1.1952,0.2999 -1.57709,-0.082 z m 1.86612,-1.078 c 0.0332,-0.63655 -0.006,-0.67859 -0.44644,-0.47794 -0.32069,0.14611 -0.43906,0.52554 -0.27575,0.88395 0.0915,0.20082 0.18375,0.2526 0.4047,0.22717 0.27069,-0.0312 0.28788,-0.0655 0.31749,-0.63318 z m 11.16706,1.26274 c -0.297,-0.10857 -0.49684,-0.57337 -0.49803,-1.15835 -7.2e-4,-0.36366 0.35236,-0.39841 0.53044,-0.0522 0.40217,0.78184 1.12983,1.06849 1.37065,0.53994 0.1614,-0.35423 0.0509,-0.52154 -0.65829,-0.99663 -0.73235,-0.49062 -0.92611,-0.71589 -0.9983,-1.16071 -0.0778,-0.47926 0.18282,-1.02083 0.61781,-1.28395 0.4296,-0.25985 1.8666,-0.29048 2.09959,-0.0448 0.21759,0.22948 0.32046,1.10508 0.13806,1.17508 -0.18954,0.0728 -0.30022,-0.0155 -0.49407,-0.39364 -0.0879,-0.17148 -0.29246,-0.35843 -0.45457,-0.41545 -0.25247,-0.0888 -0.32305,-0.0687 -0.49185,0.13974 -0.26193,0.32346 -0.1542,0.49634 0.59368,0.95285 0.77511,0.47314 1.03449,0.82648 1.03449,1.40924 0,0.89047 -0.68329,1.41445 -1.82679,1.40083 -0.37319,-0.005 -0.80645,-0.0549 -0.96282,-0.112 z m 4.42519,-0.0979 c -0.25904,-0.13149 -0.57116,-0.40931 -0.73072,-0.65043 -0.24454,-0.36953 -0.27854,-0.52465 -0.27854,-1.27124 0,-0.75354 0.0328,-0.89989 0.28796,-1.28549 0.62094,-0.93829 1.75473,-1.30075 2.72555,-0.87129 0.40372,0.17857 0.52985,0.30385 0.70532,0.70055 0.12876,0.29107 0.18859,0.58315 0.15053,0.73479 -0.0623,0.2484 -0.0795,0.25169 -1.30768,0.25169 -0.68447,0 -1.26803,0.0381 -1.29678,0.0846 -0.11207,0.18132 0.1799,0.95428 0.46286,1.22538 0.2157,0.20664 0.43772,0.29897 0.80351,0.33412 0.43776,0.0421 0.55113,0.0101 0.84629,-0.23822 0.25813,-0.21718 0.37013,-0.25746 0.46164,-0.16594 0.17596,0.17596 -0.15227,0.73359 -0.6204,1.05401 -0.54188,0.37092 -1.58058,0.41673 -2.20954,0.0975 z m 1.6152,-3.07075 c 0.0869,-0.22646 -0.24265,-0.67771 -0.49493,-0.67771 -0.22338,0 -0.82467,0.52694 -0.82467,0.72269 0,0.18683 1.24695,0.14433 1.3196,-0.045 z m 5.61787,3.09282 c -0.83078,-0.37738 -1.25106,-1.166 -1.17581,-2.20633 0.0555,-0.76711 0.41735,-1.34014 1.0995,-1.74111 0.42747,-0.25127 0.61047,-0.29284 1.28928,-0.29284 0.69914,0 0.85081,0.0369 1.30485,0.31745 0.70081,0.43302 1.00959,1.00404 1.00959,1.867 0,1.06446 -0.5644,1.89306 -1.45858,2.14138 -0.61621,0.17112 -1.59265,0.13075 -2.06883,-0.0856 z m 1.76859,-0.67266 c 0.18258,-0.24562 0.21783,-0.43699 0.21147,-1.14827 -0.0123,-1.37073 -0.48533,-2.16799 -1.09334,-1.8426 -0.68661,0.36747 -0.6996,2.69848 -0.0179,3.21174 0.27015,0.2034 0.65451,0.10905 0.89976,-0.22087 z m 3.76817,0.16946 c -0.16325,-0.3904 -0.54457,-1.23986 -0.84738,-1.88767 -0.47441,-1.01495 -0.59537,-1.19347 -0.87464,-1.29081 -0.21226,-0.074 -0.3128,-0.17185 -0.29138,-0.28359 0.0277,-0.14488 0.22572,-0.17504 1.31221,-0.19994 1.10428,-0.0253 1.28847,-0.006 1.34488,0.14102 0.0586,0.15277 -0.0574,0.29524 -0.31438,0.3858 -0.10681,0.0376 0.53735,1.74684 0.65835,1.74684 0.0468,0 0.23839,-0.38037 0.42579,-0.84526 0.28134,-0.69794 0.31522,-0.8614 0.19442,-0.93788 -0.0805,-0.0509 -0.18155,-0.0934 -0.22461,-0.0942 -0.0431,-7.7e-4 -0.0783,-0.0974 -0.0783,-0.21443 0,-0.20014 0.0539,-0.21104 0.90497,-0.18267 0.9929,0.0331 1.19859,0.16962 0.66848,0.44376 -0.42303,0.21875 -0.54391,0.41976 -1.37174,2.281 -0.60599,1.36247 -0.74058,1.5897 -0.95747,1.6166 -0.22207,0.0276 -0.28802,-0.0539 -0.54921,-0.67852 z m 4.05913,0.49971 c -1.52405,-0.6921 -1.53168,-3.11625 -0.0125,-3.98232 0.56709,-0.3233 1.6512,-0.3575 2.0959,-0.0661 0.421,0.27585 0.7047,0.7918 0.6713,1.22088 l -0.0284,0.36535 -1.27875,0.0293 -1.27875,0.0293 0,0.26191 c 0,0.40586 0.38662,1.06735 0.72655,1.24313 0.48184,0.24917 1.08278,0.20387 1.45545,-0.10971 0.30529,-0.25689 0.53209,-0.26639 0.53209,-0.0223 0,0.2289 -0.54393,0.81966 -0.94138,1.02243 -0.52078,0.26568 -1.36644,0.26921 -1.94141,0.008 z m 1.52574,-3.24143 c 0,-0.55411 -0.74981,-0.67512 -1.09851,-0.17729 -0.28188,0.40244 -0.20007,0.48678 0.47218,0.48678 0.62468,0 0.62633,-7.8e-4 0.62633,-0.30949 z m 12.33534,3.21714 c -0.64941,-0.32145 -0.99017,-0.88431 -1.04363,-1.72389 -0.0558,-0.87583 0.17134,-1.47889 0.74038,-1.96598 1.13269,-0.96953 2.7716,-0.66154 3.10696,0.58388 0.18519,0.68774 0.12825,0.72028 -1.26047,0.72028 -0.6915,0 -1.26307,0.0449 -1.29835,0.10198 -0.0347,0.0561 -0.0133,0.28668 0.0475,0.51241 0.25708,0.95472 1.37791,1.37883 2.08082,0.78737 0.31965,-0.26897 0.53209,-0.26496 0.53209,0.01 0,0.23212 -0.64183,0.90189 -1.0128,1.05689 -0.51348,0.21455 -1.36706,0.17713 -1.89249,-0.0829 z m 1.63191,-3.1361 c 0.0399,-0.20944 -0.32772,-0.60665 -0.56144,-0.60665 -0.1882,0 -0.77488,0.55093 -0.77488,0.72766 0,0.0777 0.22017,0.1069 0.65138,0.0863 0.51298,-0.0245 0.6585,-0.0686 0.68494,-0.20733 z m -12.38244,3.0776 c 0.0188,-0.098 0.15149,-0.20571 0.29472,-0.23943 0.25969,-0.0612 0.26051,-0.0652 0.28966,-1.45594 0.0271,-1.29602 0.0137,-1.41114 -0.19053,-1.62854 -0.25805,-0.27468 -0.25341,-0.2791 0.73241,-0.69896 0.85733,-0.36515 0.94251,-0.3625 0.94251,0.0292 l 0,0.31692 0.38958,-0.26472 c 0.46934,-0.31893 0.79203,-0.33578 1.07184,-0.056 0.23783,0.23782 0.26092,0.43661 0.0888,0.76368 -0.23718,0.45061 -0.63156,0.51025 -1.0738,0.16238 -0.18026,-0.14178 -0.31873,-0.18598 -0.38259,-0.12211 -0.057,0.057 -0.0875,0.70359 -0.0708,1.50095 l 0.0292,1.40087 0.33926,0.0327 c 0.25471,0.0246 0.33926,0.0831 0.33926,0.23488 0,0.19002 -0.085,0.20215 -1.41689,0.20215 -1.27936,0 -1.41356,-0.0173 -1.38259,-0.1781 z m 3.84335,-0.0307 c 0,-0.13144 0.0696,-0.20877 0.18791,-0.20877 0.41724,0 0.43843,-0.14654 0.43843,-3.03195 0,-2.66569 -0.009,-2.78942 -0.21264,-2.97386 -0.32946,-0.29814 -0.20997,-0.46818 0.5258,-0.74822 1.17401,-0.44682 1.09,-0.56688 1.05522,1.5081 l -0.0302,1.80026 0.55747,-0.25951 c 0.67108,-0.31241 1.17398,-0.33041 1.62077,-0.058 0.53606,0.32686 0.60216,0.54676 0.65909,2.19292 0.0521,1.50496 0.0529,1.50938 0.31261,1.5704 0.14323,0.0337 0.27586,0.14133 0.29472,0.23929 0.0309,0.16024 -0.0972,0.17809 -1.27821,0.17809 -1.10654,0 -1.31249,-0.0249 -1.31249,-0.15916 0,-0.0875 0.11743,-0.20381 0.26096,-0.25839 0.25971,-0.0987 0.26097,-0.1057 0.26097,-1.44266 0,-1.16894 -0.0248,-1.3659 -0.19089,-1.51621 -0.25894,-0.23434 -0.70376,-0.2176 -0.95737,0.036 -0.18362,0.18361 -0.20878,0.34796 -0.20878,1.3639 0,1.17019 0.092,1.55896 0.36903,1.55896 0.0841,0 0.15291,0.0939 0.15291,0.20877 0,0.19718 -0.0696,0.20878 -1.25265,0.20878 -1.18306,0 -1.25266,-0.0116 -1.25266,-0.20878 z m 10.09803,0.14639 c -0.11754,-0.11754 0.0498,-0.35516 0.25013,-0.35516 0.30408,0 0.4038,-0.41312 0.4038,-1.67293 0,-1.02245 -0.0222,-1.15813 -0.22008,-1.34244 -0.12105,-0.11277 -0.20121,-0.26163 -0.17815,-0.33081 0.0408,-0.1225 1.36436,-0.70858 1.62479,-0.71949 0.0998,-0.004 0.13048,0.44328 0.13048,1.90484 0,1.97595 0.0376,2.16083 0.43843,2.16083 0.11831,0 0.1879,0.0773 0.1879,0.20877 0,0.1975 -0.0696,0.20878 -1.28745,0.20878 -0.7081,0 -1.31553,-0.0281 -1.34985,-0.0624 z m 13.23859,-0.48277 c -0.0894,-0.12761 -0.1625,-0.3217 -0.1625,-0.43133 0,-0.21748 0.3878,-0.9025 0.51092,-0.9025 0.042,0 0.20791,0.13734 0.36872,0.30519 l 0.29238,0.30516 -0.39935,0.47774 c -0.21963,0.26276 -0.41021,0.47774 -0.4235,0.47774 -0.0133,0 -0.0973,-0.1044 -0.18667,-0.232 z m 0.82918,-1.22944 -0.30003,-0.31315 0.30085,-0.31403 0.30085,-0.31402 -0.40833,-0.41815 -0.40832,-0.41818 0.33633,-0.33633 0.33634,-0.33634 0.75417,0.75417 0.75417,0.75416 -0.62097,0.62752 c -0.34154,0.34514 -0.64889,0.62752 -0.683,0.62752 -0.0341,0 -0.19704,-0.14092 -0.36206,-0.31317 z m 31.39087,-0.809 0.0299,-1.01778 6.75911,-0.0269 6.75913,-0.0269 0,1.04464 0,1.04464 -6.789,0 -6.78899,0 0.0299,-1.01778 z m -30.11588,-1.15189 -0.80787,-0.81264 0.3966,-0.38727 0.39658,-0.38726 0.61924,0.62577 0.61924,0.62576 1.88411,0 1.88411,0 1.09296,-1.09668 1.09294,-1.09667 -3.12973,-3.13104 -3.12972,-3.13102 -0.65307,0 -0.65308,0 0,-0.52194 0,-0.52194 0.96615,0 0.96616,0 3.57472,3.57585 c 1.96609,1.9667 3.57471,3.62311 3.57471,3.68089 0,0.0578 -0.74038,0.84435 -1.64529,1.74793 l -1.6453,1.64289 -2.29779,0 -2.2978,0 -0.80787,-0.81263 z m -2.45585,-0.45247 c -0.42096,-0.39724 -0.43789,-0.43408 -0.26097,-0.5682 0.30012,-0.22753 0.82027,-0.18098 1.14895,0.10285 l 0.29288,0.25293 -0.30659,0.32121 c -0.16863,0.17666 -0.33305,0.32003 -0.36536,0.3186 -0.0323,-0.002 -0.26133,-0.19376 -0.50891,-0.42739 z m 1.02603,-1.0454 c -0.45227,-0.40875 -0.46104,-0.42805 -0.26097,-0.5744 0.33686,-0.24637 0.63351,-0.27448 0.98406,-0.0932 0.46256,0.2392 0.5008,0.43279 0.15649,0.79217 -0.16174,0.16882 -0.3205,0.30502 -0.35282,0.30266 -0.0323,-0.002 -0.26936,-0.19461 -0.52676,-0.42724 z m -12.91292,0.0134 c -0.46773,-0.18863 -0.59501,-0.84874 -0.23763,-1.23233 0.46165,-0.49553 1.35297,-0.16465 1.35297,0.50225 0,0.2969 -0.3048,0.73071 -0.5134,0.73071 -0.0527,0 -0.15841,0.0206 -0.23487,0.0457 -0.0765,0.0251 -0.24165,0.004 -0.36707,-0.0463 z m 20.37033,-4.50413 -4.22314,-4.19161 0,-1.18437 0,-1.18437 0.57414,0 0.57413,0 0,0.91396 0,0.91395 3.64661,3.64549 c 3.15981,3.15884 3.66843,3.62736 3.81015,3.50974 0.19584,-0.16253 0.21236,-0.76615 0.0482,-1.76041 -0.134,-0.81134 -0.0323,-1.33908 0.37339,-1.93682 0.2991,-0.44076 0.20246,-0.49014 -0.23645,-0.12082 -0.49114,0.41327 -0.58015,0.75842 -0.51662,2.00326 l 0.0563,1.10386 -0.72013,-0.7146 -0.72012,-0.7146 0,-0.79137 c 0,-0.68905 0.0381,-0.85138 0.29465,-1.25546 0.32825,-0.51701 1.03849,-0.96331 1.79747,-1.12949 0.25596,-0.056 1.00065,-0.15437 1.65487,-0.2185 0.65421,-0.0641 1.26943,-0.1594 1.36714,-0.2117 0.2334,-0.1249 0.41843,0.0623 0.41843,0.42326 0,0.15267 -0.17494,0.64826 -0.38876,1.1013 -0.37018,0.78434 -0.38927,0.87751 -0.3994,1.94952 l -0.0107,1.12583 -0.45634,0.46497 -0.45634,0.46497 -0.23882,-0.96446 c -0.30233,-1.22092 -0.29908,-1.64827 0.0183,-2.42047 0.14038,-0.34148 0.23096,-0.64515 0.20129,-0.67482 -0.11016,-0.11017 -0.41559,0.17448 -0.61399,0.57219 -0.30714,0.61571 -0.3293,1.52506 -0.0606,2.48296 0.1873,0.66749 0.20616,0.86796 0.10925,1.16159 -0.11663,0.35336 -1.39192,1.82862 -1.58077,1.82862 -0.0546,0 -1.9996,-1.88621 -4.32232,-4.1916 z m 8.27623,2.07775 c -0.6254,-1.58053 -0.63384,-2.4658 -0.0365,-3.82452 0.43051,-0.97916 0.46505,-1.37928 0.16198,-1.8764 -0.11769,-0.19306 -0.19973,-0.35841 -0.18228,-0.36744 1.09918,-0.56849 1.21239,-0.55317 1.50125,0.20321 0.21665,0.56729 0.15916,0.99285 -0.27507,2.03642 -0.17745,0.42646 -0.35008,1.03374 -0.38362,1.34951 l -0.061,0.57414 0.26876,-0.31783 c 0.1478,-0.17481 0.30317,-0.50363 0.34524,-0.73072 0.0421,-0.22709 0.18693,-0.70754 0.32191,-1.06769 0.33642,-0.89762 0.31771,-1.41151 -0.0804,-2.20819 -0.27604,-0.5524 -0.30794,-0.69126 -0.20879,-0.90889 0.0644,-0.14128 0.11704,-0.35178 0.11704,-0.46777 0,-0.17072 0.0448,-0.197 0.23488,-0.13797 0.12918,0.0401 0.3523,0.15612 0.49584,0.2578 0.98125,0.69513 1.26549,1.68345 0.83927,2.91825 -0.10877,0.31517 -0.18011,0.5907 -0.15851,0.61229 0.0216,0.0216 0.18063,-0.18365 0.35341,-0.45609 0.97349,-1.53504 0.12134,-3.43544 -1.68659,-3.76133 -0.37342,-0.0673 -0.39146,-0.0575 -0.39146,0.21234 0,0.44501 -0.31166,0.98914 -0.72093,1.25868 -0.45127,0.29721 -1.44639,0.56941 -2.08165,0.56941 l -0.46219,0 0.0691,-0.58826 c 0.0869,-0.73981 0.15019,-0.84121 0.34828,-0.55839 0.13142,0.18763 0.22099,0.21394 0.53064,0.15585 0.96381,-0.18082 1.37418,-0.58636 1.37407,-1.35792 -9e-5,-0.64397 -0.0838,-0.706 -1.0267,-0.76058 l -0.8403,-0.0487 -0.17676,0.44176 c -0.21503,0.53739 -0.28906,0.43944 -0.44749,-0.59203 -0.29824,-1.94168 -0.21092,-2.07231 1.55692,-2.32903 1.07982,-0.1568 1.32331,-0.22548 1.44405,-0.40732 0.1276,-0.19218 0.24811,-0.2187 0.99368,-0.21862 0.83696,9e-5 2.81886,0.15094 3.48948,0.2656 0.29677,0.0507 0.33485,0.0906 0.27495,0.28806 -0.0382,0.12603 -0.18405,0.38202 -0.32403,0.56886 -0.24698,0.32966 -0.251,0.36368 -0.13585,1.15114 0.0675,0.46175 0.10369,1.64497 0.0839,2.74571 l -0.0348,1.93429 -0.40776,0.82912 c -0.35714,0.72622 -0.60609,1.02724 -2.0056,2.42516 -0.90543,0.90439 -1.76429,1.86566 -1.98191,2.21824 -0.21123,0.34222 -0.39587,0.62222 -0.41031,0.62222 -0.0145,0 -0.14242,-0.2936 -0.28441,-0.65243 z m 1.593,-11.13812 0.26097,-0.20942 -0.44365,-0.002 c -0.42501,-0.002 -0.44365,0.011 -0.44365,0.31451 0,0.34747 0.0821,0.334 0.62633,-0.10276 z m 14.19675,8.6589 0,-1.04387 6.78521,0 6.78521,0 0,1.04387 0,1.04388 -6.78521,0 -6.78521,0 0,-1.04388 z m -7.80153,-2.29503 c -0.47286,-0.40431 -0.93301,-0.84692 -1.02256,-0.98358 -0.22482,-0.34312 -0.2964,-0.89214 -0.16197,-1.24227 l 0.11256,-0.29317 1.38341,1.16493 c 0.76087,0.64071 1.39737,1.24618 1.41444,1.34548 0.0418,0.24287 -0.28363,0.6107 -0.60518,0.68412 -0.21374,0.0488 -0.41654,-0.0734 -1.1207,-0.67551 z m -67.1987,0.12274 c -0.0301,-0.03 -0.0546,-0.16434 -0.0546,-0.29842 l 0,-0.24378 -0.38289,0.20522 c -0.56216,0.3013 -1.17631,0.36632 -1.63803,0.1734 -0.57185,-0.23894 -0.69317,-0.62218 -0.69317,-2.18964 0,-1.26291 -0.007,-1.30053 -0.25762,-1.46499 -0.37887,-0.24825 -0.22917,-0.44426 0.3939,-0.51573 0.29823,-0.0342 0.7184,-0.0936 0.93369,-0.13205 l 0.39146,-0.0699 0,1.67795 c 0,1.6156 0.009,1.68398 0.232,1.84044 0.31645,0.22165 0.666,0.204 0.91627,-0.0462 0.18045,-0.18046 0.20858,-0.34681 0.20735,-1.22656 -0.002,-1.27922 -0.0483,-1.44804 -0.436,-1.5832 -0.51414,-0.17923 -0.28959,-0.36431 0.60265,-0.49671 0.45455,-0.0675 0.90867,-0.12618 1.00914,-0.13049 0.16696,-0.007 0.18281,0.14261 0.18427,1.74065 7.3e-4,0.96168 0.0428,1.81359 0.0932,1.89312 0.0606,0.0957 0.18358,0.12152 0.36376,0.0763 0.23935,-0.0601 0.27217,-0.0366 0.27217,0.19465 0,0.20286 -0.0536,0.26314 -0.23487,0.26377 -0.12919,3.7e-4 -0.59782,0.0877 -1.04143,0.19384 -0.44359,0.10616 -0.83113,0.16842 -0.86119,0.13836 z m 31.48683,-0.0452 c -0.0574,-0.0574 -0.0796,-0.16916 -0.0492,-0.24828 0.071,-0.18515 -0.11983,-0.184 -0.41445,0.002 -0.6108,0.3866 -1.49239,0.27771 -2.10478,-0.25998 -1.09589,-0.96221 -0.81626,-2.93416 0.52012,-3.66797 0.41781,-0.22942 0.65503,-0.28511 1.22298,-0.28707 l 0.70461,-0.002 0,-1.00105 c 0,-0.91165 -0.021,-1.0182 -0.23487,-1.19305 -0.15651,-0.12794 -0.20004,-0.22677 -0.13049,-0.29622 0.12526,-0.12506 1.47863,-0.64131 1.68121,-0.64131 0.11724,0 0.14765,0.61036 0.17026,3.41869 l 0.0275,3.41871 0.31316,0.003 c 0.23787,0.002 0.32085,0.0565 0.34513,0.22427 0.0281,0.19364 -0.0363,0.23024 -0.52193,0.29681 -0.30466,0.0417 -0.74986,0.13477 -0.98937,0.20669 -0.2904,0.0872 -0.47023,0.096 -0.53988,0.0263 z m -0.1436,-2.20715 c 0.0249,-1.1425 0.003,-1.37457 -0.14667,-1.53972 -0.37345,-0.41267 -1.05015,-0.14598 -1.30506,0.51432 -0.14953,0.38736 -0.14014,1.40381 0.0158,1.70559 0.2815,0.54489 0.54187,0.72874 0.98578,0.69605 l 0.42085,-0.031 0.0293,-1.34526 z m -61.83231,2.15413 c -0.0604,-0.043 -0.19575,-0.31303 -0.30087,-0.6001 -0.25352,-0.69233 -1.84272,-4.25261 -1.95469,-4.37907 -0.0483,-0.0546 -0.0878,0.86746 -0.0878,2.04888 0,2.32155 0.003,2.33483 0.57414,2.39925 0.22221,0.0251 0.31316,0.0914 0.31316,0.22821 0,0.1762 -0.11048,0.19424 -1.27878,0.20876 -0.70332,0.009 -1.28581,-0.0194 -1.2944,-0.0624 -0.054,-0.27061 -0.003,-0.343 0.27565,-0.39128 0.19854,-0.0344 0.35638,-0.14875 0.43362,-0.31419 0.12689,-0.27172 0.35029,-3.13962 0.35029,-4.49676 0,-0.87833 -0.10447,-1.10158 -0.57426,-1.22721 -0.17218,-0.046 -0.32823,-0.16255 -0.3468,-0.25889 -0.0301,-0.15609 0.10229,-0.17517 1.21495,-0.17517 l 1.24869,0 0.0726,0.38699 c 0.0692,0.36893 1.59278,3.72072 1.87336,4.1213 0.11841,0.16906 0.22979,-0.0159 0.97002,-1.61062 0.45994,-0.99088 0.917,-2.04821 1.01571,-2.34964 l 0.17945,-0.54803 1.17467,0 c 0.64607,0 1.20276,0.0281 1.23708,0.0624 0.12998,0.12998 -0.0601,0.35515 -0.29975,0.35515 -0.13738,0 -0.35033,0.10053 -0.47319,0.2234 -0.21946,0.21945 -0.22247,0.27005 -0.17084,2.8689 0.056,2.82242 0.0759,2.92331 0.58455,2.9821 0.18993,0.0219 0.27943,0.0938 0.27943,0.22419 0,0.17771 -0.11564,0.19191 -1.56582,0.19221 -1.33315,3.1e-4 -1.57073,-0.0238 -1.59885,-0.16206 -0.0215,-0.10595 0.0691,-0.18486 0.26097,-0.22703 0.50326,-0.11066 0.52395,-0.12605 0.57739,-0.42969 0.0287,-0.16282 0.0236,-1.14158 -0.0113,-2.17502 l -0.0634,-1.87898 -0.28078,0.62632 c -0.15443,0.34448 -0.65457,1.47187 -1.11142,2.50531 -0.78414,1.77379 -0.95988,2.04005 -1.22285,1.85276 z m 7.18053,-0.0185 c -1.18416,-0.29916 -1.83606,-1.52602 -1.49126,-2.8065 0.14098,-0.52359 0.69489,-1.17927 1.19782,-1.41793 0.48496,-0.23013 1.48237,-0.21803 1.93261,0.0235 0.5807,0.31144 0.94159,1.23327 0.61189,1.56298 -0.0827,0.0826 -0.52659,0.12526 -1.30485,0.12526 l -1.17958,0 0,0.29773 c 0,0.40289 0.39469,0.9662 0.83718,1.19479 0.46484,0.24015 0.98343,0.16827 1.35511,-0.18782 0.25093,-0.24041 0.29515,-0.25155 0.4168,-0.10496 0.11517,0.13877 0.0879,0.22365 -0.1776,0.55209 -0.17252,0.21346 -0.4537,0.47017 -0.62485,0.57046 -0.37502,0.21977 -1.10669,0.30835 -1.57327,0.19047 z m 0.95855,-3.09806 c 0.1946,-0.0747 0.21881,-0.46751 0.0399,-0.64648 -0.0689,-0.0689 -0.25679,-0.12526 -0.41755,-0.12526 -0.44249,0 -0.88121,0.52454 -0.64024,0.76551 0.087,0.087 0.79616,0.0913 1.01794,0.006 z m 2.8792,3.01799 c -0.5034,-0.25951 -0.61337,-0.65711 -0.62043,-2.24307 l -0.006,-1.32402 -0.28707,-0.033 c -0.44393,-0.0511 -0.34503,-0.24372 0.3586,-0.6985 0.35511,-0.22952 0.72456,-0.53775 0.82101,-0.68493 0.0964,-0.14719 0.2639,-0.26761 0.37212,-0.26761 0.16653,0 0.19677,0.0802 0.19677,0.52194 l 0,0.52193 0.57413,0 c 0.56833,0 0.57413,0.003 0.57413,0.31317 0,0.30999 -0.005,0.31316 -0.57413,0.31316 l -0.57413,0 0,1.22943 c 0,1.53878 0.10209,1.75074 0.79738,1.65544 0.40385,-0.0553 0.45527,-0.0393 0.45527,0.14226 0,0.25517 -0.65735,0.60805 -1.27841,0.68625 -0.31232,0.0393 -0.55234,6e-5 -0.80935,-0.13243 z m 5.46346,0.0628 c -0.56653,-0.13463 -0.68187,-0.29147 -0.69935,-0.95096 -0.0182,-0.68493 0.21786,-0.80295 0.48508,-0.2426 0.14968,0.31388 0.70303,0.78411 0.92423,0.78541 0.0367,2e-4 0.17296,-0.0856 0.3028,-0.19077 0.39386,-0.31894 0.21266,-0.6854 -0.58675,-1.18661 -0.97344,-0.61036 -1.21655,-1.21336 -0.77869,-1.93148 0.28702,-0.47072 0.71079,-0.65775 1.48657,-0.65607 1.11774,0.002 1.22772,0.0857 1.26807,0.95986 0.0216,0.46851 -0.25827,0.458 -0.58052,-0.0218 -0.2954,-0.43983 -0.83224,-0.56265 -1.00972,-0.231 -0.15002,0.28029 0.0714,0.55783 0.75112,0.94142 0.63273,0.35709 0.91008,0.71502 0.97735,1.2613 0.13058,1.0603 -1.14471,1.79493 -2.54019,1.4633 z m 4.28368,0.046 c -0.12204,-0.026 -0.33343,-0.16592 -0.46974,-0.31084 -0.23422,-0.24903 -0.2497,-0.34882 -0.28137,-1.81502 l -0.0335,-1.5515 -0.27876,-0.0323 c -0.45378,-0.0526 -0.39282,-0.32687 0.129,-0.58038 0.25762,-0.12517 0.64666,-0.41703 0.86454,-0.64858 0.55738,-0.59238 0.7615,-0.56542 0.7615,0.10058 l 0,0.52194 0.58107,0 c 0.5723,0 0.58056,0.005 0.54803,0.28707 -0.0308,0.26774 -0.0699,0.28918 -0.58107,0.31861 l -0.54803,0.0316 0,1.22397 c 0,1.5328 0.10265,1.74521 0.79738,1.64999 0.39166,-0.0537 0.45528,-0.0362 0.45528,0.12515 0,0.38376 -1.26262,0.8252 -1.9443,0.67977 z m 3.77109,-0.0242 c -0.97961,-0.25494 -1.52657,-0.90637 -1.59874,-1.90406 -0.0561,-0.77511 0.16103,-1.38512 0.67636,-1.90044 0.48113,-0.48113 0.93127,-0.62555 1.78114,-0.57144 0.62506,0.0398 0.71018,0.0746 1.02724,0.42064 0.38836,0.42377 0.55972,1.03873 0.35739,1.28252 -0.10057,0.12118 -0.39377,0.15544 -1.33042,0.15544 l -1.20143,0 0.0576,0.4292 c 0.0682,0.50809 0.46905,0.97406 0.98437,1.14413 0.44223,0.14594 0.83773,0.0527 1.18764,-0.27999 0.22108,-0.21019 0.29231,-0.23181 0.38717,-0.11751 0.0875,0.10544 0.0667,0.22155 -0.0842,0.46962 -0.41614,0.68428 -1.43861,1.08154 -2.24413,0.87189 z m 0.93096,-3.10264 c 0.1946,-0.0747 0.21881,-0.46751 0.0399,-0.64648 -0.15513,-0.15514 -0.55079,-0.16186 -0.82698,-0.0141 -0.21343,0.11423 -0.4163,0.50614 -0.33419,0.6456 0.0552,0.0937 0.88723,0.10476 1.12132,0.0149 z m 17.29272,2.54257 c -1.43364,-3.20231 -1.39409,-3.12833 -1.75233,-3.27802 -0.18888,-0.0789 -0.34342,-0.21332 -0.34342,-0.29867 0,-0.12935 0.22582,-0.15518 1.35704,-0.15518 1.1721,0 1.35704,0.0227 1.35704,0.16635 0,0.0915 -0.0966,0.19162 -0.21468,0.2225 -0.11807,0.0309 -0.19688,0.10868 -0.17512,0.17291 0.24312,0.71764 0.66077,1.73478 0.71233,1.73478 0.0689,0 0.72135,-1.58924 0.72135,-1.75714 0,-0.0536 -0.094,-0.12206 -0.20877,-0.15209 -0.11483,-0.0301 -0.20878,-0.12946 -0.20878,-0.22096 0,-0.13998 0.1501,-0.16635 0.94714,-0.16635 0.83659,0 0.94315,0.0208 0.91285,0.1781 -0.0188,0.098 -0.15149,0.2049 -0.29472,0.23764 -0.30111,0.0689 -0.73885,0.83124 -1.52938,2.6637 -0.68098,1.57854 -0.83159,1.65528 -1.28055,0.65243 z m 3.78282,0.49963 c -0.18288,-0.0795 -0.40601,-0.28675 -0.49584,-0.46047 -0.41597,-0.80439 -0.0248,-1.35085 1.24405,-1.73786 0.69974,-0.21344 0.8795,-0.31033 0.92703,-0.4997 0.12166,-0.48473 -0.2008,-1.11592 -0.57008,-1.11592 -0.21398,0 -0.51168,0.37636 -0.51168,0.64688 0,0.36372 -1.05656,0.68216 -1.18167,0.35614 -0.10474,-0.27294 0.28884,-0.83823 0.80385,-1.15455 0.4063,-0.24956 0.6567,-0.32124 1.23646,-0.35401 1.29457,-0.0731 1.56019,0.25326 1.5417,1.89453 -0.017,1.50106 -0.0169,1.50152 0.1612,1.67958 0.10749,0.1075 0.26285,0.14018 0.46974,0.0988 0.23492,-0.047 0.30912,-0.0235 0.30912,0.098 0,0.25154 0.41764,0.0884 0.52995,-0.20702 0.053,-0.13942 0.0964,-0.73733 0.0964,-1.3287 0,-0.91713 -0.0307,-1.11421 -0.20878,-1.34061 -0.11483,-0.14598 -0.20877,-0.30749 -0.20877,-0.3589 0,-0.0823 1.51925,-0.76088 1.70345,-0.76088 0.0391,0 0.0711,0.14092 0.0711,0.31316 0,0.37129 -7.3e-4,0.37112 0.52194,0.10439 0.25211,-0.12861 0.61524,-0.20878 0.94578,-0.20878 0.47099,0 0.57989,0.0434 0.89144,0.35492 l 0.35493,0.35492 0,1.37434 c 0,1.34764 0.0843,1.77817 0.34815,1.77817 0.1836,0 0.37543,0.21025 0.32116,0.35199 -0.0305,0.0799 -0.43952,0.11107 -1.27059,0.097 -1.01098,-0.0171 -1.23141,-0.049 -1.25921,-0.18237 -0.02,-0.0957 0.0757,-0.20319 0.23488,-0.2637 0.26802,-0.1019 0.26857,-0.10465 0.26857,-1.36209 0,-1.19857 -0.0125,-1.27247 -0.25623,-1.51621 -0.29623,-0.29623 -0.54186,-0.32273 -0.86882,-0.0937 -0.21946,0.15372 -0.232,0.23566 -0.232,1.51621 l 0,1.35371 0.26857,0.1021 c 0.15966,0.0607 0.2549,0.16792 0.23487,0.26441 -0.0281,0.1353 -0.23968,0.16346 -1.27215,0.16929 -0.87397,0.005 -1.2618,-0.0308 -1.31781,-0.12142 -0.0605,-0.0979 -0.14606,-0.0847 -0.35993,0.0554 -0.40028,0.26227 -1.11918,0.25534 -1.48538,-0.0143 l -0.29588,-0.21788 -0.46006,0.24398 c -0.52472,0.27825 -0.75936,0.29565 -1.22949,0.0912 z m 1.51209,-0.70319 c 0.0689,-0.0689 0.12527,-0.3774 0.12527,-0.68556 0,-0.53265 -0.0116,-0.55675 -0.23488,-0.48871 -0.57305,0.17464 -0.78209,0.71678 -0.42747,1.10864 0.20073,0.2218 0.36129,0.24142 0.53708,0.0656 z m 17.76682,0.73333 c -0.9287,-0.2639 -1.46144,-1.02981 -1.46144,-2.10111 0,-1.30676 0.77996,-2.16608 2.03877,-2.24624 0.40334,-0.0256 0.80457,0.009 0.99166,0.087 0.42425,0.17572 0.79063,0.6331 0.87732,1.09521 0.1168,0.6226 3.1e-4,0.67807 -1.42351,0.67807 l -1.24817,0 0.0731,0.33926 c 0.17866,0.82958 0.63471,1.25345 1.36562,1.26925 0.3029,0.006 0.53793,-0.0634 0.75702,-0.22537 0.39214,-0.28987 0.53498,-0.29684 0.53498,-0.0261 0,0.34195 -0.74019,0.99519 -1.28232,1.1317 -0.55697,0.14025 -0.72429,0.14002 -1.22299,-0.002 z m 1.09808,-3.15413 c 0.28738,-0.21014 0.065,-0.68996 -0.3198,-0.68996 -0.48241,0 -0.99957,0.45712 -0.82915,0.73287 0.095,0.15375 0.92227,0.12285 1.14895,-0.0429 z m -34.05949,2.98269 c -0.0648,-0.16847 0.0629,-0.29965 0.34019,-0.34949 0.19506,-0.0351 0.21069,-0.13138 0.23778,-1.46634 0.0273,-1.34415 0.0165,-1.43551 -0.18267,-1.5421 -0.37718,-0.20186 -0.2286,-0.38503 0.54513,-0.67207 1.00593,-0.3732 1.0637,-0.3754 1.10224,-0.042 l 0.0323,0.2792 0.43747,-0.19861 c 0.53538,-0.24307 1.40052,-0.26384 1.71829,-0.0413 0.42252,0.29595 0.4919,0.56663 0.54597,2.13015 0.0521,1.50581 0.0528,1.50932 0.31317,1.57053 0.1574,0.037 0.26097,0.13493 0.26097,0.24678 0,0.16734 -0.12217,0.18542 -1.25266,0.18542 -1.14212,0 -1.25265,-0.0168 -1.25265,-0.19013 0,-0.1184 0.0897,-0.20286 0.23777,-0.22387 0.23581,-0.0335 0.23753,-0.0455 0.20877,-1.4576 l -0.029,-1.42386 -0.28706,-0.16041 c -0.25822,-0.1443 -0.31591,-0.1443 -0.57414,0 l -0.28707,0.16041 -0.0289,1.41946 -0.0289,1.41946 0.27078,0.0679 c 0.17256,0.0433 0.25878,0.1281 0.23773,0.23378 -0.0277,0.13944 -0.23031,0.16791 -1.27276,0.17895 -0.93872,0.01 -1.25258,-0.0203 -1.29262,-0.12438 z m 40.58172,-0.004 c 0,-0.0488 0.0492,-0.23001 0.10939,-0.40258 0.11463,-0.32886 0.37498,-0.50594 0.8562,-0.58235 0.28313,-0.0449 0.28706,-0.0379 0.28706,0.51409 l 0,0.55965 -0.62632,0 c -0.34448,0 -0.62633,-0.0399 -0.62633,-0.0888 z m 0.0793,-1.74032 c 0.0656,-0.34303 0.49634,-0.67618 0.87428,-0.67618 0.28488,0 0.29908,0.0223 0.29908,0.46975 l 0,0.46974 -0.61185,0 c -0.5978,0 -0.61069,-0.006 -0.56151,-0.26331 z m 1.48653,-0.20643 0,-0.46975 0.41755,0 0.41755,0 0,-0.62633 0,-0.62632 0.46975,0 0.46974,0 0,1.09607 0,1.09607 -0.88729,0 -0.8873,0 0,-0.46974 z m 10.03749,-0.8316 c -0.36424,-0.083 -0.87639,-0.25465 -1.1381,-0.38134 -0.56758,-0.27476 -1.42308,-1.06485 -1.36326,-1.25902 0.0695,-0.22554 0.93256,-0.60748 1.37273,-0.60748 0.51454,0 0.95509,0.26978 1.50444,0.92127 0.72367,0.85823 1.1504,0.96833 2.81844,0.72715 0.62297,-0.0901 0.92317,-0.0943 1.0493,-0.0148 0.30522,0.19253 0.17832,0.29186 -0.61709,0.48299 -1.07712,0.25881 -2.79413,0.32091 -3.62646,0.13115 z m -9.20239,-1.7259 c 0,-0.56138 0.0222,-0.62633 0.21352,-0.62633 0.27173,0 0.72597,0.44891 0.72597,0.71743 0,0.11274 0.0285,0.27929 0.0633,0.37011 0.0527,0.13728 -0.0265,0.16511 -0.46974,0.16511 l -0.53312,0 0,-0.62632 z m 1.46143,0 c 0,-0.60148 0.0106,-0.62633 0.26572,-0.62633 0.39426,0 0.77816,0.4354 0.77816,0.88255 l 0,0.3701 -0.52194,0 -0.52194,0 0,-0.62632 z m 28.28912,-0.52194 0,-1.04388 6.68082,0 6.68083,0 0,1.04388 0,1.04388 -6.68083,0 -6.68082,0 0,-1.04388 z"
       id="path3163"
       inkscape:connector-curvature="0" />
  </g>
</svg>
