<?xml version="1.0" encoding="UTF-8" standalone="no"?>
<!-- Created with Inkscape (http://www.inkscape.org/) -->

<svg
   xmlns:dc="http://purl.org/dc/elements/1.1/"
   xmlns:cc="http://creativecommons.org/ns#"
   xmlns:rdf="http://www.w3.org/1999/02/22-rdf-syntax-ns#"
   xmlns:svg="http://www.w3.org/2000/svg"
   xmlns="http://www.w3.org/2000/svg"
   xmlns:sodipodi="http://sodipodi.sourceforge.net/DTD/sodipodi-0.dtd"
   xmlns:inkscape="http://www.inkscape.org/namespaces/inkscape"
   width="137.75339"
   height="40.220791"
   id="svg5369"
   version="1.1"
   inkscape:version="0.48.0 r9654"
   sodipodi:docname="all-logos.svg">
  <defs
     id="defs5371">
    <clipPath
       clipPathUnits="userSpaceOnUse"
       id="clipPath18">
      <path
         inkscape:connector-curvature="0"
         d="M 0,566.93 0,0 l 2834.65,0 0,566.93 -2834.65,0 z"
         id="path20" />
    </clipPath>
  </defs>
  <sodipodi:namedview
     id="base"
     pagecolor="#ffffff"
     bordercolor="#666666"
     borderopacity="1.0"
     inkscape:pageopacity="0.0"
     inkscape:pageshadow="2"
     inkscape:zoom="2.2223152"
     inkscape:cx="71.9601"
     inkscape:cy="35.474284"
     inkscape:document-units="px"
     inkscape:current-layer="layer1"
     showgrid="false"
     inkscape:window-width="1280"
     inkscape:window-height="720"
     inkscape:window-x="0"
     inkscape:window-y="25"
     inkscape:window-maximized="1"
     borderlayer="true"
     inkscape:showpageshadow="false"
     fit-margin-top="0"
     fit-margin-left="0"
     fit-margin-right="0"
     fit-margin-bottom="0" />
  <metadata
     id="metadata5374">
    <rdf:RDF>
      <cc:Work
         rdf:about="">
        <dc:format>image/svg+xml</dc:format>
        <dc:type
           rdf:resource="http://purl.org/dc/dcmitype/StillImage" />
        <dc:title></dc:title>
      </cc:Work>
    </rdf:RDF>
  </metadata>
  <g
     inkscape:label="Layer 1"
     inkscape:groupmode="layer"
     id="layer1"
     transform="translate(-15.260984,-741.71681)">
    <path
       style="fill:#000000"
       d=""
       id="path3270"
       inkscape:connector-curvature="0" />
    <path
       style="fill:#000000"
       d=""
       id="path3268"
       inkscape:connector-curvature="0" />
    <path
       style="fill:#000000"
       d=""
       id="path3266"
       inkscape:connector-curvature="0" />
    <path
       style="fill:#ff0000"
       d="m 130.90837,781.58293 c -0.20921,-0.40459 -0.0917,-0.96936 0.26987,-1.29653 0.18879,-0.17086 0.22808,-0.15775 0.55774,0.18611 l 0.35463,0.3699 -0.49941,0.54759 -0.49941,0.5476 -0.18342,-0.35467 z m -20.50363,-0.68119 c -0.17004,-0.41048 -0.0941,-0.77299 0.236,-1.12736 l 0.24577,-0.26379 0.32984,0.316 c 0.18141,0.1738 0.32984,0.35765 0.32984,0.40855 0,0.12285 -0.80192,1.0071 -0.91334,1.0071 -0.0479,0 -0.15055,-0.15323 -0.22811,-0.3405 z m 19.36126,-0.4612 c -0.20921,-0.40459 -0.0917,-0.96934 0.26987,-1.29652 0.18878,-0.17085 0.22807,-0.15775 0.55773,0.18611 l 0.35465,0.3699 -0.49941,0.54759 -0.49942,0.5476 -0.18342,-0.35468 z m 2.16847,-0.22967 -0.33143,-0.34595 0.93676,-0.93675 c 0.82301,-0.82302 0.95684,-0.91625 1.1022,-0.76788 0.091,0.0929 0.19995,0.30964 0.24213,0.48167 0.0673,0.27486 -0.0171,0.40992 -0.69666,1.11382 -0.42533,0.44056 -0.80668,0.80103 -0.84744,0.80103 -0.0408,0 -0.22328,-0.15567 -0.40556,-0.34594 z m -22.61441,-0.33657 c -0.22087,-0.42713 -0.16476,-0.94386 0.14639,-1.34802 l 0.20006,-0.25986 0.44413,0.45483 0.44412,0.45483 -0.5208,0.5358 -0.52082,0.5358 -0.19308,-0.37338 z m 2.1903,-0.20917 c -0.16879,-0.17617 -0.30689,-0.36183 -0.30689,-0.41255 0,-0.19654 1.75052,-1.79045 1.90238,-1.73218 0.28089,0.1078 0.40896,0.63695 0.22288,0.92094 -0.17547,0.26782 -0.73733,0.8603 -1.22059,1.28716 l -0.29091,0.25693 -0.30687,-0.3203 z m 19.28878,-0.58929 c -0.37503,-0.39144 -0.38232,-0.3754 0.59579,-1.31303 l 0.59975,-0.57492 0,-4.31301 0,-4.31301 -2.25665,0 -2.25664,0 -5.28356,-5.28447 -5.28356,-5.28447 1.61265,-1.59833 c 0.88697,-0.87908 1.63553,-1.53817 1.66347,-1.46465 0.24421,0.64258 1.0629,2.16209 1.4652,2.71943 0.27324,0.37854 1.26726,1.45408 2.20897,2.39008 l 1.7122,1.70184 0.74533,-0.0764 c 1.42639,-0.14614 2.28527,-0.64382 2.42848,-1.40719 0.15792,-0.84181 -0.28382,-1.3242 -2.03752,-2.22501 -1.39599,-0.71708 -2.06762,-1.32162 -2.25767,-2.03218 -0.27642,-1.03352 0.12366,-2.00351 1.01105,-2.45131 0.29192,-0.14732 1.62607,-0.71112 2.96472,-1.2529 2.83279,-1.14649 2.95702,-1.20648 3.33506,-1.61069 0.2822,-0.30176 0.28601,-0.33261 0.32098,-2.59821 0.0386,-2.50343 -0.006,-2.75501 -0.57303,-3.23215 -0.50636,-0.42606 -1.15325,-0.39285 -1.59681,0.082 -0.52248,0.55932 -0.40295,0.88433 0.70604,1.91949 l 0.91788,0.85678 -0.002,0.83216 -0.002,0.83218 -1.37803,-1.21842 c -0.75791,-0.67012 -1.46192,-1.34646 -1.56449,-1.50298 -0.10254,-0.15651 -0.20798,-0.58219 -0.2343,-0.94593 -0.0602,-0.83273 0.25616,-1.45543 0.98471,-1.938 1.27349,-0.84352 2.78973,-0.48694 3.61737,0.85073 l 0.34541,0.55827 0.0348,2.57542 c 0.0293,2.16627 0.005,2.65306 -0.15179,3.06403 -0.36615,0.95875 -1.0436,1.34312 -4.92788,2.79594 -2.0742,0.7758 -2.59583,1.14391 -2.57666,1.81824 0.0163,0.57574 0.19285,0.61745 0.42589,0.10067 0.27571,-0.61142 0.60103,-0.82854 2.04289,-1.36343 2.62585,-0.97411 4.22069,-1.67236 4.64044,-2.03165 0.23879,-0.20449 0.46464,-0.3718 0.50179,-0.3718 0.0371,0 0.0675,0.2758 0.0675,0.6129 0,0.98244 -0.0874,1.04455 -3.22591,2.29304 -2.08769,0.83047 -2.84906,1.18626 -3.0857,1.44194 -0.37336,0.40341 -0.38834,0.51659 -0.0896,0.67647 0.19019,0.10178 0.25087,0.0692 0.39655,-0.21244 0.18226,-0.35246 0.18384,-0.35322 3.43433,-1.66827 0.87963,-0.35587 1.81781,-0.76819 2.08483,-0.91628 l 0.48551,-0.26924 0,0.54646 c 0,0.40886 -0.0647,0.61588 -0.25703,0.82214 -0.15366,0.16479 -1.13808,0.63475 -2.44747,1.1684 -1.20474,0.49101 -2.21737,0.9629 -2.25027,1.04866 -0.0373,0.0973 0.18143,0.3207 0.5819,0.59423 0.85307,0.58265 1.11613,1.08963 1.11668,2.15211 7.5e-4,1.51219 -0.72468,2.10841 -3.18991,2.62158 -0.32701,0.0681 -0.28271,0.12138 1.99809,2.40422 l 2.33252,2.3346 1.00064,0 1.00062,0 0,5.00026 0,5.00028 -1.00185,0.99719 c -0.551,0.54847 -1.02976,0.99721 -1.06388,0.99721 -0.0341,0 -0.20801,-0.15237 -0.38643,-0.3386 z m -20.45247,-0.57532 -0.45049,-0.46135 2.39475,-2.39677 2.39475,-2.39678 0.88636,0 0.88635,0 0,-1.88859 c 0,-1.36671 0.0441,-1.99018 0.15981,-2.25619 0.0879,-0.20219 1.29596,-1.49814 2.68461,-2.8799 l 2.52482,-2.51229 2.71311,2.71013 2.71309,2.71012 2.11339,0.0306 2.1134,0.0307 0,3.82695 0,3.82696 -1.68501,0.0317 -1.685,0.0317 0,-0.63137 0,-0.63135 1.08525,0 1.08526,0 0,-2.62747 0,-2.62746 -1.74117,0 -1.74116,0 -2.48551,-2.48359 -2.48551,-2.48358 -2.05639,2.05401 -2.05638,2.054 0,2.48586 0,2.48585 -1.227,0 -1.22701,0 -2.23191,2.22982 -2.23191,2.22982 -0.4505,-0.46135 z m 16.05038,-0.33721 c 0,-0.28463 0.57902,-0.91939 0.83865,-0.91939 0.0939,0 0.25211,-0.0312 0.35149,-0.0693 0.15025,-0.0576 0.18071,0.029 0.18071,0.51407 0,0.56643 -0.01,0.58341 -0.32843,0.58341 -0.18063,0 -0.48908,0.0321 -0.68543,0.0714 -0.31336,0.0627 -0.35699,0.0407 -0.35699,-0.18015 z m 1.71356,-0.46243 0,-0.5712 1.48509,0 c 0.8168,0 1.48508,0.0407 1.48508,0.0905 0,0.0497 -0.22042,0.30677 -0.48984,0.57119 l -0.48982,0.48073 -0.99525,0 -0.99526,0 0,-0.57118 z m 10.05289,-0.5712 0,-1.14237 7.36832,0 7.36832,0 0,1.14237 0,1.14238 -7.36832,0 -7.36832,0 0,-1.14238 z m -31.98647,0.33392 c 0,-0.36742 0.60553,-0.9051 1.01934,-0.9051 0.34564,0 0.3515,0.01 0.3515,0.57118 l 0,0.5712 -0.68542,0 c -0.61773,0 -0.68542,-0.0235 -0.68542,-0.23728 z m 1.71355,-0.33392 0,-0.57118 1.39511,0 1.39512,0 -0.5626,0.57118 -0.56259,0.5712 -0.83252,0 -0.83252,0 0,-0.5712 z m 18.50647,-0.44292 c 0,-0.37238 0.56984,-0.90774 1.05669,-0.99278 l 0.42839,-0.0748 0,0.5839 0,0.58391 -0.56184,0 c -0.30901,0 -0.64315,0.0312 -0.74254,0.0693 -0.12927,0.0496 -0.1807,0.002 -0.1807,-0.16956 z m -20.22002,-0.80732 c 0,-0.36446 0.47312,-0.80723 0.94245,-0.88194 l 0.42839,-0.0683 0,0.58613 0,0.58614 -0.68542,0 c -0.60272,0 -0.68542,-0.0268 -0.68542,-0.22211 z m 1.71355,-0.34908 0,-0.57118 1.34401,0 1.344,0 1.38966,-1.39941 1.38967,-1.39942 0.0397,-2.62745 0.0397,-2.62746 0.35737,-0.68543 c 0.38275,-0.73409 0.70713,-1.08008 1.52134,-1.62267 0.71751,-0.47816 2.57562,-1.45185 3.23575,-1.69561 l 0.55117,-0.20352 -1.92072,-1.92322 -1.92071,-1.92321 -1.71621,1.71351 -1.71619,1.71352 -2.68864,0 -2.6886,0 -0.44621,0.45696 c -0.2454,0.25132 -0.49006,0.45694 -0.54368,0.45694 -0.0536,0 -0.24883,-0.16567 -0.43379,-0.36818 l -0.33628,-0.36818 0.7107,-0.71707 0.71069,-0.71707 2.62957,0 2.62959,0 1.9442,-1.94184 1.94423,-1.94184 3.0698,3.07139 3.06982,3.07139 -2.60085,2.61172 c -1.43047,1.43646 -2.67097,2.77716 -2.75666,2.97933 -0.10835,0.25569 -0.1558,0.89047 -0.1558,2.08484 l 0,1.71723 -0.72876,0 -0.72875,0 -1.63825,1.71355 -1.63826,1.71357 -1.6313,0 -1.6313,0 0,-0.57119 z m 30.38699,-5.35012 c -0.0651,-0.0217 -0.11407,-0.49615 -0.11407,-1.10429 0,-0.60814 0.0491,-1.08258 0.11407,-1.1043 0.0628,-0.021 3.40417,-0.0245 7.42543,-0.008 l 7.31137,0.0302 0,1.08194 0,1.08194 -7.31137,0.0302 c -4.02126,0.0167 -7.3627,0.0131 -7.42543,-0.008 z m -34.21313,-6.07206 c -0.21457,-0.41492 -0.16629,-0.75848 0.16271,-1.15805 l 0.22354,-0.27148 0.40767,0.40318 0.40766,0.40318 -0.50541,0.49604 -0.50541,0.49602 -0.19076,-0.36889 z m -1.08438,-1.02656 c -0.17254,-0.32239 -0.14067,-0.78278 0.0801,-1.15644 0.1078,-0.18248 0.2267,-0.33178 0.26422,-0.33178 0.0375,0 0.21443,0.15258 0.3931,0.33908 l 0.32486,0.33908 -0.47317,0.51333 c -0.43383,0.47064 -0.4828,0.49532 -0.58907,0.29673 z m 0.92028,-1.3835 -0.37086,-0.37086 0.3614,-0.33774 0.36139,-0.33775 -0.49416,-0.43729 -0.49414,-0.43729 0.37188,-0.37548 0.37187,-0.37547 0.82656,0.82655 0.82655,0.82654 -0.69481,0.69483 -0.69483,0.69482 -0.37085,-0.37086 z m 34.28758,-0.87583 0.0327,-1.11381 7.39688,-0.0294 7.39687,-0.0294 0,1.14321 0,1.1432 -7.42957,0 -7.42957,0 0.0327,-1.11381 z m -32.95747,-1.26059 -0.88409,-0.8893 0.434,-0.4238 0.43402,-0.42381 0.67767,0.68481 0.67765,0.68481 2.0618,0 2.0618,0 1.22553,-1.22933 1.22551,-1.22934 -3.45578,-3.45441 -3.4558,-3.45439 -0.71329,0 -0.71329,0 0,-0.51407 0,-0.51407 1.05731,0 1.05733,0 3.93457,3.93581 3.93457,3.93583 -0.21739,0.26241 c -0.11956,0.14433 -0.93871,0.99495 -1.82033,1.89029 l -1.60293,1.62788 -2.51739,0 -2.51737,0 -0.8841,-0.88932 z m -2.6519,-0.55216 c -0.43901,-0.38797 -0.44825,-0.41021 -0.23521,-0.56643 0.30633,-0.22461 0.62461,-0.20293 1.07794,0.0734 l 0.38579,0.2352 -0.32148,0.33556 c -0.17682,0.18456 -0.35042,0.33343 -0.3858,0.33081 -0.0353,-0.003 -0.26993,-0.18648 -0.52124,-0.40859 z m 1.1067,-1.08767 c -0.46065,-0.43251 -0.47919,-0.47274 -0.2856,-0.6195 0.29951,-0.22709 0.96016,-0.19524 1.29228,0.0623 l 0.2856,0.22144 -0.39983,0.39917 -0.39983,0.39917 -0.49262,-0.46257 z m 8.23168,-4.92537 -4.59753,-4.59858 0,-1.28464 0,-1.28465 0.57118,0 0.57119,0 0,1.00018 0,1.0002 4.00412,3.99769 4.00411,3.99771 0.22842,-0.2768 c 0.19756,-0.23939 0.21607,-0.3629 0.137,-0.9139 -0.0502,-0.35041 -0.0914,-1.05226 -0.0914,-1.55968 0,-0.81644 0.0363,-0.97745 0.31577,-1.39942 0.38308,-0.57847 0.16916,-0.65859 -0.35608,-0.13334 -0.4863,0.4863 -0.65717,1.31857 -0.49499,2.41118 0.0683,0.45987 0.11092,0.84931 0.0948,0.86541 -0.0161,0.016 -0.35608,-0.30044 -0.75547,-0.70343 -0.68572,-0.69184 -0.72912,-0.76781 -0.77842,-1.36242 -0.0794,-0.95795 0.0478,-1.39987 0.56414,-1.9601 0.62428,-0.67724 1.35386,-0.93061 3.27733,-1.1381 0.858,-0.0926 1.67333,-0.19968 1.81185,-0.23803 0.20424,-0.0566 0.26633,-0.0121 0.32847,0.23552 0.0765,0.30482 0.0428,0.41262 -0.57247,1.83208 -0.25829,0.59585 -0.29396,0.82372 -0.27294,1.7436 l 0.0242,1.05816 -0.50207,0.51158 -0.50206,0.51157 -0.27669,-1.11279 c -0.24136,-0.97076 -0.26062,-1.1916 -0.15089,-1.73021 0.0691,-0.33957 0.22881,-0.81509 0.35474,-1.0567 l 0.22896,-0.43927 -0.28901,0 c -0.23704,0 -0.33923,0.10785 -0.56823,0.59974 -0.33081,0.71055 -0.37441,1.77026 -0.10887,2.64562 0.30238,0.99677 0.23617,1.43224 -0.31539,2.07438 -0.814,0.94768 -1.14845,1.30602 -1.21891,1.30602 -0.037,0 -2.1362,-2.06935 -4.66484,-4.59858 z m -16.994931,4.27228 c -0.02996,-0.0299 -0.05449,-0.1727 -0.05449,-0.31719 l 0,-0.2627 -0.417935,0.24659 c -0.891677,0.52611 -2.104334,0.20917 -2.689817,-0.70301 -0.308586,-0.48078 -0.332295,-0.59197 -0.298315,-1.39841 0.03197,-0.75876 0.08346,-0.94237 0.38428,-1.37085 0.492769,-0.70185 1.150284,-1.03299 2.182643,-1.09924 l 0.839144,-0.0539 0,-1.06927 c 0,-0.94554 -0.02647,-1.08577 -0.228473,-1.21194 -0.514388,-0.32124 -0.204331,-0.54246 1.513649,-1.07997 0.187581,-0.0587 0.199911,0.16689 0.199911,3.65675 0,3.94684 -0.0015,3.93423 0.542625,3.86388 0.184709,-0.0239 0.256958,0.0254 0.256772,0.17488 0,0.1702 -0.198332,0.25095 -1.087897,0.44345 -0.598185,0.12945 -1.112132,0.21085 -1.142102,0.18089 z m -0.275441,-0.93433 c 0.200321,-0.10721 0.220957,-0.2513 0.220957,-1.5422 0,-1.27163 -0.02438,-1.4484 -0.228473,-1.65243 -0.451412,-0.45142 -1.08251,-0.21797 -1.476782,0.54629 -0.219827,0.42611 -0.171961,1.53647 0.08824,2.04648 0.319795,0.62686 0.890014,0.87269 1.396058,0.60186 z m -75.796376,0.55408 c -0.09188,-0.20829 -0.640088,-1.58676 -1.218238,-3.06328 -1.367517,-3.49249 -1.475145,-3.70434 -1.951196,-3.84088 -0.207912,-0.0596 -0.395001,-0.19656 -0.415748,-0.30428 -0.03427,-0.17803 0.119795,-0.19586 1.692594,-0.19586 1.586269,0 1.727142,0.0166 1.692211,0.19991 -0.02095,0.10995 -0.156384,0.21675 -0.300955,0.23734 -0.144572,0.0206 -0.286002,0.0977 -0.314289,0.17144 -0.02832,0.0738 0.209433,0.80227 0.528256,1.61902 0.318832,0.81676 0.710729,1.83147 0.870879,2.25494 0.160157,0.42346 0.332632,0.74433 0.383271,0.71303 0.05062,-0.0313 0.398601,-0.84044 0.773239,-1.79808 1.072837,-2.74231 1.100537,-2.88553 0.572598,-2.96035 -0.145213,-0.0206 -0.26402,-0.11453 -0.26402,-0.20879 0,-0.14049 0.267326,-0.18194 1.48509,-0.23021 1.17746,-0.0467 1.615234,-0.11173 2.113388,-0.31409 0.345567,-0.14038 0.666862,-0.25526 0.713982,-0.25529 0.04708,-3e-5 0.08568,1.68609 0.08568,3.74693 0,3.90494 0.01409,4.02115 0.488172,4.02115 0.133957,0 0.200198,0.067 0.17707,0.17926 -0.03081,0.1497 -0.267748,0.18267 -1.436364,0.19992 -1.2645,0.0187 -1.399421,0.002 -1.399406,-0.17926 1.5e-5,-0.12256 0.08687,-0.19992 0.224477,-0.19992 0.123448,0 0.277669,-0.0994 0.342712,-0.22095 0.159525,-0.29809 0.159525,-6.00001 0,-6.29809 -0.06501,-0.12152 -0.233532,-0.22096 -0.374412,-0.22096 -0.674523,0 -1.002485,0.57881 -2.718628,4.79797 -0.909704,2.2365 -1.025144,2.45932 -1.29116,2.49209 -0.236552,0.0291 -0.323916,-0.0361 -0.459199,-0.34271 z m 8.276129,0.16776 c -0.69881,-0.35752 -0.895255,-1.1484 -0.421924,-1.69868 0.179096,-0.20821 0.577464,-0.40944 1.228046,-0.62032 0.92838,-0.30094 0.964299,-0.32554 0.999946,-0.68502 0.05258,-0.5308 -0.06079,-0.88657 -0.328233,-1.02971 -0.355367,-0.19019 -0.629436,-0.0368 -0.825279,0.46171 -0.18553,0.4723 -0.587348,0.72613 -1.045319,0.66032 -0.364837,-0.0524 -0.341762,-0.37152 0.05997,-0.82906 0.498846,-0.56815 1.160548,-0.88185 1.984291,-0.94069 0.551127,-0.0394 0.761592,-0.003 1.053047,0.18059 0.494719,0.31209 0.607823,0.79632 0.525515,2.24978 -0.06019,1.06234 -0.04422,1.21728 0.147057,1.42863 0.156157,0.17256 0.300722,0.21982 0.531308,0.1737 0.423514,-0.0847 0.422836,0.18256 -0.0015,0.48453 -0.537635,0.38283 -1.038003,0.41229 -1.631363,0.096 -0.506237,-0.26982 -0.52953,-0.27198 -0.801029,-0.0742 -0.441767,0.32181 -1.015796,0.37724 -1.474792,0.14241 z m 1.707954,-0.82455 c 0.154523,-0.28871 0.153243,-1.26412 -0.0015,-1.26412 -0.06592,0 -0.265345,0.0752 -0.443108,0.16713 -0.493317,0.2551 -0.613156,0.73656 -0.276057,1.10905 0.245954,0.27177 0.571837,0.26633 0.720823,-0.0121 z m 3.47897,0.90011 c -0.535714,-0.15904 -0.79037,-0.50952 -0.79037,-1.08779 0,-0.67268 0.254821,-0.9021 1.437916,-1.29454 0.779861,-0.25869 0.980367,-0.37301 1.063437,-0.60629 0.12732,-0.35756 -0.227363,-1.15561 -0.539256,-1.21333 -0.258557,-0.0478 -0.648367,0.29007 -0.648367,0.56205 0,0.46364 -1.136856,0.92439 -1.290821,0.52315 -0.096,-0.25014 0.237246,-0.79914 0.660037,-1.08739 0.845671,-0.57652 1.931263,-0.74796 2.587495,-0.4086 0.562413,0.29083 0.691337,0.77235 0.603793,2.25514 -0.07096,1.20196 -0.06124,1.29143 0.162485,1.49208 0.161853,0.14518 0.328564,0.19072 0.521176,0.14238 0.719361,-0.18055 0.239212,0.52528 -0.496331,0.72961 -0.542155,0.15061 -0.544468,0.15034 -1.127883,-0.13209 -0.480714,-0.23271 -0.527866,-0.23604 -0.864287,-0.0611 -0.490311,0.25503 -0.864723,0.30967 -1.279024,0.18668 z m 1.528647,-0.81623 c 0.131885,-0.13187 0.200717,-1.348 0.0763,-1.348 -0.304036,0 -0.856564,0.37383 -0.918759,0.62161 -0.143111,0.57021 0.470009,1.09885 0.842462,0.72639 z m 12.604891,0.82893 c -0.547132,-0.13819 -0.72567,-0.36744 -0.787525,-1.01118 -0.07308,-0.76058 0.107982,-0.82719 0.540331,-0.19879 0.555223,0.80699 1.101609,0.9794 1.444664,0.45584 0.263077,-0.40152 0.08057,-0.70756 -0.70056,-1.17478 -0.818908,-0.4898 -1.084021,-0.84382 -1.084021,-1.44751 0,-1.1085 1.210812,-1.70913 2.643327,-1.31123 0.380422,0.10566 0.42221,0.15891 0.492466,0.62734 0.04221,0.28153 0.04489,0.56341 0.006,0.62644 -0.09535,0.15429 -0.400037,0.14622 -0.400037,-0.0105 0,-0.0689 -0.108286,-0.27724 -0.240641,-0.46312 -0.202794,-0.2848 -0.306133,-0.33249 -0.656864,-0.30324 -0.336544,0.0281 -0.423445,0.0857 -0.453957,0.30119 -0.04715,0.33281 0.218479,0.63224 0.888127,1.00118 0.654078,0.36037 0.938232,0.7428 0.999224,1.34483 0.09174,0.90541 -0.577985,1.51446 -1.776793,1.6158 -0.291374,0.0246 -0.702525,7.5e-4 -0.91368,-0.0522 z m 5.041948,-0.003 c -0.807167,-0.19177 -1.318117,-0.70055 -1.580829,-1.57407 -0.338349,-1.12505 0.199253,-2.48264 1.164856,-2.94156 1.324366,-0.62944 2.744304,-0.1346 2.963296,1.03269 0.124679,0.66461 -0.02506,0.73792 -1.507477,0.73792 l -1.299747,0 0,0.28926 c 0,1.23625 1.480687,2.00811 2.387882,1.24475 0.433405,-0.36469 0.646537,-0.27605 0.414624,0.17243 -0.231044,0.44678 -0.78681,0.88981 -1.292402,1.03023 -0.478586,0.13291 -0.719148,0.13452 -1.250203,0.008 z m 1.224717,-3.48699 c 0.114215,-0.13763 0.105327,-0.22635 -0.04577,-0.45695 -0.185556,-0.28319 -0.531535,-0.36414 -0.919668,-0.21521 -0.213441,0.0819 -0.544867,0.66494 -0.438467,0.77134 0.15068,0.15068 1.261662,0.0721 1.403899,-0.0992 z m 6.708204,3.47864 c -1.257308,-0.31187 -1.81361,-1.01141 -1.816786,-2.28461 -0.0019,-0.78075 0.219131,-1.33316 0.721707,-1.80327 1.205022,-1.1272 3.437153,-0.83592 4.149423,0.54146 0.409461,0.7918 0.306579,2.00118 -0.23068,2.71153 -0.516901,0.68344 -1.847767,1.07695 -2.823664,0.83489 z m 1.11241,-0.52289 c 0.572604,-0.21972 0.737471,-2.18945 0.262152,-3.13203 -0.228315,-0.45278 -0.30033,-0.50973 -0.644539,-0.50973 -0.594857,0 -0.854553,0.42816 -0.908576,1.49791 -0.07538,1.49254 0.499674,2.4475 1.290963,2.14385 z m 4.801479,0.55473 c -0.06371,-0.0462 -0.414807,-0.78175 -0.780219,-1.63464 -0.847367,-1.97782 -1.095,-2.41292 -1.477912,-2.59663 -0.17083,-0.082 -0.3106,-0.22335 -0.3106,-0.31416 0,-0.1352 0.258782,-0.16512 1.427968,-0.16512 1.322331,0 1.427967,0.0159 1.427967,0.21515 0,0.11994 -0.102333,0.24192 -0.23125,0.27562 -0.228978,0.0599 -0.228532,0.0676 0.04517,0.78443 0.468168,1.22619 0.521529,1.35227 0.572422,1.35227 0.03989,0 0.55757,-1.17769 0.831648,-1.89191 0.039,-0.10165 -0.05137,-0.20424 -0.24464,-0.27773 -0.5932,-0.22553 -0.26543,-0.40072 0.749729,-0.40072 0.765266,0 0.961502,0.0339 0.961502,0.16621 0,0.0914 -0.128516,0.19617 -0.285593,0.2328 -0.33772,0.0787 -0.616631,0.55809 -1.562494,2.68541 -0.597451,1.34372 -0.775307,1.65294 -0.95073,1.65294 -0.03142,0 -0.109245,-0.0378 -0.172967,-0.0839 z m 4.464216,-0.0409 c -1.714429,-0.40186 -2.236574,-2.69177 -0.924363,-4.05395 1.229788,-1.27661 3.48736,-0.76847 3.48736,0.78497 0,0.26182 -0.06321,0.42695 -0.1807,0.47203 -0.09939,0.0381 -0.741973,0.0693 -1.427968,0.0693 -1.357667,0 -1.330022,-0.0169 -1.133111,0.69191 0.291535,1.04944 1.705555,1.51125 2.387152,0.77965 0.231171,-0.24813 0.468864,-0.20889 0.468864,0.0774 0,0.31974 -0.856974,1.03706 -1.403304,1.17462 -0.594388,0.14968 -0.651804,0.14985 -1.27393,0.005 z m 1.267876,-3.47744 c 0.0377,-0.0983 0.01148,-0.30388 -0.05826,-0.45694 -0.183739,-0.40329 -0.826439,-0.39062 -1.151548,0.0227 -0.397843,0.50578 -0.318813,0.6129 0.452243,0.6129 0.519565,0 0.705873,-0.044 0.757566,-0.17864 z m 14.024681,3.49848 c -1.538093,-0.36801 -2.198999,-2.15406 -1.345651,-3.63654 0.377228,-0.65535 1.001173,-1.05196 1.781668,-1.13252 1.113656,-0.11494 1.924563,0.38182 2.093521,1.28249 0.124689,0.66462 -0.02508,0.73792 -1.507465,0.73792 l -1.299751,0 0,0.37128 c 0.0015,1.15298 1.582515,1.94023 2.351825,1.17092 0.343704,-0.3437 0.503683,-0.3631 0.503683,-0.0611 0,0.40057 -0.658646,1.01532 -1.288094,1.20224 -0.628095,0.18652 -0.756407,0.19302 -1.290177,0.0653 z m 1.187624,-3.64028 c 0.103404,-0.72945 -1.072973,-0.81739 -1.344096,-0.10048 -0.142423,0.37659 -0.04582,0.43482 0.659969,0.39776 0.57642,-0.0303 0.650859,-0.0626 0.684127,-0.29728 z m -49.78776,3.38868 c 1.4e-5,-0.10315 0.122401,-0.21824 0.271966,-0.25578 0.354404,-0.089 0.410044,-0.33382 0.411921,-1.81288 0.0015,-1.07697 -0.02652,-1.25616 -0.226911,-1.45653 -0.361319,-0.36131 -0.277337,-0.49605 0.485506,-0.77893 1.193324,-0.44252 1.228053,-0.44362 1.228053,-0.0388 l 0,0.35131 0.585569,-0.29411 c 0.699139,-0.35116 1.443221,-0.32637 1.856452,0.0619 0.322768,0.30322 0.322493,0.30323 1.061805,-0.0584 0.826924,-0.40459 1.541442,-0.34166 2.004425,0.17651 0.312172,0.34938 0.317885,0.38176 0.319418,1.81047 0.0018,1.71323 0.04937,1.94854 0.411921,2.03954 0.149569,0.0375 0.271954,0.15265 0.271966,0.25579 1.9e-5,0.1644 -0.165528,0.18502 -1.34229,0.16712 -1.087622,-0.0166 -1.348998,-0.0528 -1.377549,-0.1911 -0.0217,-0.10509 0.0661,-0.18505 0.228476,-0.20807 0.25839,-0.0366 0.264354,-0.0679 0.295562,-1.54773 0.02929,-1.38883 0.0132,-1.52899 -0.199915,-1.74212 -0.308781,-0.30879 -0.638455,-0.29241 -0.979502,0.0487 -0.258024,0.25802 -0.280402,0.36629 -0.280402,1.35657 0,1.35191 0.08684,1.80438 0.360038,1.87582 0.116132,0.0303 0.211149,0.13919 0.211149,0.2418 0,0.16132 -0.170179,0.1866 -1.256611,0.1866 -1.086434,0 -1.256612,-0.0252 -1.256612,-0.1866 0,-0.10261 0.09837,-0.21231 0.218595,-0.24375 0.275045,-0.0719 0.406394,-0.97014 0.325713,-2.22733 -0.04637,-0.72253 -0.09857,-0.90208 -0.312641,-1.07542 -0.314698,-0.25483 -0.559207,-0.26313 -0.891673,-0.0302 -0.240699,0.16859 -0.253894,0.2567 -0.253894,1.69522 l 0,1.51739 0.294567,0.13422 c 0.568454,0.259 0.240161,0.37443 -1.125383,0.39567 -1.174552,0.0183 -1.339735,-0.002 -1.339719,-0.16668 z m 36.327526,-0.009 c 0,-0.1192 0.08481,-0.20286 0.205627,-0.20286 0.416179,0 0.479797,-0.22792 0.479797,-1.71871 0,-1.30524 -0.0223,-1.46471 -0.231251,-1.65382 -0.127192,-0.1151 -0.215965,-0.25515 -0.197276,-0.31123 0.03307,-0.0992 1.60146,-0.7715 1.799834,-0.7715 0.05462,0 0.115414,0.15684 0.135108,0.34852 l 0.03579,0.34854 0.393468,-0.29141 c 0.462696,-0.34269 0.923725,-0.3747 1.18815,-0.0825 0.236962,0.26184 0.240903,0.58014 0.01119,0.90805 -0.210688,0.3008 -0.628923,0.32936 -1.024789,0.07 -0.550979,-0.36102 -0.625176,-0.19318 -0.625176,1.4141 0,1.55409 0.05736,1.74 0.536916,1.74 0.175537,0 0.262746,0.0673 0.262746,0.20286 0,0.18393 -0.138639,0.20287 -1.485086,0.20287 -1.346448,0 -1.485087,-0.019 -1.485087,-0.20287 z m 4.226762,0.009 c 1.1e-5,-0.10315 0.121982,-0.21815 0.27104,-0.25556 0.381792,-0.0958 0.414407,-0.3716 0.414407,-3.50361 l 0,-2.71866 -0.301541,-0.35836 c -0.16698,-0.19844 -0.2562,-0.39803 -0.199915,-0.44723 0.107485,-0.094 1.7548,-0.6985 1.900864,-0.69757 0.04715,3.4e-4 0.08568,0.89318 0.08568,1.98417 l 0,1.98362 0.533432,-0.27006 c 0.628465,-0.31817 1.300456,-0.34686 1.760406,-0.0752 0.556836,0.32894 0.67634,0.75271 0.67634,2.39842 0,1.52747 0.06154,1.74771 0.488163,1.74771 0.134064,0 0.200213,0.067 0.177069,0.1795 -0.05426,0.26368 -2.721562,0.31023 -2.721532,0.0475 1.6e-5,-0.0951 0.115689,-0.22357 0.257059,-0.2856 0.243717,-0.10691 0.2587,-0.18538 0.289119,-1.51384 0.03119,-1.36021 0.0238,-1.40935 -0.251829,-1.685 -0.327593,-0.32758 -0.595583,-0.35737 -0.954333,-0.10609 -0.240997,0.1688 -0.253894,0.25599 -0.253894,1.71638 l 0,1.53857 0.294884,0.1121 c 0.599483,0.22793 0.219941,0.35451 -1.125696,0.37546 -1.174555,0.0183 -1.339731,-0.002 -1.339719,-0.16669 z m 11.014421,0.13993 c -0.12613,-0.12611 -0.02469,-0.35222 0.15802,-0.35222 0.419722,0 0.479803,-0.22502 0.479803,-1.79711 0,-1.24835 -0.03088,-1.53481 -0.171364,-1.58871 -0.09424,-0.0361 -0.170792,-0.15021 -0.170103,-0.25345 7.51e-4,-0.1281 0.267431,-0.28744 0.839616,-0.50184 0.461111,-0.17279 0.884657,-0.31422 0.941216,-0.3143 0.05836,-8e-5 0.08734,0.86115 0.06696,1.99304 -0.0377,2.09465 0.02802,2.46237 0.439693,2.46237 0.137608,0 0.224455,0.0773 0.224455,0.19991 0,0.17937 -0.141881,0.19992 -1.380367,0.19992 -0.759209,0 -1.401801,-0.0214 -1.427971,-0.0476 z m 32.812643,-1.88354 c -0.65834,-1.64451 -0.64715,-2.70857 0.0438,-4.16969 0.40086,-0.8476 0.43806,-1.49293 0.11244,-1.95023 l -0.22655,-0.31818 0.59782,-0.2967 0.59784,-0.2967 0.19348,0.25453 c 0.28325,0.37263 0.43795,1.1052 0.33229,1.57356 -0.0502,0.22281 -0.25337,0.82518 -0.45137,1.3386 -0.20822,0.53993 -0.35848,1.13972 -0.35639,1.42268 l 0.004,0.4892 0.28117,-0.31958 c 0.15465,-0.17577 0.30817,-0.4585 0.34118,-0.6283 0.033,-0.16981 0.19563,-0.7139 0.36139,-1.2091 0.39381,-1.1765 0.37956,-1.75152 -0.0647,-2.61304 -0.26602,-0.51578 -0.32353,-0.73012 -0.23854,-0.88893 0.0616,-0.11508 0.11199,-0.33848 0.11199,-0.49642 0,-0.27327 0.0177,-0.28101 0.36449,-0.16009 0.525,0.18301 1.27217,0.97889 1.43706,1.53074 0.19957,0.66794 0.1734,1.02222 -0.14144,1.91444 l -0.27712,0.7853 0.27852,-0.26164 c 0.15318,-0.14391 0.38847,-0.48879 0.52286,-0.7664 0.43304,-0.89455 0.14146,-2.38383 -0.60249,-3.07727 -0.59454,-0.55416 -2.13406,-0.98795 -1.9677,-0.55442 0.10139,0.26423 -0.17835,0.9599 -0.51008,1.26844 -0.43044,0.40034 -1.40364,0.73512 -2.22695,0.76607 l -0.7041,0.0265 0.0308,-0.51408 c 0.046,-0.76725 0.10205,-0.86994 0.35188,-0.64385 0.25721,0.23278 0.41106,0.23345 1.08228,0.005 0.73247,-0.24957 0.99117,-0.60752 0.99117,-1.37143 0,-0.75538 -0.13361,-0.84538 -1.25494,-0.84538 l -0.81299,0 -0.17668,0.42282 c -0.2347,0.56175 -0.32561,0.3792 -0.49062,-0.98522 -0.13591,-1.12389 -0.0933,-1.62232 0.15641,-1.82956 0.0815,-0.0676 0.75935,-0.20591 1.50631,-0.30725 1.17814,-0.15983 1.39334,-0.22247 1.62395,-0.4727 0.26568,-0.28826 0.26683,-0.28841 1.72678,-0.21133 1.56778,0.0828 3.44641,0.27351 3.53147,0.35855 0.0286,0.0286 -0.11308,0.31776 -0.31494,0.64249 l -0.36702,0.59041 0.12039,0.98157 c 0.0662,0.53986 0.12053,1.72902 0.12071,2.64257 0,2.86355 -0.27406,3.45593 -2.7487,5.9293 -1.53966,1.53888 -2.39165,2.55572 -2.39165,2.85444 0,0.33326 -0.23507,0.0451 -0.49709,-0.60943 z m 1.65759,-11.9487 0.4731,-0.34272 -0.5312,0 c -0.51408,0 -0.53122,0.0111 -0.53122,0.34272 0,0.18849 0.0262,0.34271 0.0581,0.34271 0.032,0 0.27101,-0.15422 0.53121,-0.34271 z m 15.63239,9.36747 0,-1.14238 7.42543,0 7.42544,0 0,1.14238 0,1.14237 -7.42544,0 -7.42543,0 0,-1.14237 z m -49.210907,-1.3201 c -0.186396,-0.13055 -0.253893,-0.29289 -0.253893,-0.6106 0,-0.54115 0.276348,-0.8109 0.83073,-0.8109 0.747405,0 1.056115,0.89963 0.467582,1.36257 -0.358705,0.28215 -0.698354,0.30132 -1.044419,0.0589 z m 40.655647,-1.23482 c -0.52716,-0.46003 -1.03433,-0.98117 -1.12703,-1.15811 -0.1891,-0.3609 -0.21543,-1.17148 -0.0436,-1.34328 0.0737,-0.0737 0.60613,0.30769 1.54643,1.10769 0.78873,0.67104 1.46134,1.26423 1.4947,1.3182 0.13175,0.21316 -0.16692,0.66525 -0.52107,0.78871 -0.20235,0.0705 -0.37309,0.12711 -0.37942,0.12572 -0.006,-0.002 -0.44283,-0.3789 -0.96999,-0.83893 z m -26.40139,-0.39353 c 0,-0.42393 0.44963,-0.82128 0.92931,-0.82128 0.31176,0 0.32731,0.0244 0.32731,0.51407 0,0.5035 -0.008,0.5141 -0.37128,0.51563 -0.2042,7.5e-4 -0.48694,0.0326 -0.6283,0.0704 -0.22536,0.0604 -0.25704,0.026 -0.25704,-0.27886 z m 0,-1.55448 c 0,-0.44921 0.49217,-0.86613 1.02245,-0.86613 0.20136,0 0.23417,0.072 0.23417,0.51407 l 0,0.51407 -0.62832,0 c -0.46622,0 -0.6283,-0.0417 -0.6283,-0.16201 z m 1.59933,-0.35206 0,-0.51407 0.51406,0 0.51407,0 0,-0.68542 0,-0.68542 0.45695,0 0.45695,0 0,1.19949 0,1.19949 -0.97101,0 -0.97102,0 0,-0.51407 z m 11.46797,-0.85111 c -0.93293,-0.14557 -1.72885,-0.45389 -2.3029,-0.89206 -0.54912,-0.41917 -0.92949,-0.81539 -0.93618,-0.97522 -0.006,-0.15149 1.17184,-0.64933 1.5384,-0.65007 0.45425,-7.5e-4 0.93722,0.30694 1.61003,1.02622 0.30431,0.32534 0.69374,0.66414 0.86537,0.75289 0.37527,0.19406 1.35079,0.208 2.35228,0.0336 0.55907,-0.0974 0.80555,-0.0951 1.035,0.009 0.38422,0.17506 0.24283,0.25891 -0.83623,0.49596 -1.01792,0.22362 -2.57272,0.31677 -3.32577,0.19926 z m -10.44139,-1.69067 c -7.5e-4,-0.23562 -0.0325,-0.54405 -0.0704,-0.68542 -0.0559,-0.20855 -0.0223,-0.25704 0.1781,-0.25704 0.39258,0 0.8078,0.49644 0.8078,0.96583 0,0.39636 -0.01,0.40502 -0.45695,0.40502 -0.45159,0 -0.45697,-0.005 -0.45851,-0.42839 z m 1.48664,-0.31415 c 0,-0.58627 0.0183,-0.62831 0.27293,-0.62831 0.4069,0 0.75346,0.34551 0.83075,0.82822 l 0.0686,0.42839 -0.58615,0 -0.58613,0 0,-0.6283 z m 30.95834,-0.51407 0,-1.14238 7.31119,0 7.31121,0 0,1.14238 0,1.14237 -7.31121,0 -7.31119,0 0,-1.14237 z"
       id="path3628"
       inkscape:connector-curvature="0" />
  </g>
</svg>
