<?xml version="1.0" encoding="UTF-8" standalone="no"?>
<!-- Created with Inkscape (http://www.inkscape.org/) -->

<svg
   xmlns:dc="http://purl.org/dc/elements/1.1/"
   xmlns:cc="http://creativecommons.org/ns#"
   xmlns:rdf="http://www.w3.org/1999/02/22-rdf-syntax-ns#"
   xmlns:svg="http://www.w3.org/2000/svg"
   xmlns="http://www.w3.org/2000/svg"
   xmlns:sodipodi="http://sodipodi.sourceforge.net/DTD/sodipodi-0.dtd"
   xmlns:inkscape="http://www.inkscape.org/namespaces/inkscape"
   width="744.09448819"
   height="1052.3622047"
   id="svg4814"
   version="1.1"
   inkscape:version="0.48.0 r9654"
   sodipodi:docname="motif-03.svg">
  <defs
     id="defs4816" />
  <sodipodi:namedview
     id="base"
     pagecolor="#ffffff"
     bordercolor="#666666"
     borderopacity="1.0"
     inkscape:pageopacity="0.0"
     inkscape:pageshadow="2"
     inkscape:zoom="0.47854004"
     inkscape:cx="553.09918"
     inkscape:cy="500.12004"
     inkscape:document-units="px"
     inkscape:current-layer="layer1"
     showgrid="false"
     inkscape:window-width="918"
     inkscape:window-height="688"
     inkscape:window-x="146"
     inkscape:window-y="47"
     inkscape:window-maximized="0" />
  <metadata
     id="metadata4819">
    <rdf:RDF>
      <cc:Work
         rdf:about="">
        <dc:format>image/svg+xml</dc:format>
        <dc:type
           rdf:resource="http://purl.org/dc/dcmitype/StillImage" />
        <dc:title></dc:title>
      </cc:Work>
    </rdf:RDF>
  </metadata>
  <g
     inkscape:label="Layer 1"
     inkscape:groupmode="layer"
     id="layer1">
    <path
       inkscape:connector-curvature="0"
       style="fill:#ff7f2a;fill-opacity:1;display:inline"
       d="m 373.28211,690.57732 c 0.35501,-0.42774 0.96686,-0.77767 1.35966,-0.77767 0.39281,0 0.71405,0.34993 0.71405,0.77767 0,0.49363 -0.49665,0.77768 -1.35951,0.77768 -1.14974,0 -1.26001,-0.11998 -0.7142,-0.77768 z m 33.24184,-3.29176 c -1.10356,-0.31752 -1.14734,-0.42846 -0.41014,-1.04037 0.97971,-0.81307 4.13936,-0.30186 3.83575,0.62056 -0.23772,0.72264 -1.73529,0.90613 -3.42561,0.41981 z M 297.17304,677.25304 c -0.34215,-0.34216 -0.622,-0.80879 -0.622,-1.03691 0,-0.57626 1.65266,-0.50505 2.59217,0.11161 0.69119,0.45372 0.69119,0.5672 0,1.02097 -1.00839,0.66193 -1.22295,0.65156 -1.97017,-0.0958 z m 123.64338,-26.01566 c -0.48067,-1.25258 2.67614,-1.8849 4.29609,-0.86049 1.07264,0.67828 0.37144,1.17705 -1.98616,1.41278 -1.43108,0.14314 -2.10494,-0.0182 -2.30993,-0.55229 z m -51.93678,-0.74949 c -0.58899,-0.58887 -0.19738,-1.01613 0.9029,-0.98529 0.64159,0.0182 1.39971,-0.0341 1.68494,-0.11625 1.35623,-0.3894 2.80435,0.0135 2.53869,0.70422 -0.2688,0.70073 -4.49556,1.0284 -5.12653,0.39738 z m 14.33863,-36.4217 c -2.02381,-0.27147 -3.16623,-1.05279 -3.18834,-2.18051 -0.0179,-0.92708 1.83345,-0.99306 4.18089,-0.14881 1.37894,0.49583 2.75235,0.74996 3.05207,0.56469 0.62425,-0.38582 2.60966,0.13462 2.60966,0.68403 0,0.67377 -4.38215,1.38547 -6.65428,1.08066 z m 9.50584,-0.47931 c -1.03693,-0.44556 -1.03693,-0.44556 0,-0.54164 1.65954,-0.15393 3.07239,0.0761 3.60311,0.58649 0.62634,0.60221 -2.17875,0.56729 -3.60311,-0.0447 z m -87.74868,-12.05404 c 0.32676,-0.981 1.94446,-1.12051 1.94446,-0.16764 0,0.48101 -0.44331,0.81572 -1.07996,0.81572 -0.63366,0 -0.99106,-0.26797 -0.8645,-0.64808 z m 20.47295,0.28949 c -1.16064,-0.30279 -0.6489,-1.19677 0.68491,-1.19677 0.55358,0 1.0063,0.34994 1.0063,0.77768 0,0.79823 -0.12252,0.82848 -1.69121,0.41909 z m -5.72194,-0.48763 c -0.73228,-0.73215 -0.3335,-1.29546 0.80294,-1.13405 0.64159,0.0911 1.14989,0.39898 1.12957,0.68412 -0.0448,0.63141 -1.42884,0.9537 -1.93251,0.44993 z M 588.11576,597.79 c -0.17691,-0.46106 -0.1651,-0.99502 0.0269,-1.18649 0.42494,-0.42491 1.91355,0.45227 1.98661,1.17055 0.0897,0.88698 -1.67343,0.90096 -2.01305,0.0158 z m -207.33099,-6.72793 c -0.95849,-0.72466 -0.88707,-0.77365 1.15078,-0.78916 1.19501,-0.009 2.31711,0.21683 2.49327,0.50198 0.17615,0.28518 -0.0239,0.51847 -0.44541,0.51847 -0.42119,0 -1.08325,0.12177 -1.47127,0.27069 -0.38788,0.14882 -1.16528,-0.077 -1.72737,-0.50198 z m -51.25844,-1.57422 c -0.81042,-1.23678 -0.80355,-1.30521 0.12999,-1.30521 1.45035,0 2.35296,1.25935 1.44348,2.01411 -0.56643,0.4701 -0.89947,0.32012 -1.57377,-0.7089 z m 27.92167,0.73411 c -0.18796,-0.30412 -0.21934,-0.67538 -0.0702,-0.82502 0.407,-0.40709 2.42393,0.33712 2.42393,0.89447 0,0.66761 -1.93401,0.61055 -2.35431,-0.0695 z m -40.02941,-11.76979 c -1.19053,-0.19621 -1.64116,-1.8394 -0.66907,-2.44012 0.64711,-0.40002 2.61324,0.83117 2.61324,1.63642 0,0.82057 -0.52504,1.03758 -1.94417,0.8037 z m 123.92143,-1.47029 c 0.17213,-0.17227 0.61932,-0.19065 0.9936,-0.0409 0.41358,0.16549 0.29091,0.28832 -0.31317,0.3132 -0.54655,0.0221 -0.85285,-0.1 -0.68043,-0.27229 z m 83.84914,-0.19609 c -0.66519,-0.42211 -0.60796,-0.66353 0.39595,-1.66985 0.91471,-0.91665 1.36579,-1.05534 2.04308,-0.62807 1.36459,0.86074 1.32844,1.5409 -0.11654,2.19943 -1.57766,0.71885 -1.35907,0.70959 -2.32219,0.0985 z m 41.90455,-1.93982 c -2.12645,-0.22436 -3.19611,-1.1562 -2.72784,-2.37622 0.25041,-0.65258 1.0296,-0.77599 4.02699,-0.63789 3.8979,0.17961 6.56793,1.04192 6.56793,2.12106 0,1.21258 -2.3316,1.47724 -7.86708,0.89305 z m 26.80675,-0.81356 c -0.22188,-0.51129 -0.25804,-1.07514 -0.0807,-1.25291 0.52653,-0.52647 0.95086,0.21302 0.70866,1.23471 -0.215,0.90572 -0.24279,0.90652 -0.62843,0.0182 z m -203.24453,-7.29733 c -0.94191,-0.68874 -0.93937,-0.72602 0.0881,-1.27611 1.23909,-0.66315 3.16563,0.38711 2.54676,1.38839 -0.49127,0.79496 -1.45036,0.75405 -2.63521,-0.11236 z m -57.26786,-0.29986 c -0.60109,-0.38033 -0.47229,-0.60167 0.64756,-1.11186 1.11537,-0.50823 1.9748,-0.49867 4.25022,0.0471 1.56869,0.37627 2.85201,0.88023 2.85201,1.11984 0,0.58983 -6.80684,0.54136 -7.74979,-0.0551 z m 8.78672,-0.0273 c 0,-0.28517 0.33618,-0.51845 0.74707,-0.51845 0.41088,0 0.8914,0.23328 1.06756,0.51845 0.17616,0.28515 -0.16002,0.51845 -0.74707,0.51845 -0.58705,0 -1.06756,-0.2333 -1.06756,-0.51845 z m 95.86708,-0.55847 c -0.4484,-0.28381 -0.49666,-0.46561 -0.12551,-0.47052 0.33304,-0.004 0.97462,-0.1495 1.4257,-0.32261 0.45108,-0.17308 0.82013,-0.0814 0.82013,0.2038 0,0.76524 -1.28077,1.12114 -2.12092,0.58933 z m 75.70848,-1.29564 c -0.56194,-0.67721 -0.55074,-0.89784 0.0657,-1.28821 1.79626,-1.13647 5.03584,-0.21121 4.46538,1.27544 -0.4203,1.09514 -3.62567,1.10422 -4.53142,0.0134 z m 41.57793,-1.82217 c -1.78011,-1.65846 -1.25193,-2.82068 1.23864,-2.72587 2.85425,0.10862 5.14954,0.46307 5.86568,0.90571 1.10148,0.68078 0.62605,1.65087 -1.11806,2.28156 -2.55273,0.9231 -4.67575,0.75943 -5.98626,-0.4614 z m 29.48947,0.40669 c -3.28934,-1.1256 -2.31307,-2.92419 1.59828,-2.94474 1.58692,-0.007 3.31758,1.68842 2.88144,2.82507 -0.35993,0.93798 -1.96344,0.98077 -4.47972,0.11968 z m -257.93739,-8.10414 c -0.57031,-0.22735 -2.3446,-0.29827 -3.94288,-0.15763 -2.61996,0.23058 -2.99141,0.13447 -3.77254,-0.97595 -0.84538,-1.20172 -0.83149,-1.23879 0.573,-1.52271 0.79174,-0.16005 2.256,-0.0245 3.25408,0.30173 0.99808,0.32602 2.74787,0.50793 3.88834,0.40425 2.39555,-0.21768 3.65929,0.41627 3.20268,1.60645 -0.34051,0.88728 -1.52133,1.014 -3.20268,0.34386 z m 13.22057,-0.80995 c 0,-0.81683 1.0308,-0.97357 2.97542,-0.45243 1.66626,0.44661 0.90754,1.23009 -1.19142,1.23009 -1.24014,0 -1.784,-0.23703 -1.784,-0.77766 z m 7.77683,0.2585 c -0.5624,-0.36402 -0.16749,-0.48182 1.42585,-0.42558 1.2119,0.0432 2.20341,0.27286 2.20341,0.51129 0,0.59567 -2.67406,0.53248 -3.62926,-0.0858 z m 5.83714,-0.1421 c 0.20858,-0.62616 7.82688,-0.90598 8.74966,-0.32136 0.93862,0.59463 0.89469,0.60178 -4.36048,0.70941 -2.61116,0.0533 -4.48137,-0.11192 -4.38918,-0.38805 z m 77.41464,-0.71812 c -0.20574,-0.53607 0.0702,-0.6253 1.14048,-0.36862 1.88993,0.45314 1.93431,0.53996 0.42284,0.82887 -0.80131,0.15319 -1.39508,-0.0217 -1.56332,-0.46025 z m -22.07407,-0.68148 c 0,-0.82576 0.27582,-0.9805 1.42571,-0.79935 0.78412,0.12357 2.29245,0.36003 3.35179,0.52557 3.41111,0.53313 2.7525,1.29776 -1.11776,1.29776 -3.29876,0 -3.65974,-0.10101 -3.65974,-1.02398 z m 8.29515,0.50553 c 0,-0.28517 0.33618,-0.51845 0.74706,-0.51845 0.41089,0 0.89141,0.23328 1.06757,0.51845 0.1763,0.28511 -0.15988,0.51845 -0.74707,0.51845 -0.58705,0 -1.06756,-0.23334 -1.06756,-0.51845 z m 5.70297,-0.20377 c 0,-0.94431 1.5778,-1.53672 2.26421,-0.85009 0.29464,0.29446 1.01377,0.55181 1.59843,0.57185 1.05217,0.0365 1.05232,0.0409 0.0254,0.48201 -1.67792,0.72105 -3.88849,0.60518 -3.88849,-0.20377 z m 30.09698,-0.0239 c -0.51308,-0.61817 -0.254,-0.85515 1.51416,-1.38488 1.84212,-0.55194 2.24853,-0.52379 2.97826,0.20601 0.78129,0.78124 0.73781,0.88596 -0.57449,1.38488 -1.94985,0.74136 -3.18565,0.67638 -3.91793,-0.20601 z m 28.50185,-0.53417 c -0.9561,-1.15202 0.51712,-1.55983 2.85141,-0.78944 2.17695,0.71847 2.15962,0.78348 -0.33036,1.23299 -1.35637,0.24486 -2.05115,0.12252 -2.52105,-0.44355 z m 63.49721,-0.69547 c -3.58727,-0.42697 -4.5117,-3.30343 -1.47008,-4.5743 1.60634,-0.67115 2.42752,-0.69802 5.31419,-0.17389 3.95319,0.71774 5.74735,1.67488 5.74735,3.06619 0,1.75515 -3.62956,2.3917 -9.59146,1.682 z m 48.55345,-1.57974 c -0.49426,-0.8724 -0.53281,-1.38191 -0.13447,-1.78002 0.79608,-0.79626 1.19905,-0.1797 0.99928,1.52899 -0.17227,1.47316 -0.17227,1.47316 -0.86466,0.25103 z M 572.892,549.56397 c -0.51995,-0.62644 -0.47648,-0.83438 0.2307,-1.10572 1.02139,-0.39201 2.11047,0.49843 1.60679,1.31366 -0.47842,0.77409 -1.07891,0.70618 -1.83749,-0.20794 z m -205.18332,-6.11786 c -1.27061,-0.57459 -1.55076,-1.6779 -0.51846,-2.04211 1.74156,-0.61436 5.45016,-0.39634 6.07545,0.35714 0.36413,0.43865 0.57495,0.80001 0.46872,0.80308 -0.10609,0.004 -1.24298,0.32147 -2.52614,0.70752 -1.66522,0.50097 -2.66703,0.55088 -3.49957,0.17437 z m -61.30725,-1.14674 c -0.82013,-0.9882 0.23742,-2.48022 1.49892,-2.11481 0.45885,0.13283 2.1786,0.62213 3.822,1.08728 1.64325,0.46514 2.8544,1.06164 2.69124,1.32548 -0.51503,0.83323 -7.28213,0.58159 -8.01216,-0.29795 z m 30.81103,0.19603 c 1.33128,-0.31214 2.22014,-0.29409 2.56633,0.0521 0.36054,0.36045 -0.28986,0.51292 -2.03681,0.47748 -2.56632,-0.0521 -2.56632,-0.0521 -0.52952,-0.5296 z m 60.08192,0.0596 c -1.28944,-0.5195 -2.44307,-2.35464 -1.96584,-3.12694 0.39998,-0.64726 8.52584,-0.0584 9.46685,0.686 0.52519,0.41549 0.42418,0.78296 -0.47917,1.74466 -0.89081,0.94816 -1.67074,1.21108 -3.5169,1.18549 -1.30468,-0.0182 -2.88189,-0.23819 -3.50494,-0.48921 z m 18.76022,-0.21217 c -3.61476,-0.48973 -4.14772,-0.69511 -4.14772,-1.59886 0,-0.7466 0.29031,-0.99033 1.03693,-0.87065 2.25884,0.36196 7.13271,0.10908 7.74859,-0.40195 0.85076,-0.70617 3.91658,0.31546 3.91658,1.30511 0,1.70395 -3.20627,2.29098 -8.55438,1.56635 z m 24.7051,-0.76159 c -1.13076,-0.71659 -0.49411,-2.39263 0.90888,-2.39263 1.59813,0 2.71679,1.63104 1.6047,2.3399 -0.96043,0.6123 -1.60903,0.62593 -2.51358,0.0527 z m 30.7695,-1.61495 c -0.17631,-0.28511 -0.0732,-0.51841 0.2286,-0.51841 0.30196,0 0.54909,0.2333 0.54909,0.51841 0,0.28517 -0.10309,0.51849 -0.22875,0.51849 -0.12551,0 -0.37279,-0.23332 -0.54894,-0.51849 z m 89.98481,-0.45603 c -1.61561,-0.45121 -2.35192,-2.77071 -1.12285,-3.53816 1.10985,-0.69311 6.79937,0.0616 7.38119,0.97899 1.49936,2.36446 -1.93162,3.76747 -6.25834,2.55917 z m 19.85094,-0.77426 c -1.17558,-1.01132 -1.27703,-1.32274 -0.75125,-2.30542 0.52922,-0.98885 0.8914,-1.09305 2.7918,-0.80323 2.69034,0.41015 3.47969,0.99729 3.47969,2.5879 0,0.67794 -0.29166,1.25924 -0.64816,1.29176 -0.35635,0.0326 -1.29257,0.13537 -2.08028,0.22863 -0.92472,0.10937 -1.91429,-0.24486 -2.7918,-0.99964 z m -49.12571,-0.4095 c -1.24909,-1.78355 -0.51159,-2.1275 3.77225,-1.75897 4.49018,0.38631 6.80504,1.12297 6.80504,2.16559 0,0.55692 -1.081,0.71476 -4.89583,0.71476 -4.43116,0 -4.97055,-0.10653 -5.68146,-1.12138 z m -232.18879,-8.26239 c -2.30963,-0.8962 -1.73783,-1.84562 1.29617,-2.15227 2.76788,-0.27975 7.37177,0.20033 8.00633,0.83492 0.76006,0.76004 -0.81102,1.35216 -4.25889,1.60515 -2.02276,0.14837 -4.24649,0.0217 -5.04361,-0.2878 z m 12.7021,0.24986 c -0.3565,-0.1566 -0.64815,-0.59169 -0.64815,-0.96693 0,-0.94731 4.55637,-1.28456 5.29701,-0.39212 0.30451,0.36705 0.45347,0.76769 0.33095,0.89036 -0.3946,0.3945 -4.30983,0.76292 -4.97981,0.46869 z m 46.76259,-0.24342 c -0.1917,-0.30999 -0.11356,-0.79848 0.17347,-1.08557 0.76559,-0.76562 2.4075,-0.29485 2.60831,0.74782 0.1285,0.66325 -0.17078,0.90135 -1.12987,0.90135 -0.71703,0 -1.46036,-0.25363 -1.65191,-0.5636 z m -40.39263,-0.44273 c -0.92338,-0.34562 -0.89096,-0.4129 0.34903,-0.72413 1.38715,-0.34816 10.67231,0.41429 11.17584,0.91771 0.4209,0.42096 -10.36737,0.23969 -11.52487,-0.19358 z m 79.60146,-0.2002 c -1.46919,-1.46917 -0.0747,-1.94765 6.38444,-2.19036 2.82586,-0.10623 5.55953,0.0393 6.09189,0.3242 1.21817,0.65195 1.25089,1.88854 0.0583,2.2122 -1.79774,0.48802 -11.98192,0.20684 -12.5349,-0.34604 z m 29.80294,-0.31613 c -1.18784,-1.31261 -0.60393,-2.2007 1.16886,-1.77766 2.28259,0.54463 2.95495,1.30596 1.8602,2.10651 -1.26494,0.92487 -1.96285,0.84915 -3.02906,-0.32885 z m 5.70356,0.6022 c -0.65114,-0.65119 -0.21276,-1.15335 1.0069,-1.15335 0.71285,0 1.29616,0.20616 1.29616,0.45798 0,0.54298 -1.88604,1.1124 -2.30306,0.69537 z m -47.73272,-0.64279 c -0.60124,-0.97294 0.801,-2.04355 2.42857,-1.85402 1.57377,0.18327 2.92581,1.09201 2.40287,1.61502 -0.58959,0.58957 -4.49541,0.78277 -4.83144,0.239 z m 138.17982,-1.30976 c -5.73524,-1.60828 -6.7656,-3.50734 -2.03711,-3.75427 7.01438,-0.36628 9.83157,-0.18604 11.75079,0.75179 2.11853,1.03522 2.76744,2.43759 1.3752,2.97185 -2.06221,0.79131 -8.31457,0.80853 -11.08888,0.0306 z m 24.13986,-0.19493 c -0.4947,-0.54679 -0.82252,-1.53624 -0.72839,-2.19877 0.14344,-1.01208 0.57734,-1.26247 2.71066,-1.56615 4.03806,-0.5748 8.22971,1.9377 6.56972,3.9379 -1.06009,1.2772 -7.35473,1.1499 -8.55199,-0.17298 z m 22.17777,0.23382 c -1.54643,-1.08316 -1.81642,-2.63669 -0.64293,-3.6987 0.83761,-0.75799 1.27375,-0.80144 2.96347,-0.2952 2.06445,0.61853 3.81379,2.82561 2.90475,3.66491 -0.98927,0.91338 -4.11037,1.1099 -5.22529,0.32899 z m -73.43426,-1.31299 c -0.14942,-0.57003 -0.0807,-1.15402 0.15195,-1.2978 0.78024,-0.48215 2.07192,0.36126 2.07192,1.35274 0,1.33561 -1.8723,1.28937 -2.22387,-0.055 z m -151.26876,-6.71357 c -2.12093,-0.64354 -3.59893,-1.56837 -3.59893,-2.25192 0,-0.74979 3.47387,-1.92259 5.6949,-1.92259 1.84033,0 3.75776,1.67531 3.29562,2.87948 -0.31825,0.82922 -2.2929,1.82606 -3.45086,1.74208 -0.33797,-0.0245 -1.21129,-0.22566 -1.94073,-0.44705 z m 35.54446,-1.10424 c -1.63638,-0.62309 -3.23794,-0.88011 -4.34286,-0.69685 -2.13094,0.35354 -4.58505,-0.58094 -5.00565,-1.90607 -0.70404,-2.21808 1.77742,-2.77028 4.13069,-0.9193 1.49219,1.17376 1.20621,1.22468 5.11338,-0.90993 0.83507,-0.45628 2.59561,-0.76697 4.14772,-0.73207 4.0527,0.0911 5.51008,0.0493 8.9179,-0.25654 1.71094,-0.15346 4.50916,-0.0949 6.2183,0.13014 2.9424,0.38759 3.15666,0.51374 4.03342,2.37602 0.5095,1.08177 0.80175,2.16828 0.6495,2.41444 -0.61215,0.99047 -7.47725,1.69338 -10.83264,1.10905 -4.07645,-0.70993 -8.97677,-0.73591 -9.40065,-0.0498 -0.40223,0.65075 -0.48709,0.63769 -3.62911,-0.55894 z m 36.82284,-0.98249 c -1.09909,-1.21444 -0.99166,-1.56933 0.47514,-1.56933 0.69611,0 1.4263,-0.26004 1.62278,-0.5779 0.52758,-0.85371 4.91526,-0.28661 6.66788,0.86175 1.4904,0.97656 1.4904,0.97656 -0.0149,1.62664 -2.22373,0.9603 -7.76876,0.74415 -8.75101,-0.34116 z m 30.61276,0.1161 c -1.1203,-0.27099 -2.3697,-1.3672 -2.3697,-2.07924 0,-0.25735 0.56239,-0.76893 1.24985,-1.13679 1.05082,-0.56239 1.71512,-0.52252 4.17252,0.25044 2.2055,0.69369 3.06926,0.77279 3.51989,0.322 0.32856,-0.32849 1.67044,-0.59725 2.98215,-0.59725 1.3117,0 2.62385,-0.23878 2.91565,-0.53075 0.29196,-0.29194 1.88964,-0.75191 3.55067,-1.02221 3.53901,-0.57599 6.77128,-0.004 7.80103,1.3769 0.62112,0.83391 0.56419,1.10212 -0.45332,2.13433 -1.12299,1.13942 -1.53253,1.18653 -11.76602,1.35255 -5.83132,0.0946 -11.05258,0.0632 -11.60272,-0.0701 z m 67.25765,-0.15092 c -5.14685,-0.42241 -7.93132,-1.6951 -7.93132,-3.62544 0,-1.58988 1.413,-1.83493 8.93374,-1.5494 6.77651,0.25732 7.18306,0.3343 8.44576,1.59922 1.51908,1.52149 1.33187,2.65387 -0.58257,3.52625 -1.39477,0.63543 -1.70301,0.63716 -8.86561,0.0493 z m 23.15583,-0.73077 c -1.79685,-0.9858 -2.97109,-3.20446 -2.13721,-4.03822 0.76858,-0.76861 6.40656,-1.04598 8.10868,-0.39887 0.68894,0.26195 1.65102,1.08401 2.13766,1.82673 0.75797,1.15676 0.78038,1.4487 0.15658,2.03649 -1.1212,1.05674 -6.68192,1.44278 -8.26571,0.57387 z m 22.17343,-0.89284 c -1.87036,-0.51422 -3.30981,-2.05311 -2.75698,-2.94753 0.39968,-0.64691 4.01968,-0.65988 5.5939,-0.0202 1.37834,0.56028 3.47297,3.05665 2.56468,3.05665 -0.25609,0 -1.13629,0.101 -1.95627,0.22416 -0.81968,0.12327 -2.37015,-0.0178 -3.44533,-0.3133 z m -255.19849,-9.01659 c -1.14047,-0.40709 -2.42379,-0.71439 -2.85141,-0.68289 -1.9101,0.14075 -2.59232,-0.12267 -2.59232,-1.00122 0,-1.41547 7.62801,-3.08238 10.54382,-2.30408 1.26658,0.33803 2.55034,0.3777 3.27768,0.10115 0.93952,-0.35728 1.48488,-0.18627 2.54766,0.79868 1.79281,1.66145 1.2349,2.34331 -1.91713,2.34331 -1.42765,0 -2.98872,0.20107 -3.46894,0.44675 -1.80402,0.92296 -3.52885,1.01577 -5.53936,0.29823 z m 24.71929,0.0704 c -2.43693,-1.34618 -2.82287,-3.69512 -0.74079,-4.5091 1.86125,-0.72767 6.24683,-0.63208 8.74339,0.19055 2.31397,0.76252 3.95677,3.06453 2.92402,4.09729 -0.75842,0.75834 -9.62896,0.93795 -10.92662,0.22126 z m 58.88153,-0.33843 c -1.12554,-0.65544 -1.18784,-2.47566 -0.0986,-2.89341 0.44451,-0.17057 1.78594,-0.10473 2.9811,0.14643 1.63683,0.34398 2.21147,0.7276 2.32966,1.55498 0.11057,0.77983 -0.18946,1.19109 -1.03693,1.41807 -1.71108,0.45831 -3.13201,0.38138 -4.17492,-0.22611 z m -28.3617,-1.86073 c -0.5987,-0.76106 -1.00585,-1.63598 -0.9047,-1.94419 0.27253,-0.8306 3.85592,-0.90893 7.10238,-0.15527 2.85156,0.66199 2.85156,0.66199 0.0284,2.07267 -3.54096,1.76896 -4.85072,1.77463 -6.22562,0.0269 z m 46.63244,0.60043 c -0.52085,-0.62761 -0.48918,-0.77196 0.16989,-0.77196 0.9679,0 1.60081,0.84558 0.93891,1.2546 -0.25744,0.15918 -0.75648,-0.058 -1.1088,-0.48264 z m 37.85186,0.10608 c -2.61519,-0.89182 -2.30321,-1.97962 0.77769,-2.71169 1.42571,-0.33875 3.17549,-0.83319 3.88849,-1.0988 2.32458,-0.86609 11.20946,0.22032 11.9785,1.46468 0.67624,1.09406 0.0433,1.39541 -3.70681,1.76495 -1.99572,0.19665 -3.75387,0.56017 -3.90701,0.80784 -0.40686,0.65833 -6.91442,0.49477 -9.03086,-0.22698 z m -62.9269,-0.8059 c -1.81941,-2.01038 -0.3946,-2.94937 1.79042,-1.18001 1.19158,0.96487 1.19173,0.9666 0.12252,1.53869 -0.85898,0.45971 -1.23655,0.38892 -1.91309,-0.35868 z m 92.05822,0.0859 c -1.50668,-0.61896 -1.69704,-0.90971 -1.55539,-2.37583 0.1255,-1.29924 0.4315,-1.70874 1.37714,-1.84263 2.82616,-0.40011 5.64291,2.09638 4.25396,3.77017 -0.8935,1.07653 -2.19743,1.21997 -4.07571,0.44829 z m 25.82481,0.49995 c -0.96865,-0.3701 -3.11065,-2.61837 -3.11065,-3.26489 0,-0.2639 0.54432,-0.83647 1.20966,-1.27238 0.98986,-0.64864 1.71975,-0.69579 4.01803,-0.25947 1.54464,0.29324 3.77837,0.38798 4.96397,0.21049 2.98677,-0.44709 5.23993,0.13492 5.66113,1.46219 0.47663,1.50168 -0.98508,2.46616 -3.73773,2.46616 -1.21175,0 -2.34744,0.2333 -2.52375,0.51845 -0.33693,0.54517 -5.14804,0.6487 -6.48066,0.13941 z m 26.31159,-1.05102 c -1.83988,-1.14073 -1.99363,-3.48135 -0.25924,-3.94621 3.39453,-0.90964 8.10196,0.0533 9.70427,1.98546 0.68178,0.82215 0.63546,1.01883 -0.4463,1.89488 -1.60306,1.29804 -6.94818,1.33719 -8.99873,0.0659 z m 22.60822,-0.12087 c -1.31633,-0.53129 -2.7773,-2.47413 -2.7773,-3.69348 0,-1.91034 3.84337,-2.02781 5.83789,-0.17837 2.86441,2.65604 0.70284,5.3905 -3.06059,3.87185 z m 39.33553,-2.6171 c -1.35324,-0.54352 -2.03845,-1.89579 -1.32291,-2.61133 0.2685,-0.2685 1.81598,-0.62343 3.43876,-0.78877 2.95062,-0.30052 2.95062,-0.30052 2.95062,1.8192 0,2.10973 -0.0149,2.11962 -1.94417,2.0869 -1.06935,-0.0182 -2.47429,-0.24577 -3.1223,-0.506 z m -229.27492,-6.20526 c -7.5312,-0.84294 -9.05596,-1.2652 -10.39486,-2.87837 -0.62694,-0.7555 -0.55896,-0.99437 0.53595,-1.88105 0.98508,-0.79752 1.64922,-0.93315 3.09391,-0.63166 1.01197,0.21112 5.80591,0.44004 10.65349,0.50886 11.31868,0.1605 16.55458,0.73576 17.75198,1.9504 0.87123,0.88384 0.8657,0.96116 -0.12401,1.71431 -0.7768,0.59086 -1.74859,0.70837 -3.87475,0.46855 -2.53316,-0.28568 -6.12177,0.20012 -9.08659,1.23021 -0.57031,0.19814 -4.4198,-0.0184 -8.55453,-0.48125 z m -39.6617,-0.7854 c -0.8554,-0.43826 -1.96957,-1.28976 -2.47594,-1.89219 -2.53764,-3.01895 3.99966,-3.89873 9.67229,-1.30166 2.71933,1.24494 3.99921,2.55211 3.24123,3.31017 -0.17541,0.17536 -2.24568,0.4002 -4.60059,0.49966 -3.12275,0.13194 -4.7025,-0.0345 -5.83699,-0.61598 z m -22.94157,-0.26342 c -2.45128,-0.98532 -0.57988,-4.13153 2.45755,-4.13153 1.82061,0 5.70805,2.11896 5.70805,3.11121 0,1.39895 -5.51052,2.08749 -8.1656,1.02032 z m 141.96058,-0.74353 c -0.65383,-0.34983 -2.72396,-0.68581 -4.60044,-0.74656 -1.87649,-0.0607 -3.73758,-0.29285 -4.13592,-0.51571 -1.24327,-0.69581 2.07999,-1.72944 4.25097,-1.32221 1.38237,0.25932 2.14334,0.13716 2.78985,-0.44796 1.13883,-1.03071 6.05782,-1.73045 6.55134,-0.93198 0.19588,0.31706 1.34771,0.57642 2.5596,0.57642 2.35461,0 4.89674,1.27204 3.43846,1.72046 -0.42777,0.13148 -1.82763,0.59295 -3.11079,1.02544 -3.34418,1.12722 -6.36816,1.37795 -7.74307,0.6421 z m 26.40752,0.39187 c -1.47576,-0.54257 -2.59233,-1.87039 -2.59233,-3.08248 0,-1.04709 0.25535,-1.21584 1.84033,-1.21584 3.11946,0 6.64338,2.58425 5.67055,4.15838 -0.33021,0.53439 -3.59325,0.62727 -4.91855,0.14 z m -61.58083,-1.47622 c -1.56541,-1.09646 -1.44827,-1.7852 0.30406,-1.7852 1.75561,0 3.51077,1.16754 2.99918,1.9952 -0.51578,0.83444 -1.94148,0.74383 -3.30324,-0.21 z m 91.9103,0.26235 c -1.4257,-0.26311 -3.62387,-0.36482 -4.88463,-0.22613 -1.67492,0.18425 -2.5478,0.0211 -3.24033,-0.60571 -1.33636,-1.20936 -1.18455,-2.01354 0.6232,-3.30076 1.70601,-1.21473 0.72152,-1.25362 13.15079,0.51956 2.27229,0.32417 3.94243,1.4451 3.94243,2.64605 0,1.06467 -5.86015,1.65545 -9.59146,0.96699 z m -72.78879,-0.44785 c -0.42374,-0.26836 -0.58212,-0.82657 -0.38235,-1.34719 0.30435,-0.79338 0.46288,-0.80822 1.47277,-0.13761 0.62246,0.41328 1.22235,1.02313 1.33292,1.35511 0.23577,0.70694 -1.3755,0.79309 -2.42334,0.12969 z m 93.11293,-0.36276 c -2.35072,-0.7225 -3.52481,-1.87788 -2.72291,-2.67978 0.19872,-0.19861 2.26885,-0.50307 4.60059,-0.67663 4.90361,-0.36493 6.86616,0.36195 6.25655,2.31733 -0.18826,0.60399 -0.60258,1.26963 -0.92054,1.4791 -0.92382,0.60855 -4.51438,0.38957 -7.21369,-0.44002 z m 22.50439,0.18113 c -0.68208,-0.35224 -1.5814,-1.15927 -1.99841,-1.79335 -0.70553,-1.07274 -0.664,-1.1959 0.5978,-1.77083 1.78086,-0.8115 5.95429,-0.0241 6.73811,1.27124 0.46139,0.76252 0.33782,1.12925 -0.65533,1.94421 -1.40553,1.15345 -2.90729,1.2653 -4.68217,0.34873 z m 43.44141,-0.83852 c -4.0893,-0.33242 -5.65037,-1.07455 -5.65037,-2.68635 0,-1.46935 0.90619,-1.72328 6.04856,-1.69525 6.61813,0.036 9.71368,1.47728 7.4919,3.4879 -1.18321,1.07076 -3.07523,1.28509 -7.89009,0.8937 z M 312.8821,483.88893 c -1.42571,-0.28151 -3.34762,-0.62098 -4.27084,-0.7545 -1.92116,-0.27771 -3.2106,-1.99645 -2.23239,-2.97559 0.35979,-0.3602 2.8668,-0.6321 6.39565,-0.69372 5.27744,-0.0922 5.9102,0 6.97388,0.99768 1.20024,1.12756 1.53941,2.70247 0.69432,3.2247 -0.95654,0.59122 -5.03598,0.6999 -7.56062,0.20143 z m 52.45599,-0.25558 c -0.18692,-0.187 -5.58509,-0.32306 -11.99568,-0.3023 -10.96367,0.0351 -11.73524,-0.025 -12.99525,-1.01599 -0.83821,-0.65928 -1.28047,-1.46074 -1.18171,-2.14118 0.21754,-1.49877 2.6621,-1.94107 8.56827,-1.55036 3.38079,0.22361 5.00162,0.13327 5.53384,-0.30831 0.57225,-0.47495 1.26777,-0.48589 2.90191,-0.0457 1.18216,0.31836 4.29116,0.55055 6.90903,0.51591 2.61788,-0.0345 5.16269,-0.0475 5.65516,-0.0293 1.14421,0.0423 2.59457,2.2281 2.18547,3.29382 -0.495,1.29028 -4.68546,2.47952 -5.58104,1.58388 z m 18.16212,-1.54955 c -1.40225,-0.7347 -2.01858,-1.81085 -1.48607,-2.59472 0.59706,-0.87886 7.05935,-1.74957 10.50826,-1.4159 4.95157,0.47912 7.24283,2.41645 4.55757,3.85363 -1.61352,0.86349 -12.0021,0.98359 -13.57976,0.15699 z m 33.77017,0.43935 c -2.24046,-0.11774 -3.24885,-0.44805 -4.27726,-1.40101 -0.7399,-0.6858 -1.34547,-1.48318 -1.34547,-1.77189 0,-0.93045 1.93356,-1.59584 4.49884,-1.54824 1.37521,0.0254 4.40487,-0.12073 6.73273,-0.32517 3.29696,-0.28934 4.7766,-0.18603 6.69463,0.46749 1.95283,0.66541 2.88458,0.72523 4.50407,0.2892 1.12299,-0.3024 2.17173,-0.41987 2.33056,-0.26106 0.15882,0.15886 0.54356,0.0783 0.85494,-0.17917 1.13091,-0.93476 3.49658,0.0278 4.21272,1.71442 0.37712,0.8878 0.51249,1.7923 0.30092,2.01009 -0.21142,0.21777 -1.53613,0.36569 -2.9436,0.32862 -4.8047,-0.12656 -8.26063,-0.0226 -13.44678,0.40415 -2.85141,0.23464 -6.50383,0.35733 -8.1163,0.27257 z m 71.0293,-0.87564 c -0.18213,-0.18221 -2.38165,-0.40156 -4.88777,-0.48753 -4.21032,-0.14434 -4.64781,-0.26234 -5.75705,-1.55184 -1.50086,-1.74505 -1.50759,-2.29237 -0.0344,-2.81064 2.08178,-0.7321 13.88934,-0.18829 15.24856,0.70233 1.66775,1.09276 1.56511,2.73553 -0.21336,3.41331 -2.08313,0.79387 -3.97754,1.11317 -4.35646,0.73437 z m -36.88171,-1.17006 c -1.68449,-1.06058 -2.41766,-3.13407 -1.34517,-3.80403 1.19038,-0.74363 6.83657,-0.41525 7.84691,0.45637 0.91187,0.78671 1.24386,2.95358 0.51846,3.38373 -0.21381,0.1267 -1.55539,0.37553 -2.9811,0.55274 -1.99004,0.24735 -2.92836,0.11056 -4.0391,-0.58881 z m 51.60717,-0.46553 c -1.42989,-1.54428 -1.46619,-2.34649 -0.15927,-3.52928 0.9283,-0.84002 1.36265,-0.85697 5.53861,-0.2164 4.9429,0.75838 6.70315,1.68839 6.11192,3.22923 -0.30107,0.78445 -0.72391,0.89977 -2.34759,0.64015 -1.21399,-0.19415 -2.83976,-0.0173 -4.20106,0.45685 -2.89445,1.00818 -3.54156,0.93216 -4.94246,-0.58055 z m 24.47904,0.35732 c -2.60682,-1.05663 -2.95092,-3.18394 -0.73198,-4.52565 1.2231,-0.73955 1.53059,-0.71159 4.0388,0.36743 3.01397,1.29661 4.15833,2.70943 3.16443,3.90703 -0.67684,0.81547 -4.69443,0.9714 -6.47125,0.25119 z m 45.01489,-0.51488 c -3.18341,-0.38121 -4.81844,-1.16082 -4.81471,-2.29559 0,-0.78954 3.5671,-2.14925 8.30397,-3.16748 3.30039,-0.70953 4.20808,-0.73475 5.9117,-0.16458 7.12553,2.38511 -0.14344,6.7362 -9.40096,5.62765 z m -230.60292,-7.85585 c -0.85509,-0.24611 -1.82747,-0.82048 -2.16097,-1.27644 -0.47438,-0.64879 -0.83328,-0.70737 -1.65146,-0.26954 -0.57495,0.30771 -1.86334,0.5594 -2.86337,0.5594 -0.99987,0 -1.96225,0.23331 -2.13855,0.51845 -1.0967,1.77487 -5.44374,-0.60436 -5.44374,-2.97956 0,-1.54854 1.33127,-1.82842 8.52285,-1.79172 3.66601,0.0187 6.3704,-0.18345 6.56016,-0.49056 0.21665,-0.35057 1.32769,-0.34773 3.37794,0.007 5.45464,0.94812 10.47823,1.62413 12.06874,1.62413 1.5542,0 3.42814,1.75485 2.85843,2.67677 -0.14792,0.23865 -1.50699,0.43395 -3.02114,0.43395 -1.51416,0 -4.70833,0.31066 -7.0982,0.69038 -5.22036,0.82939 -6.95879,0.88654 -9.01069,0.2961 z m -46.2598,-1.31553 c -2.94255,-2.94245 -0.1285,-4.03986 7.72394,-3.01242 1.33232,0.17428 2.84886,0.63323 3.36987,1.01981 1.73215,1.28505 -0.0941,2.23138 -5.2613,2.72614 -4.4482,0.42603 -4.70534,0.39371 -5.83251,-0.73353 z m 82.55103,0.36281 c -3.79182,-0.22729 -5.56745,-0.5681 -6.61036,-1.26881 -1.5149,-1.01803 -1.82568,-2.30518 -0.80354,-3.32744 0.75917,-0.75918 5.20318,-0.81456 7.67657,-0.0956 0.99614,0.28956 3.30443,0.64013 5.12967,0.77916 4.94873,0.37673 6.22248,1.93228 2.88533,3.52365 -1.00765,0.48057 -2.11585,0.83459 -2.46264,0.78677 -0.34679,-0.0475 -2.96362,-0.22681 -5.81503,-0.39768 z m 29.82565,-1.12945 c -2.48041,-0.98988 -2.79045,-2.78195 -0.55851,-3.22836 3.17489,-0.63501 6.37489,1.67158 4.36154,3.14379 -1.05546,0.77183 -2.0268,0.79339 -3.80288,0.0846 z m 33.68501,-0.4467 c -2.58321,-0.83117 -2.85156,-1.05785 -2.85156,-2.40945 0,-1.49201 0,-1.49201 4.00339,-1.64314 3.04639,-0.11505 4.31671,0.0541 5.31419,0.70767 1.89875,1.24416 1.74336,3.07969 -0.32198,3.7996 -2.05564,0.71665 -2.6376,0.67353 -6.14404,-0.45468 z m -40.79814,-0.0197 c -1.37237,-0.55052 -2.97184,-2.84727 -2.50686,-3.59959 0.58764,-0.95081 2.76101,-0.58189 4.26232,0.72351 1.17618,1.0226 1.34831,1.43852 0.89917,2.17255 -0.69672,1.13857 -1.22265,1.27798 -2.65463,0.70353 z m 22.24679,-0.60283 c -2.06041,-0.99907 -2.28722,-1.01553 -3.15591,-0.22945 -1.28571,1.16354 -4.21541,0.60288 -4.21541,-0.80673 0,-0.86047 0.33887,-0.98226 2.46413,-0.88526 1.35533,0.0617 3.02667,-0.18862 3.71412,-0.55658 1.57632,-0.8435 6.37414,-0.4102 8.11929,0.73326 0.69089,0.45262 1.25597,1.28418 1.25597,1.84792 0,0.90507 -0.34843,1.02191 -2.9811,0.99911 -1.91399,-0.0167 -3.77583,-0.41122 -5.20109,-1.10227 z m 44.95154,0.21154 c -0.54775,-0.38369 -0.99599,-1.23725 -0.99599,-1.89689 0,-1.03532 0.33678,-1.24786 2.46264,-1.55429 3.65331,-0.52663 10.06211,-0.31077 11.48781,0.3869 1.75412,0.85841 2.53017,2.22431 1.72274,3.03192 -0.93548,0.93537 -13.34891,0.96281 -14.6772,0.0326 z m 24.6676,0.25611 c -2.09673,-0.69518 -2.85156,-1.35578 -2.85156,-2.4955 0,-1.50651 1.91548,-2.15642 6.29957,-2.13729 5.75811,0.0249 10.03956,2.31978 8.28126,4.43834 -0.50233,0.60528 -1.75382,0.77841 -5.41371,0.74873 -2.61817,-0.0212 -5.46017,-0.2706 -6.31556,-0.55428 z m 27.47806,-0.19848 c -3.415,-0.40651 -5.51277,-1.25234 -5.3384,-2.15266 0.33797,-1.74511 9.22674,-1.0703 9.22674,0.70051 0,0.6143 -1.68374,1.94539 -2.16934,1.71492 -0.0896,-0.0423 -0.86361,-0.16096 -1.719,-0.26277 z m 37.17307,-1.3186 c -0.34216,-0.34216 -0.62216,-1.36606 -0.62216,-2.27532 0,-1.48041 0.19065,-1.68896 1.82344,-1.9953 1.00287,-0.18816 2.03098,-0.21374 2.28469,-0.0569 0.8261,0.51049 12.50308,0.8027 14.46473,0.3619 1.2225,-0.27459 2.5614,-0.20842 3.72234,0.18408 1.02274,0.3458 3.28172,0.50923 5.18286,0.3749 2.87487,-0.20309 3.56038,-0.0784 4.66619,0.84794 1.03708,0.86902 1.15332,1.18016 0.58167,1.55704 -0.98225,0.64753 -5.44419,1.19648 -6.48351,0.79766 -0.46706,-0.17928 -2.33444,-0.0456 -4.14936,0.29668 -2.89609,0.54645 -3.51093,0.51361 -5.02269,-0.26816 -2.4719,-1.27823 -8.30367,-1.35563 -11.47079,-0.15217 -2.917,1.10836 -4.11769,1.1874 -4.97741,0.32769 z M 328.6935,460.47302 c -0.14195,-0.13941 -2.35267,-0.39207 -4.91317,-0.5614 -3.97381,-0.26273 -4.83563,-0.48795 -5.88556,-1.53793 -1.0048,-1.00482 -1.12777,-1.42123 -0.67161,-2.27382 0.52041,-0.97237 0.97657,-1.03133 6.6634,-0.86182 3.35747,0.10026 8.32099,0.42122 11.02986,0.71357 5.9262,0.63958 6.00808,0.64232 8.2953,0.27911 2.1393,-0.33965 6.82835,0.76539 7.12852,1.6799 0.11505,0.3506 -0.61648,1.03128 -1.62577,1.51256 -1.63622,0.78022 -2.22671,0.80107 -5.45195,0.19252 -3.55799,-0.67132 -5.00655,-0.57727 -12.7544,0.82839 -0.85629,0.15536 -1.67283,0.16836 -1.81462,0.0293 z m -37.32727,-2.6815 c 0,-2.14503 0.66609,-2.29323 3.49374,-0.77768 1.06413,0.57028 2.22985,1.03691 2.59054,1.03691 0.36068,0 0.65562,0.20415 0.65562,0.45362 0,0.53992 -2.54466,1.10173 -4.98996,1.10173 -1.65416,0 -1.74994,-0.0991 -1.74994,-1.81458 z m 69.39068,1.12747 c -0.47304,-0.35974 -0.93966,-1.11056 -1.03693,-1.6685 -0.15494,-0.88802 0.11356,-1.00847 2.15604,-0.96726 1.28332,0.0258 3.08241,0.16923 3.99831,0.31852 0.91591,0.14927 1.74276,0.039 1.83749,-0.24548 0.2558,-0.76726 2.4595,0.0855 2.4595,0.9517 0,0.41978 -0.50726,0.74998 -1.16647,0.75926 -0.64159,0.009 -1.61935,0.359 -2.17293,0.77767 -1.22564,0.92698 -4.89494,0.97173 -6.07501,0.0741 z m 30.02288,-0.92726 c -1.64235,-1.63182 -1.73843,-2.14643 -0.61095,-3.27386 1.06397,-1.06403 1.67926,-1.02926 4.59387,0.26006 3.90986,1.72947 3.72488,3.81793 -0.37353,4.21749 -1.84197,0.17955 -2.40661,-0.009 -3.60939,-1.20369 z m 9.28158,0.52863 c -2.52494,-2.02693 1.1197,-4.16712 7.4387,-4.36814 5.17465,-0.16462 12.10893,0.57205 12.35756,1.3129 0.0956,0.28505 0.38728,0.38638 0.648,0.22525 0.26088,-0.1612 0.47424,-0.0651 0.47424,0.21358 0,0.27862 0.13597,0.85995 0.30122,1.29171 0.20051,0.52229 -0.23637,1.06297 -1.30498,1.61568 -2.29947,1.18904 -18.36338,0.95434 -19.91459,-0.29098 z m 30.09519,0.45613 c -1.09236,-0.28973 -2.33145,-1.07423 -2.78133,-1.76105 -0.73871,-1.12728 -0.73587,-1.35409 0.0329,-2.52642 1.16199,-1.77344 3.01875,-2.11089 6.114,-1.1112 1.43691,0.46409 3.03923,0.84376 3.56053,0.84376 0.52145,0 1.30005,0.50269 1.73051,1.1171 1.12299,1.60338 0.27701,2.78604 -2.49162,3.48319 -2.68198,0.67529 -3.46879,0.66953 -6.16436,-0.0456 z m 34.11427,-0.52927 c -1.42585,-0.22564 -3.2351,-0.29611 -4.02087,-0.15654 -2.85739,0.5075 -5.6048,-1.86757 -4.51528,-3.90339 0.50532,-0.94423 0.87646,-1.01151 3.7706,-0.68365 3.77105,0.42716 17.84462,0.37098 20.83768,-0.0832 1.66043,-0.25197 2.43559,-0.0702 3.88849,0.91196 2.37851,1.60789 2.30291,2.56901 -0.25924,3.29517 -1.6794,0.476 -2.38703,0.43974 -3.7201,-0.19046 -1.51117,-0.71449 -1.93595,-0.6863 -5.1845,0.34427 -3.55545,1.12806 -5.95772,1.23169 -10.79678,0.46583 z m 41.46154,-0.795 c -1.76682,-0.92584 -2.57036,-2.56144 -1.74635,-3.55433 1.01168,-1.219 6.66206,-0.58751 7.85288,0.87767 0.49905,0.61393 0.90739,1.29518 0.90739,1.51383 0,1.61557 -4.67171,2.39008 -7.01392,1.16283 z m -14.24286,-0.63865 c -0.32901,-0.61475 -0.47095,-1.44939 -0.31526,-1.85479 0.34485,-0.899 1.95403,-0.96498 2.8039,-0.11505 0.73123,0.73124 0.83447,2.48859 0.14642,2.48859 -0.26177,0 -0.82715,0.13477 -1.25627,0.29941 -0.47693,0.18297 -1.01287,-0.13522 -1.37849,-0.81815 z m 76.47214,0.20187 c -3.5653,-0.56148 -6.11236,-0.62314 -10.79633,-0.26138 -6.67281,0.51537 -8.94255,0.18152 -10.50542,-1.54533 -0.95953,-1.0603 -0.95849,-1.0952 0.0523,-1.84003 0.83597,-0.61614 2.00737,-0.68322 6.21456,-0.35581 5.91454,0.46025 9.06373,0.36392 11.66532,-0.3567 3.00949,-0.83368 7.10955,-0.60447 9.45459,0.52849 1.18037,0.57026 2.5883,1.0369 3.12887,1.0369 1.38298,0 0.87034,1.08391 -1.16453,2.46264 -1.95657,1.32572 -1.78041,1.31852 -8.04906,0.33122 z m -41.35754,-1.03326 c -0.20784,-0.20798 -0.37802,-0.7358 -0.37802,-1.173 0,-0.58358 0.1533,-0.64158 0.57674,-0.21822 0.3172,0.31725 0.48739,0.84507 0.37816,1.17301 -0.10907,0.3279 -0.3689,0.42611 -0.57688,0.21821 z m -126.08479,-6.48517 c -0.84538,-0.23636 -3.76164,-0.3983 -6.48067,-0.35979 -4.31417,0.0611 -5.19556,-0.0819 -6.92099,-1.12262 -1.39059,-0.83886 -2.1399,-1.03 -2.52583,-0.64408 -0.30167,0.30173 -0.92846,0.4154 -1.39269,0.25264 -0.97955,-0.34351 -3.17713,-2.23645 -3.17713,-2.73676 0,-0.18743 1.08863,-0.58986 2.41931,-0.89438 2.15768,-0.49376 2.74786,-0.41097 5.46106,0.76567 2.86113,1.24087 3.08121,1.26551 3.70322,0.41473 0.68357,-0.93489 2.84514,-1.5194 8.62147,-2.33155 3.35329,-0.47145 5.69699,-0.28709 7.39821,0.58208 0.9933,0.5075 3.09436,4.45012 2.549,4.78345 -0.18766,0.11475 -1.74097,0.37779 -3.4519,0.58463 -1.71094,0.20678 -3.46072,0.54692 -3.88849,0.75583 -0.42763,0.20894 -1.46919,0.18652 -2.31457,-0.0498 z m -78.50446,-0.50199 c -2.39092,-0.23055 -4.65723,-0.53813 -5.03629,-0.6836 -0.37891,-0.14538 -1.96539,0.004 -3.52527,0.33055 -2.50596,0.52561 -3.07851,0.47753 -4.9157,-0.41228 -2.11301,-1.02355 -2.84977,-2.18545 -2.12721,-3.35457 0.28688,-0.46435 1.52074,-0.57565 4.36004,-0.39341 2.17801,0.13985 4.07481,0.0683 4.21526,-0.15881 0.14045,-0.22711 2.52405,-0.28795 5.29731,-0.13522 5.89855,0.32493 6.93832,0.34283 12.87034,0.22212 4.85116,-0.0988 6.94759,0.66991 6.94759,2.54711 0,1.51065 -1.8472,2.24376 -4.70011,1.8653 -1.49727,-0.19862 -2.61145,-0.11849 -2.80942,0.20204 -0.3707,0.59976 -4.16237,0.58918 -10.57654,-0.0288 z m 98.84623,-0.0934 c -2.40108,-0.59727 -5.40728,-3.75372 -4.55413,-4.78169 0.30899,-0.37217 1.4284,-0.8303 2.48759,-1.01807 6.8914,-1.22176 9.42695,-0.78052 10.58805,1.84258 0.36531,0.82521 0.84045,1.50032 1.05605,1.50032 0.67012,0 0.42957,1.91559 -0.31855,2.53657 -0.81938,0.68 -6.39804,0.63197 -9.25916,-0.0796 z m -66.24328,-0.21145 c -3.80975,-0.50209 -4.74433,-0.84573 -5.52009,-2.02988 -0.79339,-1.21074 -0.78502,-1.33973 0.13298,-2.06483 1.36041,-1.07399 15.78077,-0.82365 18.08234,0.31396 1.95567,0.96656 2.24613,2.30394 0.68565,3.15765 -1.02243,0.55946 -10.51169,1.00128 -13.38133,0.6231 z m 95.39552,-0.64937 c -3.34268,-0.66051 -6.07052,-3.14583 -5.39233,-4.91291 0.27118,-0.70681 2.42199,-0.76905 18.48799,-0.53531 15.76314,0.22931 18.37653,0.38 19.65148,1.13324 2.07042,1.22294 1.88978,2.59495 -0.47349,3.59334 -1.72976,0.7308 -2.1792,0.73778 -4.0766,0.0634 -1.8218,-0.64759 -2.46428,-0.65588 -4.40696,-0.0568 -1.68553,0.51985 -3.01233,0.57449 -5.12578,0.21115 -2.99664,-0.51524 -5.02434,-0.43994 -11.40594,0.4236 -4.32971,0.58593 -4.68053,0.58983 -7.25837,0.0804 z m 45.98713,-0.67025 c -2.23762,-0.59348 -3.57592,-2.23834 -3.14904,-3.87054 0.50845,-1.94463 4.78198,-2.32248 8.28334,-0.73235 2.92014,1.3262 3.2372,2.79704 0.89992,4.17601 -1.94731,1.14899 -3.02428,1.22516 -6.03422,0.42688 z m 20.24331,-1.76824 c -1.44991,-0.75977 -1.85901,-1.93796 -0.88244,-2.54147 0.61738,-0.38158 1.87424,0.52954 2.5992,1.88412 0.68103,1.27247 -0.0254,1.54322 -1.71676,0.65735 z m 20.84783,-0.42381 c -0.27298,-0.27306 -0.49635,-0.94711 -0.49635,-1.49792 0,-0.86749 0.27477,-0.96463 2.05354,-0.72606 1.45678,0.1954 2.24076,0.0498 2.69811,-0.50116 0.52041,-0.62723 1.39702,-0.70742 4.55667,-0.41694 4.88075,0.44867 7.4009,2.20818 4.56025,3.18376 -1.68867,0.57998 -12.78517,0.5453 -13.37222,-0.0412 z m 25.4305,-0.69983 c -1.06532,-0.86268 -1.08489,-0.98125 -0.27298,-1.6551 1.85557,-1.54 10.11934,-1.04378 10.11934,0.60767 0,1.95702 -7.71004,2.7772 -9.84636,1.04743 z m -7.76219,-0.34423 c -1.35802,-1.63629 0.97702,-2.50846 2.86322,-1.06946 0.87108,0.66458 0.90186,0.83779 0.2286,1.2882 -1.11239,0.74444 -2.36611,0.65575 -3.09182,-0.21874 z m -200.2945,-5.79162 c -0.53685,-0.53703 -4.51753,-1.12522 -4.77661,-0.70584 -0.41044,0.66383 -7.67373,-0.075 -9.58787,-0.97519 -1.18082,-0.55548 -1.81448,-1.21421 -1.81448,-1.88638 0,-0.9119 0.53445,-1.09674 4.56473,-1.57903 2.51075,-0.30039 5.31031,-0.4469 6.22144,-0.32561 0.91112,0.12133 3.34567,0.3271 5.40997,0.45733 3.22823,0.20366 3.89491,0.41703 4.76659,1.52526 1.36803,1.73908 0.91411,2.56364 -1.78549,3.24344 -2.66061,0.66991 -2.58082,0.6634 -2.99828,0.24602 z m -54.5445,-0.913 c -3.16966,-0.70488 -3.88849,-1.14084 -3.88849,-2.3582 0,-1.55949 1.08833,-1.992 5.58747,-2.22033 3.23839,-0.1643 4.43804,-0.0409 4.88897,0.50221 0.42986,0.51793 1.26254,0.63054 2.96705,0.40143 2.29903,-0.30912 4.52903,-0.34615 9.36854,-0.1556 1.28316,0.0502 3.42859,-0.084 4.76749,-0.29884 3.38735,-0.54357 6.53221,0.35647 6.94131,1.98656 0.5467,2.1781 -0.0941,2.48488 -4.68875,2.24376 -3.18729,-0.16727 -4.70728,-0.5064 -6.08442,-1.35752 -2.19295,-1.35528 -3.63135,-1.43044 -5.38547,-0.2811 -1.24417,0.81521 -8.66584,2.30397 -10.84459,2.17531 -0.57031,-0.0336 -2.2034,-0.32064 -3.62911,-0.63768 z m 73.62028,0 c -2.21804,-0.96671 -3.0307,-2.12531 -2.6249,-3.74237 0.34231,-1.3636 0.34231,-1.3636 5.11294,-1.07993 2.6237,0.15597 6.17033,0.41506 7.88127,0.57574 1.71079,0.16069 4.2946,0.0323 5.74182,-0.28511 2.12839,-0.46692 3.33655,-0.41675 6.32378,0.26264 2.03083,0.46198 4.41203,0.83991 5.29148,0.83991 1.82195,0 2.55393,1.14313 1.52552,2.38237 -0.54895,0.6613 -1.3265,0.74834 -4.15161,0.46462 -2.20296,-0.2212 -3.86608,-0.14045 -4.54083,0.22071 -0.82148,0.43964 -1.47666,0.37337 -2.8677,-0.29001 -1.56525,-0.74637 -2.11764,-0.77178 -4.18746,-0.19224 -1.31126,0.36708 -2.50851,0.86883 -2.66061,1.11484 -0.4345,0.70324 -9.10542,0.48638 -10.8437,-0.27117 z m 39.35974,0.12057 c -1.67,-0.44262 -3.00247,-2.44118 -2.50014,-3.75004 0.28344,-0.73883 3.87654,-1.87336 5.93292,-1.87336 0.61394,0 1.79371,0.48248 2.62191,1.0722 2.6751,1.90473 1.58916,4.31916 -2.12347,4.72177 -1.28316,0.13911 -3.05222,0.0625 -3.93122,-0.17057 z m 25.9657,-1.30635 c -1.42586,-0.44197 -2.88398,-1.03946 -3.24048,-1.32764 -1.03126,-0.83402 -0.75469,-2.28176 0.60647,-3.17353 1.09131,-0.7151 2.17426,-0.75617 8.33474,-0.3159 3.89431,0.27835 7.47098,0.70445 7.9482,0.94696 0.9431,0.47927 5.80831,0.37837 8.31637,-0.17254 0.86002,-0.18883 2.01424,-0.10205 2.56513,0.19271 0.75633,0.40478 1.62622,0.27225 3.55052,-0.54073 2.54869,-1.07681 2.54869,-1.07681 5.63902,0.14942 2.79896,1.11066 3.09017,1.37021 3.09017,2.75529 0,1.18933 -0.28807,1.60929 -1.29616,1.88969 -2.26362,0.62967 -6.21696,0.48978 -7.40614,-0.26206 -0.70448,-0.44546 -3.48223,-0.86465 -7.18754,-1.08478 -5.54145,-0.32921 -6.08338,-0.28006 -6.57301,0.59634 -0.46154,0.82585 -1.29347,0.96833 -6.14448,1.05281 -3.85278,0.0671 -6.42285,-0.15411 -8.20281,-0.70598 z m 43.89967,-1.36927 c -1.28765,-1.37072 -1.43901,-2.56197 -0.43181,-3.39786 0.83104,-0.68978 6.66998,-0.68412 8.97976,0.009 3.36106,1.0081 2.60936,3.7382 -1.172,4.2565 -4.48316,0.61449 -6.17018,0.41612 -7.37595,-0.86733 z m 22.51783,0.114 c -0.79324,-0.62401 -1.3516,-1.58302 -1.3516,-2.32166 0,-1.09026 0.24026,-1.25853 1.7964,-1.25853 2.63118,0 4.00085,2.98733 1.88829,4.11799 -0.75319,0.40315 -1.29586,0.278 -2.33309,-0.5378 z m 28.71879,0.62543 c -0.99808,-0.21148 -2.28364,-0.63926 -2.85709,-0.95075 -0.5733,-0.31142 -1.65535,-0.44906 -2.40451,-0.30585 -2.67301,0.51095 -4.69323,-1.87505 -2.86934,-3.38877 0.42822,-0.35537 3.47417,-0.55654 8.16576,-0.5393 4.11545,0.0149 7.59932,-0.0134 7.74201,-0.0642 1.0063,-0.35591 7.75741,-0.28186 8.76909,0.0964 0.79398,0.29658 2.66375,0.23036 5.11263,-0.18115 3.6312,-0.61012 3.97336,-0.58361 5.74765,0.44533 1.03753,0.60171 1.8865,1.50301 1.8865,2.00283 0,1.22731 -3.32446,2.42629 -7.25837,2.61766 -9.68873,0.47145 -20.45607,0.60235 -22.03433,0.26798 z m 40.48691,-1.25473 c -2.19563,-2.19575 1.69839,-3.5203 5.52592,-1.8798 1.91712,0.82171 2.96676,2.01024 1.81463,2.05462 -0.21396,0.007 -1.82569,0.0997 -3.58175,0.20306 -1.87125,0.11027 -3.4271,-0.0462 -3.7588,-0.37788 z M 342.95264,427.8765 c -1.71094,-0.26696 -5.44389,-0.53532 -8.2953,-0.59631 -5.4143,-0.11595 -7.52342,-0.76188 -7.50968,-2.30009 0.0194,-2.2138 0.82043,-2.32642 11.13879,-1.5666 0.85554,0.0631 3.0948,-0.0532 4.97637,-0.25841 2.55333,-0.27844 3.89148,-0.17639 5.27639,0.40223 2.43111,1.01584 3.00038,2.69952 1.34368,3.9736 -1.33949,1.03013 -2.25196,1.07561 -6.93025,0.34558 z m 21.14143,-0.57902 c -2.2805,-0.83857 -4.81022,-3.15148 -4.81022,-4.39811 0,-0.76307 0.46736,-1.11369 1.82344,-1.36813 1.00286,-0.18814 2.10688,-0.16677 2.45352,0.0471 1.56152,0.96512 20.51165,1.87904 24.93594,1.20263 2.45397,-0.37515 3.26872,-0.30752 4.27981,0.35489 1.06248,0.69619 1.37565,0.71242 2.09851,0.10892 1.06965,-0.89297 7.28332,-1.87369 10.86596,-1.71509 2.87397,0.1273 5.11517,1.3106 5.68593,3.00205 0.1781,0.52777 0.11505,1.16806 -0.13895,1.42291 -0.8799,0.87987 -9.09825,0.61321 -14.8045,-0.48036 -1.35444,-0.25963 -2.46264,-0.2831 -2.46264,-0.0521 0,0.70012 -4.38335,1.08158 -20.73816,1.80451 -2.70887,0.11983 -5.50858,0.32286 -6.22144,0.45132 -0.71285,0.12835 -2.04771,-0.0432 -2.96645,-0.38058 z m 69.58791,-1.37374 c -0.8554,-0.22768 -2.74399,-0.44152 -4.19688,-0.47523 -2.87906,-0.0669 -4.59686,-1.27559 -4.26905,-3.00391 0.13298,-0.70143 0.7142,-0.97683 2.24882,-1.06577 1.13824,-0.0659 3.58593,-0.36339 5.43941,-0.66099 2.23209,-0.35834 4.66633,-0.37461 7.20891,-0.0483 3.24078,0.41607 4.03372,0.71977 5.09037,1.94949 1.25164,1.45661 1.25164,1.45661 0.12252,2.37153 -0.78756,0.63776 -2.03516,0.91494 -4.11829,0.91494 -1.6437,0 -3.65929,0.0973 -4.47912,0.21596 -0.81983,0.11893 -2.19041,0.0297 -3.04595,-0.19785 z m 27.47821,-0.65464 c -1.42586,-0.31037 -4.51319,-0.53171 -6.86093,-0.4919 -2.34773,0.0399 -4.85131,-0.14912 -5.56341,-0.41992 -2.68123,-1.01942 0.27073,-3.21654 4.15534,-3.09274 1.12613,0.0356 3.98486,-0.10578 6.35292,-0.31513 2.92208,-0.25812 5.18331,-0.16987 7.03708,0.27488 2.39152,0.57373 2.94285,0.54588 4.43131,-0.22388 2.05773,-1.06404 9.81453,-0.89898 11.18451,0.23804 1.47426,1.22363 1.95627,2.57715 1.22937,3.45288 -0.54341,0.655 -1.92848,0.77135 -7.94238,0.66723 -4.00622,-0.0693 -8.21715,0.009 -9.35777,0.17447 -1.14063,0.1652 -3.24034,0.0465 -4.66604,-0.26393 z m 111.37203,-0.56778 c -1.08803,-0.23458 -3.21075,-0.29005 -4.71729,-0.12311 -2.43709,0.27002 -2.8798,0.16256 -4.01803,-0.97558 -1.51237,-1.51238 -1.57318,-1.99487 -0.39983,-3.16826 0.75334,-0.75333 1.58782,-0.83324 5.83266,-0.55836 16.72715,1.0832 17.98581,1.25138 19.57124,2.61513 1.35384,1.16445 1.35384,1.16445 -0.75095,2.00664 -2.27363,0.90973 -11.671,1.03295 -15.5178,0.20351 z m -77.60261,-0.90715 c -2.12899,-1.67474 -1.54224,-4.11007 0.99032,-4.11007 2.41004,0 3.81677,3.58206 1.82523,4.64793 -1.30244,0.697 -1.22758,0.71132 -2.81555,-0.53786 z m 21.77151,-0.004 c -1.85258,-1.45724 -1.82284,-3.42847 0.0628,-4.19056 1.66103,-0.67121 3.98695,-0.62698 5.34841,0.10175 0.52563,0.28136 2.89115,0.60236 5.25652,0.71329 6.94773,0.32588 11.08828,1.82074 9.42441,3.40225 -0.25176,0.23926 -4.56907,0.57235 -9.594,0.74005 -8.69647,0.29038 -9.20164,0.25345 -10.4987,-0.76669 z m 32.59623,0.27513 c -0.57031,-0.0979 -2.32219,-0.31725 -3.89282,-0.48734 -1.57079,-0.17014 -3.18909,-0.51513 -3.59594,-0.76664 -2.60548,-1.61028 6.18005,-3.27918 9.6439,-1.83192 1.5938,0.666 2.72157,2.0354 2.14827,2.60875 -0.36382,0.36378 -3.15845,0.67366 -4.30341,0.47715 z m -226.86698,-6.15075 c -0.11953,-0.11684 -2.25913,-0.34278 -4.75628,-0.50222 -2.49715,-0.15948 -4.97607,-0.52316 -5.50873,-0.80827 -0.69253,-0.37059 -1.56466,-0.28411 -3.05999,0.30327 -1.80537,0.70914 -2.69244,0.73623 -6.48246,0.19822 -3.85278,-0.54687 -4.46149,-0.77838 -4.96771,-1.88909 -0.43449,-0.95361 -0.41821,-1.5196 0.0657,-2.29425 0.91038,-1.45783 2.00872,-1.67106 5.38876,-1.04622 3.64195,0.67327 7.06711,0.70656 7.72483,0.075 0.27089,-0.26004 1.77578,-0.57935 3.34403,-0.70958 1.56824,-0.13014 4.41786,-0.53382 6.33245,-0.89682 3.07179,-0.58257 3.86383,-0.55146 6.73975,0.26459 1.79251,0.50856 3.93645,1.00786 4.76435,1.10962 0.8279,0.1016 2.30769,0.79689 3.28844,1.54494 1.50908,1.15101 1.67403,1.46905 1.07339,2.06972 -1.22145,1.22152 -13.09401,3.41878 -13.94627,2.58103 z m 37.11271,-1.22668 c -5.34587,-0.49119 -11.23247,-3.34883 -9.81603,-4.76527 0.74094,-0.74083 12.05932,-0.76142 14.7413,-0.0269 1.37849,0.37766 3.46087,0.50684 5.08992,0.31575 2.11794,-0.24847 3.10915,-0.11519 4.27727,0.57469 3.04057,1.79615 1.02378,3.36462 -4.12651,3.20926 -1.59917,-0.0483 -4.19075,0.11983 -5.75915,0.37376 -1.56824,0.25379 -3.55141,0.39715 -4.4068,0.31858 z m -18.92369,-1.4125 c 0,-0.42774 0.23339,-0.77768 0.51847,-0.77768 0.28523,0 0.51846,0.34994 0.51846,0.77768 0,0.42774 -0.23323,0.77768 -0.51846,0.77768 -0.28508,0 -0.51847,-0.34994 -0.51847,-0.77768 z m 42.00899,0.0503 c -0.98717,-0.43954 -1.50967,-2.34537 -0.6622,-2.41558 2.60518,-0.21607 5.37814,-0.62406 6.76366,-0.99508 2.45158,-0.65657 10.90465,-0.0245 11.81249,0.88353 0.90231,0.90233 0.1285,2.68829 -1.22624,2.82727 -3.07643,0.3159 -15.81902,0.0868 -16.68771,-0.30014 z m 43.536,0.16944 c -0.71286,-0.29795 -2.57933,-0.50843 -4.14758,-0.46789 -4.73252,0.12252 -5.09276,0.0423 -6.45974,-1.43156 -1.43975,-1.55272 -1.67613,-2.83522 -0.66908,-3.63043 0.39027,-0.3081 4.46448,-0.4501 10.23947,-0.35685 5.27534,0.0852 11.61526,-0.0781 14.08881,-0.36295 3.80676,-0.43832 4.74298,-0.39086 6.09652,0.30907 1.05919,0.54775 1.90398,0.67236 2.50178,0.369 1.09476,-0.55549 11.35365,-0.25394 14.75878,0.43384 1.58274,0.31964 2.92552,0.3142 3.79257,-0.0154 2.32622,-0.88439 5.31898,-0.63547 5.92261,0.49247 0.29524,0.55154 0.53669,1.23338 0.53669,1.51517 0,0.82096 -3.49,1.7426 -5.18704,1.36986 -0.90231,-0.19816 -2.5874,-0.0173 -4.01624,0.43143 -1.35414,0.4251 -4.73567,0.90403 -7.51476,1.06433 -5.05272,0.29134 -5.05287,0.2913 -6.8282,-1.26743 -1.77534,-1.55885 -1.77534,-1.55885 -3.50166,-0.50639 -0.94953,0.57886 -2.54287,1.05889 -3.54081,1.06677 -0.99808,0.007 -2.74786,0.23148 -3.88849,0.49699 -3.3766,0.78604 -10.7642,1.0831 -12.18363,0.48997 z m 83.19396,-1.45933 c -1.34174,-0.5839 -2.48356,-1.95356 -2.6751,-3.20897 -0.2056,-1.34641 1.77951,-2.43874 3.98919,-2.19497 6.30959,0.69585 9.37675,0.74417 12.40357,0.19555 2.43291,-0.44099 5.59599,-0.48908 11.04451,-0.16779 7.01228,0.41347 7.74277,0.55129 8.95406,1.68919 1.05232,0.98875 1.18575,1.36197 0.65996,1.84815 -1.36385,1.26123 -3.77135,1.66581 -6.90784,1.16096 -2.12122,-0.34149 -3.91718,-0.31379 -5.75661,0.0889 -1.47068,0.32189 -3.68693,0.54087 -4.92542,0.48667 -1.23834,-0.0541 -5.28461,0.0498 -8.99156,0.23147 -3.70695,0.18152 -7.21459,0.12356 -7.79476,-0.1291 z m -24.89142,-1.32916 c -0.69985,-0.69995 -1.27255,-1.61742 -1.27255,-2.03886 0,-0.98548 2.00319,-1.63258 2.74816,-0.88771 0.31347,0.31346 0.95371,0.56994 1.42272,0.56994 0.46916,0 1.27121,0.46227 1.7825,1.02722 2.17143,2.3994 -2.3319,3.67838 -4.68083,1.32941 z m 79.05282,1.0705 c -0.16182,-0.16506 -1.79491,-0.42701 -3.62911,-0.58213 -5.08186,-0.4298 -6.15002,-0.75224 -7.05203,-2.12871 -0.4566,-0.69694 -0.74034,-1.34809 -0.63052,-1.44686 0.46034,-0.41363 6.61798,-1.40554 9.01367,-1.45198 5.57403,-0.10817 12.08682,0.75756 14.05579,1.86823 2.43664,1.37451 2.66091,2.04601 0.9443,2.82811 -1.43258,0.65267 -12.19858,1.4268 -12.7021,0.91334 z m -220.85473,-8.87743 c -0.72854,-0.38403 -1.77787,-1.54008 -2.33189,-2.56901 -0.87975,-1.63336 -0.90904,-1.93292 -0.231,-2.36162 0.92114,-0.58233 6.55851,-0.60562 8.02366,-0.0332 0.56419,0.22043 1.84735,0.2029 2.85156,-0.039 1.00421,-0.24184 4.74209,-0.4588 8.30651,-0.4821 3.71038,-0.0245 6.76231,-0.27593 7.13973,-0.58857 0.78845,-0.65329 8.52479,0.83681 10.35586,1.99463 1.00047,0.63271 1.07413,0.88065 0.52339,1.76259 -0.36068,0.57751 -1.43646,1.14802 -2.46039,1.30477 -1.00078,0.15319 -2.58082,0.48225 -3.51107,0.73129 -0.93025,0.24895 -2.33011,0.28161 -3.11065,0.0725 -0.78068,-0.2091 -2.35939,-0.20478 -3.50808,0.009 -1.14884,0.21432 -6.2815,0.5037 -11.40594,0.64306 -7.20427,0.1959 -9.6176,0.095 -10.64169,-0.44482 z m 72.03994,0.0393 c -0.12401,-0.12446 -1.69181,-0.36319 -3.48283,-0.53049 -3.60745,-0.33704 -4.90017,-0.93914 -5.85776,-2.7287 -1.00645,-1.88062 -0.0523,-2.29689 5.84177,-2.54732 2.95182,-0.12551 7.58319,-0.44446 10.29221,-0.70897 7.07414,-0.6907 16.74972,-0.73574 21.23347,-0.0991 2.12586,0.30198 4.04776,0.43615 4.27099,0.29817 0.22322,-0.13791 1.75008,-0.60906 3.39303,-1.04699 6.10803,-1.62796 12.57884,0.0149 12.57884,3.19279 0,2.00581 -1.56586,2.84146 -5.32436,2.84146 -1.8856,0 -3.56441,0.22043 -3.73086,0.48978 -0.18303,0.29611 -1.27136,0.19809 -2.75249,-0.24798 -1.86558,-0.56187 -3.19148,-0.61974 -5.56058,-0.24267 -3.20507,0.51021 -9.747,0.70152 -19.70124,0.57638 -3.13664,-0.0394 -6.6362,0.15934 -7.77683,0.44171 -2.31785,0.57387 -3.09106,0.64428 -3.42336,0.31181 z m -32.76043,-2.09258 c -1.33113,-0.57805 -2.42484,-1.18857 -2.43052,-1.35665 -0.0224,-0.66464 2.91701,-1.57932 6.00165,-1.86731 3.54678,-0.33122 4.87537,0.31877 4.87537,2.38528 0,1.85009 -4.97876,2.34447 -8.44636,0.83868 z m 135.83701,0.44151 c -0.37144,-0.3715 -8.28991,-1.38167 -10.21974,-1.30376 -0.713,0.0284 -3.27918,0.19444 -5.70312,0.36818 -4.00145,0.28676 -4.53799,0.21256 -5.83251,-0.80625 -1.57616,-1.24042 -1.83316,-2.6556 -0.65936,-3.62975 0.98822,-0.82022 2.44799,-0.82324 5.97341,-0.0135 4.03506,0.9278 7.65774,1.14025 8.82182,0.51736 0.5479,-0.29324 2.57844,-0.65101 4.51215,-0.79503 1.93371,-0.14388 4.79901,-0.52359 6.36726,-0.84356 5.16896,-1.05463 10.0397,-0.37135 12.26671,1.72084 1.72543,1.62092 1.52252,2.76779 -0.67401,3.81013 -1.44811,0.68716 -2.58381,0.81668 -4.88179,0.55668 -1.87917,-0.21264 -3.11886,-0.13791 -3.32804,0.2005 -0.35441,0.57343 -6.09876,0.76129 -6.64278,0.21719 z m 38.44548,0.0798 c -0.17751,-0.17753 -2.69737,-0.43536 -5.59973,-0.573 -7.60754,-0.36074 -10.74493,-2.04235 -9.56202,-5.12502 0.39908,-1.0398 3.1459,-2.51616 3.52885,-1.89661 0.49755,0.80505 6.35277,1.93286 12.47992,2.40387 4.79483,0.36857 8.94988,1.28993 9.65631,2.14129 0.64696,0.7794 0.83223,0.69186 -4.21257,1.99135 -4.78736,1.23332 -5.9244,1.4245 -6.29076,1.05812 z m -81.34213,-1.68078 c -2.91103,-2.01216 -3.18744,-2.77596 -1.44588,-3.99577 1.82793,-1.2803 4.85355,-0.0883 6.21008,2.44651 1.16378,2.17442 -2.25271,3.28537 -4.7642,1.54926 z m 105.80831,-0.64716 c -1.23416,-0.93083 -1.23461,-0.93573 -0.14045,-1.28318 0.60438,-0.19178 2.51403,-0.0922 4.24365,0.22149 1.72961,0.31365 3.35403,0.44085 3.60998,0.28275 0.6247,-0.38614 3.14441,0.60121 3.14441,1.23213 0,0.28713 -2.05369,0.49684 -4.80963,0.49123 -3.81931,-0.007 -5.06467,-0.20231 -6.04856,-0.94442 z m -217.88453,-6.52072 c -0.1524,-0.15237 -1.88276,-0.29611 -3.84516,-0.31939 -1.9624,-0.0235 -4.73462,-0.33116 -6.16032,-0.68433 -1.69958,-0.421 -3.66362,-0.50461 -5.70297,-0.2428 -8.07118,1.03599 -14.2959,0.32036 -16.36423,-1.88123 -1.15497,-1.22944 -1.15497,-1.22944 0.33723,-1.79678 0.82073,-0.31205 3.71263,-0.52138 6.42658,-0.46511 5.5041,0.11416 10.05658,-0.34326 11.77887,-1.18331 0.70613,-0.34441 2.38703,-0.42016 4.40681,-0.19852 4.13457,0.45356 3.58652,0.46826 8.44979,-0.22625 8.74099,-1.24835 15.1858,-0.18354 16.08766,2.65788 0.56419,1.77726 -0.65488,2.39431 -6.99629,3.54161 -6.11535,1.10639 -7.937,1.27914 -8.41797,0.79823 z m -66.07773,-1.52163 c -0.5984,-0.41896 -1.2101,-1.22935 -1.35951,-1.80087 -0.22293,-0.85258 0.0493,-1.09913 1.51475,-1.37422 0.98269,-0.1843 3.11722,-0.16701 4.74373,0.0384 4.22288,0.5334 7.24193,0.51458 10.21541,-0.0636 4.79962,-0.9334 9.84577,1.00388 8.09867,3.10909 -0.66877,0.80582 -3.30114,0.82358 -15.99025,0.10773 -2.41811,-0.13642 -4.39425,-0.0269 -4.56712,0.25249 -0.43674,0.70661 -1.4027,0.60883 -2.65568,-0.26878 z m 112.58377,-0.3307 c -1.42585,-0.24871 -4.88911,-0.54366 -7.69629,-0.65546 -5.46346,-0.21753 -7.66089,-1.11917 -8.25391,-3.38664 -0.22935,-0.877 0.0299,-1.11712 1.51012,-1.39463 0.98284,-0.18442 2.6509,-0.19891 3.70666,-0.0323 1.05575,0.1666 3.90268,0.0105 6.32647,-0.34782 2.68899,-0.3971 5.22619,-0.48685 6.5086,-0.23022 1.15587,0.23132 3.37227,0.23363 4.92528,0.004 2.00109,-0.29437 4.18283,-0.16168 7.4898,0.45531 4.69592,0.87631 11.9126,0.79718 12.48979,-0.13686 0.36531,-0.59107 5.3765,-0.56498 7.26359,0.038 0.82686,0.26412 2.58815,0.62488 3.91419,0.80174 5.10965,0.68155 5.95025,3.96312 1.0069,3.93106 -6.45572,-0.0418 -22.14101,0.55229 -26.67362,1.01053 -5.8742,0.59375 -8.86202,0.57998 -12.51758,-0.0577 z m 127.0001,-0.92687 c -4.27771,-1.05089 -4.83577,-1.34353 -5.39772,-2.83013 -0.57912,-1.53196 0.19887,-2.78089 1.9751,-3.17103 0.81968,-0.18004 5.96534,-0.0657 11.43478,0.25375 11.00312,0.64293 13.7069,1.29642 13.42855,3.24566 -0.2552,1.78645 -2.26033,2.36142 -9.23929,2.64926 -3.56247,0.14703 -6.94385,0.3756 -7.51417,0.50819 -0.57031,0.13253 -2.67958,-0.16256 -4.68725,-0.6557 z m -71.59603,-0.12297 c -1.21906,-0.61243 -2.44635,-2.84458 -1.97943,-3.60022 0.48096,-0.77811 4.5731,-0.54793 5.82295,0.32748 1.11194,0.77888 1.64773,3.34055 0.69866,3.34055 -0.24952,0 -1.12449,0.10996 -1.94432,0.24423 -0.81968,0.13432 -1.98885,-0.006 -2.59786,-0.31204 z m 28.32629,0.0312 c -1.28331,-0.24453 -3.14964,-0.57411 -4.14772,-0.73234 -2.8178,-0.44686 -3.59056,-0.78219 -4.13144,-1.79308 -0.37936,-0.70871 -0.24564,-1.16797 0.54999,-1.88783 0.89618,-0.81118 1.86782,-0.93863 6.59348,-0.86522 3.04848,0.0471 7.4892,0.22316 9.86862,0.39052 2.54361,0.17898 4.57848,0.095 4.93842,-0.20375 0.8902,-0.73878 5.06437,-0.79012 10.69592,-0.13164 2.70887,0.31677 5.10606,0.57998 5.32705,0.58493 0.22098,0.004 0.63575,0.62487 0.92203,1.37762 0.40879,1.07544 0.33379,1.57478 -0.35023,2.33073 -0.8025,0.88664 -1.83749,0.9609 -13.20338,0.94649 -6.78293,-0.007 -12.87199,0.0841 -13.5312,0.20625 -0.65906,0.12193 -2.24838,0.0217 -3.53154,-0.22273 z m 75.82383,-1.08258 c -0.64158,-0.32702 -1.16647,-1.0313 -1.16647,-1.56502 0,-0.5389 0.51877,-1.15363 1.16647,-1.38218 1.13883,-0.40184 11.26788,0.0345 20.09016,0.86566 2.63297,0.248 4.66768,0.2198 5.05496,-0.0701 0.46453,-0.34782 0.64801,-0.18936 0.64801,0.55971 0,1.38056 -0.88602,1.65794 -3.66467,1.14722 -1.26359,-0.2323 -3.46415,-0.21726 -4.88986,0.0332 -1.4257,0.25059 -4.34196,0.44431 -6.48067,0.43038 -2.1387,-0.0134 -5.1715,0.10997 -6.7399,0.27512 -1.72423,0.18163 -3.31264,0.0653 -4.01803,-0.29418 z m -205.10637,-8.02119 c -0.98733,-0.53495 -2.08208,-0.69149 -3.27276,-0.46813 -0.98404,0.18463 -7.66551,0.28275 -14.84768,0.21807 -17.59002,-0.15834 -17.93935,-0.1533 -20.34565,0.29485 -1.94806,0.36276 -2.24345,0.25477 -4.01818,-1.46863 -1.05337,-1.02313 -1.91549,-2.34149 -1.91549,-2.92978 0,-0.96073 0.19783,-1.0292 1.94417,-0.67321 2.45113,0.49952 3.71204,0.4881 7.90652,-0.0717 4.58162,-0.61151 14.04832,-0.71481 15.16848,-0.16548 0.55522,0.27234 2.38434,0.1424 4.68426,-0.33265 2.41782,-0.49943 6.37414,-0.75905 11.01343,-0.72265 7.24029,0.0568 7.24029,0.0568 9.72563,1.857 2.31308,1.67531 2.4356,1.87547 1.76563,2.88447 -0.41418,0.62372 -1.80014,1.36437 -3.2632,1.74366 -3.08165,0.79905 -2.74144,0.8115 -4.54516,-0.16582 z m 47.10743,-0.1982 c -0.85539,-0.2079 -2.22118,-0.7371 -3.03519,-1.17613 -1.24506,-0.67155 -3.07762,-0.75189 -11.55401,-0.50616 -10.07436,0.29202 -10.07436,0.29202 -11.61123,-1.1804 -1.68255,-1.61207 -1.94432,-2.88693 -0.7895,-3.84542 0.80743,-0.67006 7.37013,-0.37874 11.6955,0.51908 1.28317,0.26639 3.14964,0.57166 4.14772,0.67837 0.99794,0.10683 2.25331,0.37857 2.78956,0.60403 0.61259,0.25765 1.57601,0.0982 2.59217,-0.42932 1.75681,-0.91177 6.75858,-1.1635 13.17306,-0.6629 2.07834,0.16217 7.99019,0.38332 13.13749,0.4914 8.34221,0.17529 9.50868,0.30836 10.73791,1.2253 1.62532,1.21225 1.9878,2.46535 1.04261,3.60424 -0.5854,0.70537 -1.48652,0.76434 -6.39386,0.41853 -9.83485,-0.69306 -14.97125,-0.77604 -17.11847,-0.27657 -3.10018,0.72118 -7.06009,0.96196 -8.81376,0.53595 z m 75.43521,-1.05286 c -0.99808,-0.23809 -3.6811,-0.59356 -5.96235,-0.78996 -4.86551,-0.41892 -5.75019,-0.7848 -6.08099,-2.5151 -0.36203,-1.89421 0.47484,-2.37544 4.13129,-2.37544 1.80775,0 5.43567,-0.23886 8.06206,-0.53083 2.85425,-0.3173 6.37966,-0.35831 8.76356,-0.10205 2.63311,0.2832 4.65931,0.23392 5.96235,-0.14508 3.47417,-1.0102 7.57871,-0.56662 10.23618,1.10634 2.47279,1.55672 3.56067,3.59911 2.32428,4.3633 -1.06189,0.65629 -14.91925,0.56945 -17.65188,-0.11056 -2.03486,-0.5064 -2.74323,-0.45796 -4.66604,0.3192 -3.14605,1.2716 -3.09226,1.26338 -5.11846,0.78003 z m 79.58263,-1.07446 c -1.71093,-0.24341 -4.2027,-0.539 -5.53757,-0.65694 -2.86201,-0.25293 -3.53542,-0.59183 -3.53542,-1.7793 0,-1.7252 2.63566,-2.23363 11.39787,-2.19866 4.58849,0.0182 9.32685,0.2539 10.52978,0.52344 1.35353,0.30331 2.97631,0.30721 4.25769,0.0105 3.58473,-0.83094 7.26195,-0.61753 8.6234,0.50064 1.22385,1.00536 1.22385,1.00536 0.0807,2.16524 -1.0075,1.02259 -1.61262,1.14779 -5.11099,1.05746 -2.18264,-0.0563 -5.26205,-0.21254 -6.8433,-0.3471 -1.74724,-0.14867 -3.8976,0.059 -5.48184,0.52949 -2.83422,0.84169 -3.69798,0.86186 -8.38091,0.19564 z m -112.12896,-1.11209 c -2.19413,-2.33549 1.18456,-3.39842 4.45821,-1.40259 2.24434,1.36836 1.87499,2.27785 -1.00272,2.46904 -1.87334,0.12446 -2.52598,-0.0769 -3.45549,-1.06645 z m 66.82197,-0.098 c -1.62652,-1.79133 -2.28484,-3.37646 -1.50579,-3.626 0.84598,-0.27099 7.66551,-0.99998 8.70648,-0.93077 2.54167,0.16918 9.78151,1.33743 10.8159,1.74543 0.69971,0.27593 1.4774,0.28963 1.81448,0.0317 0.78517,-0.60037 4.42862,-0.29975 5.8981,0.48673 3.88849,2.08105 -2.49027,4.11016 -8.06938,2.5669 -1.73484,-0.47989 -2.41153,-0.48061 -2.98663,-0.004 -0.47364,0.39302 -3.09779,0.64894 -7.22594,0.70465 -5.93695,0.0802 -6.56329,0 -7.44722,-0.97534 z m -208.79435,-8.01589 c -2.57769,-1.56756 -4.22527,-4.85227 -2.66315,-5.30931 0.3565,-0.10429 3.44772,-0.11266 6.86959,-0.0187 12.23937,0.33626 16.17836,0.33342 23.70641,-0.0164 4.19912,-0.1953 8.56514,-0.63389 9.70263,-0.97472 1.62098,-0.48564 2.89982,-0.47724 5.91752,0.039 4.33345,0.74129 4.61285,0.86614 5.43463,2.42749 0.47379,0.90055 0.41312,1.32789 -0.31123,2.19346 -0.77128,0.92144 -1.82718,1.14825 -7.39179,1.58781 -5.04092,0.3981 -7.06891,0.36085 -9.073,-0.16677 -1.54882,-0.40781 -4.55054,-0.61254 -7.50624,-0.51188 -8.68407,0.29563 -22.26697,1.1452 -22.71267,1.42066 -0.23741,0.14672 -1.12523,-0.15482 -1.9727,-0.67021 z m 77.04917,-1.31669 c -2.26765,-0.90523 -3.88894,-0.97346 -5.10352,-0.21495 -1.61352,1.00762 -7.59484,0.0844 -9.42367,-1.45441 -3.37899,-2.84323 -0.93144,-4.30165 5.49618,-3.27482 2.42469,0.3874 3.65496,0.39231 4.03103,0.0158 0.66982,-0.66977 9.25229,-0.69268 13.78999,-0.037 1.88201,0.27205 3.58353,0.28784 3.88849,0.0365 0.31272,-0.25808 1.41972,-0.13626 2.61593,0.28804 1.14062,0.40454 2.89041,0.6168 3.88849,0.47167 3.03384,-0.44113 20.7915,-0.81887 22.59448,-0.4806 1.21877,0.22868 1.86065,0.73277 2.30814,1.813 1.2098,2.92063 0.74214,3.11278 -6.664,2.73796 -4.78646,-0.24227 -6.78158,-0.16966 -7.045,0.25644 -0.22158,0.3587 -1.84541,0.59184 -4.09543,0.58814 -3.03011,-0.004 -4.15758,-0.25174 -6.02077,-1.31679 -2.1922,-1.25301 -2.37911,-1.27594 -4.26008,-0.52329 -1.08205,0.43297 -3.55007,0.89004 -5.48423,1.01567 -1.93416,0.12566 -4.68322,0.35773 -6.10907,0.51563 -1.64699,0.18252 -3.25378,0.023 -4.40681,-0.43716 z m 93.58105,-0.007 c -1.7468,-0.46942 -4.15923,-0.60296 -7.39642,-0.4095 -3.77539,0.22572 -5.16299,0.11131 -6.48067,-0.53462 -0.92203,-0.45195 -2.08477,-0.94592 -2.58381,-1.09771 -1.3265,-0.40354 -1.1082,-1.3455 0.31168,-1.3455 0.67027,0 2.31591,-0.58328 3.6566,-1.29613 2.78686,-1.48183 3.40842,-1.53241 6.27118,-0.50991 1.68703,0.6025 2.99216,0.63861 6.99749,0.19367 2.70813,-0.30081 5.15776,-0.73181 5.44374,-0.95781 0.28613,-0.22599 3.13873,-0.2161 6.33917,0.0217 6.39804,0.4759 8.02486,1.13444 8.88294,3.59564 0.45795,1.31376 0.38325,1.54778 -0.60931,1.90852 -0.62216,0.22609 -3.69769,0.41996 -6.83418,0.43073 -3.13679,0.012 -6.98613,0.17205 -8.55453,0.35843 -1.80626,0.2146 -3.80197,0.0834 -5.44373,-0.35777 z m -37.93119,-0.81532 c -1.54031,-0.59232 -2.06445,-2.46031 -0.99151,-3.53332 0.78203,-0.78196 0.98792,-0.76785 2.73173,0.18742 1.80731,0.99009 3.23944,2.56639 2.73233,3.00767 -0.58959,0.51311 -3.45415,0.72979 -4.4724,0.33823 z m 65.68836,-0.82029 c -1.78759,-1.50411 -2.08193,-3.51785 -0.62799,-4.29597 1.73544,-0.92875 6.10519,-1.23332 8.12616,-0.56632 1.14914,0.37924 4.4464,0.61098 8.14962,0.57276 6.75305,-0.0698 9.37526,0.40042 11.48348,2.05873 3.58847,2.82268 0.77755,3.5326 -14.0404,3.54591 -11.51575,0.0105 -11.51575,0.0105 -13.09087,-1.31511 z m 59.60244,1.21537 c -0.14194,-0.14269 -5.20706,-0.36853 -11.25413,-0.50208 -9.10318,-0.20098 -11.22171,-0.39134 -12.31333,-1.10665 -2.97348,-1.94822 -0.75543,-4.49593 3.01905,-3.4679 1.30483,0.35532 3.96858,0.46381 6.80923,0.27728 7.61233,-0.50001 20.74026,-0.20371 23.01882,0.51947 0.5712,0.18132 1.95896,0.0817 3.08389,-0.2212 1.3767,-0.37068 3.18162,-0.38995 5.51964,-0.0587 1.9107,0.27061 3.97635,0.30657 4.59029,0.0799 1.71631,-0.6336 2.41228,-0.11983 2.41228,1.78038 0,2.19205 -0.89768,2.51913 -6.48067,2.3609 -7.63817,-0.21648 -9.82678,-0.18392 -13.99826,0.20814 -2.28125,0.21441 -4.26427,0.2732 -4.40681,0.13058 z m -260.00483,-9.29975 c -9.8099,-1.16825 -9.9242,-1.19731 -10.96965,-2.79275 -0.739,-1.12797 -0.76081,-1.40141 -0.14194,-1.78385 0.40207,-0.24847 1.43347,-0.34135 2.29201,-0.20646 0.85868,0.13492 7.16064,0.31652 14.00409,0.40363 9.28441,0.11803 13.42989,-0.0321 16.33136,-0.59279 3.72981,-0.72053 16.6505,-1.2506 18.03542,-0.73994 0.68461,0.25241 2.18428,2.78153 2.18428,3.68359 0,0.60312 -2.84887,1.60362 -4.66604,1.63883 -0.71301,0.0134 -5.26235,-0.13089 -10.10993,-0.32148 -10.66499,-0.41938 -15.80886,-0.33956 -16.55219,0.25682 -0.7892,0.63314 -6.72884,0.89247 -10.40741,0.4544 z m 65.06591,-0.89288 c -0.42763,-0.23542 -2.64403,-0.61425 -4.92527,-0.84199 -2.28125,-0.22777 -4.26427,-0.45059 -4.40681,-0.49525 -3.65675,-1.14592 -4.00473,-2.63226 -1.07085,-4.57377 1.74127,-1.15237 2.26437,-1.2716 3.57457,-0.81492 1.04231,0.3634 4.16327,0.37339 9.72907,0.0312 6.28135,-0.38627 10.43938,-0.3282 17.8116,0.24874 6.06067,0.47427 12.04035,0.62872 16.1694,0.41761 7.34233,-0.3754 9.82514,0.13926 10.77989,2.23474 0.31243,0.68552 0.44286,1.44865 0.29001,1.69596 -0.52533,0.84996 -4.66559,1.10568 -8.28976,0.51192 -6.81595,-1.11661 -11.86539,-1.41354 -12.70225,-0.74695 -2.34879,1.87117 -4.47569,2.47534 -8.2953,2.3562 -7.09535,-0.22133 -15.59684,-0.15766 -16.74972,0.12551 -0.62514,0.1535 -1.48681,0.0865 -1.91458,-0.14882 z m 137.6497,-0.0659 c -1.14062,-0.24852 -4.02042,-0.47106 -6.39968,-0.49459 -4.31612,-0.0423 -5.52428,-0.39964 -7.72828,-2.28458 -1.2488,-1.06813 -1.59006,-3.36067 -0.51846,-3.48343 0.3565,-0.0409 2.19518,-0.0182 4.08616,0.0498 2.06609,0.0747 3.57831,-0.10265 3.78943,-0.44427 0.5237,-0.8473 9.40828,-0.70253 12.91352,0.21054 1.64505,0.42844 3.85204,0.64806 4.90466,0.4881 1.07816,-0.16386 3.00201,0.0438 4.40516,0.47503 1.7075,0.52494 3.67647,0.67626 6.25849,0.48095 2.27781,-0.17224 4.18238,-0.0626 4.81739,0.27715 0.70643,0.37812 1.22131,0.3908 1.57333,0.039 0.35216,-0.35205 2.7507,-0.24046 7.33143,0.34124 4.31611,0.54812 7.33247,0.70114 8.24031,0.418 0.78756,-0.24565 3.99831,-0.47732 7.13495,-0.51471 3.13679,-0.0375 6.16973,-0.0937 6.74005,-0.12491 1.75172,-0.0961 7.86349,0.33199 10.07436,0.7055 1.42331,0.24045 2.94868,0.0696 4.76465,-0.53342 1.79237,-0.59534 3.55007,-0.79642 5.34363,-0.61135 1.46993,0.1517 3.0712,0.0529 3.55829,-0.21974 0.76828,-0.43 0.88557,-0.22859 0.88557,1.52073 0,2.75805 -1.28809,3.32625 -6.02062,2.656 -4.11934,-0.58339 -12.05186,-0.49295 -12.44422,0.14179 -0.14941,0.2413 -0.50382,0.29505 -0.78815,0.11923 -0.78233,-0.48353 -16.68084,-0.26268 -17.18227,0.23867 -0.24041,0.24032 -1.52148,0.2343 -2.84723,-0.0134 -1.32575,-0.24766 -3.23645,-0.42347 -4.24633,-0.39057 -6.77546,0.22028 -15.28711,-0.23214 -16.5259,-0.87854 -1.78997,-0.93383 -3.08046,-0.9178 -4.04836,0.0504 -0.4835,0.48345 -1.79371,0.78633 -3.46251,0.80045 -2.67451,0.0226 -8.77402,0.65483 -11.23949,1.16484 -0.71286,0.14747 -2.22926,0.0647 -3.36988,-0.18375 z m -44.06866,-0.56975 c -1.14047,-0.22407 -4.68112,-0.35636 -7.86767,-0.29403 -5.48228,0.10713 -5.86553,0.0462 -7.12001,-1.13228 -1.83181,-1.72095 -2.17292,-3.06727 -1.00182,-3.95467 1.13331,-0.85865 7.09446,-0.97636 12.10116,-0.23887 2.70857,0.39903 3.87041,0.33217 5.92037,-0.34043 2.00154,-0.65675 3.50778,-0.75468 6.99913,-0.45507 4.8029,0.41223 9.60879,0.39648 11.05303,-0.0365 1.77966,-0.53308 4.92586,4.28608 3.63867,5.57329 -0.3069,0.30705 -4.17328,0.49982 -9.52736,0.47512 -4.95591,-0.023 -9.7107,0.15012 -10.56624,0.38447 -0.85539,0.23442 -2.48863,0.24282 -3.62911,0.0187 z m -34.6027,-1.35428 c -3.16443,-1.53091 -2.66599,-3.98522 0.74214,-3.65361 2.84125,0.27637 4.05912,2.7952 1.84197,3.80948 -0.8421,0.38525 -1.55405,0.34236 -2.58411,-0.15587 z m -104.29998,-9.31929 c -0.21396,-0.21384 -3.69395,-0.40805 -7.7335,-0.43143 -12.3462,-0.0719 -13.75442,-0.14224 -14.87966,-0.74436 -0.91038,-0.48718 -0.97851,-0.71154 -0.4206,-1.38377 0.64831,-0.78128 3.32476,-0.75971 7.11852,0.0572 0.68013,0.14657 2.91849,-0.18436 4.97428,-0.73528 4.8023,-1.28692 15.66796,-1.59088 18.54522,-0.51893 1.06935,0.39846 1.94417,0.85974 1.94417,1.02508 0,0.3995 -2.72576,1.45852 -6.11715,2.37656 -3.223,0.87253 -2.94225,0.84347 -3.43113,0.35484 z m 31.84184,-0.17067 c -5.67563,-0.51015 -8.06625,-1.29185 -9.31535,-3.04622 -0.78935,-1.10847 -0.90768,-1.60785 -0.44809,-1.89186 0.34336,-0.2122 3.49046,-0.42768 6.99331,-0.47878 4.31148,-0.0629 6.62903,-0.30864 7.17365,-0.76068 0.64875,-0.53834 2.2678,-0.55154 8.35954,-0.068 4.15534,0.32983 7.94118,0.79997 8.41318,1.04474 0.52355,0.27152 2.07088,0.13746 3.96888,-0.34404 2.59337,-0.65781 3.72234,-0.68667 6.78875,-0.1736 2.60757,0.43629 4.36303,0.46193 6.03064,0.0881 1.29392,-0.28995 4.3049,-0.39128 6.69104,-0.22513 3.82335,0.26624 4.4721,0.45983 5.46421,1.63091 1.12583,1.32878 1.12583,1.32878 -0.0732,2.27156 -1.00137,0.78767 -1.46769,0.84885 -2.83557,0.37204 -1.19635,-0.41704 -2.69811,-0.41286 -5.57881,0.0154 -3.14276,0.46744 -4.16236,0.44935 -5.03015,-0.0894 -0.77606,-0.48171 -3.39468,-0.6701 -9.1244,-0.65652 -6.64113,0.0154 -8.26108,0.17015 -9.33222,0.88938 -0.9576,0.64299 -2.88802,0.94016 -7.3906,1.13752 -3.3518,0.14702 -6.2682,0.34964 -6.48067,0.45036 -0.21231,0.10086 -2.13601,0.0258 -4.27472,-0.16625 z m 61.26482,-1.88571 c -1.46844,-0.27968 -2.88802,-3.15921 -2.05324,-4.16505 0.72585,-0.87488 2.23433,-0.81547 4.31028,0.16966 2.25913,1.07201 2.702,2.28679 1.25926,3.45499 -1.13898,0.92233 -1.34472,0.95398 -3.5163,0.5404 z m 52.75198,0.16103 c -0.2059,-0.20055 -2.81929,-0.40873 -14.0041,-1.11538 -2.73576,-0.17284 -7.68553,-0.0471 -10.99953,0.2792 -5.33242,0.52523 -6.23324,0.49478 -7.83361,-0.26464 -2.71021,-1.28614 -3.23256,-2.12026 -2.10643,-3.36458 1.00809,-1.11383 3.82096,-1.39692 4.74075,-0.47715 0.88617,0.8862 5.35334,0.75381 8.95361,-0.26533 2.56872,-0.7271 3.69918,-0.82152 4.92527,-0.4113 0.87526,0.29288 4.39097,0.59311 7.81269,0.66722 12.39012,0.26835 12.7021,0.32612 12.7021,2.35306 0,1.4657 -3.27126,3.49447 -4.19075,2.5989 z M 311.1864,335.36944 c -0.49292,-0.37448 -1.74291,-0.68831 -2.77715,-0.69739 -2.28678,-0.0202 -3.60296,-1.25281 -2.48161,-2.32462 0.89035,-0.85097 15.62642,-2.91754 17.84223,-2.50215 3.69799,0.6934 6.09563,4.42482 3.24033,5.04321 -6.42792,1.39203 -14.3086,1.63157 -15.82365,0.48095 z m 47.06051,0.31426 c -2.13855,-0.22855 -5.75481,-0.2927 -8.03606,-0.14254 -5.6934,0.37482 -8.33399,-0.38818 -9.45116,-2.73093 -0.58376,-1.22408 -0.687,-1.96296 -0.32482,-2.3251 0.97866,-0.97866 37.47339,-1.50259 50.3621,-0.72302 4.75614,0.28765 6.16093,0.56349 7.51402,1.47535 2.19578,1.47967 2.39495,2.66506 0.53086,3.15841 -0.79846,0.21133 -6.11774,0.48622 -11.82071,0.61092 -13.76891,0.30107 -20.86606,0.56371 -23.07126,0.85375 -0.99808,0.13134 -3.56441,0.0519 -5.70297,-0.1769 z m 206.34472,-0.0393 c -0.99793,-0.25325 -6.83059,-0.41649 -12.96133,-0.36274 -6.1306,0.0538 -12.66326,0.0675 -14.51674,0.0306 -1.85347,-0.0371 -6.16958,-0.12551 -9.59145,-0.19699 -3.42173,-0.0716 -11.47064,-0.009 -17.88661,0.13865 -10.49885,0.24189 -11.8984,0.1738 -13.99826,-0.6812 -1.91399,-0.77936 -2.84514,-0.86494 -5.18451,-0.47629 -4.09946,0.68106 -11.06766,0.45075 -12.09085,-0.39965 -0.77605,-0.64503 -0.77501,-0.76624 0.0149,-1.55535 1.10551,-1.10711 9.9771,-1.77886 12.47963,-0.9448 1.29123,0.43032 2.09836,0.40262 3.37002,-0.11565 0.91964,-0.37476 3.42187,-0.75021 5.56043,-0.8343 2.13871,-0.0841 5.90886,-0.29356 8.37822,-0.46548 3.29741,-0.22959 5.35753,-0.0904 7.75666,0.52432 2.63297,0.67447 3.77359,0.72735 5.87928,0.27204 3.0815,-0.66626 14.34296,-0.92645 16.691,-0.38567 0.96058,0.22126 1.7686,0.16166 1.95776,-0.14448 0.20425,-0.33049 3.30578,-0.43322 8.47415,-0.2806 7.58199,0.22373 17.63618,0.23729 32.37629,0.0436 5.67891,-0.0747 6.15539,-0.004 7.25119,1.09381 2.3328,2.33443 -0.60244,4.01854 -6.11998,3.51128 -2.14319,-0.19709 -4.81142,0.0436 -8.29515,0.74771 -5.55774,1.12349 -6.77098,1.18466 -9.5426,0.48133 z m -133.50467,-2.43522 c -1.38462,-1.49337 -1.62278,-2.43683 -0.75095,-2.97564 1.4251,-0.88078 13.70959,-1.03498 15.90657,-0.19964 1.10238,0.41905 2.58082,0.37795 6.8814,-0.1916 0.42777,-0.0566 3.6418,0.0768 7.14227,0.29654 4.86416,0.30524 6.85016,0.65262 8.42483,1.47334 1.13316,0.59067 2.06042,1.23269 2.06042,1.42685 0,0.78708 -4.74523,1.73726 -6.63352,1.32826 -1.0565,-0.22883 -3.32087,-0.39048 -5.0318,-0.35916 -1.71094,0.0312 -8.41961,0.17811 -14.9082,0.32632 -11.7977,0.26958 -11.7977,0.26958 -13.09102,-1.12527 z m -20.10674,-0.11519 c -2.0259,-1.5935 -1.88321,-3.10477 0.29285,-3.10477 2.07655,0 4.00383,1.26188 4.00383,2.62165 0,0.55419 -0.17511,1.01074 -0.38892,1.01462 -0.21381,0.004 -0.86421,0.13478 -1.44513,0.29093 -0.64337,0.17284 -1.60619,-0.14867 -2.46263,-0.82243 z M 295.09231,332.7111 c 0.30466,-1.59777 5.08768,-1.46662 5.08768,0.13955 0,0.57719 -0.65293,0.76778 -2.63027,0.76778 -2.22522,0 -2.60369,-0.1397 -2.45741,-0.90729 z m 58.96893,-7.86824 c -0.44884,-0.2782 -4.18164,-0.62207 -8.29529,-0.76422 -10.86865,-0.3756 -13.17575,-0.72309 -14.80137,-2.22966 -1.22534,-1.13569 -1.28914,-1.35763 -0.59033,-2.05636 0.67176,-0.67184 1.45768,-0.70129 5.52576,-0.20666 3.53528,0.42985 5.02463,0.42582 5.84985,-0.0154 0.66369,-0.35521 4.04746,-0.61555 8.45113,-0.65013 6.34216,-0.0498 7.54434,0.0737 8.81212,0.90423 1.17857,0.77225 2.11779,0.90979 4.76286,0.69743 1.81208,-0.14538 3.62567,-0.5391 4.03013,-0.87477 0.56986,-0.47294 1.07324,-0.43562 2.23612,0.16571 2.35775,1.21925 2.90804,2.11286 2.10315,3.41537 -0.85166,1.37803 -2.64417,1.85182 -4.75105,1.25581 -1.5288,-0.4324 -5.68967,-0.219 -10.44357,0.53568 -1.14062,0.18104 -2.44097,0.1016 -2.88966,-0.17657 z m 75.47316,-0.66068 c -5.63782,-0.5543 -6.97851,-0.91747 -7.71422,-2.08967 -0.42718,-0.68034 -0.37742,-1.07464 0.20544,-1.62955 0.62231,-0.59237 1.55973,-0.63986 4.9166,-0.2491 4.76585,0.55486 3.85368,0.54218 16.20571,0.22437 5.20631,-0.13402 9.65077,-0.35777 9.87669,-0.49734 0.22591,-0.1397 4.03162,0.0269 8.45741,0.36988 5.9743,0.46308 8.40167,0.8562 9.42471,1.52654 1.15302,0.7555 1.76398,0.81644 3.74102,0.37339 2.02321,-0.4534 2.67719,-0.37569 4.54755,0.54063 2.18458,1.07024 2.18458,1.07024 -2.81166,0.82916 -3.40215,-0.16415 -5.18869,-0.0487 -5.59958,0.36196 -0.59317,0.59297 -6.77128,0.67457 -27.15608,0.35877 -4.22482,-0.0654 -7.82165,0.0212 -7.99288,0.19223 -0.17108,0.17116 -0.56389,0.2744 -0.87287,0.22935 -0.30899,-0.0451 -2.66136,-0.28832 -5.22769,-0.54062 z m 71.28749,0.15049 c -0.99808,-0.19454 -5.26459,-0.32953 -9.48134,-0.30005 -5.80308,0.0403 -7.80597,-0.11416 -8.23957,-0.6366 -0.31496,-0.3796 -0.42269,-0.84028 -0.23921,-1.02373 0.57838,-0.57844 6.10669,-1.28734 11.22022,-1.43881 2.70887,-0.0802 8.36059,-0.30327 12.55926,-0.49559 4.93095,-0.2259 8.77148,-0.14344 10.84668,0.23286 1.76697,0.32042 3.63927,0.61469 4.16088,0.65403 1.19949,0.0904 1.21876,0.71179 0.0403,1.31845 -2.01275,1.03652 -17.70089,2.30673 -20.86786,1.68944 z m -114.06596,-1.50239 c -1.0571,-0.85605 -1.15033,-1.14539 -0.58719,-1.82375 0.71061,-0.85644 1.39702,-0.75641 4.09274,0.5962 1.76427,0.88529 2.13048,1.42873 1.03693,1.53937 -0.35636,0.0365 -1.24148,0.20961 -1.96703,0.38562 -0.90321,0.21922 -1.71482,0 -2.57545,-0.69744 z m 158.48379,0.26373 c -2.37836,-0.5813 -2.82765,-1.44638 -1.59768,-3.07675 0.87034,-1.15394 1.22863,-1.21475 7.3274,-1.24408 4.11306,-0.0197 6.62679,-0.24529 7.01034,-0.62887 0.32886,-0.3289 1.13121,-0.59801 1.78295,-0.59801 0.65174,0 2.20998,-0.27411 3.46266,-0.60917 1.90801,-0.51034 2.7395,-0.4639 5.12354,0.28597 1.56526,0.49234 4.3339,0.90221 6.15271,0.91091 3.63269,0.0178 4.60687,0.49712 4.60687,2.26844 0,1.61274 -1.5938,1.90655 -11.66517,2.15016 -4.56235,0.11042 -8.64522,0.32795 -9.073,0.48349 -1.40433,0.51073 -11.10307,0.55352 -13.13062,0.058 z M 378.7375,322.77582 c -1.00212,-0.39158 -0.99988,-0.41419 0.0956,-1.00046 1.61336,-0.86353 2.22596,-0.74334 2.22596,0.43696 0,1.08588 -0.60722,1.23327 -2.32159,0.5635 z m 22.04344,-0.2793 c -1.16602,-1.40481 -0.43061,-2.60404 1.70466,-2.78027 2.30859,-0.19046 3.45908,0.57463 3.45908,2.30039 0,1.11017 -0.22562,1.23265 -2.26959,1.23265 -1.35145,0 -2.52226,-0.30452 -2.89415,-0.75277 z m 125.54885,0.13059 c -1.31216,-1.31209 -1.20712,-1.33614 7.107,-1.63009 1.42182,-0.0503 2.36836,0.16285 2.50477,0.56413 0.34381,1.01025 -2.13691,1.70754 -4.08616,1.14856 -1.09431,-0.31388 -1.88186,-0.30452 -2.21267,0.0258 -0.70568,0.70578 -2.5593,0.64499 -3.31294,-0.10863 z m -90.01679,-7.0921 c -0.15061,-0.24357 -4.53695,-0.40419 -9.7476,-0.35688 -5.21065,0.0471 -10.2435,-0.11461 -11.1845,-0.35975 -3.38108,-0.88093 -6.54462,-6.07281 -3.47372,-5.70111 0.57016,0.069 2.78641,0.23963 4.92497,0.37918 2.13871,0.13955 5.75497,0.3983 8.03606,0.57512 5.10607,0.39562 9.04595,0.45132 14.77597,0.20876 4.19867,-0.17768 10.9187,-0.14134 17.10905,0.0925 3.08271,0.11639 4.9438,0.1019 7.77683,-0.061 4.94126,-0.28405 12.84883,0.35705 13.95419,1.13122 1.76174,1.234 0.7021,1.54028 -7.36041,2.12774 -5.45599,0.39759 -7.99587,0.37128 -10.30999,-0.10668 -3.04938,-0.62991 -5.66308,-0.23969 -7.53897,1.12546 -0.34469,0.25088 -1.31095,0.30586 -2.14707,0.12222 -0.83612,-0.18364 -2.88697,0.012 -4.55756,0.43297 -3.34,0.84319 -9.82485,1.08987 -10.25725,0.39022 z m -84.80598,-0.5473 c -0.4971,-0.35033 -2.86919,-0.4437 -6.57376,-0.25869 -4.72834,0.23607 -6.09413,0.13522 -7.4136,-0.54704 -1.23999,-0.64119 -3.1217,-0.83262 -8.06191,-0.82008 -5.95503,0.0149 -6.524,-0.069 -7.4919,-1.10817 -0.57614,-0.6184 -1.04754,-1.56592 -1.04754,-2.1056 0,-0.90754 0.32094,-0.95873 4.27726,-0.6814 2.35237,0.16491 5.09381,0.46995 6.09175,0.67778 0.99808,0.20785 2.86455,0.30871 4.14772,0.22404 5.51456,-0.36374 18.20261,0 23.14925,0.66507 2.42842,0.32606 4.05942,0.21485 6.84031,-0.46668 2.00827,-0.49214 3.87594,-0.75608 4.15026,-0.58647 0.27447,0.16959 3.23182,0.3255 6.57211,0.34645 5.67936,0.0356 6.153,0.11789 7.30707,1.27211 2.90759,2.90759 1.08161,3.5145 -10.13144,3.36715 -5.01253,-0.0659 -9.69679,-0.12879 -10.40965,-0.13985 -0.71285,-0.012 -3.39587,0.14404 -5.9622,0.34467 -3.02742,0.2367 -4.93917,0.17235 -5.44373,-0.18326 z m 40.42968,-1.51886 c -2.40302,-2.40316 -2.08372,-3.18093 1.30588,-3.18093 3.22464,0 5.11129,1.27876 4.82755,3.27222 -0.13298,0.93389 -0.55313,1.16292 -2.37463,1.29455 -1.87783,0.13567 -2.4471,-0.0743 -3.7588,-1.38584 z m 116.14819,0.11729 c -1.10088,-0.46289 -2.51703,-0.63549 -3.64734,-0.44454 -1.01616,0.17172 -2.45591,0.081 -3.1991,-0.20165 -0.86824,-0.33007 -2.52897,-0.34239 -4.64287,-0.0342 -1.8103,0.26368 -5.75109,0.61727 -8.75759,0.78578 -4.90794,0.27498 -5.593,0.20352 -6.70882,-0.69993 -1.24252,-1.00623 -1.24252,-1.00623 -0.14493,-1.59376 0.60378,-0.32311 2.22298,-0.58103 3.59818,-0.57311 1.3752,0.007 3.93481,-0.12909 5.68818,-0.30448 2.05249,-0.20538 4.2683,-0.055 6.22143,0.42217 3.48747,0.85208 7.92326,0.83796 10.55114,-0.0336 1.52925,-0.50721 9.98547,-0.84866 14.51673,-0.58616 0.71286,0.0412 3.16249,-0.0719 5.44374,-0.25145 4.80918,-0.3786 3.89447,-0.38082 9.9644,0.0241 3.74714,0.2497 5.22888,0.1388 6.85883,-0.51342 1.3495,-0.53992 2.85604,-0.73042 4.2931,-0.5428 1.86946,0.24405 11.80323,-0.65091 18.62949,-1.67835 1.63294,-0.24577 2.02157,-0.0979 2.77895,1.05795 1.24879,1.90601 0.64143,3.77261 -1.57064,4.82751 -1.52342,0.72645 -2.18592,0.763 -4.4328,0.24435 -3.45624,-0.79781 -4.40278,-0.76937 -5.33273,0.16053 -0.66504,0.66503 -1.92609,0.69437 -9.22465,0.21462 -4.6499,-0.30571 -8.51896,-0.3607 -8.598,-0.12237 -0.16316,0.49271 -13.00153,0 -15.56816,-0.59957 -1.06547,-0.24819 -1.94745,-0.17317 -2.40242,0.20443 -0.46064,0.38226 -2.66031,0.55845 -6.12252,0.49041 -2.97199,-0.0584 -5.62602,0.0312 -5.89781,0.19929 -0.27193,0.16804 -1.30408,-0.0351 -2.29394,-0.45122 z M 317.09153,303.21472 c -5.53922,-0.70326 -7.77728,-1.91773 -7.47128,-4.05454 0.14642,-1.01983 0.42687,-1.04954 8.21805,-0.86908 4.9813,0.11534 9.20522,-0.0493 11.04301,-0.43091 2.21132,-0.45909 3.15696,-0.4677 3.68021,-0.0332 0.38742,0.32148 1.71736,0.57139 2.9554,0.55529 1.23804,-0.0164 5.98386,0.0792 10.54636,0.21159 15.01502,0.4359 18.54223,0.28771 19.21907,-0.80755 0.55777,-0.90245 3.12708,-0.40905 6.44436,1.23755 3.38721,1.68132 4.49691,3.16249 2.75146,3.67239 -0.51533,0.1505 -3.50316,0.40564 -6.6398,0.56705 -3.13664,0.16131 -6.86959,0.42437 -8.29529,0.58448 -1.745,0.19599 -3.20627,0.0317 -4.47076,-0.50218 -1.03304,-0.43629 -2.01349,-0.658 -2.1789,-0.49269 -0.28627,0.28634 -8.36641,0.5861 -23.67997,0.87852 -3.84949,0.0735 -9.30428,-0.15896 -12.12192,-0.51663 z m 63.42041,-0.27829 c -0.83986,-0.51068 -1.52686,-1.37004 -1.52686,-1.90957 0,-1.01789 1.185,-2.34245 1.66566,-1.86178 0.15076,0.15073 0.86914,0.004 1.59619,-0.32829 1.11716,-0.50895 1.55988,-0.43308 2.85559,0.48953 1.70272,1.21248 2.38748,2.89294 1.47621,3.62273 -1.18769,0.95111 -4.49347,0.94424 -6.06679,-0.0134 z m 130.57332,-0.0632 c -4.0007,-0.94187 -4.75315,-0.98293 -6.63367,-0.36228 -1.74365,0.57545 -3.2478,0.58847 -8.44889,0.0729 -6.82686,-0.6765 -11.7714,-1.57914 -11.7714,-2.14883 0,-0.19555 0.49112,-0.80002 1.09146,-1.34324 0.97194,-0.87954 2.00782,-0.99411 9.46177,-1.04685 6.33619,-0.0445 8.7277,0.12162 9.84083,0.68457 1.15228,0.58275 1.99348,0.6288 3.88834,0.21278 6.0774,-1.3344 8.45667,-1.66086 9.5426,-1.30937 0.64383,0.20841 3.5036,0.42533 6.35516,0.48208 2.85156,0.0568 6.87288,0.28372 8.93643,0.50421 2.62879,0.28097 3.96992,0.22013 4.47987,-0.2031 1.01482,-0.84221 2.79583,-0.85624 9.65496,-0.0763 3.27918,0.37289 6.89544,0.70574 8.03606,0.73964 1.84257,0.0548 2.07387,0.20425 2.07387,1.34114 0,1.1875 -0.26088,1.31789 -3.62926,1.81458 -1.99602,0.29427 -5.37889,0.47725 -7.51745,0.40651 -2.13871,-0.0707 -7.55779,-0.12042 -12.04259,-0.11041 -6.75902,0.0149 -8.44426,-0.13537 -9.85069,-0.87965 -2.59158,-1.37166 -3.11184,-1.31648 -5.83386,0.61879 -1.38924,0.98772 -2.65971,1.76636 -2.82347,1.7304 -0.1636,-0.036 -2.32816,-0.54348 -4.81007,-1.12782 z m -105.23367,-0.0249 c -4.73626,-0.81557 -7.67762,-3.56616 -5.2604,-4.91896 0.5219,-0.29208 1.40045,-0.30101 2.2034,-0.0221 0.75125,0.26064 3.88715,0.28685 7.16872,0.0599 3.20821,-0.22187 6.24115,-0.25351 6.7399,-0.0702 1.14391,0.4203 20.15769,0.18912 23.9779,-0.29153 1.57392,-0.19806 3.4401,-0.13328 4.16535,0.14448 0.74035,0.28357 2.81794,0.34764 4.75927,0.14673 1.97809,-0.20473 6.38609,-0.0593 10.35123,0.34161 3.79839,0.38401 8.04667,0.57658 9.4407,0.4279 2.0123,-0.21467 2.84021,-0.0528 4.01788,0.78594 1.86693,1.32926 1.85557,1.60482 -0.1016,2.47096 -1.08504,0.48032 -3.25079,0.65268 -6.86944,0.54687 -7.07354,-0.20692 -13.20503,0.0236 -14.58397,0.54766 -0.62006,0.23573 -2.1644,0.22561 -3.43173,-0.022 -2.00662,-0.39277 -12.8554,-0.69955 -16.56175,-0.46832 -0.713,0.0447 -4.32911,0.19723 -8.03607,0.33944 -3.70695,0.14224 -8.48968,0.33067 -10.62838,0.4187 -2.13856,0.088 -5.44673,-0.10832 -7.35145,-0.43618 z m 72.35998,-0.87342 c -2.3065,-0.87216 -1.85019,-3.48892 0.50547,-2.89772 1.82703,0.45858 2.74204,2.18309 1.50295,2.83254 -0.50263,0.26345 -1.40643,0.29275 -2.00827,0.0653 z m -125.92686,-9.38006 c -3.29367,-0.47407 -21.28726,-0.65521 -21.9892,-0.22137 -0.22726,0.14045 -2.9551,-0.0804 -6.06186,-0.49085 -5.56656,-0.73551 -10.76675,-0.57747 -11.96325,0.36354 -0.71973,0.56609 -8.73308,0.0644 -10.02641,-0.62781 -1.5394,-0.82382 -4.13786,-4.1346 -4.13786,-5.27226 0,-1.04603 0.153,-1.07556 3.49957,-0.67593 1.9249,0.22985 5.82833,0.47735 8.67451,0.55001 2.84618,0.0728 6.06559,0.4261 7.15437,0.78547 1.57497,0.51979 2.48624,0.52339 4.45895,0.0178 2.7277,-0.69911 16.0282,-0.0297 21.15189,1.06457 2.396,0.51174 2.94614,0.45093 5.10562,-0.56411 2.0244,-0.95162 2.98408,-1.08778 5.86911,-0.83249 1.89696,0.16785 6.96477,0.38221 11.26176,0.47641 7.89696,0.17315 9.14934,0.44323 11.28625,2.43411 1.4668,1.36649 0.42329,2.34995 -2.91281,2.74522 -2.41617,0.28626 -8.2442,0.37161 -11.77933,0.17241 -0.71285,-0.0399 -2.46263,0.0611 -3.88834,0.22497 -1.4257,0.16385 -3.99203,0.0965 -5.70297,-0.14973 z m 145.42639,0.0767 c -1.28317,-0.20295 -3.99966,-0.84989 -6.03646,-1.4377 -2.63775,-0.7612 -3.86369,-0.90863 -4.26008,-0.51236 -0.39625,0.39634 -1.34473,0.38576 -3.29547,-0.0371 -2.56962,-0.55645 -30.69016,-0.57571 -31.24449,-0.0212 -0.12102,0.12073 -5.60988,0.17047 -12.19827,0.11042 -8.36687,-0.0762 -12.20321,-0.29544 -12.72347,-0.72721 -0.58212,-0.4831 -1.11343,-0.44578 -2.43305,0.17091 -0.99629,0.46555 -4.23917,0.95361 -7.90981,1.1904 -7.47203,0.48196 -6.94624,0.48263 -11.23949,-0.0149 -2.74428,-0.31787 -3.8093,-0.22802 -5.1346,0.43311 -0.91964,0.45871 -2.57694,0.83406 -3.6829,0.83406 -3.42934,0 -7.68046,-2.33718 -7.68046,-4.22263 0,-1.58614 3.35509,-2.25102 11.92456,-2.36311 10.08362,-0.13193 11.80741,-0.30268 13.73903,-1.36177 0.85554,-0.46904 1.90532,-0.75953 2.33309,-0.64553 0.42762,0.11401 1.61442,0.34769 2.637,0.51932 1.02259,0.17163 2.64014,1.00911 3.5943,1.86117 1.73514,1.54908 1.73514,1.54908 2.84035,0.51086 0.60781,-0.57103 1.77459,-1.0382 2.59292,-1.0382 0.81834,0 2.53525,-0.50697 3.81528,-1.12665 2.21715,-1.07336 2.43978,-1.08839 4.70011,-0.31777 1.30497,0.44487 3.2227,0.69598 4.26142,0.55797 1.18246,-0.15708 3.16174,0.17917 5.29403,0.89941 1.87305,0.63266 3.79899,0.99932 4.27995,0.81476 0.48111,-0.1846 4.04791,-0.42462 7.92654,-0.53349 3.87863,-0.10893 8.47803,-0.3627 10.22094,-0.56422 1.85811,-0.21469 4.65902,-0.1149 6.77098,0.24132 4.59566,0.77513 9.85682,0.98341 11.7723,0.46596 2.01081,-0.54324 4.06599,-0.58309 11.89811,-0.23093 5.20034,0.23383 6.95281,0.50313 8.03606,1.23509 1.17305,0.79261 2.33877,0.9182 7.6068,0.81931 3.42172,-0.0642 6.57136,-0.24231 6.99913,-0.39575 0.42762,-0.15352 3.46072,-0.36887 6.7399,-0.47849 3.27918,-0.10967 6.89544,-0.42117 8.03606,-0.69215 1.31947,-0.3135 2.73382,-0.31076 3.88834,0.007 0.99809,0.27522 3.56262,0.45205 5.69909,0.39302 2.13646,-0.059 4.38335,0.0182 4.99325,0.17087 1.53582,0.38547 3.01562,3.56755 2.23807,4.81254 -0.50831,0.81399 -1.07683,0.88884 -4.55219,0.59937 -2.18413,-0.18187 -5.20676,-0.61382 -6.71659,-0.95988 -2.34759,-0.53814 -3.00112,-0.50788 -4.5108,0.20857 -1.26926,0.6023 -2.61085,0.76092 -4.77242,0.5643 -6.79264,-0.61785 -19.0595,-1.21905 -19.48682,-0.95502 -0.25191,0.1558 -1.97525,0.27446 -3.82947,0.26379 -1.85423,-0.0119 -4.45895,0.31066 -5.78829,0.71405 -2.58172,0.7835 -3.66676,0.81859 -7.34248,0.23733 z"
       id="path11071" />
  </g>
</svg>
